<?xml version="1.0" encoding="utf-8"?>
<!-- Generator: Adobe Illustrator 22.1.0, SVG Export Plug-In . SVG Version: 6.00 Build 0)  -->
<svg version="1.1" id="Layer_1" xmlns="http://www.w3.org/2000/svg" xmlns:xlink="http://www.w3.org/1999/xlink" x="0px" y="0px"
	 viewBox="0 0 100 100" style="enable-background:new 0 0 100 100;" xml:space="preserve">
<style type="text/css">
	.st0{fill:none;}
</style>
<title>action</title>
<g id="Layer_2_1_">
	<g id="black_shapes">
		<path class="st0" d="M82.2,64c-9.7,0.4-12.8-3.2-15.1-6.1l-0.5-0.6c-0.7-0.9-1.3-1.8-1.9-2.7l-11.2,3.2h-0.2
			c-0.4,0-0.8-0.4-0.7-0.8c0-0.3,0.2-0.6,0.5-0.7l10.7-3.1c-0.7-1.2-1.5-2.4-2.3-3.8l-12.7,3.6c-0.1,0-0.1,0-0.2,0
			c-0.4-0.1-0.7-0.5-0.6-0.9c0-0.3,0.2-0.5,0.5-0.6L60.6,48l-2.2-3.9l-14.8,4.2h-0.2c-0.4,0-0.8-0.4-0.8-0.8c0-0.3,0.2-0.6,0.6-0.7
			l14.4-4.1c-1.5-2.8-2.9-5.4-3.8-7.3c-0.5-1.1-1.1-2.1-1.8-3c-6.1,2.6-13.4,5.5-14.3,5.5l0,0c-1.4-0.1-13.1-8.4-14.1-9.4
			c-1.3-1.3-3-8.2-3.5-10.6c-2.8,2.3-9.9,8.1-11.8,9.6c-3.5,3.4-4.8,8.4-3.3,13c2.1,5.9,9.1,9.2,14.5,10.3c6.3,1.3,17.6,7.2,22.6,13
			s20.7,18.4,24,19.3c3.3,0.9,11.5-1,15.8-2.4c9-2.1,14.4-9.8,13.9-12.4C95.3,65.2,90.6,63.7,82.2,64z M8.5,37.4c-0.1,0-0.2,0-0.3,0
			c-0.3,0-0.6-0.2-0.8-0.5c-0.2-0.5-0.3-1.1-0.5-1.6c-0.1-0.4,0.2-0.8,0.6-0.9c0,0,0,0,0,0C8,34.3,8.4,34.5,8.5,35
			c0.1,0.5,0.2,1,0.4,1.4C9.1,36.8,8.9,37.2,8.5,37.4C8.5,37.4,8.5,37.4,8.5,37.4z M12.4,42.3c-0.1,0.2-0.3,0.3-0.6,0.3
			c-0.2,0-0.4-0.1-0.5-0.2c-0.4-0.4-0.8-0.8-1.2-1.2c-0.3-0.3-0.3-0.8,0-1.1c0.3-0.3,0.8-0.3,1.1,0c0.3,0.4,0.7,0.7,1.1,1
			C12.7,41.4,12.7,41.9,12.4,42.3C12.4,42.3,12.4,42.3,12.4,42.3z M17.8,45.5c-0.1,0.3-0.4,0.4-0.7,0.4c-0.1,0-0.2,0-0.4-0.1
			c-0.5-0.2-1-0.5-1.4-0.8c-0.4-0.2-0.6-0.6-0.4-1c0.2-0.4,0.6-0.6,1-0.4c0.1,0,0.1,0.1,0.2,0.1c0.4,0.2,0.9,0.5,1.4,0.7
			C17.8,44.6,18,45.1,17.8,45.5z M23.6,47.8c-0.2,0.4-0.6,0.6-1,0.5l-1.5-0.6c-0.4-0.2-0.6-0.6-0.4-1c0.2-0.4,0.6-0.6,1-0.5
			c0,0,0,0,0,0l1.5,0.6C23.6,47,23.8,47.4,23.6,47.8C23.6,47.8,23.6,47.9,23.6,47.8L23.6,47.8z M29.5,50.1c-0.1,0.3-0.4,0.5-0.7,0.5
			c-0.1,0-0.2,0-0.3-0.1L27,50c-0.4-0.2-0.6-0.6-0.5-1c0.2-0.4,0.6-0.6,1-0.5l0,0l1.5,0.6C29.5,49.2,29.7,49.7,29.5,50.1z
			 M35.1,52.8c-0.1,0.3-0.4,0.4-0.7,0.4c-0.1,0-0.3,0-0.4-0.1c-0.4-0.2-0.9-0.5-1.4-0.7c-0.4-0.2-0.5-0.7-0.3-1.1
			c0.2-0.3,0.6-0.5,1-0.3c0.5,0.2,1,0.5,1.4,0.8C35.2,51.9,35.4,52.4,35.1,52.8C35.2,52.8,35.2,52.8,35.1,52.8L35.1,52.8z
			 M40.4,56.3c-0.2,0.2-0.4,0.3-0.6,0.3c-0.2,0-0.3-0.1-0.5-0.2L38,55.5c-0.3-0.3-0.3-0.8,0-1.1c0.2-0.2,0.5-0.3,0.8-0.2l1.3,0.9
			C40.6,55.4,40.7,55.9,40.4,56.3C40.4,56.3,40.4,56.3,40.4,56.3L40.4,56.3z M45.3,60.2c-0.1,0.2-0.4,0.3-0.6,0.3
			c-0.2,0-0.4-0.1-0.5-0.2l-1.2-1c-0.3-0.4-0.2-0.9,0.2-1.1c0.2-0.2,0.6-0.2,0.8-0.1l1.2,1C45.5,59.4,45.6,59.9,45.3,60.2L45.3,60.2
			z M50,64.3c-0.1,0.2-0.4,0.3-0.6,0.3c-0.2,0-0.4-0.1-0.5-0.2l-1.2-1c-0.3-0.3-0.4-0.8-0.1-1.1c0,0,0,0,0,0
			c0.3-0.3,0.8-0.4,1.1-0.1c0,0,0,0,0.1,0l1.2,1C50.4,63.4,50.4,63.9,50,64.3C50.1,64.3,50.1,64.3,50,64.3L50,64.3z M54.7,68.5
			c-0.2,0.2-0.4,0.3-0.6,0.3c-0.2,0-0.4-0.1-0.5-0.2l-1.2-1c-0.3-0.3-0.2-0.8,0.1-1.1c0.3-0.2,0.6-0.2,0.9-0.1l1.2,1.1
			C55,67.7,55.1,68.2,54.7,68.5L54.7,68.5z M59.4,72.6c-0.1,0.2-0.4,0.3-0.6,0.3c-0.2,0-0.4-0.1-0.5-0.2l-1.2-1
			c-0.3-0.3-0.4-0.8-0.1-1.1c0.3-0.3,0.8-0.4,1.1-0.1c0,0,0,0,0.1,0l1.2,1C59.7,71.8,59.8,72.3,59.4,72.6
			C59.5,72.6,59.5,72.6,59.4,72.6L59.4,72.6z M64.3,76.6c-0.1,0.2-0.4,0.3-0.6,0.3c-0.2,0-0.3-0.1-0.5-0.2l-1.3-1
			c-0.4-0.3-0.4-0.8-0.2-1.1c0,0,0,0,0-0.1c0.3-0.4,0.7-0.4,1.1-0.2c0,0,0.1,0,0.1,0.1l1.2,1c0.4,0.2,0.5,0.7,0.3,1.1
			C64.5,76.5,64.4,76.6,64.3,76.6L64.3,76.6z M69.5,79.1H69h-1.2c-0.4,0-0.8-0.4-0.7-0.8c0-0.4,0.4-0.8,0.8-0.7l0,0
			c0.3,0,0.7,0,1.1,0h0.5c0.4,0,0.8,0.3,0.8,0.8C70.3,78.7,69.9,79.1,69.5,79.1C69.5,79.1,69.5,79.1,69.5,79.1z M75.9,78.3
			c-0.6,0.1-1.1,0.2-1.6,0.3h-0.1c-0.4-0.1-0.7-0.5-0.6-1c0.1-0.2,0.2-0.4,0.4-0.5l1.5-0.3c0.4-0.1,0.8,0.2,0.9,0.6c0,0,0,0,0,0
			C76.5,77.8,76.3,78.2,75.9,78.3z M82,76.4L80.5,77c-0.1,0-0.2,0-0.3,0c-0.4-0.1-0.7-0.5-0.6-0.9c0.1-0.2,0.2-0.4,0.4-0.5l1.5-0.5
			c0.4-0.2,0.8,0,1,0.4c0,0,0,0,0,0C82.7,75.8,82.5,76.3,82,76.4C82,76.5,82,76.5,82,76.4L82,76.4z M87.8,73.6
			c-0.5,0.3-0.9,0.6-1.4,0.8c-0.1,0.1-0.3,0.1-0.4,0.1c-0.4,0-0.8-0.3-0.8-0.8c0-0.3,0.2-0.6,0.4-0.7c0.4-0.3,0.9-0.5,1.3-0.8
			c0.4-0.2,0.8-0.1,1.1,0.2c0,0,0,0,0,0C88.2,72.8,88.1,73.3,87.8,73.6C87.8,73.6,87.8,73.6,87.8,73.6z M92.8,69.5
			c-0.4,0.4-0.8,0.8-1.2,1.2c-0.1,0.1-0.3,0.2-0.5,0.2c-0.2,0-0.4-0.1-0.6-0.3c-0.3-0.3-0.3-0.8,0-1.1c0,0,0,0,0,0l1.1-1.1
			c0.3-0.3,0.8-0.3,1.1,0c0,0,0,0,0,0C93,68.7,93,69.2,92.8,69.5L92.8,69.5z"/>
		<path class="st0" d="M21.5,16.8c0.9,3.9,2.4,9.6,3.3,10.5c4.2,3.2,8.5,6.2,13.1,8.9c1.1-0.2,7.3-2.7,13.1-5.1
			c-1.3-1.1-3-1.3-4.5-0.6c-2.7,1-8.2,2.7-8.2,2.8c-0.2,0.1-0.5,0-0.6-0.1c-0.9-0.5-8.8-5.2-10.2-7.1c-1-1.3-1.7-3.9-2.4-6.8
			c-0.2-0.7-0.4-1.4-0.4-1.6c-0.2-0.5-0.6-0.9-1.1-1.2C22.8,16.4,22.1,16.5,21.5,16.8C21.5,16.8,21.5,16.8,21.5,16.8z"/>
		<path d="M97.5,68c-0.8-4.1-5.9-5.9-15.3-5.5c-8.9,0.4-11.6-2.8-13.9-5.6l-0.5-0.6c-2.4-2.7-9.5-15.4-12.4-21.6
			c-2.5-5.3-5.5-7.1-9.4-5.7c-2.4,0.8-6.6,2.2-7.9,2.6c-3.4-2-8.6-5.3-9.4-6.5s-1.7-4.3-2.2-6.2c-0.2-0.9-0.4-1.5-0.5-1.8
			c-0.3-1-1.1-1.8-2.1-2.2c-1.2-0.3-2.5-0.2-3.6,0.5l-0.1,0.1c-0.1,0.1-10.6,8.7-12.9,10.6C3.3,30,1.8,35.7,3.5,41
			c2.4,6.5,9.6,10.1,15.7,11.3s16.9,6.9,21.7,12.5s21,18.8,24.9,19.8c0.9,0.2,1.7,0.3,2.6,0.3c5.2,0,13-2.4,14-2.6
			C92.2,79.9,98.1,71.5,97.5,68z M23.4,16.5c0.5,0.2,0.9,0.7,1.1,1.2c0.1,0.2,0.3,0.9,0.4,1.6c0.7,2.8,1.4,5.5,2.4,6.8
			c1.4,1.8,9.3,6.5,10.2,7.1c0.2,0.1,0.4,0.1,0.6,0.1c0.1,0,5.5-1.8,8.2-2.8c1.5-0.7,3.2-0.4,4.5,0.6c-5.8,2.4-12,4.8-13.1,5.1
			c-4.5-2.7-8.9-5.6-13-8.9c-0.8-0.8-2.4-6.6-3.3-10.5c0,0,0,0,0-0.1C22.1,16.4,22.7,16.3,23.4,16.5z M82,80.7
			C77.7,82,69.5,84,66.2,83S47,69.5,42,63.7S25.8,52,19.5,50.7C14.1,49.6,7,46.3,5,40.4c-1.5-4.6-0.2-9.7,3.3-13
			c1.9-1.6,9-7.4,11.8-9.6c0.6,2.4,2.2,9.3,3.5,10.6c1,0.9,12.7,9.3,14.1,9.4l0,0c1,0,8.2-2.9,14.4-5.4c0.7,0.9,1.3,2,1.8,3
			c0.9,1.9,2.2,4.5,3.8,7.3l-14.4,4.1c-0.4,0.1-0.7,0.6-0.5,1c0.1,0.3,0.4,0.6,0.7,0.6h0.2l14.8-4.2l2.2,3.9l-12.3,3.5
			c-0.4,0.1-0.7,0.6-0.5,1c0.1,0.3,0.4,0.6,0.7,0.6c0.1,0,0.1,0,0.2,0l12.7-3.6c0.8,1.4,1.6,2.6,2.3,3.8l-10.6,3
			c-0.4,0.1-0.7,0.5-0.6,1c0.1,0.4,0.4,0.6,0.8,0.6h0.2l11.1-3.2c0.6,0.9,1.2,1.8,1.9,2.7l0.5,0.6c2.4,2.9,5.5,6.5,15.2,6.1
			c8.4-0.3,13.1,1.2,13.7,4.3C96.4,70.9,91,78.6,82,80.7z"/>
		<path d="M34.8,51.8c-0.5-0.3-0.9-0.5-1.4-0.8c-0.4-0.1-0.9,0.1-1,0.5c-0.1,0.3,0,0.7,0.3,0.9c0.5,0.2,0.9,0.5,1.4,0.7
			c0.1,0.1,0.2,0.1,0.4,0.1c0.3,0,0.6-0.2,0.7-0.4C35.4,52.4,35.2,52,34.8,51.8z"/>
		<path d="M38.9,54.2c-0.4-0.2-0.9-0.1-1.1,0.3c-0.2,0.3-0.1,0.8,0.2,1l1.3,0.9c0.1,0.1,0.3,0.1,0.5,0.2c0.4,0,0.8-0.4,0.8-0.8
			c0-0.3-0.1-0.5-0.3-0.6L38.9,54.2z"/>
		<path d="M29.1,49.1l-1.5-0.6c-0.4-0.2-0.9,0.1-1,0.5c-0.2,0.4,0.1,0.9,0.5,1l0,0l1.5,0.6c0.1,0,0.2,0.1,0.3,0.1
			c0.3,0,0.6-0.2,0.7-0.5C29.6,49.7,29.5,49.2,29.1,49.1z"/>
		<path d="M44,58.1c-0.4-0.2-0.9-0.1-1.1,0.3c-0.1,0.3-0.1,0.6,0.1,0.8l1.2,1c0.1,0.1,0.3,0.2,0.5,0.2c0.2,0,0.5-0.1,0.6-0.3
			c0.3-0.3,0.2-0.8-0.1-1.1L44,58.1z"/>
		<path d="M23.2,46.9l-1.5-0.6c-0.4-0.2-0.9,0-1,0.4c0,0,0,0,0,0c-0.2,0.4,0,0.9,0.4,1l1.5,0.6c0.4,0.2,0.9,0,1-0.5
			C23.8,47.5,23.6,47,23.2,46.9L23.2,46.9z"/>
		<path d="M17.4,44.4c-0.5-0.2-0.9-0.5-1.4-0.7c-0.4-0.3-0.9-0.2-1.1,0.2s-0.2,0.9,0.2,1.1c0,0,0.1,0.1,0.2,0.1
			c0.5,0.3,1,0.5,1.4,0.8c0.1,0.1,0.2,0.1,0.4,0.1c0.4,0,0.8-0.4,0.8-0.8C17.9,44.8,17.7,44.6,17.4,44.4z"/>
		<path d="M53.5,66.3c-0.4-0.2-0.9-0.1-1.1,0.3c-0.2,0.3-0.2,0.6,0.1,0.9l1.2,1c0.1,0.1,0.3,0.2,0.5,0.2c0.2,0,0.4-0.1,0.6-0.3
			c0.3-0.3,0.3-0.8,0-1.1c0,0,0,0-0.1,0L53.5,66.3z"/>
		<path d="M8.5,35c-0.1-0.4-0.5-0.7-0.9-0.6c-0.4,0.1-0.7,0.5-0.6,0.9c0,0,0,0,0,0c0.1,0.6,0.3,1.1,0.5,1.6c0.1,0.3,0.4,0.5,0.8,0.5
			c0.1,0,0.2,0,0.3,0c0.4-0.2,0.6-0.6,0.5-1C8.8,36,8.6,35.5,8.5,35z"/>
		<path d="M11.2,40.1c-0.3-0.3-0.8-0.3-1.1,0c-0.3,0.3-0.3,0.8,0,1.1c0.4,0.4,0.8,0.8,1.2,1.2c0.2,0.1,0.4,0.2,0.6,0.2
			c0.4,0,0.8-0.4,0.8-0.8c0-0.2-0.1-0.4-0.3-0.6C12,40.8,11.6,40.5,11.2,40.1z"/>
		<path d="M69.5,77.5H69c-0.4,0-0.8,0-1.1,0c-0.4,0-0.8,0.3-0.8,0.7c0,0.4,0.3,0.8,0.7,0.8l0,0H69h0.4c0.4,0,0.8-0.4,0.8-0.8
			c0,0,0,0,0,0C70.2,77.8,69.9,77.5,69.5,77.5z"/>
		<path d="M75.6,76.8L74,77c-0.4,0-0.8,0.4-0.7,0.9c0,0.4,0.4,0.8,0.9,0.7l0,0h0.1c0.5-0.1,1-0.2,1.6-0.3c0.4-0.1,0.7-0.5,0.6-0.9
			C76.4,77,76,76.7,75.6,76.8C75.6,76.8,75.6,76.8,75.6,76.8z"/>
		<path d="M48.8,62.2c-0.3-0.3-0.8-0.3-1.1,0c0,0,0,0,0,0.1c-0.3,0.3-0.3,0.8,0,1.1c0,0,0,0,0,0l1.2,1c0.1,0.1,0.3,0.2,0.5,0.2
			c0.2,0,0.5-0.1,0.6-0.3c0.3-0.3,0.2-0.8-0.1-1.1c0,0,0,0,0,0L48.8,62.2z"/>
		<path d="M81.4,75L80,75.5c-0.4,0.1-0.7,0.5-0.7,0.9c0.1,0.4,0.5,0.7,0.9,0.7c0.1,0,0.2,0,0.3,0l1.5-0.6c0.4-0.2,0.6-0.6,0.4-1
			C82.3,75.1,81.9,74.9,81.4,75C81.5,75,81.5,75,81.4,75z"/>
		<path d="M58.2,70.5c-0.3-0.3-0.8-0.3-1.1,0c-0.3,0.3-0.3,0.8,0,1.1c0,0,0,0,0.1,0l1.2,1c0.1,0.1,0.3,0.2,0.5,0.2
			c0.2,0,0.5-0.1,0.6-0.3c0.3-0.3,0.3-0.8,0-1.1c0,0,0,0-0.1,0L58.2,70.5z"/>
		<path d="M63,74.6c-0.3-0.3-0.8-0.3-1.1,0c0,0,0,0-0.1,0.1c-0.3,0.3-0.3,0.8,0.1,1.1c0,0,0,0,0.1,0l1.3,1c0.1,0.1,0.3,0.2,0.5,0.2
			c0.2,0,0.5-0.1,0.6-0.3c0.3-0.3,0.2-0.8-0.1-1.1c0,0,0,0,0,0L63,74.6z"/>
		<path d="M91.6,68.3l-1.1,1.1c-0.3,0.3-0.3,0.8,0,1.1c0,0,0,0,0,0c0.1,0.2,0.4,0.3,0.6,0.3c0.2,0,0.4-0.1,0.5-0.2
			c0.4-0.4,0.8-0.7,1.2-1.2c0.3-0.3,0.3-0.8,0-1.1c0,0,0,0,0,0C92.5,67.9,92,68,91.6,68.3C91.7,68.3,91.6,68.3,91.6,68.3z"/>
		<path d="M86.9,72.2c-0.4,0.3-0.9,0.5-1.3,0.8c-0.4,0.2-0.5,0.7-0.3,1.1c0.1,0.2,0.4,0.4,0.7,0.4c0.1,0,0.3,0,0.4-0.1
			c0.5-0.3,0.9-0.6,1.4-0.8c0.4-0.2,0.5-0.7,0.2-1.1c0,0,0,0,0,0C87.7,72.1,87.2,72,86.9,72.2z"/>
		<path d="M53,83.6H3.2c-0.4,0.1-0.8,0.5-0.7,0.9c0,0.4,0.3,0.7,0.7,0.7H53c0.4-0.1,0.8-0.5,0.7-0.9C53.7,83.9,53.4,83.7,53,83.6z"
			/>
		<path d="M3.2,75.7h39.2c0.4-0.1,0.8-0.5,0.7-0.9c0-0.4-0.3-0.7-0.7-0.7H3.2c-0.4,0.1-0.8,0.5-0.7,0.9C2.6,75.4,2.9,75.7,3.2,75.7z
			"/>
		<path d="M3.2,66.3h27.6c0.4,0.1,0.8-0.3,0.9-0.7c0.1-0.4-0.3-0.8-0.7-0.9c-0.1,0-0.1,0-0.2,0H3.2c-0.4,0.1-0.8,0.5-0.7,0.9
			C2.6,66,2.9,66.2,3.2,66.3z"/>
	</g>
</g>
</svg>
