<?xml version="1.0" encoding="utf-8"?>
<!-- Generator: Adobe Illustrator 22.1.0, SVG Export Plug-In . SVG Version: 6.00 Build 0)  -->
<svg version="1.1" id="Layer_1" xmlns="http://www.w3.org/2000/svg" xmlns:xlink="http://www.w3.org/1999/xlink" x="0px" y="0px"
	 viewBox="0 0 100 100" style="enable-background:new 0 0 100 100;" xml:space="preserve">
<title>analysis</title>
<g id="Layer_2_1_">
	<g id="black_shapes">
		<path d="M23.5,29.5h1.1c0.8,0,1.5,0.6,1.5,1.4c0,0,0,0,0,0c-0.1,0.4,0.2,0.8,0.7,0.8c0.4,0.1,0.8-0.2,0.8-0.7c0-0.1,0-0.1,0-0.2
			c0-1.6-1.3-2.9-2.9-3h-1.1c-1.6,0-3,1.3-3,2.9c0,0,0,0,0,0v15.4c0,1.6,1.3,2.9,2.9,3h1.1c1.6,0,3-1.3,3-3l0,0V34.2
			c-0.1-0.4-0.4-0.7-0.8-0.7c-0.3,0-0.6,0.3-0.7,0.7v12.1c0,0.8-0.6,1.5-1.4,1.5c0,0,0,0,0,0h-1.1c-0.8,0-1.5-0.7-1.5-1.5
			c0,0,0,0,0,0V30.9C22,30.1,22.7,29.5,23.5,29.5z"/>
		<path d="M34.5,21.7h1.1c0.8,0,1.4,0.6,1.5,1.4c0,0,0,0,0,0c0.1,0.4,0.4,0.7,0.8,0.7c0.3,0,0.6-0.3,0.7-0.7c0-1.6-1.3-2.9-2.9-2.9
			h-1.1c-1.6,0-3,1.3-3,2.9c0,0,0,0,0,0v23.1c0,1.6,1.3,2.9,2.9,3h1.1c1.6,0,3-1.3,3-3V26.5c-0.1-0.4-0.4-0.7-0.8-0.7
			c-0.3,0-0.6,0.3-0.7,0.7v19.8c0,0.8-0.6,1.5-1.4,1.5c0,0,0,0,0,0h-1.1c-0.8,0-1.5-0.7-1.5-1.5c0,0,0,0,0,0V23.2
			C33.1,22.4,33.7,21.7,34.5,21.7z"/>
		<path d="M45.5,27.3h1.1c0.8,0,1.4,0.6,1.5,1.4c0,0,0,0,0,0c0.1,0.4,0.4,0.7,0.8,0.7c0.3,0,0.6-0.3,0.7-0.7c0-1.6-1.3-2.9-2.9-2.9
			h-1.1c-1.6,0-3,1.3-3,2.9c0,0,0,0,0,0v17.6c0,1.6,1.3,2.9,2.9,3h1.1c1.6,0,3-1.3,3-3l0,0V32c-0.1-0.4-0.4-0.7-0.8-0.7
			c-0.3,0-0.6,0.3-0.7,0.7v14.3c0,0.8-0.6,1.5-1.4,1.5c0,0,0,0,0,0h-1.1c-0.8,0-1.5-0.7-1.5-1.5c0,0,0,0,0,0V28.7
			C44.1,27.9,44.7,27.3,45.5,27.3z"/>
		<path d="M95.6,84.9L95.6,84.9L76.1,65.3c0,0-3.6-2.7-7.4-1.1l0,0l-6.4-6.4c0,0-0.4-0.3-0.7-0.6c11.9-14.1,10-35.2-4.1-47
			s-35.2-10-47,4.1s-10,35.2,4.1,47C26.7,71.5,44.3,71.8,56.7,62l7.1,7.1c0,0,0.1,0.1,0.1,0.1c-0.7,2.3-0.4,4.8,0.8,6.9
			c0,0,0.1,0.1,0.1,0.1C65,76.3,80.4,92,83,94.7c1.6,1.7,3.7,2.6,6,2.7l0,0c2.3-0.1,4.4-1,5.9-2.7C98.5,91.2,96.9,86.7,95.6,84.9z
			 M4.4,35.9c0-17.5,14.2-31.8,31.8-31.8s31.8,14.2,31.8,31.8S53.7,67.6,36.2,67.6c0,0,0,0,0,0C18.6,67.6,4.4,53.4,4.4,35.9z
			 M57.8,61c1-0.9,1.9-1.8,2.8-2.7l0.6,0.6l6,6c-1.1,0.7-2,1.7-2.7,2.8L57.8,61z M93.9,93.6c-1.2,1.4-3,2.2-4.9,2.3l0,0
			c-1.9-0.1-3.7-0.9-5-2.3C81.5,91,66.9,76.1,65.9,75.2c-1.8-3.1-0.9-7,2.2-8.9c2.2-1.3,4.9-1.2,7,0.2l19.3,19.3
			C94.7,86.3,97.2,90.3,93.9,93.6z"/>
		<path d="M36.2,13.6c-12.9,0-23.3,10.4-23.3,23.3s10.4,23.3,23.3,23.3S59.5,49.9,59.5,37c0,0,0,0,0,0C59.5,24.1,49,13.7,36.2,13.6z
			 M36.2,58.8C24.1,58.8,14.3,49,14.3,37s9.8-21.9,21.9-21.9S58,24.9,58,37C58,49,48.2,58.8,36.2,58.8z"/>
	</g>
</g>
</svg>
