<?xml version="1.0" encoding="utf-8"?>
<!-- Generator: Adobe Illustrator 22.1.0, SVG Export Plug-In . SVG Version: 6.00 Build 0)  -->
<svg version="1.1" id="Layer_1" xmlns="http://www.w3.org/2000/svg" xmlns:xlink="http://www.w3.org/1999/xlink" x="0px" y="0px"
	 viewBox="0 0 100 100" style="enable-background:new 0 0 100 100;" xml:space="preserve">
<title>brand</title>
<g id="Layer_2_1_">
	<g id="black_shapes">
		<path d="M97.2,21.8L85.8,10.3c-0.4-0.4-0.9-0.4-1.3,0c-0.4,0.4-0.4,0.9,0,1.3l11.2,11.2l-0.4,20.8L63.1,75.8
			c-0.3,0.3-0.3,0.9,0,1.2c0,0,0,0,0,0c0.3,0.3,0.9,0.3,1.2,0c0,0,0,0,0,0l32.5-32.5c0.2-0.2,0.2-0.4,0.3-0.6l0.4-21.5
			C97.5,22.2,97.4,22,97.2,21.8z"/>
		<path d="M57.5,81.4l-3.3,3.3L15.3,45.8l27-27c0.4-0.4,0.4-0.9,0-1.3c-0.4-0.4-0.9-0.4-1.3,0L13.5,45.2L3.4,55.3
			c-0.4,0.3-0.4,0.9,0,1.2c0,0,0,0,0,0L43,97.1c0.2,0.2,0.4,0.3,0.6,0.3l0,0c0.2,0,0.4-0.1,0.6-0.2l10.5-10.6l3.9-3.9
			c0.4-0.4,0.4-0.9,0-1.3C58.4,81,57.8,81,57.5,81.4L57.5,81.4z M43.6,95.2L5.2,55.9l8.9-8.9l19.4,19.5L53,85.9L43.6,95.2z"/>
		<path d="M49.9,10.9c0.2,0,0.5-0.1,0.6-0.3l6-6l20.9-0.3l1.9,1.9c0.4,0.4,0.9,0.4,1.3,0c0.4-0.4,0.4-0.9,0-1.3l-2.2-2.1
			c-0.2-0.2-0.4-0.3-0.6-0.3l0,0L56,2.9c-0.2,0-0.4,0.1-0.6,0.2l-6.2,6.2c-0.4,0.3-0.4,0.8-0.1,1.2c0,0,0.1,0.1,0.1,0.1
			C49.4,10.8,49.6,10.9,49.9,10.9z"/>
		<path d="M71.6,28.4c-0.7-0.8-1.2-1.8-1.3-2.9c0-0.5-0.5-0.8-0.9-0.8c-0.5,0-0.8,0.4-0.8,0.9c0,0,0,0,0,0c0.1,1.5,0.8,2.9,1.8,3.9
			c2.5,2.5,6.5,2.5,9,0c2.5-2.5,2.5-6.5,0-9c-1.8-1.8-4.6-2.4-7-1.4c-0.4,0.2-0.7,0.7-0.5,1.1s0.7,0.7,1.1,0.5l0,0
			c2.4-1,5.1,0,6.1,2.4c0.8,1.8,0.4,3.9-1.1,5.3C76.3,30.3,73.4,30.2,71.6,28.4z"/>
		<path d="M94.1,53.5c-0.5,0.1-0.7,0.6-0.6,1c1.7,7.2-1.1,16.2-6.9,22c-7.6,7.6-18.3,7.8-27.2,0.7c-6.1-4.8-8.3-14.6-6-26.2
			c0.1-0.5-0.2-0.9-0.7-1c0,0,0,0,0,0c-0.5-0.1-0.9,0.2-1,0.7c-2.4,12.2,0,22.6,6.6,27.9C62.4,82,67.6,83.9,73,84
			c5.6,0,10.9-2.3,14.8-6.4c6.2-6.2,9.2-15.9,7.4-23.6C95,53.6,94.5,53.4,94.1,53.5z"/>
		<path d="M3.9,25.8c11.1-6.9,23.7-10.7,36.8-11c21-0.3,32.8,11,32.9,11.1c0.2,0.2,0.4,0.2,0.6,0.2c0.2,0,0.5-0.1,0.6-0.3
			c0.3-0.3,0.3-0.9,0-1.2c0,0,0,0,0,0c-0.5-0.4-12.1-11.6-33.3-11.6h-0.8c-13.4,0.3-26.4,4.2-37.7,11.3c-0.4,0.3-0.5,0.8-0.2,1.2
			c0,0,0,0,0,0C2.9,26,3.5,26.1,3.9,25.8z"/>
	</g>
</g>
</svg>
