<?xml version="1.0" encoding="utf-8"?>
<!-- Generator: Adobe Illustrator 22.1.0, SVG Export Plug-In . SVG Version: 6.00 Build 0)  -->
<svg version="1.1" id="Layer_1" xmlns="http://www.w3.org/2000/svg" xmlns:xlink="http://www.w3.org/1999/xlink" x="0px" y="0px"
	 viewBox="0 0 100 100" style="enable-background:new 0 0 100 100;" xml:space="preserve">
<title>challenge</title>
<g id="Layer_2_1_">
	<g id="black_shapes">
		<path d="M68.1,6.1c-0.4-0.1-0.8,0.1-0.9,0.5c-0.1,0.3,0,0.7,0.4,0.9c5.2,2.1,9.9,5.2,14,9.1l-8.7,8.6c-3-2.8-6.5-5-10.3-6.6
			c-0.4-0.1-0.8,0-1,0.4c-0.2,0.4,0,0.8,0.4,1c3.9,1.6,7.4,3.9,10.4,6.8c0.1,0.1,0.3,0.2,0.5,0.2c0.2,0,0.4-0.1,0.5-0.2l9.2-9.1
			c17.5,17.6,17.8,46.1,0.7,64.1L74.7,73c0.1-0.4-0.2-0.8-0.6-0.8c-0.2,0-0.5,0.1-0.6,0.2l-0.1,0.1h-0.1v0.1
			c-6.1,6.2-14.4,9.7-23.1,9.7c-8.5,0.1-16.7-3.3-22.7-9.5l8.6-8.6c0.3-0.3,0.3-0.8,0-1c-7.3-7.7-7.1-19.9,0.6-27.2
			s19.9-7.1,27.2,0.6s7.1,19.9-0.6,27.2c-3.6,3.4-8.3,5.3-13.2,5.3c-0.4,0-0.7,0.3-0.7,0.8c0,0.4,0.3,0.7,0.7,0.7
			c11.4,0,20.6-9.2,20.7-20.6h11.7c0,4.3-0.8,8.5-2.5,12.4c-0.2,0.4,0,0.8,0.4,1c0.1,0,0.2,0,0.3,0c0.3,0,0.6-0.2,0.7-0.5
			c3.5-8.5,3.5-18.1-0.2-26.5c-0.2-0.4-0.6-0.6-1-0.4c-0.4,0.2-0.6,0.6-0.4,1c0,0,0,0,0,0c1.6,3.6,2.5,7.5,2.6,11.5H70.6
			c-0.8-11.4-10.7-19.9-22.1-19.1c-10.2,0.8-18.3,8.9-19.1,19.1H17.7c0.2-4,1.1-7.9,2.7-11.6c0.2-0.4,0-0.8-0.4-1
			c-0.4-0.2-0.8,0-1,0.4l0,0c-3.8,8.5-3.8,18.2-0.3,26.8c0.1,0.3,0.4,0.5,0.7,0.5c0.1,0,0.2,0,0.3-0.1c0.4-0.2,0.6-0.6,0.4-1
			c-1.7-3.9-2.5-8.2-2.5-12.5h11.7c0,5,1.7,9.9,5,13.7l-8.6,8.6c-0.3,0.3-0.3,0.8,0,1c6.3,6.7,15,10.5,24.2,10.5
			c8.9,0,17.4-3.5,23.7-9.7l8.6,8.6c-18.1,17.8-47.2,17.6-65-0.5s-17.6-47.2,0.5-65C26.2,9,37.4,4.3,49.2,4v12.1
			c-8.4,0.3-16.5,3.6-22.6,9.5c-0.3,0.3-0.3,0.8,0,1.1c0,0,0,0,0,0c0.3,0.3,0.8,0.3,1.1,0c0,0,0,0,0,0c6-5.7,14-9,22.3-9.1
			c0.4,0,0.7-0.3,0.7-0.7l0-13.6c0-0.4-0.3-0.8-0.8-0.8c0,0,0,0,0,0C23.7,2.5,2.5,23.8,2.5,50.1c0,26.2,21.3,47.5,47.6,47.4
			c26.2,0,47.5-21.3,47.4-47.6C97.5,30.7,85.8,13.4,68.1,6.1z"/>
		<path d="M46.3,50.4c0,0.4,0.3,0.7,0.7,0.7c0,0,0,0,0,0h12.2c0.3,0,0.6-0.2,0.7-0.5c0.1-0.3,0-0.6-0.2-0.8l-4.8-4.3l4.7-4.1
			c0.2-0.2,0.3-0.5,0.2-0.8c-0.1-0.3-0.4-0.5-0.7-0.5H44.5c-0.4,0-0.8,0.3-0.8,0.7c0,0,0,0,0,0v20c0.1,0.4,0.4,0.7,0.8,0.7
			c0.3,0,0.6-0.3,0.7-0.7V41.6h11.9l-3.8,3.3c-0.2,0.1-0.3,0.3-0.3,0.6c0,0.2,0.1,0.4,0.2,0.6l3.9,3.5H47
			C46.6,49.6,46.3,49.9,46.3,50.4C46.3,50.4,46.3,50.4,46.3,50.4z"/>
	</g>
</g>
</svg>
