<?xml version="1.0" encoding="utf-8"?>
<!-- Generator: Adobe Illustrator 22.1.0, SVG Export Plug-In . SVG Version: 6.00 Build 0)  -->
<svg version="1.1" id="Layer_1" xmlns="http://www.w3.org/2000/svg" xmlns:xlink="http://www.w3.org/1999/xlink" x="0px" y="0px"
	 viewBox="0 0 100 100" style="enable-background:new 0 0 100 100;" xml:space="preserve">
<title>channels</title>
<g id="Layer_2_1_">
	<g id="black_shapes">
		<path d="M56.3,74.4L59,61c0-0.4-0.3-0.8-0.7-0.9c-0.4,0-0.8,0.2-0.9,0.6l-2.7,13.5c-5.6-0.4-10.5,3.8-10.9,9.5
			c-0.2,2.2,0.4,4.4,1.6,6.2c3,4.8,9.4,6.2,14.1,3.1c4.8-3,6.2-9.4,3.1-14.1C61.2,76.6,58.9,75,56.3,74.4z M62.5,86.2
			c-0.5,2.2-1.9,4.2-3.8,5.4c-4,2.6-9.4,1.4-11.9-2.6c-2.6-4-1.4-9.4,2.7-11.9c4-2.6,9.4-1.4,11.9,2.7
			C62.5,81.6,62.9,83.9,62.5,86.2z"/>
		<path d="M13,56.7c5.5,1.2,10.9-2.2,12.2-7.7l11.8-0.2c0.4,0,0.8-0.4,0.8-0.8c0-0.4-0.4-0.8-0.8-0.8l0,0l-11.5,0.2
			c0.4-5.6-3.8-10.5-9.5-10.9c-2.2-0.2-4.4,0.4-6.2,1.6c-4.8,3-6.2,9.4-3.1,14.1C8.1,54.5,10.4,56.1,13,56.7L13,56.7z M6.7,44.9
			c0.9-4,4.4-6.8,8.4-6.8c0.6,0,1.3,0.1,1.9,0.2c2.2,0.5,4.2,1.8,5.4,3.7c2.6,4,1.4,9.4-2.6,11.9c-4,2.6-9.4,1.4-11.9-2.7
			C6.7,49.4,6.3,47,6.7,44.9L6.7,44.9z"/>
		<path d="M28.5,21.2c1.5,0,3-0.4,4.2-1.2l0.4-0.3c0,0.2,0.1,0.3,0.2,0.4l10.4,11c0.2,0.2,0.4,0.2,0.6,0.2c0.2,0,0.4-0.1,0.6-0.2
			c0.3-0.3,0.3-0.8,0-1.1c0,0,0,0,0,0L34.4,19c-0.1-0.1-0.2-0.2-0.3-0.2c2.5-2.6,3-6.6,1-9.7c-2.4-3.7-7.2-4.7-10.9-2.3
			c-1.7,1.1-3,2.9-3.4,4.9c-0.4,2-0.1,4.2,1.1,5.9C23.2,19.8,25.7,21.2,28.5,21.2z M22.3,11.9c0.3-1.6,1.3-3.1,2.7-3.9
			c1-0.7,2.2-1,3.4-1c0.5,0,0.9,0,1.4,0.2c1.6,0.3,3.1,1.3,3.9,2.7c1.9,2.9,1,6.8-1.9,8.7c-2.9,1.9-6.8,1-8.7-1.9l0,0
			C22.2,15.3,21.9,13.6,22.3,11.9z"/>
		<path d="M91.1,58.1c-2-0.4-4.1-0.1-5.9,1.1c-0.5,0.3-0.9,0.7-1.3,1.1l-5.1-4.5c-0.3-0.3-0.8-0.3-1.1,0c-0.3,0.3-0.3,0.8,0,1.2
			c0,0,0,0,0,0l5.1,4.6c-0.6,0.8-1,1.7-1.2,2.7c-0.9,4.2,1.8,8.4,6,9.4c4.2,0.9,8.4-1.8,9.4-6C97.9,63.3,95.3,59.1,91.1,58.1
			L91.1,58.1z M95.5,67.2c-0.3,1.6-1.3,3.1-2.7,3.9c-2.9,1.9-6.8,1-8.7-1.9c-1.9-2.9-1-6.8,1.9-8.7c1-0.6,2.2-1,3.3-1
			c0.5,0,0.9,0,1.4,0.2C94.1,60.5,96.2,63.8,95.5,67.2L95.5,67.2z"/>
		<path d="M59.1,34.6c5.5,0,9.9-5.3,9.9-11.7s-4.5-11.7-9.9-11.7s-9.9,5.3-9.9,11.7S53.6,34.6,59.1,34.6z M59.1,12.8
			c4.6,0,8.3,4.5,8.3,10.1S63.7,33,59.1,33s-8.3-4.5-8.3-10.1S54.5,12.8,59.1,12.8z"/>
		<path d="M71.1,40.2c-2.1-0.8-4.1-1.8-5.9-3.1c-0.4-0.2-0.8-0.2-1.1,0.2c0,0,0,0,0,0c-0.2,0.4-0.2,0.8,0.2,1.1c0,0,0,0,0,0
			c0.2,0.1,4.2,2.8,6.4,3.3c1.1,0.2,3,0.9,3.3,2.6c0.3,2,0.4,3.9,0.3,5.9c-0.1,0.3-1,1.2-3.8,2.3c-3.6,1.2-7.4,1.8-11.2,1.9
			c-3.9-0.2-7.8-0.8-11.5-1.9c-2.8-1-3.7-2-3.8-2.2c-0.1-2,0-4,0.3-6c0.3-1.7,2.2-2.4,3.3-2.6c2.1-0.5,6.2-3.2,6.4-3.3
			c0.4-0.2,0.5-0.7,0.2-1.1c-0.2-0.4-0.7-0.5-1.1-0.2c-1.8,1.3-3.8,2.3-5.9,3.1c-2.5,0.6-4.1,2-4.5,3.9c-0.3,2.2-0.4,4.4-0.3,6.6
			c0.3,1.2,2,2.4,4.8,3.4c3.9,1.2,8,1.9,12.1,2.1c4-0.1,8-0.8,11.8-2c2.8-1,4.6-2.3,4.8-3.4c0.1-2.2,0-4.4-0.3-6.6
			C75.2,42.2,73.6,40.8,71.1,40.2z"/>
		<path d="M72.8,31.7c0.2,0,0.4-0.1,0.5-0.2L89,17.9l0,0c0.9,0.6,1.9,0.9,3,0.9h0.4c3-0.2,5.3-2.9,5.1-6c-0.1-1.5-0.8-2.8-1.9-3.8
			c-1.1-1-2.5-1.4-4-1.3c-3,0.2-5.3,2.9-5.1,5.9c0.1,1.2,0.5,2.3,1.3,3.2L72.2,30.4c-0.3,0.3-0.4,0.8-0.1,1.1c0,0,0,0,0,0
			C72.3,31.7,72.5,31.7,72.8,31.7z M91.6,9.3H92c2.2,0.1,3.8,1.9,3.7,4.1c-0.1,2.2-1.9,3.8-4.1,3.7c-2.2-0.1-3.8-1.9-3.7-4.1
			C88,11,89.6,9.4,91.6,9.3z"/>
		<path d="M43.7,58c-0.3-0.3-0.8-0.4-1.1-0.1L12.1,82.1c-0.2-0.2-0.3-0.3-0.5-0.5c-1.1-1-2.6-1.4-4-1.3c-1.5,0.1-2.8,0.8-3.8,1.9
			c-1,1.1-1.4,2.5-1.3,4c0.2,2.9,2.6,5.1,5.5,5.1h0.4c3-0.2,5.3-2.9,5.1-5.9c0-0.7-0.2-1.3-0.5-1.9l30.6-24.4
			C43.9,58.8,44,58.3,43.7,58z M11,88.4c-0.7,0.8-1.6,1.3-2.7,1.4c-2.2,0.3-4.1-1.2-4.4-3.4c-0.3-2.2,1.2-4.1,3.4-4.4
			c0.1,0,0.3,0,0.4,0H8c2.2,0,3.9,1.8,3.9,3.9C11.9,86.8,11.6,87.7,11,88.4L11,88.4z"/>
	</g>
</g>
</svg>
