<?xml version="1.0" encoding="utf-8"?>
<!-- Generator: Adobe Illustrator 22.1.0, SVG Export Plug-In . SVG Version: 6.00 Build 0)  -->
<svg version="1.1" id="Layer_1" xmlns="http://www.w3.org/2000/svg" xmlns:xlink="http://www.w3.org/1999/xlink" x="0px" y="0px"
	 viewBox="0 0 100 100" style="enable-background:new 0 0 100 100;" xml:space="preserve">
<title>content</title>
<g id="Layer_2_1_">
	<g id="black_shapes">
		<path d="M76.7,32.2c-0.4,0-0.7,0.3-0.7,0.7v13.2c-0.1,0.4,0.2,0.8,0.7,0.8c0.4,0.1,0.8-0.2,0.8-0.7c0-0.1,0-0.1,0-0.2V32.9
			C77.5,32.5,77.2,32.2,76.7,32.2C76.8,32.2,76.7,32.2,76.7,32.2z"/>
		<path d="M76.7,74c-0.4,0-0.7,0.3-0.7,0.7v12.3c0,4.9-4,8.9-8.9,8.9H14.9C10,96,6,92,6,87.1V12.9C6,8,10,4,14.9,4h35.6
			c-0.6,0.8-1,1.8-0.9,2.8v17.3c0.1,2.3,2,4.2,4.4,4.1c0,0,0,0,0,0h22v0.4c-0.1,0.4,0.2,0.8,0.7,0.8c0.4,0.1,0.8-0.2,0.8-0.7
			c0-0.1,0-0.1,0-0.2v-0.9c0,0,0-0.1,0-0.1c0,0,0,0,0-0.1c0-0.1,0-0.1,0-0.2c-0.1-0.5-0.3-0.9-0.6-1.2L54.4,3.2
			c-0.4-0.5-1.1-0.7-1.7-0.7H14.9C9.2,2.5,4.5,7.2,4.5,12.9v74.2c0,5.8,4.7,10.4,10.4,10.4h52.2c5.8,0,10.4-4.7,10.4-10.4V74.7
			C77.5,74.3,77.2,74,76.7,74C76.8,74,76.7,74,76.7,74z M75.4,26.7H54c-1.5,0.1-2.8-1.1-2.9-2.6V6.8c-0.2-1.3,0.7-2.4,2-2.6
			c0.1,0,0.1,0,0.2,0c0,0,0.1,0,0.1,0.1L75.4,26.7z"/>
		<path d="M52.5,66.3H16.2c-0.4,0.1-0.7,0.4-0.7,0.8c0,0.3,0.3,0.6,0.7,0.7h36.3c0.4,0.1,0.8-0.2,0.8-0.7s-0.2-0.8-0.7-0.8
			C52.7,66.3,52.6,66.3,52.5,66.3z"/>
		<path d="M67.6,53.8c0-0.4-0.3-0.7-0.7-0.7c0,0,0,0,0,0H16.2c-0.4,0.1-0.7,0.4-0.7,0.8c0,0.3,0.3,0.6,0.7,0.7h50.6
			C67.2,54.6,67.6,54.3,67.6,53.8C67.6,53.9,67.6,53.9,67.6,53.8z"/>
		<path d="M66.8,39.9H16.2c-0.4,0.1-0.7,0.4-0.7,0.8c0,0.3,0.3,0.6,0.7,0.7h50.6c0.4,0.1,0.8-0.2,0.8-0.7c0.1-0.4-0.2-0.8-0.7-0.8
			C67,39.9,66.9,39.9,66.8,39.9z"/>
		<path d="M16.2,79.5c-0.4,0.1-0.7,0.4-0.7,0.8c0,0.3,0.3,0.6,0.7,0.7h16.5c0.4,0.1,0.8-0.2,0.8-0.7c0.1-0.4-0.2-0.8-0.7-0.8
			c-0.1,0-0.1,0-0.2,0H16.2z"/>
		<path d="M52.5,79.5H37.1c-0.4,0.1-0.7,0.4-0.7,0.8c0,0.3,0.3,0.6,0.7,0.7h15.4c0.4,0.1,0.8-0.2,0.8-0.7c0.1-0.4-0.2-0.8-0.7-0.8
			C52.7,79.5,52.6,79.5,52.5,79.5z"/>
		<path d="M40.1,27.4c0-0.4-0.3-0.7-0.7-0.7c0,0,0,0,0,0H15.1c-0.4,0.1-0.7,0.4-0.7,0.8c0,0.3,0.3,0.6,0.7,0.7h24.2
			C39.7,28.2,40.1,27.9,40.1,27.4C40.1,27.5,40.1,27.4,40.1,27.4z"/>
		<path d="M94.1,43.2c-0.9-0.9-2.1-1.4-3.3-1.4c-1,0-2,0.4-2.8,1c-0.8,0-1.6,0.3-2.2,0.9L59.2,70.3c-0.4,0.4-0.6,0.8-0.7,1.3
			c-0.1,0.1-0.1,0.2-0.1,0.3L56,80.6c-0.1,0.3,0,0.5,0.2,0.7c0.1,0.1,0.3,0.2,0.5,0.2c0.1,0,0.1,0,0.2,0l4.2-1.1
			c0.4-0.1,0.6-0.6,0.4-1c-0.1-0.3-0.5-0.5-0.8-0.5l-3,0.8l1.4-5.2l0,0l3.8,3.8l0,0c0.6,0.6,1.3,0.9,2.1,0.9c0.8,0,1.6-0.3,2.1-0.9
			l26.6-26.6c0.6-0.7,1-1.6,0.8-2.5C96,47.4,95.8,44.8,94.1,43.2z M90.8,43.3c0.9,0,1.7,0.3,2.3,0.9c0.8,0.8,1.1,2,0.8,3.1l-4-3.9
			C90.3,43.4,90.5,43.3,90.8,43.3L90.8,43.3z M92.8,50.7L66.2,77.3c-0.6,0.6-1.5,0.6-2.1,0l-3.8-3.9c-0.3-0.3-0.4-0.7-0.4-1
			c0-0.4,0.1-0.8,0.4-1.1l26.6-26.6c0.6-0.6,1.5-0.6,2.1,0l3.8,3.9C93.3,49.2,93.3,50.1,92.8,50.7L92.8,50.7z"/>
		<path d="M88.3,48L64,72.3c-0.3,0.3-0.3,0.8,0,1.1c0,0,0,0,0,0c0.3,0.3,0.8,0.3,1.1,0c0,0,0,0,0,0l24.3-24.3c0.3-0.3,0.3-0.8,0-1
			C89.1,47.8,88.7,47.8,88.3,48L88.3,48z"/>
	</g>
</g>
</svg>
