<?xml version="1.0" encoding="utf-8"?>
<!-- Generator: Adobe Illustrator 22.1.0, SVG Export Plug-In . SVG Version: 6.00 Build 0)  -->
<svg version="1.1" id="Layer_1" xmlns="http://www.w3.org/2000/svg" xmlns:xlink="http://www.w3.org/1999/xlink" x="0px" y="0px"
	 viewBox="0 0 100 100" style="enable-background:new 0 0 100 100;" xml:space="preserve">
<title>engagement</title>
<g id="Layer_2_1_">
	<g id="black_shapes">
		<path d="M82.4,51.4h-4.9c-0.4-2.2-2.3-3.7-4.5-3.7h-6.8c-0.4-2.2-2.3-3.7-4.5-3.7H55V27.8c-0.1-3.5-3.1-6.3-6.7-6.1
			c-3.3,0.1-6,2.8-6.1,6.1v41.5l-8.7-7.4c-2.2-1.9-5.5-1.6-7.4,0.6c-1.6,1.8-1.7,4.5-0.3,6.4c0.1,0.2,14.8,21,20.3,28.4
			c0.1,0.2,0.4,0.3,0.6,0.3h4.7c0.4-0.1,0.7-0.4,0.7-0.9c0-0.4-0.3-0.6-0.7-0.7h-4.3c-5.7-7.7-19.9-27.8-20.1-28
			c-1.2-1.7-0.8-4,0.9-5.2c1.4-1,3.3-0.9,4.5,0.2l10,8.5c0.3,0.3,0.8,0.3,1.1,0c0.1-0.1,0.2-0.3,0.2-0.5V27.8
			c0.1-2.7,2.4-4.8,5.1-4.6c2.5,0.1,4.5,2.1,4.6,4.6v28.1c0,0.4,0.3,0.8,0.8,0.8c0.4,0,0.8-0.3,0.8-0.8V45.4h6.7c1.6,0,3,1.3,3,3
			v7.5c0.1,0.4,0.4,0.7,0.9,0.7c0.4,0,0.6-0.3,0.7-0.7v-6.7H73c1.6,0,3,1.3,3,3v7.5c0.1,0.4,0.4,0.7,0.9,0.7c0.4,0,0.6-0.3,0.7-0.7
			v-6.7h4.9c2.7,0,4.8,2.2,4.8,4.9v11.6c0,3.4-0.5,6.8-1.4,10.1L79.9,96h-4.8c-0.4,0.1-0.7,0.4-0.7,0.9c0,0.4,0.3,0.6,0.7,0.7h5.3
			c0.3,0,0.6-0.2,0.7-0.5l6.1-17.1c1-3.4,1.5-7,1.5-10.5V57.8C88.8,54.2,85.9,51.4,82.4,51.4z"/>
		<path d="M90.6,4.8c-0.7-1.1-1.8-1.9-3.1-2.2c-2.7-0.6-5.3,1.1-5.9,3.7c0,0,0,0,0,0c-0.2,0.8-0.1,1.7,0.1,2.5l-18,6.3
			c-0.4,0.1-0.6,0.6-0.5,1c0,0,0,0,0,0c0.1,0.3,0.4,0.5,0.7,0.5c0.1,0,0.2,0,0.3,0l18.1-6.4c1.5,2.1,4.5,2.7,6.7,1.3
			C91.5,10.1,92.1,7.1,90.6,4.8z M89.8,8.2c-0.4,1.8-2.3,3-4.1,2.6c-0.9-0.2-1.6-0.7-2.1-1.4c-0.5-0.8-0.6-1.7-0.4-2.6
			c0.4-1.5,1.7-2.6,3.3-2.7c0.2,0,0.5,0,0.7,0.1C89,4.6,90.2,6.4,89.8,8.2L89.8,8.2z"/>
		<path d="M74.1,34.6c0.7,2,2.6,3.3,4.7,3.3c2.7,0,5-2.2,5-4.9c0-2.7-2.2-5-4.9-5c-0.6,0-1.2,0.1-1.7,0.3c-1,0.3-1.8,1-2.4,1.8
			l-7.6-3.2c-0.4-0.1-0.8,0.1-1,0.5c-0.1,0.3,0.1,0.7,0.4,0.9l7.5,3.1C73.7,32.5,73.7,33.6,74.1,34.6z M77.6,29.7
			c0.4-0.1,0.8-0.2,1.1-0.2c1.4,0,2.7,0.9,3.2,2.3c0.6,1.8-0.3,3.7-2.1,4.3c-1.7,0.8-3.7,0.2-4.6-1.5c-0.8-1.7-0.2-3.7,1.5-4.6
			C77,29.9,77.3,29.8,77.6,29.7L77.6,29.7z"/>
		<path d="M18,18.1c0.7,0.3,1.4,0.5,2.2,0.5c0.5,0,1.1-0.1,1.6-0.3c1-0.3,1.8-0.9,2.4-1.8l7.6,3.3c0.1,0,0.2,0.1,0.3,0.1
			c0.3,0,0.6-0.2,0.7-0.5c0.2-0.4,0-0.8-0.4-1l-7.5-3.2c0.8-2.3-0.3-4.9-2.5-5.9c-1.2-0.6-2.5-0.7-3.8-0.3c-1.2,0.4-2.3,1.3-2.8,2.5
			C14.6,13.9,15.6,16.9,18,18.1z M17.2,12.2c0.4-0.8,1.1-1.4,2-1.7c0.3-0.1,0.7-0.2,1.1-0.2c0.5,0,1,0.1,1.5,0.4
			c1.7,0.8,2.4,2.9,1.6,4.6s-2.9,2.4-4.6,1.6C17,16,16.4,13.9,17.2,12.2C17.2,12.2,17.2,12.2,17.2,12.2L17.2,12.2z"/>
		<path d="M32.2,33.6c0.4-0.2,0.5-0.7,0.2-1.1c-0.2-0.3-0.4-0.4-0.7-0.4l-14,4.7c-1.2-2.2-3.9-3.1-6.3-2.1c-1.2,0.5-2.1,1.5-2.6,2.7
			c-1,2.5,0.3,5.4,2.8,6.4c0,0,0,0,0,0c0.6,0.2,1.2,0.3,1.8,0.3c0.7,0,1.4-0.1,2-0.4c2.1-0.9,3.3-3.2,2.8-5.5L32.2,33.6z M16.7,40.5
			c-0.7,1.7-2.6,2.6-4.4,1.9c-0.8-0.3-1.5-1-1.9-1.8c-0.4-0.8-0.4-1.8-0.1-2.6c0.3-0.8,1-1.5,1.8-1.9l0,0c0.4-0.2,0.9-0.3,1.4-0.3
			c0.4,0,0.8,0.1,1.2,0.2c0.8,0.3,1.5,1,1.9,1.8C17,38.7,17,39.7,16.7,40.5z"/>
		<path d="M37.9,33.4c0.4-0.2,0.5-0.7,0.3-1c-3.2-5.9-1-13.2,4.9-16.4s13.2-1,16.4,4.9c1.9,3.6,1.9,7.9,0,11.4
			c-0.2,0.4-0.1,0.8,0.3,1c0.1,0.1,0.2,0.1,0.4,0.1c0.3,0,0.5-0.2,0.7-0.4c3.7-6.6,1.3-14.9-5.3-18.6s-14.9-1.3-18.6,5.3
			c-2.3,4.1-2.3,9.1,0,13.2C37.1,33.5,37.5,33.6,37.9,33.4z"/>
	</g>
</g>
</svg>
