<?xml version="1.0" encoding="utf-8"?>
<!-- Generator: Adobe Illustrator 22.1.0, SVG Export Plug-In . SVG Version: 6.00 Build 0)  -->
<svg version="1.1" id="Layer_1" xmlns="http://www.w3.org/2000/svg" xmlns:xlink="http://www.w3.org/1999/xlink" x="0px" y="0px"
	 viewBox="0 0 100 100" style="enable-background:new 0 0 100 100;" xml:space="preserve">
<title>goals</title>
<g id="Layer_2_1_">
	<g id="black_shapes">
		<path d="M74,29.4c-0.2,0.4-0.1,0.8,0.3,1c0.4,0.2,0.8,0.1,1-0.3l0,0c0.8-1.4,2.5-2.1,4-1.7c1.3,0.4,2.1,1.6,2,2.9
			c0.1,0.9-0.2,1.7-0.8,2.3c-0.5,0.4-1.1,0.7-1.8,0.7H66.8c-0.4,0-0.8,0.3-0.8,0.8c0,0.4,0.3,0.8,0.8,0.8h11.9c1,0,2-0.4,2.8-1.1
			c0.9-0.9,1.3-2.2,1.3-3.5c0.1-2-1.2-3.8-3.2-4.3C77.5,26.4,75.2,27.4,74,29.4z"/>
		<path d="M61.7,35.9L61.7,35.9c0.5-0.1,0.8-0.4,0.7-0.9c0-0.4-0.3-0.6-0.7-0.7l0,0c-0.9,0-1.8-0.3-2.5-0.9
			c-0.5-0.6-0.8-1.4-0.8-2.1c0-0.6,0.3-1.2,0.8-1.6c0.8-0.5,1.8-0.7,2.7-0.4c0.3,0.1,0.5,0,0.7-0.2c0.2-0.2,0.3-0.5,0.2-0.7
			c0,0-0.8-3.3,1-5.5c1.1-1.3,2.9-2,5.4-2s4.5,0.6,5.7,1.7c0.6,0.6,1,1.5,1.1,2.4c0,0.4,0.3,0.8,0.7,0.8c0.4,0,0.8-0.3,0.8-0.7
			c0-1.3-0.6-2.5-1.5-3.5c-1.4-1.5-3.7-2.3-6.8-2.3c-3.1,0-5.2,0.9-6.6,2.6c-1.2,1.6-1.7,3.7-1.4,5.7c-1-0.1-2.1,0.2-2.9,0.8
			c-0.9,0.7-1.4,1.7-1.4,2.8c-0.1,1.2,0.4,2.4,1.2,3.2C59.2,35.4,60.4,35.9,61.7,35.9z"/>
		<path d="M97.5,94.6c0-0.1-5.5-13.6-11.1-26.4c-0.2-0.4-0.6-0.6-1-0.4c-0.4,0.2-0.6,0.6-0.4,1c4.7,10.7,9.3,21.9,10.6,25.3
			l-13.9,0.1c-0.9-1-12.6-13.1-15.7-28.4c-0.3-1.4-0.7-2.8-1.2-4.1c0.2-0.1,0.3-0.2,0.4-0.4c2.7-7.3,6.5-15,8.3-15.3
			c0.5,0.3,2.4,2.4,8.8,16.6c0.1,0.3,0.4,0.5,0.7,0.5c0.4,0,0.8-0.4,0.8-0.8c0-0.1,0-0.2-0.1-0.3c-7.9-17.5-9.3-17.5-10.1-17.5
			c-3.3,0-7.8,11-9.5,15.4c-5-10-15.4-9.8-16.6-9.8c-6.8-14.8-9.1-19.1-10-20.4l0,0V5.4H53l-5.1,4.5c-0.2,0.1-0.3,0.3-0.3,0.6
			c0,0.2,0.1,0.4,0.3,0.6l5.3,4.7H39.8c-0.4,0.1-0.7,0.4-0.7,0.9c0,0.4,0.3,0.6,0.7,0.7h15.3c0.3,0,0.6-0.2,0.7-0.5
			c0.1-0.3,0-0.6-0.2-0.8l-6.1-5.5l6.1-5.2c0.3-0.3,0.4-0.8,0.1-1.1c-0.1-0.2-0.4-0.3-0.6-0.3H36.7c-0.4,0-0.8,0.3-0.8,0.8l0,0v25.1
			l0,0c-1.3,1.5-4.7,7.6-15.2,32.3c-1.7-0.2-3.4,0-5,0.7c-3.2,1.4-5.8,7-7.1,11.3c-1.2,4-2.5,7.6-3.5,10.5C3,90.3,1.9,93.4,2.9,95.1
			C3.2,95.6,3.8,96,4.5,96c0.4,0,1.9,0.1,10.8,0.1c0.4,0,0.8-0.3,0.8-0.8c0-0.4-0.3-0.8-0.8-0.8c0,0,0,0,0,0
			c-8.1,0-10.2-0.1-10.6-0.1c-0.4,0-0.4-0.2-0.5-0.2c-0.6-1,0.8-4.8,2.3-9.2c1-2.9,2.3-6.5,3.5-10.5c1.3-4,3.7-9.2,6.3-10.3
			c3.5-1.6,8.2,0.3,11.4,1.5c2.9,1.1,6.5,2.8,6.6,2.8c0.4,0.1,0.8-0.1,1-0.5c0.1-0.4,0-0.8-0.4-0.9c0,0-3.7-1.7-6.6-2.8
			c-1.9-0.8-3.9-1.5-6-2c0.7-1.7,1.5-3.5,2.3-5.4c3-3.3,6.6-6.9,7.5-7.3c0.7,1.1,1.3,2.3,1.8,3.5c1.1,2.7,1.7,4.1,2.8,4.1
			c1,0,1.6-1.5,2.5-3.9c0.4-1.3,1-2.6,1.7-3.7c1,0.3,4.8,4,7.9,7.4c0.1,0.1,0.1,0.1,0.2,0.1c1.8,4,3.8,8.5,6.2,13.7
			c0.1,0.3,0.4,0.5,0.7,0.5c0.1,0,0.2,0,0.3-0.1c0.4-0.2,0.6-0.6,0.4-1c0,0,0,0,0,0c-3.3-7.4-6.1-13.5-8.4-18.5
			c2.9,0,13.6,0.8,16.4,14.5c2.7,13.6,11.9,24.6,15.1,28.1l-12.4,0.1c-0.8-1.7-3.9-8.9-7.9-17.9c-0.2-0.4-0.6-0.6-1-0.4
			c-0.4,0.2-0.6,0.6-0.4,1c0,0,0,0,0,0c3.6,8.2,6.6,14.8,7.7,17.3c-16.8,0.1-23.6,0.1-35,0.2h-7.4c-0.4,0-0.8,0.3-0.8,0.7
			c0,0,0,0,0,0c0,0.4,0.3,0.8,0.7,0.8c0,0,0,0,0,0l0,0h7.4C47.1,96,54,96,96.7,95.7c0.3,0,0.5-0.1,0.6-0.3
			C97.5,95.1,97.5,94.9,97.5,94.6z M40.8,48.1c-1.3,0-2,1.8-3.1,4.8c-0.3,0.9-0.7,1.8-1.1,2.6c-0.5-0.9-0.9-1.9-1.3-2.9
			c-1.2-3-2-4.5-3.1-4.5c-1.1,0-3.3,2.1-5.8,4.6c4.1-9.4,8.6-19.1,10.2-21.5c0.9,1.5,3.4,6.3,10.4,21.7
			C44.6,50.4,41.9,48.1,40.8,48.1L40.8,48.1z"/>
	</g>
</g>
</svg>
