<?xml version="1.0" encoding="utf-8"?>
<!-- Generator: Adobe Illustrator 22.1.0, SVG Export Plug-In . SVG Version: 6.00 Build 0)  -->
<svg version="1.1" id="Layer_1" xmlns="http://www.w3.org/2000/svg" xmlns:xlink="http://www.w3.org/1999/xlink" x="0px" y="0px"
	 viewBox="0 0 100 100" style="enable-background:new 0 0 100 100;" xml:space="preserve">
<title>growth</title>
<g id="Layer_2_1_">
	<g id="black_shapes">
		<path d="M88.5,76.2c-2.6-1.1-5.6-1.1-8.2,0c-1.8,0.7-3.4,1.8-4.7,3.3l-0.4,0.4c-0.1,0.1-0.1,0.2-0.2,0.3c-1.5,2-2.4,4.5-2.4,7
			c0,0.5,0.4,0.9,0.8,0.9c0,0,0,0,0,0c0.5,0,0.9-0.4,0.9-0.9l0,0c0-2.3,0.8-4.5,2.3-6.3c1.4-1.4,3-2.5,4.9-3.1
			c0.9-0.2,1.8-0.4,2.7-0.4c0.1,0,0.3,0,0.4-0.1c1.1,0,2.2,0.2,3.3,0.6c3,1.1,5.2,3.9,5.4,7.1c0,6.5-4.1,10.8-10.3,10.8H34
			c-0.5,0.1-0.8,0.5-0.7,1c0,0.4,0.4,0.7,0.7,0.7h49c7.1,0,12-5.1,12-12.5C94.8,81.1,92.3,77.6,88.5,76.2z"/>
		<path d="M45.6,74.7c0.2,0.3,0.5,0.4,0.8,0.4c0.3,0,0.6-0.3,0.7-0.6c1.3-4.5,6.5-8,11.9-8c5-0.1,9.8,2,13.1,5.9
			c0.2,0.4,0.7,0.6,1.1,0.4c0.4-0.2,0.6-0.7,0.4-1.1c-0.1-0.1-0.2-0.3-0.3-0.3c-3.6-4.2-8.9-6.6-14.4-6.5c-2.3,0-4.6,0.6-6.7,1.6
			c0.1-5.6,0.4-11.4,0.6-13.1c6.6-0.3,19.4-4.6,26.8-12.2C84.5,36,88.3,30,90.8,23.4c0.2-0.4,0-0.9-0.5-1.1c-0.4-0.2-0.9,0-1.1,0.5
			c0,0,0,0,0,0C86.8,29.1,83.1,35,78.4,40C71,47.5,58.2,51.6,52.2,51.6c-1,0-1.4,0-1.7,15.8c-1.9,1.3-3.5,3-4.5,5
			c-0.7-0.7-1.4-1.4-2.3-1.9c0-0.1,0-0.2,0-0.3c0-0.3-1-31.9,10.6-44.3s36-21.7,38.9-21.1c0.3,0.8,0.3,4.4-1.3,10.1
			c-0.2,0.4,0.1,0.9,0.5,1.1c0.4,0.2,0.9-0.1,1.1-0.5c0-0.1,0-0.1,0-0.2c1.3-4.6,2.1-10.5,0.7-11.8c-0.4-0.3-0.9-0.5-1.5-0.4
			c-5.6,0.1-28.6,9.8-39.7,21.7C41.8,36.9,42,65,42.1,69.7c-1.8-0.8-3.7-1.3-5.7-1.3c-3.9,0-7.8,3.1-9.3,7.2
			c-3.3-1.2-7.1-0.7-9.9,1.4c-3.1,2.1-4.8,5.9-4.3,9.6c0.9,7.2,5,10.8,12.4,10.8c0.5-0.1,0.8-0.5,0.7-1c0-0.4-0.4-0.7-0.7-0.7
			c-6.5,0-9.9-2.9-10.7-9.3c-0.4-3.1,1-6.2,3.6-8c2.6-1.9,6.1-2.3,9.1-0.9c0.2,0.1,0.5,0.1,0.7,0c0.2-0.1,0.4-0.3,0.5-0.6
			c1-3.8,4.5-6.9,7.9-6.9C40,70,43.4,71.7,45.6,74.7z"/>
		<path d="M85.6,12.5c-0.3-0.3-0.9-0.4-1.2,0c0,0,0,0,0,0L72.2,24.8l0.6-9.3c0-0.5-0.3-0.9-0.8-0.9c-0.5,0-0.9,0.3-0.9,0.8
			l-0.7,11.2L63,34.1l0.5-10.2c0-0.5-0.4-0.9-0.8-0.9c-0.5,0-0.9,0.4-0.9,0.8l0,0l-0.6,11.9c0,0,0,0.1,0,0.1L55.1,42
			c-0.3,0.3-0.3,0.9,0,1.2c0.3,0.3,0.9,0.3,1.2,0l0,0l6.5-6.5L74,37.2l0,0c0.5,0,0.8-0.4,0.8-0.8c0-0.5-0.3-0.9-0.8-0.9c0,0,0,0,0,0
			L64.4,35l7.3-7.3l11.2,0.8H83c0.5-0.1,0.8-0.5,0.7-1c0-0.4-0.4-0.7-0.7-0.7l-9.8-0.7l12.4-12.5C85.9,13.3,85.9,12.8,85.6,12.5z"/>
		<path d="M38.6,51.3h0.1c0.5,0,0.9-0.3,0.9-0.8c0-0.5-0.3-0.9-0.8-0.9l0,0c-5-0.7-9.9-3.7-16.1-9.7C12.3,29.6,5.3,6.1,6.8,4.2
			C9.1,3,34.8,12.9,47,25.9c0.3,0.3,0.9,0.4,1.2,0c0,0,0,0,0,0c0.3-0.3,0.3-0.9,0-1.2c0,0,0,0,0,0C36.8,12.5,9.1,0.1,5.7,2.9
			C5.2,3.5,4.9,4.2,5,5c-0.3,6.3,7.3,27,16.6,36.2C28,47.4,33.3,50.6,38.6,51.3z"/>
		<path d="M27.2,35.5c-0.5,0.1-0.8,0.5-0.7,1c0,0.4,0.4,0.7,0.7,0.7l0,0l12-0.6c0.2,0,0.4-0.1,0.6-0.3c0.2-0.2,0.2-0.4,0.2-0.6
			l-0.6-11.9c-0.1-0.5-0.5-0.8-1-0.7c-0.4,0.1-0.7,0.4-0.7,0.8l0.5,9.4l-6.6-6.4c0.1-0.1,0.1-0.3,0.1-0.5l-1.5-11
			c-0.1-0.5-0.6-0.7-1-0.6c-0.4,0.1-0.7,0.5-0.7,0.9l1.3,9.5L16.8,12.5c-0.3-0.3-0.9-0.4-1.2,0c0,0,0,0,0,0
			c-0.3,0.3-0.4,0.8-0.1,1.2c0,0,0,0,0.1,0.1L28.1,26l-9.9,1c-0.5,0-0.8,0.4-0.8,0.9c0,0,0,0,0,0c0,0.4,0.4,0.8,0.8,0.8h0.1
			l11.4-1.1l7.7,7.6L27.2,35.5z"/>
	</g>
</g>
</svg>
