<svg xmlns="http://www.w3.org/2000/svg" viewBox="0 0 91.35 75.1"><title>services</title><g id="Layer_2" data-name="Layer 2"><g id="black_shapes" data-name="black shapes"><path d="M41.87,15.22C41.87,7.9,37,0,29.07,0s-12.8,7.9-12.8,15.22,4.9,15.2,12.8,15.23h0a11.23,11.23,0,0,0,8-3.42A17.21,17.21,0,0,0,41.87,15.22ZM29.11,29.1h0c-7.07,0-11.45-7.22-11.45-13.88,0-8.57,5.95-13.87,11.45-13.87s11.45,5.3,11.45,13.87A15.8,15.8,0,0,1,36.2,26.07,9.91,9.91,0,0,1,29.11,29.1Z"/><path d="M69.74,47.54c-1,0-1.82,0-2.4-.08-1.18-.09-2.4-.1-3.69-.1-3.27,0-6.66,0-9.13-1.57a18.84,18.84,0,0,1-4.26-4.5c-1.63-2.12-3.18-4.12-5.17-4.95-2.38-1.41-8-4.14-8.2-4.26a.67.67,0,1,0-.59,1.21c.06,0,5.78,2.84,8.12,4.22h0l0,0c1.69.67,3.14,2.56,4.68,4.57a19.67,19.67,0,0,0,4.62,4.81c2.79,1.75,6.37,1.77,9.84,1.78,1.26,0,2.46,0,3.58.09.63.05,1.49.07,2.48.09,4.13.09,11.82.25,12.45,3.36a2.74,2.74,0,0,1-.4,2.45c-1.21,1.42-4.62,1.27-6.87,1.18-.6,0-1.16,0-1.61-.05l-4.23.06a129.6,129.6,0,0,1-13.23-.21c-3-.25-4.46-1.2-6.67-3.22a9.66,9.66,0,0,1-.7-.75c-1.28-1.46-3-3.44-4.39-2.49-1.58,1.11-2.12,6-2.58,11.37-.09,1.09-.17,2-.24,2.49-.58,3.57-1.15,7.25-1.75,11.25a.67.67,0,0,0,.57.76h.1a.68.68,0,0,0,.67-.57c.59-4,1.16-7.67,1.74-11.24.08-.51.16-1.42.26-2.58.24-2.86.81-9.55,2-10.39.35-.07,1.22.71,2.61,2.28a10.86,10.86,0,0,0,.8.86c2.39,2.19,4.12,3.28,7.46,3.57a132.7,132.7,0,0,0,13.38.21l4.21-.06c.44,0,1,0,1.54,0,2.67.11,6.32.27,8-1.66A4,4,0,0,0,83.48,52C82.64,47.81,74.88,47.65,69.74,47.54Z"/><path d="M21.17,32.13a41.06,41.06,0,0,1-4.87,2.65A29.64,29.64,0,0,0,9.39,39c-2.81,2.55-4.26,6.68-5.54,10.33-.25.71-.49,1.4-.74,2.06s-.47,1.2-.74,1.87C1,56.49-.65,60.56.26,63.65c1.1,3.77,4.5,7.79,7,10.72l.42.49a.65.65,0,0,0,.51.24.66.66,0,0,0,.44-.16.68.68,0,0,0,.08-1l-.42-.49c-2.4-2.84-5.7-6.73-6.72-10.23-.77-2.63.87-6.62,2.07-9.54.28-.69.54-1.33.76-1.91s.49-1.37.75-2.09C6.35,46.24,7.75,42.28,10.3,40a28.91,28.91,0,0,1,6.59-4,41.57,41.57,0,0,0,5-2.74.69.69,0,0,0,.19-.94A.68.68,0,0,0,21.17,32.13Z"/><path d="M74.69,2.64a.81.81,0,0,0-.22,0c-.22,0-.43,0-.65,0h-.76A17.08,17.08,0,0,0,56.29,19.25a.51.51,0,0,0,0,.13s0,.05,0,.07,0,.22,0,.32A17.73,17.73,0,0,0,73,37.64l.12,0,.11,0,.57,0c.23,0,.45,0,.68,0l.11,0a.53.53,0,0,0,.12,0,17.52,17.52,0,0,0,0-35ZM81.76,18.7a22.94,22.94,0,0,0-1.46-7.45h7a16,16,0,0,1,2.58,7.45ZM57.63,20.05h8.25a26,26,0,0,0,1.37,7.45H59.49A16.76,16.76,0,0,1,57.63,20.05Zm2.45-8.8h7.25a22.94,22.94,0,0,0-1.46,7.45h-8.2A15.58,15.58,0,0,1,60.08,11.25Zm7.08,8.8H80.47A24.36,24.36,0,0,1,79,27.5H68.62A24.36,24.36,0,0,1,67.16,20.05Zm0-1.35a21.35,21.35,0,0,1,1.56-7.45H78.92a21.35,21.35,0,0,1,1.56,7.45ZM86.36,9.9H79.75a25.56,25.56,0,0,0-3.6-5.76A16.14,16.14,0,0,1,86.36,9.9ZM74.24,4A25.41,25.41,0,0,1,78.29,9.9h-9A25.3,25.3,0,0,1,73.4,4h.42Zm-2.73.13a25.53,25.53,0,0,0-3.62,5.8H61A16,16,0,0,1,71.51,4.1ZM60.27,28.85h7.46a35.08,35.08,0,0,0,4,7.33A16.11,16.11,0,0,1,60.27,28.85Zm13.16,7.47a35.43,35.43,0,0,1-4.28-7.47h9.33a35.37,35.37,0,0,1-4.28,7.46l-.44,0ZM76,36.17a35.21,35.21,0,0,0,4-7.32h7.51A16.21,16.21,0,0,1,76,36.17ZM88.19,27.5H80.38a26,26,0,0,0,1.37-7.45H90v0A16.14,16.14,0,0,1,88.19,27.5Z"/><path d="M17.54,74l-1-24.57a.68.68,0,0,0-.54-.63.67.67,0,0,0-.75.37L9.15,61.87a.66.66,0,0,0,0,.64l7,11.81v.13a.67.67,0,0,0,.67.65h0a.68.68,0,0,0,.65-.7v-.16A.7.7,0,0,0,17.54,74Zm-7-11.86,4.78-10,.79,19.3Z"/></g></g></svg>