<svg xmlns="http://www.w3.org/2000/svg" viewBox="0 0 86.68 86.67"><title>thumbs-up</title><g id="Layer_2" data-name="Layer 2"><g id="black_shapes" data-name="black shapes"><path d="M67.43,37A3.42,3.42,0,0,0,64,33.62H50.41c.73-1.95,2.23-6.45,1.48-9.15-1-3.39-2.89-4.39-4.37-4.18a3,3,0,0,0-2.44,3.05c0,6.82-6.5,14-10.52,14.77v-2a.67.67,0,0,0-.67-.67H24.76a.67.67,0,0,0-.68.67V58a.67.67,0,0,0,.68.67h9.13a.67.67,0,0,0,.67-.67V39.49c4.94-.72,11.87-9,11.87-16.15a1.62,1.62,0,0,1,1.27-1.72c.87-.11,2.17.65,2.89,3.22.83,3-1.77,9.13-1.8,9.19a.66.66,0,0,0,.06.64.65.65,0,0,0,.56.3H64A2.07,2.07,0,0,1,66.08,37c0,1.24-1,3-2.06,3H62.19a.67.67,0,0,0-.67.67.68.68,0,0,0,.67.68,2.06,2.06,0,1,1,0,4.12H60.37a.68.68,0,1,0,0,1.35,2.07,2.07,0,0,1,0,4.13H58.54a.68.68,0,0,0,0,1.35,2.07,2.07,0,0,1,2.06,2.07c0,.6-.15,1.15-2.06,1.15H46.67a18.47,18.47,0,0,1-5.32-.63c-.59-.14-1.25-.29-2.08-.46a.69.69,0,0,0-.8.53.67.67,0,0,0,.53.79c.82.17,1.46.32,2,.46a20.07,20.07,0,0,0,5.63.66H58.54c.84,0,3.41,0,3.41-2.5a3.44,3.44,0,0,0-.77-2.17A3.39,3.39,0,0,0,63,46.74a3.4,3.4,0,0,0,1.82-5.51C66.41,40.68,67.43,38.53,67.43,37ZM33.21,57.36H25.43V36.8h7.78V57.36Z"/><circle cx="30.24" cy="54.39" r="1.59"/><path d="M86.68,43.33a.69.69,0,0,0-.24-.52l-7.8-6.5,4.72-9a.71.71,0,0,0,0-.57.69.69,0,0,0-.43-.39l-9.69-3,.91-10.12a.67.67,0,0,0-.73-.73l-10.12.92-3-9.7a.68.68,0,0,0-.39-.42.64.64,0,0,0-.57,0L50.36,8,43.86.23a.7.7,0,0,0-1,0L36.32,8l-9-4.72a.64.64,0,0,0-.57,0,.68.68,0,0,0-.39.42l-3,9.7-10.12-.92a.67.67,0,0,0-.73.73l.92,10.12-9.7,3a.65.65,0,0,0-.42.39.67.67,0,0,0,0,.57l4.72,9-7.8,6.5a.68.68,0,0,0,0,1L8,50.35l-4.72,9a.69.69,0,0,0,0,.58.66.66,0,0,0,.42.38l9.7,3L12.5,73.44a.67.67,0,0,0,.19.54.68.68,0,0,0,.54.19l10.12-.92,3,9.71a.68.68,0,0,0,1,.39l9-4.72,6.5,7.8a.68.68,0,0,0,1,0l6.5-7.8,9,4.72a.71.71,0,0,0,.57,0,.68.68,0,0,0,.39-.42l3-9.71,10.12.92a.66.66,0,0,0,.73-.73l-.91-10.12,9.69-3a.7.7,0,0,0,.43-.38.73.73,0,0,0,0-.58l-4.72-9,7.8-6.5A.69.69,0,0,0,86.68,43.33Zm-9.33,6.33a.69.69,0,0,0-.16.84l4.6,8.75-9.45,3a.66.66,0,0,0-.47.7l.9,9.85-9.86-.89a.65.65,0,0,0-.7.47l-3,9.45-8.75-4.6a.69.69,0,0,0-.84.17l-6.33,7.59L37,77.35a.66.66,0,0,0-.83-.17l-8.76,4.6-3-9.45a.65.65,0,0,0-.7-.47l-9.85.89.89-9.85a.66.66,0,0,0-.47-.7l-9.44-3L9.49,50.5a.69.69,0,0,0-.16-.84l-7.6-6.33L9.33,37a.69.69,0,0,0,.16-.84L4.9,27.41l9.44-2.95a.67.67,0,0,0,.47-.7l-.89-9.85,9.85.89a.63.63,0,0,0,.7-.47l3-9.44,8.76,4.6A.69.69,0,0,0,37,9.32l6.33-7.6,6.33,7.6a.7.7,0,0,0,.84.17l8.75-4.6,3,9.44a.63.63,0,0,0,.7.47l9.86-.89-.9,9.85a.67.67,0,0,0,.47.7l9.45,2.95-4.6,8.75a.69.69,0,0,0,.16.84L85,43.33Z"/><path d="M62.23,20.11a.68.68,0,0,0-.95.1.67.67,0,0,0,.09.95,28.57,28.57,0,1,1-18-6.41c3.73,0,10.15,1.33,13.41,3.25a.68.68,0,0,0,.68-1.17c-3.49-2-10.11-3.43-14.09-3.43a29.92,29.92,0,1,0,18.89,6.71Z"/></g></g></svg>