<?xml version="1.0" encoding="utf-8"?>
<!-- Generator: Adobe Illustrator 22.1.0, SVG Export Plug-In . SVG Version: 6.00 Build 0)  -->
<svg version="1.1" id="Layer_1" xmlns="http://www.w3.org/2000/svg" xmlns:xlink="http://www.w3.org/1999/xlink" x="0px" y="0px"
	 viewBox="0 0 100 100" style="enable-background:new 0 0 100 100;" xml:space="preserve">
<title>bigger-fish</title>
<g id="Layer_2_1_">
	<g id="black_shapes">
		<path d="M69.2,32.4V10.8c-2.3-0.5-4.6-0.7-6.9-0.7c-9.8,0-20.5,4.2-29.2,12.3c-1.7,1.6-3.4,3.4-4.9,5.3l-24,5.1
			c-0.9,0.2-1.4,1.1-1.2,1.9c0.1,0.3,0.2,0.6,0.5,0.9l15.6,13.6c-0.5,4.3-0.1,8.7,1.1,12.8L4.3,67.2c-1.8,0.6-2.5,3-0.9,3.6
			l18.4,6.4l4.1,16.9c0.1,0.6,0.7,1,1.3,1c1-0.1,1.9-0.7,2.3-1.6l6.4-15.2c3.4,1.2,7,1.8,10.6,1.8h0.7L55.1,92
			c0.3,0.4,0.8,0.7,1.3,0.7c0.6,0,1.2-0.4,1.5-1l7.2-16.4c3.8-2,7.4-4.5,10.5-7.5C86.2,58,91.1,44.9,89.8,33.6L69.2,32.4z
			 M74.7,66.7c-3,2.9-6.5,5.3-10.2,7.3c-0.3,0.2-0.5,0.4-0.7,0.7l-7.3,16.4c0,0,0,0-0.1,0c0,0,0,0-0.1,0l-8-11.8
			c-0.3-0.4-0.8-0.7-1.3-0.7h-0.6c-3.5,0-6.9-0.5-10.2-1.7c-0.2-0.1-0.3-0.1-0.5-0.1c-0.6,0-1.2,0.4-1.4,0.9l-6.3,15.1
			c-0.1,0.3-0.4,0.6-0.8,0.7l-4.1-16.7c-0.1-0.5-0.5-0.9-1-1.1L4,69.4c0.1-0.3,0.4-0.6,0.7-0.7l15.9-5.2c0.8-0.2,1.3-1.1,1-1.9
			c-1.2-3.9-1.6-8.1-1.1-12.2c0.1-0.5-0.1-1-0.5-1.3L4.5,34.4c0,0,0-0.1,0-0.1c0,0,0-0.1,0.1-0.1l24-5.1c0.3-0.1,0.6-0.2,0.9-0.5
			c1.4-1.8,3-3.5,4.7-5.1c8.1-7.6,18.3-12,28.1-12c1.8,0,3.6,0.2,5.3,0.5v20.3c0,0.8,0.6,1.5,1.5,1.6L88.3,35
			C89.2,45.9,84,58,74.7,66.7z"/>
		<path d="M96.1,15.5c1.4-2.9,1.8-6.2,1.1-9.3c-0.1-0.6-0.6-1-1.2-1.1c-0.7-0.1-1.4-0.1-2.1-0.1c-2.4,0-4.7,0.4-6.9,1.3
			c-0.6-0.1-1.2-0.2-1.8-0.2c-0.9,0-1.8,0.2-2.7,0.5c-1.4,0.6-2.5,1.5-3.3,2.8l-0.3,0.4c-0.4,0.5-0.5,1.2-0.4,1.8
			c0.2,0.6,0.6,1,1.2,1.2l0,0c-0.9,1.4-1.4,3.1-1.5,4.7l-4,1.9c-1,0.4-1.6,1.4-1.5,2.5c0.1,0.8,0.7,1.3,1.5,1.4l3.8,0.6l0.2,3.4
			c0,0.9,0.8,1.7,1.7,1.7c0.9,0,1.8-0.6,2.3-1.4l0.1-0.2l1.6-4.3h0.4c2.3,0,4.5-0.6,6.5-1.8c0.1,0.2,0.1,0.3,0.2,0.5
			c0.5,0.9,1.7,1.2,2.6,0.7c0.3-0.2,0.5-0.4,0.7-0.7c0.1-0.2,0.3-0.4,0.4-0.5c0.8-0.9,1.3-1.9,1.5-3.1c0.2-0.8,0.2-1.6,0.1-2.5
			L96.1,15.5z M94.6,17.9c-0.4,1.8-1.1,2.3-1.7,3.1c-0.1,0.1-0.2,0.2-0.3,0.2c-0.1,0-0.3-0.1-0.3-0.2c-0.3-0.5-0.3-1.9-0.5-2.3
			c-2.1,1.8-4.7,2.8-7.5,2.8c-0.4,0-0.9,0-1.3-0.1l0,0l-2.1,5.4c-0.2,0.3-0.5,0.6-0.9,0.6c-0.1,0-0.2-0.1-0.2-0.2c0,0,0,0,0,0
			l-0.2-4.6l-5.1-0.7c-0.4-0.1-0.1-0.8,0.5-1.1l5-2.3c-0.2-1.6,0.1-3.6,2.4-6.6l-0.3-0.1c-0.6-0.1-1.2-0.3-1.7-0.4
			c-0.2-0.1-0.3-0.3-0.2-0.5c0-0.1,0.1-0.1,0.1-0.2c0.7-1.2,1.8-2.1,3-2.7c0.7-0.3,1.4-0.4,2.1-0.4c0.7,0,1.4,0.1,2,0.2
			c2.1-0.9,4.4-1.4,6.8-1.4c0.6,0,1.2,0,1.9,0.1c0.6,2.9,0.2,6-1.1,8.6C94.8,16.1,94.8,17,94.6,17.9z"/>
		<path d="M51.5,33.3c3,0,5.4-2.4,5.4-5.4c0-3-2.4-5.4-5.4-5.4c-3,0-5.4,2.4-5.4,5.4C46,30.9,48.5,33.3,51.5,33.3
			C51.5,33.3,51.5,33.3,51.5,33.3z M51.5,24c2.2,0,3.9,1.8,3.9,3.9c0,2.2-1.8,3.9-3.9,3.9c-2.1,0-3.9-1.7-3.9-3.9
			C47.6,25.7,49.3,24,51.5,24z"/>
		<path d="M55.4,48.6c0.1,0,0.1,0,0.2,0c0.4,0,0.8-0.4,0.7-0.8c0-0.3-0.2-0.6-0.5-0.7c-13.4-3.4-24-16.2-24.1-16.3
			c-0.3-0.3-0.7-0.4-1.1-0.1c0,0,0,0,0,0c-0.3,0.3-0.4,0.7-0.2,1.1c0,0,0,0,0,0.1C30.9,32.3,41.4,45.1,55.4,48.6z"/>
		<path d="M68.6,60.8c-0.1,0-6.5,4.8-13,6.4c-4.9,1.2-15.5-2.3-20-5.6c-1.5-1.1-1.6-1.8-1.6-1.9c0.8-1.8,16.7-3.4,30.9-3.9
			c0.4,0,0.7-0.4,0.7-0.8c0,0,0,0,0,0c0-0.4-0.3-0.7-0.7-0.7c0,0,0,0-0.1,0c-0.1,0-8,0.3-15.8,1c-16.5,1.5-16.5,3.4-16.5,4.4
			s0.7,2,2.2,3.1c3.7,2.9,12.5,6.3,18.5,6.3c0.9,0,1.8-0.1,2.7-0.3c6.8-1.7,13.3-6.5,13.5-6.7c0.3-0.2,0.4-0.7,0.2-1
			c0,0,0-0.1-0.1-0.1C69.5,60.6,69,60.5,68.6,60.8C68.7,60.8,68.7,60.8,68.6,60.8z"/>
	</g>
</g>
</svg>
