<?xml version="1.0" encoding="utf-8"?>
<!-- Generator: Adobe Illustrator 22.1.0, SVG Export Plug-In . SVG Version: 6.00 Build 0)  -->
<svg version="1.1" id="Layer_1" xmlns="http://www.w3.org/2000/svg" xmlns:xlink="http://www.w3.org/1999/xlink" x="0px" y="0px"
	 viewBox="0 0 100 100" style="enable-background:new 0 0 100 100;" xml:space="preserve">
<title>briefcase</title>
<g id="Layer_2_1_">
	<g id="black_shapes">
		<path d="M91.3,24.2H70.1v-7.5c0-3.4-2.8-6.2-6.2-6.2H36.1c-3.4,0-6.2,2.8-6.2,6.2v7.5H8.7c-3.4,0-6.2,2.8-6.2,6.2v52.9
			c0,3.4,2.8,6.2,6.2,6.2h82.6c3.4,0,6.2-2.8,6.2-6.2V30.4C97.5,26.9,94.7,24.2,91.3,24.2z M31.4,16.7c0-2.6,2.1-4.7,4.7-4.7l0,0
			h27.8c2.6,0,4.7,2.1,4.7,4.7l0,0v7.5h-4.2v-3.6c0-2.4-2-4.4-4.4-4.4H40c-2.4,0-4.4,2-4.4,4.4v3.6h-4.2V16.7z M37.1,24.2v-3.6
			c0-1.6,1.3-2.9,2.9-2.9H60c1.6,0,2.9,1.3,2.9,2.9l0,0v3.6H37.1z M8.7,25.7h82.6c2.6,0,4.7,2.1,4.7,4.7v1.8H4v-1.8
			C4,27.8,6.1,25.7,8.7,25.7z M96,83.3c0,2.6-2.1,4.7-4.7,4.7l0,0H8.7C6.1,88,4,85.9,4,83.3l0,0V52.2c2.5,4.9,7.5,8,12.9,8
			c0.4,0,0.8-0.3,0.8-0.8c0-0.4-0.3-0.8-0.8-0.8C9.8,58.7,4.1,52.9,4,45.8V33.7H96v12.1c0,7.1-5.8,12.9-12.9,12.9
			c-0.4,0-0.8,0.4-0.8,0.8c0,0,0,0,0,0c0,0.4,0.3,0.8,0.8,0.8c5.5,0,10.5-3.1,12.9-8L96,83.3z"/>
		<path d="M61.4,59.5H37.5c-0.4,0.1-0.7,0.4-0.7,0.9c0,0.4,0.3,0.6,0.7,0.7h23.9c0.4,0.1,0.8-0.3,0.9-0.7c0.1-0.4-0.3-0.8-0.7-0.9
			C61.5,59.5,61.5,59.5,61.4,59.5z"/>
		<path d="M34,52.6h-1.6c0.1-0.1,0.1-0.2,0.1-0.4V45c0-1.4-1.2-2.6-2.6-2.6h-4.3c-1.4,0-2.6,1.2-2.6,2.6l0,0v7.3
			c0,0.1,0,0.3,0.1,0.4h-1.6c-0.4,0-0.8,0.3-0.8,0.8v6.8c0,0.4,0.3,0.8,0.8,0.8c0,0,0,0,0,0H23v4.7c0,2.4,2,4.4,4.4,4.4h0.7
			c2.4,0,4.4-2,4.4-4.4V61H34c0.4,0,0.8-0.3,0.8-0.8c0,0,0,0,0,0v-6.8C34.8,53,34.5,52.6,34,52.6C34,52.6,34,52.6,34,52.6z M24.6,45
			c0-0.6,0.5-1,1-1l0,0h4.3c0.6,0,1,0.5,1,1l0,0v7.7h-6.4V45z M31,65.7c0,1.6-1.3,2.9-2.9,2.9l0,0h-0.7c-1.6,0-2.9-1.3-2.9-2.9l0,0
			V61H31V65.7z M33.3,59.5h-11v-5.3h11V59.5z"/>
		<path d="M78.5,52.6h-1.6c0.1-0.1,0.1-0.2,0.1-0.4V45c0-1.4-1.2-2.6-2.6-2.6h-4.3c-1.4,0-2.6,1.2-2.6,2.6l0,0v7.3
			c0,0.1,0,0.3,0.1,0.4H66c-0.4,0-0.8,0.3-0.8,0.8v6.8c0,0.4,0.3,0.8,0.8,0.8c0,0,0,0,0,0h1.5v4.7c0,2.4,2,4.4,4.4,4.4h0.7
			c2.4,0,4.4-2,4.4-4.4V61h1.5c0.4,0,0.8-0.3,0.8-0.8c0,0,0,0,0,0v-6.8C79.3,53,78.9,52.6,78.5,52.6C78.5,52.6,78.5,52.6,78.5,52.6z
			 M69,45c0-0.6,0.5-1,1-1h4.3c0.6,0,1,0.5,1,1v7.7H69V45z M75.4,65.7c0,1.6-1.3,2.9-2.9,2.9l0,0h-0.7c-1.6,0-2.9-1.3-2.9-2.9l0,0
			V61h6.4V65.7z M77.7,59.5h-11v-5.3h11V59.5z"/>
	</g>
</g>
</svg>
