<?xml version="1.0" encoding="utf-8"?>
<!-- Generator: Adobe Illustrator 22.1.0, SVG Export Plug-In . SVG Version: 6.00 Build 0)  -->
<svg version="1.1" id="Layer_1" xmlns="http://www.w3.org/2000/svg" xmlns:xlink="http://www.w3.org/1999/xlink" x="0px" y="0px"
	 viewBox="0 0 100 100" style="enable-background:new 0 0 100 100;" xml:space="preserve">
<title>butterfly</title>
<g id="Layer_2_1_">
	<g id="black_shapes">
		<path d="M54.3,51.8L53.7,52c-1.2,0.3-2.5,0.4-3.8,0.4c-1.4,0-2.7-0.2-4-0.4l-0.4-0.1c-0.4-0.1-0.8,0.2-0.8,0.6c0,0,0,0,0,0
			c-0.1,0.4,0.2,0.8,0.6,0.8l0.4,0.1c1.4,0.3,2.9,0.4,4.3,0.5c1.4,0,2.7-0.2,4-0.5l0.6-0.1c0.4-0.1,0.7-0.5,0.6-0.8
			C55.1,52,54.7,51.8,54.3,51.8L54.3,51.8L54.3,51.8z"/>
		<path d="M53.3,56.5c-0.5,0.1-0.9,0.2-1.3,0.3c-0.7,0.2-1.3,0.3-2,0.3c-0.7,0-1.5-0.1-2.2-0.3l-1.2-0.2c-0.4-0.1-0.8,0.2-0.8,0.6
			c-0.1,0.4,0.2,0.8,0.6,0.8l1.2,0.2c0.8,0.2,1.6,0.3,2.4,0.3c0.8,0,1.6-0.1,2.3-0.3l1.3-0.3c0.4-0.1,0.6-0.5,0.5-0.9
			C53.9,56.7,53.6,56.5,53.3,56.5L53.3,56.5z"/>
		<path d="M45.3,48.2l0.4,0.1c1.4,0.3,2.9,0.4,4.3,0.5c1.4,0,2.7-0.2,4-0.5l0.6-0.1c0.4-0.1,0.7-0.5,0.6-0.8
			c-0.1-0.4-0.5-0.7-0.8-0.6l0,0l-0.6,0.1c-1.2,0.3-2.5,0.4-3.8,0.4c-1.4,0-2.7-0.2-4-0.4l-0.4-0.1c-0.4-0.1-0.8,0.2-0.9,0.6
			C44.6,47.7,44.9,48.1,45.3,48.2z"/>
		<path d="M79.6,63.7c-7.5,0-9-2.3-11.3-6L68,57.2c-0.2-0.3-0.7-0.4-1-0.2c0,0,0,0,0,0c-0.3,0.2-0.4,0.7-0.2,1l0.3,0.4
			c2.5,3.9,4.3,6.7,12.6,6.7c8.5,0,16.2-7.8,16.2-16.5c0-2.8-0.6-5.6-1.8-8.2c-0.7-1.8-1.5-4.1-2.9-7.7c-3.5-9,0.6-14.5,3.7-18.5
			c1.8-2.4,3.3-4.3,2.6-6.4c-0.3-0.8-1-1.5-1.8-1.6c-4.9-1.2-18,7.4-24.4,13.8c-9.4,9.4-12.7,17.1-13.8,20.3c-0.3-1.6-1-3.1-1.9-4.5
			c-1-1.5-2.6-2.4-4.4-2.6c2.7-0.6,4.4-3.3,3.8-6c-0.2-0.9-0.7-1.8-1.3-2.4l0,0c0,0,0.4-4,4.9-8.4s12.1-6,12.1-6
			c0.4-0.1,0.6-0.5,0.5-0.9C70.9,9.2,70.6,9,70.2,9c-0.3,0.1-8.1,1.7-12.9,6.5c-2.5,2.3-4.2,5.2-5.1,8.5c-1.4-0.8-3-0.8-4.5-0.2
			c-0.8-3.2-2.6-6.1-5-8.4C38,10.6,30.2,9,29.9,8.9c-0.4-0.1-0.8,0.2-0.9,0.6c-0.1,0.4,0.2,0.8,0.6,0.9c0.1,0,7.6,1.6,12.1,6
			s4.7,8.2,4.7,8.2l0,0c-2,1.9-2.2,5.1-0.3,7.1c0.7,0.8,1.7,1.3,2.7,1.5c-1.7,0.3-3.2,1.2-4.2,2.6c-1,1.4-1.6,3-1.9,4.7
			c-1-3-4.2-10.9-13.8-20.5C22.5,13.7,9.5,5.1,4.5,6.2C3.7,6.4,2.9,7,2.7,7.9c-0.7,2,0.8,4,2.6,6.4c3,4,7.2,9.5,3.7,18.5
			c-1.4,3.5-2.2,5.8-2.9,7.6c-1.2,2.6-1.8,5.4-1.8,8.2c0,8.6,7.7,16.5,16.2,16.5c8.3,0,10.1-2.8,12.6-6.7l0.3-0.4
			c0.2-0.3,0.1-0.8-0.2-1c-0.3-0.2-0.8-0.1-1,0.2l-0.3,0.4c-2.4,3.8-3.8,6-11.3,6c-7.7,0-14.8-7.1-14.8-15c0-2.7,0.6-5.3,1.7-7.7
			c0.7-1.9,1.5-4.2,2.9-7.7c3.8-9.8-0.8-15.9-3.9-20C4.9,11.3,3.6,9.7,4,8.3C4.2,8,4.5,7.7,4.9,7.7c3.9-0.9,16.3,6.8,23,13.5
			c9.4,9.4,12.6,17,13.5,19.9l0.8,14.9l1.2,11.4c-0.7,1.9-7.6,21-18.9,24.5c-4.2,1.3-8.5,0.2-12.9-3.1c-2.1-1.4-3.5-3.8-3.6-6.4
			c0-4.2,3.5-9.4,9.4-14c0.3-0.2,0.4-0.7,0.1-1c-0.2-0.3-0.7-0.4-1-0.1c0,0,0,0,0,0c-2.4,1.8-10,8.3-10,15.2c0.1,3,1.6,5.9,4.1,7.5
			c2.9,2.4,6.5,3.8,10.3,4c1.3,0,2.6-0.2,3.9-0.6c11.3-3.5,18.2-20.9,19.6-24.8c2,10.2,4.6,18.8,4.9,19.5c0.1,0.4,0.5,0.6,0.9,0.5
			c0.2-0.1,0.4-0.3,0.5-0.5c0.2-0.8,2.8-9.3,4.8-19.3C57.1,73,64,89.9,75.1,93.3c1.3,0.4,2.6,0.6,3.9,0.6c3.8-0.1,7.4-1.5,10.3-4
			c2.5-1.7,4.1-4.5,4.1-7.5c0-6.8-7.6-13.3-10-15.2c-0.3-0.3-0.8-0.2-1,0.1c0,0,0,0-0.1,0.1c-0.2,0.3-0.2,0.8,0.1,1
			c6,4.6,9.5,9.8,9.5,14c-0.1,2.6-1.4,5-3.6,6.4c-4.3,3.3-8.7,4.4-12.8,3.1c-11.2-3.4-18.2-22.6-18.9-24.5l1.1-11.5L58.6,41
			c0.9-2.9,4.1-10.5,13.5-19.9c6.7-6.7,19.1-14.4,23-13.5C95.5,7.7,95.9,8,96,8.3c0.4,1.3-0.8,3-2.4,5.1c-3.1,4-7.7,10.1-3.9,20
			c1.4,3.6,2.3,5.8,2.9,7.7c1.1,2.4,1.7,5,1.7,7.6C94.4,56.6,87.3,63.7,79.6,63.7z M46.3,28.4c0-2,1.6-3.6,3.6-3.6
			c2,0,3.6,1.6,3.6,3.6c0,2-1.6,3.6-3.6,3.6c0,0,0,0,0,0C48,31.9,46.4,30.3,46.3,28.4z M50.1,85.1c-2.5-8.9-10.5-39.8-4.2-48.4
			c1.7-2.3,5-2.8,7.3-1.1c0.4,0.3,0.8,0.7,1.1,1.1C60.6,45.3,52.6,76.2,50.1,85.1z"/>
	</g>
</g>
</svg>
