<?xml version="1.0" encoding="utf-8"?>
<!-- Generator: Adobe Illustrator 22.1.0, SVG Export Plug-In . SVG Version: 6.00 Build 0)  -->
<svg version="1.1" id="Layer_1" xmlns="http://www.w3.org/2000/svg" xmlns:xlink="http://www.w3.org/1999/xlink" x="0px" y="0px"
	 viewBox="0 0 100 100" style="enable-background:new 0 0 100 100;" xml:space="preserve">
<title>graduation</title>
<g id="Layer_2_1_">
	<g id="black_shapes">
		<path d="M96.9,23.5L50.5,6.4c-0.2-0.1-0.4-0.1-0.6,0L3.1,24.1c-0.3,0.1-0.5,0.4-0.6,0.8c0,0.3,0.2,0.7,0.5,0.8L49.4,45
			c0.1,0,0.2,0.1,0.3,0.1c0.1,0,0.2,0,0.3-0.1l15.3-6.5c0.4-0.2,0.6-0.7,0.4-1.1c-0.2-0.4-0.7-0.6-1.1-0.5c0,0,0,0,0,0l-15,6.4
			l-44-18.4L50.2,8.2l44.1,16.2l-22.2,9.2l-16.4-6.5c0.2-0.4,0.4-0.9,0.4-1.4c0-2.4-2.8-4.3-6.4-4.3s-6.4,1.9-6.4,4.3
			s2.8,4.3,6.4,4.3c1.8,0.1,3.5-0.5,4.9-1.5l16.6,6.6l0.5,38.7c-2.5,0.5-4.2,2.9-3.7,5.4c0.5,2.5,2.9,4.2,5.4,3.7
			c2.5-0.5,4.2-2.9,3.7-5.4c-0.4-1.9-1.8-3.4-3.7-3.7l-0.1-8.6c2.6-2.3,4.9-5,6.6-8.1c0.1-0.1,0.1-0.2,0.1-0.4V46
			c0.1-0.5-0.3-0.9-0.7-1c-0.5-0.1-0.9,0.3-1,0.7c0,0.1,0,0.1,0,0.2v10.5c-1.4,2.3-3.1,4.5-5,6.4L73,41.8l22.1-9.2
			c0.3-0.1,0.5-0.4,0.5-0.8v-1.3c-0.1-0.5-0.5-0.8-1-0.7c-0.4,0-0.7,0.4-0.7,0.7v0.8L73,40l-0.1-4.8L97,25.1
			c0.3-0.1,0.5-0.5,0.5-0.8C97.5,23.9,97.2,23.6,96.9,23.5z M45,25.7c0-1.4,2.2-2.6,4.7-2.6s4.7,1.3,4.7,2.6c0,1.3-2.2,2.6-4.7,2.6
			S45,27.1,45,25.7z M75.5,78.3c0,1.6-1.3,2.9-2.9,2.9s-2.9-1.3-2.9-2.9s1.3-2.9,2.9-2.9c0,0,0,0,0,0C74.2,75.4,75.5,76.7,75.5,78.3
			z"/>
		<path d="M49.7,51.4c0.1,0,0.2,0,0.3-0.1l15.8-6.6c0.4-0.2,0.6-0.7,0.4-1.2c-0.2-0.4-0.6-0.5-1-0.4l-15.5,6.4L5.9,31.7v-1.3
			c-0.1-0.5-0.5-0.8-1-0.7c-0.4,0-0.7,0.4-0.7,0.7v1.8c0,0.3,0.2,0.7,0.5,0.8l44.7,18.2C49.5,51.4,49.6,51.4,49.7,51.4z"/>
		<path d="M72.9,85.3c-0.5,0-0.8,0.4-0.8,0.8v6.6c0,0.5,0.4,0.8,0.8,0.9c0.5,0,0.8-0.4,0.9-0.9v-6.6C73.7,85.6,73.3,85.3,72.9,85.3z
			"/>
		<path d="M70,84.2c-0.4-0.1-0.9,0.1-1.1,0.5c0,0,0,0,0,0l-2,6.3c-0.1,0.4,0.1,0.9,0.5,1c0,0,0,0,0,0c0.1,0,0.2,0,0.3,0
			c0.4,0,0.7-0.2,0.8-0.6l2-6.3C70.6,84.8,70.4,84.3,70,84.2z"/>
		<path d="M76.8,84.7c-0.2-0.4-0.7-0.6-1.1-0.4c-0.4,0.2-0.6,0.5-0.5,0.9l2,6.3c0.1,0.4,0.4,0.6,0.8,0.6c0.1,0,0.2,0,0.3,0
			c0.4-0.1,0.7-0.6,0.6-1c0,0,0,0,0,0L76.8,84.7z"/>
		<path d="M66.8,68.6c-0.2-0.4-0.7-0.6-1.1-0.5c0,0,0,0,0,0c-5,1.9-10.2,2.9-15.5,3.1V57.3c0-0.5-0.4-0.9-0.9-0.9l0,0
			c-0.5,0-0.8,0.4-0.8,0.8c0,0,0,0,0,0v13.9c-5.4-0.1-10.8-1.2-15.8-3.1c-7-2.9-11.8-10.4-12.6-11.7V46c0.1-0.5-0.3-0.9-0.7-1
			c-0.5-0.1-0.9,0.3-1,0.7c0,0.1,0,0.1,0,0.2v10.7c0,0.1,0,0.3,0.1,0.4c0.2,0.4,5.3,9.3,13.5,12.6c5.4,2.1,11.2,3.2,17.1,3.3h0.2
			c5.9,0,11.6-1.1,17.1-3.2C66.8,69.6,67,69.1,66.8,68.6z"/>
	</g>
</g>
</svg>
