<?xml version="1.0" encoding="utf-8"?>
<!-- Generator: Adobe Illustrator 22.1.0, SVG Export Plug-In . SVG Version: 6.00 Build 0)  -->
<svg version="1.1" id="Layer_1" xmlns="http://www.w3.org/2000/svg" xmlns:xlink="http://www.w3.org/1999/xlink" x="0px" y="0px"
	 viewBox="0 0 100 100" style="enable-background:new 0 0 100 100;" xml:space="preserve">
<title>molecule</title>
<g id="Layer_2_1_">
	<g id="black_shapes">
		<path d="M30.2,55.3l-8.5,2.6c-2-5.1-7.8-7.6-12.9-5.6c-5.1,2-7.6,7.8-5.6,12.9s7.8,7.6,12.9,5.6c3.8-1.5,6.3-5.2,6.3-9.3
			c0-0.8-0.1-1.5-0.2-2.2l8.5-2.6c0.4-0.1,0.6-0.5,0.5-0.9C31,55.4,30.6,55.2,30.2,55.3z M12.5,69.9c-4.7,0-8.5-3.8-8.5-8.4
			c0-4.7,3.8-8.5,8.4-8.5c4.7,0,8.5,3.8,8.5,8.4c0,0,0,0,0,0C20.9,66.1,17.1,69.9,12.5,69.9z"/>
		<path d="M21,34.4c0.7,0.2,1.4,0.2,2.2,0.2c2.6,0,5.1-1,6.9-2.8l5.3,4.9c0.3,0.3,0.8,0.3,1.1,0c0,0,0,0,0,0c0.3-0.3,0.3-0.8,0-1.1
			c0,0,0,0,0,0l-5.4-4.9c2.5-3.3,2.7-7.9,0.4-11.4c-3-4.6-9.1-6-13.7-3s-6,9.1-3,13.7C16.2,32.3,18.4,33.9,21,34.4L21,34.4z
			 M14.9,22.9c1-4.6,5.5-7.4,10.1-6.4c4.6,1,7.4,5.5,6.4,10.1c-1,4.6-5.5,7.4-10.1,6.4c-2.2-0.5-4.1-1.8-5.3-3.7
			C14.9,27.4,14.5,25.1,14.9,22.9z"/>
		<path d="M58.3,34.5c0.1,0.1,0.3,0.1,0.4,0.1c0.3,0,0.5-0.1,0.6-0.4l6.9-11.4c0.7,0.4,1.5,0.6,2.2,0.8c0.7,0.2,1.4,0.2,2.2,0.2
			c5.5,0,9.9-4.4,9.9-9.9c0-5.5-4.4-9.9-9.9-9.9c-5.5,0-9.9,4.4-9.9,9.9c0,3.2,1.6,6.3,4.2,8.2l-7,11.4C57.8,33.9,58,34.3,58.3,34.5
			C58.3,34.5,58.3,34.5,58.3,34.5z M63.6,18.5c-2.5-3.9-1.4-9.2,2.6-11.7c0,0,0,0,0,0c3.9-2.5,9.1-1.4,11.6,2.5c0,0,0,0,0,0
			c2.5,3.9,1.4,9.1-2.6,11.7C71.3,23.6,66.1,22.5,63.6,18.5L63.6,18.5z"/>
		<path d="M95.9,48.5c-2.9-4.6-9.1-6-13.7-3.1c-2,1.2-3.4,3.1-4.1,5.3l-8.8-1.5c-0.4-0.1-0.8,0.2-0.9,0.6c-0.1,0.4,0.2,0.8,0.6,0.9
			c0,0,0,0,0,0l8.7,1.5c-0.9,5.2,2.5,10.2,7.7,11.3c0.7,0.2,1.4,0.2,2.2,0.2c1.9,0,3.8-0.5,5.4-1.6C97.5,59.2,98.9,53.1,95.9,48.5z
			 M92.1,61c-3.9,2.5-9.1,1.4-11.7-2.6c-2.5-3.9-1.4-9.1,2.6-11.7c1.4-0.9,2.9-1.3,4.5-1.3c0.6,0,1.2,0.1,1.8,0.2
			c4.5,1,7.4,5.5,6.4,10C95.3,57.8,94,59.8,92.1,61z"/>
		<path d="M63.6,76.3c-1.8-0.4-3.7-0.3-5.5,0.4L54.9,69c-0.2-0.4-0.6-0.6-1-0.4c0,0,0,0,0,0c-0.4,0.2-0.6,0.6-0.4,1l3.3,7.7
			c-0.2,0.1-0.4,0.2-0.6,0.4c-4.6,3-6,9.1-3,13.7c1.4,2.2,3.7,3.8,6.2,4.4c0.7,0.2,1.4,0.2,2.2,0.2c5.5,0,9.9-4.5,9.9-10
			C71.4,81.3,68.2,77.3,63.6,76.3z M69.7,87.8c-1,4.6-5.5,7.4-10.1,6.4c-4.6-1-7.4-5.5-6.4-10.1c0.5-2.2,1.8-4.1,3.7-5.3
			c1.3-0.9,2.9-1.3,4.5-1.3c4.7,0,8.4,3.8,8.5,8.4C69.9,86.6,69.8,87.2,69.7,87.8L69.7,87.8z"/>
		<path d="M63.8,50.8c0-8-6.5-14.5-14.5-14.5s-14.5,6.5-14.5,14.5s6.5,14.5,14.5,14.5S63.8,58.8,63.8,50.8z M49.3,63.8
			c-7.2,0-13.1-5.8-13.1-13c0-7.2,5.8-13.1,13-13.1c7.2,0,13.1,5.8,13.1,13c0,0,0,0,0,0C62.3,58,56.4,63.8,49.3,63.8L49.3,63.8z"/>
	</g>
</g>
</svg>
