<?xml version="1.0" encoding="utf-8"?>
<!-- Generator: Adobe Illustrator 22.1.0, SVG Export Plug-In . SVG Version: 6.00 Build 0)  -->
<svg version="1.1" id="Layer_1" xmlns="http://www.w3.org/2000/svg" xmlns:xlink="http://www.w3.org/1999/xlink" x="0px" y="0px"
	 viewBox="0 0 100 100" style="enable-background:new 0 0 100 100;" xml:space="preserve">
<title>pencil</title>
<g id="Layer_2_1_">
	<g id="black_shapes">
		<path d="M95.4,56.3c0-1-0.3-1.9-1-2.6L66,25.2c-0.1-0.1-0.3-0.2-0.5-0.2l-5.7-0.3c-0.4,0-0.7,0.3-0.8,0.6l-1,6.8l-6.3-0.2
			c-0.4,0-0.7,0.3-0.8,0.7c0,0,0,0,0,0l-0.2,7.6c0,0.1,0,0.2,0.1,0.3l-6-0.7l-0.5-5.9l0,0c-0.1-0.4-0.4-0.6-0.7-0.6l-7-0.3l0.5-5.6
			c0-0.4-0.3-0.8-0.7-0.8c-0.2,0-0.4,0.1-0.6,0.2L7.5,54.9c-0.7,0.7-1.1,1.6-1.1,2.5c0,0.3,0,0.6,0.1,0.9l-4,16
			c-0.1,0.3,0,0.5,0.2,0.7c0.1,0.1,0.3,0.2,0.5,0.2h0.2L12,73c0.4-0.1,0.6-0.6,0.5-1c-0.1-0.3-0.5-0.6-0.8-0.5l-7.4,1.9l3.4-13.3
			l10.1,10.1c0.7,0.7,1.6,1.1,2.5,1.1c1,0,1.9-0.4,2.5-1.1l28.4-28.4c0.1-0.1,0.2-0.3,0.2-0.5L79.1,69c0.7,0.7,1.6,1.1,2.5,1.1
			c0.2,0,0.4,0,0.7-0.1c4.3,3.1,10.3,2.2,13.4-2.1C98.2,64.4,98.1,59.7,95.4,56.3L95.4,56.3z M21.8,69.2c-0.8,0.8-2.1,0.8-2.9,0
			L8.5,58.9c-0.2-0.2-0.4-0.4-0.5-0.7c0,0,0-0.1,0-0.1C7.8,57.4,8,56.5,8.6,56l26.7-26.8l-0.4,4.3c0,0.2,0,0.4,0.2,0.6
			c0.1,0.1,0.3,0.2,0.5,0.3l6.2,0.3L18.6,57.9c-0.3,0.3-0.3,0.8,0,1.1c0.3,0.3,0.8,0.3,1.1,0l23.2-23.2l0.4,4.9
			c0,0.3,0.3,0.6,0.7,0.7l5.1,0.6L21.8,69.2z M52.2,40l0.2-6.5l5.9,0.2l25.1,25c0.3,0.3,0.8,0.3,1,0c0.3-0.3,0.3-0.8,0-1.1
			c0,0,0,0,0,0l-25-24.9l1-6.4l4.8,0.2l28.2,28.2c0.5,0.5,0.7,1.2,0.6,1.8l-12,12c-0.7,0.1-1.3-0.1-1.8-0.6L52.2,40z M93.6,67.9
			C91,70.5,87,71,83.8,69.2c0.1-0.1,0.2-0.1,0.3-0.2l10.3-10.3c0.2-0.2,0.3-0.4,0.5-0.6C96.7,61.3,96.2,65.3,93.6,67.9z"/>
	</g>
</g>
</svg>
