<?xml version="1.0" encoding="utf-8"?>
<!-- Generator: Adobe Illustrator 22.1.0, SVG Export Plug-In . SVG Version: 6.00 Build 0)  -->
<svg version="1.1" id="Layer_1" xmlns="http://www.w3.org/2000/svg" xmlns:xlink="http://www.w3.org/1999/xlink" x="0px" y="0px"
	 viewBox="0 0 100 100" style="enable-background:new 0 0 100 100;" xml:space="preserve">
<title>rocket</title>
<g id="Layer_2_1_">
	<g id="black_shapes">
		<path d="M9.1,53.6c0.4,0.2,0.9,0.4,1.3,0.4c1.5,0,3.4-1.1,5.4-2.3c1-0.6,2-1.2,3.1-1.6c5-2.1,8.4-1.6,12.4,2
			c0.4,0.3,0.9,0.3,1.2-0.1c0.1-0.1,0.1-0.1,0.1-0.2c0.2-0.5,1.8-3.2,3.5-6.2c5.5-9.5,5.5-9.5,4.7-10l0,0
			c-5.8-3.8-14.7-3.9-22.1-0.3c-6.3,3-10.2,8.3-10.8,14.4C7.8,51.7,8.2,53,9.1,53.6z M9.8,49.9c0.7-7.5,6.4-11.3,9.8-12.9
			c3.3-1.6,6.9-2.4,10.5-2.4c3.2-0.1,6.4,0.7,9.2,2.2c-0.8,1.5-2.9,5.2-4.6,8c-1.3,2.2-2.4,4.1-3,5.3c-4.2-3.4-8.1-3.9-13.5-1.6
			c-1.1,0.5-2.2,1.1-3.2,1.7c-1.7,1-4.2,2.4-4.9,2C9.8,52,9.6,51.3,9.8,49.9z"/>
		<path d="M53.1,62.8c-3,1.6-5.7,3.2-6.2,3.4c-0.2,0.1-0.4,0.3-0.5,0.6c0,0.3,0,0.5,0.2,0.8c3.5,3.9,3.9,7.5,1.8,12.4
			c-0.5,1-1.1,2.1-1.7,3c-1.6,2.6-3,5-2,6.7c0.7,0.9,1.9,1.4,3.1,1.2h0.9c6.1-0.5,11.4-4.4,14.5-10.6c3.7-7.3,3.6-16.2,0-22.1
			C62.6,57.5,62.6,57.4,53.1,62.8z M61.6,79.5c-1.7,3.3-5.6,9-13.1,9.6c-1.5,0.1-2.1-0.1-2.3-0.4c-0.4-0.7,1-3.2,2-4.8
			c0.7-1,1.2-2.1,1.8-3.2c2.3-5.3,1.9-9.2-1.4-13.4c1.2-0.6,3.1-1.7,5.3-3c2.8-1.6,6.6-3.7,8-4.5C65,65.2,64.8,73.1,61.6,79.5z"/>
		<path d="M48.6,50.2c-3.1-3.1-14,7.6-14.5,8.1c-2.5,2.7-4.7,5.6-6.7,8.7c-4.1,6.4-3.2,7.4-2.7,7.8c0.3,0.2,0.6,0.3,0.9,0.3
			c3.8,0,14.3-10,14.5-10.1C40.2,64.9,51.7,53.3,48.6,50.2z M26.2,73.3c0.5-2.2,5.6-10.2,9.2-13.8c5.9-5.8,10.4-8.2,11.7-8.2
			c0.1,0,0.2,0,0.3,0.1c0.8,0.8-3.3,7.2-8.5,12.3C35.2,67.3,28.2,72.7,26.2,73.3z"/>
		<path d="M24.4,60.5c0.5-0.9,1-1.6,1.5-2.2c1.1-1.4,1.9-2.9,2.4-4.6c0.1-0.5-0.1-1-0.6-1.1c0,0,0,0,0,0c-0.5-0.1-1,0.1-1.1,0.6
			c-0.4,1.5-1.1,2.9-2.1,4.1c-0.6,0.7-1.1,1.5-1.6,2.3c-0.2,0.3-0.4,0.6-0.7,1c-0.8,1-1.4,2.1-1.7,3.3c-0.2,1.6,1.3,3.3,3,5
			c0.2,0.2,0.4,0.3,0.6,0.3c0.2,0,0.5-0.1,0.6-0.2c0.4-0.3,0.4-0.9,0.1-1.2c0,0,0,0-0.1-0.1c-2.2-2.2-2.6-3.1-2.5-3.6
			c0.3-0.9,0.8-1.8,1.4-2.5C24,61.2,24.2,60.8,24.4,60.5z"/>
		<path d="M46.9,72c-0.1-0.5-0.6-0.7-1.1-0.6c-1.7,0.5-3.3,1.2-4.7,2.3c-0.6,0.4-1.3,0.9-2.2,1.4c-0.3,0.2-0.7,0.4-1.1,0.7
			c-0.8,0.6-1.6,1-2.5,1.3c-0.8,0.1-1.3-0.2-2.7-1.8c-0.3-0.4-0.9-0.4-1.3,0s-0.4,0.9,0,1.3l0,0c1.4,1.4,2.4,2.3,3.8,2.3h0.4
			c1.2-0.3,2.4-0.9,3.4-1.7c0.4-0.2,0.7-0.5,1-0.6c1-0.6,1.7-1.1,2.3-1.5c1.2-1,2.6-1.7,4.1-2.1C46.7,73,47,72.5,46.9,72z"/>
		<path d="M31.5,79.4L31.5,79.4c-0.5,0-0.9,0.4-0.9,0.9c0,0-0.1,4-5,6.8c-6,3.4-19,8.8-21.5,8.7c-0.2-2.6,4.9-16.9,8-22.2
			c2.8-4.8,6.7-4.9,6.8-4.9l0,0c0.5,0,0.9-0.4,0.9-0.9c0-0.5-0.4-0.9-0.9-0.9c-0.2,0-5,0-8.4,5.8C8.5,76.4,0.7,95,2.8,97.1
			c0.4,0.3,0.8,0.4,1.3,0.4c5,0,20.9-7.9,22.3-8.8c5.8-3.3,5.9-8.1,5.9-8.3C32.4,79.9,32.1,79.5,31.5,79.4
			C31.6,79.4,31.5,79.4,31.5,79.4z"/>
		<path d="M12.2,79.3c-1.2,2.9-2,6-2.4,9.2c0,0.3,0.1,0.6,0.3,0.7c0.2,0.1,0.4,0.2,0.6,0.2h0.2c2.4-0.6,14.6-3.7,16.2-7
			c0.2-0.4,0-1-0.4-1.2c-0.4-0.2-1,0-1.2,0.4c-0.8,1.7-8.1,4.2-13.7,5.7c0.5-2.5,1.2-5,2.2-7.5c2-5.3,7.6-8.6,7.7-8.6
			c0.4-0.2,0.6-0.8,0.3-1.2c0,0,0,0,0,0c-0.3-0.4-0.8-0.6-1.2-0.3C20.3,69.9,14.3,73.5,12.2,79.3z"/>
		<path d="M96.1,4.2l-0.2-0.2c-1-1-2.9-1.5-5.7-1.5l0,0c-10,0-31.2,6.4-40.9,16.1c-2.3,2.4-4.5,5.1-6.4,7.9c-1,1.3-2,2.8-3.1,4.2
			c-0.3,0.4-0.2,0.9,0.1,1.2c0.4,0.3,0.9,0.2,1.2-0.1c1.1-1.4,2.2-2.9,3.1-4.2c1.9-2.7,3.9-5.3,6.2-7.7c9.4-9.4,30-15.5,39.6-15.5
			l0,0c3.2,0,4.2,0.7,4.5,1l0.2,0.2c0.3,0.3,1,1.3,0.9,4.5c0,5.3-2.1,14-5.5,22.3C81.2,28,73.9,20.8,69.3,12
			c-0.2-0.4-0.8-0.6-1.2-0.4c-0.4,0.2-0.6,0.8-0.4,1.2l0,0c4.8,9.2,12.4,16.6,21.8,21.1c-2.6,6-6,11.7-9.9,15.5
			c-2.6,2.4-5.3,4.6-8.2,6.6c-1.3,0.9-2.6,1.9-3.9,2.9c-0.4,0.3-0.5,0.8-0.2,1.2c0,0,0,0,0,0c0.2,0.2,0.4,0.4,0.7,0.4
			c0.2,0,0.4-0.1,0.5-0.2c1.3-1,2.6-1.9,3.9-2.8c3-2,5.8-4.3,8.4-6.7c9.8-9.6,16.5-30.8,16.6-40.7C97.5,7.2,97.1,5.2,96.1,4.2z"/>
		<path d="M71.1,28.7c0.8,0.8,1.4,1.7,1.8,2.6c0.3,0.4,0.8,0.6,1.2,0.3c0.4-0.2,0.5-0.6,0.4-1c-2.5-5.5-9-7.9-14.5-5.4
			c-1.2,0.5-2.3,1.3-3.2,2.2c-4.3,4.2-4.3,11.2-0.1,15.5c2,2.1,4.8,3.2,7.7,3.3h0.1c5.8,0,10.6-4.5,10.9-10.3c0-0.5-0.3-0.9-0.8-0.9
			c0,0,0,0,0,0c-0.5,0-0.9,0.3-0.9,0.8c0,0,0,0,0,0c-0.3,5.1-4.6,9-9.7,8.7c-5.1-0.3-9-4.6-8.7-9.7c0.3-5.1,4.6-9,9.7-8.7
			C67.3,26.1,69.5,27.1,71.1,28.7L71.1,28.7z"/>
	</g>
</g>
</svg>
