<?xml version="1.0" encoding="utf-8"?>
<!-- Generator: Adobe Illustrator 22.1.0, SVG Export Plug-In . SVG Version: 6.00 Build 0)  -->
<svg version="1.1" id="Layer_1" xmlns="http://www.w3.org/2000/svg" xmlns:xlink="http://www.w3.org/1999/xlink" x="0px" y="0px"
	 viewBox="0 0 100 100" style="enable-background:new 0 0 100 100;" xml:space="preserve">
<title>telescope</title>
<g id="Layer_2_1_">
	<g id="black_shapes">
		<path d="M97.4,28.2l-3.6-21c-0.3-1.5-1.1-2.8-2.3-3.6c-1.2-0.9-2.8-1.2-4.3-1l-4.7,0.7c-0.7,0.1-1.3,0.5-1.8,1.1
			c-0.6-0.4-1.3-0.6-2.1-0.5L63.8,6.2c-1.5,0.2-2.8,1-3.7,2.2c-0.7,0.9-1,2-1.1,3.1l-43.3,6.7c-2.3,0.3-4.1,2-4.7,4.3
			c-0.3-0.1-0.6-0.1-0.9,0l-2.8,0.5c-1.5,0.2-2.8,1-3.7,2.2c-0.9,1.2-1.3,2.7-1,4.1l1.3,7.6c0.2,1.5,1,2.8,2.2,3.7
			c1.3,0.9,2.8,1.3,4.4,1l2.9-0.5c0.4-0.1,0.8-0.2,1.2-0.5c0.3,0.3,0.7,0.7,1,0.9c1.2,0.9,2.8,1.2,4.3,1l23.7-3.7l0.3,1.9l-5.6,0.9
			h-0.2H38l-0.2,0.1h-0.1L36.8,42l-0.1,0.1l-0.2,0.1l-0.1,0.1l-0.2,0.2c0,0-0.1,0.1-0.1,0.1L36,42.7l-0.1,0.1L35.8,43l-0.1,0.1
			c0,0.1-0.1,0.1-0.1,0.2l-0.1,0.1l-0.1,0.2c0,0,0,0.1-0.1,0.1V44v0.1c-0.1,0.1-0.1,0.3-0.1,0.4c0,0,0,0.1,0,0.2v0.6
			c0,0,0,0.1,0,0.2v0.2c0,0,0,0.1,0,0.1l1.4,8.7c0.1,0.4,0.2,0.8,0.4,1.1c0.7,1.6,2.4,2.4,4.1,2.2l2.3-0.4L24.5,92
			c-0.5,0.9-0.6,1.9-0.3,2.8c0.3,1,1,1.8,1.9,2.2c0.5,0.3,1.2,0.4,1.8,0.4c1.4,0,2.7-0.8,3.4-2l15.9-29.4L49,94
			c0.2,2,1.8,3.5,3.9,3.5h0.2c1-0.1,2-0.5,2.7-1.3c0.6-0.7,1-1.7,0.9-2.6L55,66.1l20.6,29.8c0.7,1,1.9,1.7,3.2,1.7
			c0.7,0,1.5-0.2,2.1-0.6c0.8-0.5,1.4-1.4,1.7-2.3c0.2-1,0-2-0.6-2.8L56.8,55.2l3.9-0.6c1.8-0.2,3.1-1.7,3.2-3.5c0-0.3,0-0.6,0-0.9
			l-1.4-8.7c-0.3-1.8-1.9-3.1-3.7-3.2c-0.3,0-0.5,0-0.8,0l-6.5,1.1l-0.3-1.9l12.3-1.9c0.4,0.6,0.9,1.1,1.5,1.5
			c1.2,0.9,2.8,1.2,4.3,1l14.8-2.3c0.7-0.1,1.3-0.5,1.8-1.1c0.6,0.4,1.3,0.6,2.1,0.5l4.7-0.7c1.5-0.2,2.8-0.9,3.7-2.1
			C97.3,31.2,97.7,29.7,97.4,28.2z M95.1,31.5c-0.7,0.8-1.7,1.4-2.7,1.5l-4.7,0.7c-0.5,0.1-1.1-0.2-1.3-0.7v0.1
			c0.1,0.4-0.2,0.8-0.6,0.9c0,0,0,0,0,0h-0.1c-0.4,0-0.7-0.3-0.8-0.6v-0.1c-0.1,0.5-0.5,0.9-1,1L69,36.6c-1.1,0.2-2.2-0.1-3.1-0.7
			c-0.5-0.4-1-0.8-1.3-1.4c-0.1-0.3-0.5-0.5-0.8-0.4l-13.6,2.1c-0.2,0-0.4,0.1-0.5,0.3c-0.1,0.2-0.2,0.4-0.1,0.6l0.6,3.4
			c0.1,0.4,0.5,0.7,0.9,0.6l7.3-1.2c0.2,0,0.3,0,0.5,0c1.1,0,2,0.8,2.2,1.8l1.4,8.7c0,0.2,0,0.4,0,0.5c-0.1,1-0.9,1.9-1.9,2
			l-5.2,0.8c-0.3,0-0.5,0.2-0.6,0.5c-0.1,0.2-0.1,0.5,0.1,0.8l26,37.5c0.3,0.5,0.4,1,0.3,1.6c-0.1,0.6-0.5,1.1-1,1.4
			c-1.1,0.6-2.4,0.4-3.2-0.6L54.7,62.8c-0.1-0.2-0.4-0.3-0.6-0.3c-0.1,0-0.2,0-0.3,0c-0.3,0.1-0.5,0.4-0.5,0.8l1.9,30.4
			c0,0.6-0.2,1.1-0.5,1.5c-0.4,0.5-1,0.7-1.6,0.8H53c-1.2,0.1-2.2-0.8-2.3-2l-2-30.7c0-0.4-0.4-0.8-0.9-0.7c-0.3,0-0.5,0.2-0.6,0.4
			L29.9,94.8c-0.6,1.1-2,1.5-3.1,0.9c-0.6-0.3-1-0.7-1.2-1.3c-0.2-0.5-0.1-1.1,0.2-1.6l19.5-36.1c0.2-0.3,0.2-0.6,0-0.8
			c-0.2-0.3-0.5-0.4-0.8-0.3l-3.8,0.6c-1,0.2-2-0.4-2.5-1.3c-0.1-0.2-0.2-0.4-0.2-0.7l-1.4-8.7l-0.8,0.1l0.8-0.3h-0.8l0.8-0.1h-0.8
			l0.8-0.1h-0.8l0.8-0.1l-0.8-0.2h0.8L36,44.7h0.8L36,44.5l0.8,0.1l-0.7-0.3l0.8,0.2l-0.7-0.3l0.8,0.2l-0.7-0.4l0.7,0.3l-0.7-0.4
			l0.7,0.3l-0.6-0.5l0.7,0.4l0.1-0.2l0.2-0.1L37,43l0.6,0.5l-0.4-0.7l0.5,0.6l-0.4-0.7l0.5,0.6l-0.4-0.8l0.4,0.7l-0.3-0.7l0.4,0.7
			l-0.2-0.7l0.4,0.7l-0.1-0.8l0.3,0.7l-0.1-0.8l0.3,0.7l6.4-1c0.2,0,0.4-0.2,0.5-0.3c0.1-0.2,0.2-0.4,0.1-0.6L45,37.8
			c-0.1-0.4-0.5-0.7-0.9-0.6l-24.5,3.8c-1.1,0.2-2.2-0.1-3.1-0.7c-0.5-0.3-0.9-0.8-1.2-1.2c-0.1-0.2-0.4-0.4-0.7-0.4l0,0
			c-0.3,0-0.5,0.1-0.7,0.4c-0.2,0.3-0.5,0.5-0.8,0.5L10.2,40c-1.1,0.2-2.3-0.1-3.2-0.8c-0.9-0.6-1.5-1.6-1.6-2.6L4.2,29
			c-0.2-1,0.1-2.1,0.7-2.9c0.7-0.9,1.6-1.5,2.7-1.6l2.8-0.5c0.3-0.1,0.6,0,0.9,0.2c0.3,0.1,0.6,0.1,0.8,0c0.3-0.1,0.4-0.4,0.4-0.7
			c0.1-2,1.6-3.6,3.5-3.8l44-6.8c0.4-0.1,0.7-0.4,0.7-0.9c-0.1-1,0.2-1.9,0.7-2.7C62,8.5,63,7.9,64.1,7.7l14.8-2.3
			c0.5-0.1,1.1,0.2,1.3,0.7V5.9c-0.1-0.4,0.2-0.8,0.7-0.9c0.4-0.1,0.8,0.2,0.9,0.7v0.1c0.1-0.5,0.5-0.9,1-1l4.7-0.7
			c1.1-0.2,2.2,0.1,3.1,0.7c0.9,0.6,1.5,1.5,1.7,2.6l3.6,21C96,29.5,95.7,30.6,95.1,31.5L95.1,31.5z"/>
		<path d="M82.3,15.4h0.1c0.4-0.1,0.7-0.4,0.7-0.9c0,0,0,0,0,0l-1.4-8.7V5.7c-0.1-0.4-0.5-0.7-0.9-0.7c-0.4,0.1-0.7,0.5-0.7,0.9v0.1
			l1.3,8.7C81.6,15.2,81.9,15.4,82.3,15.4z"/>
		<path d="M83.9,24.1c-0.4,0.1-0.7,0.5-0.6,0.9c0,0,0,0,0,0l1.5,8.3v0.1c0.1,0.4,0.4,0.6,0.8,0.6h0.1c0.4-0.1,0.7-0.5,0.6-0.9
			c0,0,0,0,0,0V33l-1.5-8.3C84.7,24.3,84.3,24,83.9,24.1z"/>
	</g>
</g>
</svg>
