<?xml version="1.0" encoding="utf-8"?>
<!-- Generator: Adobe Illustrator 22.1.0, SVG Export Plug-In . SVG Version: 6.00 Build 0)  -->
<svg version="1.1" id="Layer_1" xmlns="http://www.w3.org/2000/svg" xmlns:xlink="http://www.w3.org/1999/xlink" x="0px" y="0px"
	 viewBox="0 0 100 100" style="enable-background:new 0 0 100 100;" xml:space="preserve">
<title>training</title>
<g id="Layer_2_1_">
	<g id="black_shapes">
		<path d="M22,28.9c6.1,0,11.1-5.9,11.1-13.2S28,2.5,22,2.5S10.7,8.4,10.7,15.7S15.7,28.9,22,28.9z M22,4.2c5.2,0,9.5,5.2,9.5,11.5
			S27.1,27.2,22,27.2s-9.5-5.2-9.5-11.5S16.7,4.2,22,4.2z"/>
		<path d="M95.9,5.7H41.4c-0.5,0-0.8,0.4-0.8,0.8c0,0.5,0.4,0.8,0.8,0.8h53.7v9.2H41.4c-0.5-0.1-0.9,0.3-0.9,0.7
			c-0.1,0.5,0.3,0.9,0.7,0.9c0.1,0,0.1,0,0.2,0h45.5v44.6H41.4c-0.5,0-0.8,0.4-0.8,0.8c0,0.5,0.4,0.8,0.8,0.8h18.2v14.6L42,96
			c-0.3,0.3-0.4,0.9,0,1.2c0,0,0,0,0,0c0.2,0.2,0.4,0.3,0.6,0.3c0.2,0,0.4-0.1,0.5-0.3l16.5-15.8v15c0,0.5,0.4,0.8,0.8,0.8l0,0
			c0.5,0,0.8-0.4,0.8-0.8c0,0,0,0,0,0v-15L77,97.2c0.3,0.3,0.9,0.4,1.2,0c0,0,0,0,0,0c0.3-0.3,0.3-0.9,0-1.2L61.3,79V64.6h26.4
			c0.5,0,0.8-0.4,0.8-0.8V18.3h7.3c0.5,0,0.8-0.4,0.8-0.8V6.5C96.7,6.1,96.4,5.7,95.9,5.7L95.9,5.7z"/>
		<path d="M63.8,36.9c1.2-1.2,0.7-3.5-1.4-5.9s-4.1-2.8-6.1-1.4c-0.6,0.3-1.7,1.5-3.1,2.8c-2.1,2-6.5,6.1-7.5,6.2
			c-1,0.1-5.9-2.6-10-5.2l0,0c-2-1.2-6.8-3.5-7-3.6c-0.4-0.3-0.9-0.1-1.2,0.2c-0.3,0.4-0.1,0.9,0.2,1.2c0.1,0,0.1,0.1,0.2,0.1
			c0,0,4.9,2.3,6.9,3.6c2.1,1.4,9,5.7,11,5.4c1.5-0.2,4.4-2.9,8.6-6.8c1.2-1.2,2.5-2.3,2.9-2.6c0.9-0.7,2-1,3.9,1.1
			c1.6,1.8,2,3.2,1.5,3.6c-3,3-14,12.8-16.7,12.9c-1.9,0-5-1.6-7.3-2.8c-1.9-1.1-2.9-1.6-3.6-1.6c-1.2,0-1.4,0-4.8,26.6
			c-1.2,10.1-2.8,22.6-3.5,24.4c-1.2,0.6-6,0.6-8.7-0.2c-1.5-0.4-1.9-4.6-2.5-11c-0.2-2.2-0.4-4.7-0.7-7.6c-1.2-11.6-4.2-13.3-7-15
			L7.2,61C5.6,59.5,4.6,40.3,5,38c0.4-1.9,2.5-2.7,3.7-3c2.4-0.6,7-3.6,7.2-3.7c0.4-0.2,0.5-0.8,0.3-1.1c0,0,0,0,0,0
			c-0.3-0.4-0.8-0.5-1.2-0.2c-2.1,1.4-4.3,2.6-6.7,3.5c-2.8,0.6-4.6,2.2-5,4.3c-0.2,4.1,0,8.3,0.3,12.4c0.8,11.2,2.1,12,2.6,12.4
			l0.8,0.5c2.5,1.5,5,2.9,6.2,13.7c0.3,2.8,0.5,5.3,0.7,7.5c0.7,7.8,1.1,11.7,3.7,12.5c1.9,0.5,3.8,0.7,5.7,0.7
			c1.5,0.1,3.1-0.2,4.5-0.8c0.8-0.5,1.2-3.1,4.1-25.5c1.2-10,2.8-22.2,3.6-24.9c0.6,0.2,1.6,0.8,2.4,1.2c2.6,1.4,5.8,3.1,8.1,3
			C50,50.1,63.7,37,63.8,36.9z"/>
		<path d="M54.3,27.8c0.5,0,0.8-0.4,0.8-0.8v-1.4c0-1.6-1.3-3-3-3H41.4c-0.5,0-0.8,0.4-0.8,0.8c0,0.5,0.4,0.8,0.8,0.8h10.7
			c0.7,0,1.3,0.5,1.3,1.2c0,0,0,0.1,0,0.1V27C53.4,27.4,53.8,27.8,54.3,27.8z"/>
		<path d="M81.8,24H60.9c-0.5-0.1-0.9,0.3-0.9,0.7c-0.1,0.5,0.3,0.9,0.7,0.9c0.1,0,0.1,0,0.2,0h20.9c0.5-0.1,0.8-0.5,0.7-0.9
			C82.5,24.4,82.2,24.1,81.8,24z"/>
		<path d="M81.8,29.4H66.3c-0.5-0.1-0.9,0.3-0.9,0.7c-0.1,0.5,0.3,0.9,0.7,0.9c0.1,0,0.1,0,0.2,0h15.5c0.5-0.1,0.8-0.5,0.7-0.9
			C82.5,29.8,82.2,29.5,81.8,29.4z"/>
		<path d="M72.8,36.5c0.5-0.1,0.8-0.5,0.7-0.9c0-0.4-0.4-0.7-0.7-0.7h-3.7c-0.5-0.1-0.9,0.3-0.9,0.7c-0.1,0.5,0.3,0.9,0.7,0.9
			c0.1,0,0.1,0,0.2,0H72.8z"/>
		<path d="M53.4,50v6.4c0,0.7-0.6,1.3-1.3,1.3H41.4c-0.5,0-0.8,0.4-0.8,0.8c0,0.5,0.4,0.8,0.8,0.8h10.7c1.6,0,3-1.3,3-3V50
			c0-0.5-0.4-0.8-0.8-0.8C53.8,49.1,53.4,49.5,53.4,50L53.4,50z"/>
		<path d="M81.8,44.1H60.9c-0.5-0.1-0.9,0.3-0.9,0.7c-0.1,0.5,0.3,0.9,0.7,0.9c0.1,0,0.1,0,0.2,0h20.9c0.5-0.1,0.8-0.5,0.7-0.9
			C82.5,44.4,82.2,44.1,81.8,44.1z"/>
		<path d="M82.7,50.3c0-0.5-0.4-0.8-0.8-0.8h-21c-0.5-0.1-0.9,0.3-0.9,0.7c-0.1,0.5,0.3,0.9,0.7,0.9c0.1,0,0.1,0,0.2,0h20.9
			C82.2,51.2,82.6,50.8,82.7,50.3C82.7,50.3,82.7,50.3,82.7,50.3z"/>
		<path d="M60.9,54.9c-0.5,0-0.8,0.4-0.8,0.8c0,0,0,0,0,0c0,0.5,0.4,0.8,0.8,0.8l0,0h11.9c0.5,0,0.8-0.4,0.8-0.8
			c0-0.5-0.4-0.8-0.8-0.8H60.9z"/>
	</g>
</g>
</svg>
