<?xml version="1.0" encoding="utf-8"?>
<!-- Generator: Adobe Illustrator 22.1.0, SVG Export Plug-In . SVG Version: 6.00 Build 0)  -->
<svg version="1.1" id="Layer_1" xmlns="http://www.w3.org/2000/svg" xmlns:xlink="http://www.w3.org/1999/xlink" x="0px" y="0px"
	 viewBox="0 0 100 100" style="enable-background:new 0 0 100 100;" xml:space="preserve">
<title>universe</title>
<g id="Layer_2_1_">
	<g id="black_shapes">
		<path d="M37.1,45.2L33.5,44c-0.4-0.1-0.8,0.1-1,0.5l0,0c-0.1,0.4,0.1,0.9,0.5,1l3.5,1.2c-0.3,1.1-0.4,2.2-0.4,3.3
			c0,1.2,0.2,2.4,0.5,3.6L33,54.8c-0.4,0.1-0.6,0.6-0.5,1c0.1,0.3,0.4,0.6,0.8,0.6c0.1,0,0.2,0,0.2,0l3.7-1.2c0.9,2.1,2.2,4,4,5.5
			L39,63.8c-0.3,0.4-0.2,0.8,0.2,1.1l0,0c0.1,0.1,0.3,0.2,0.5,0.2c0.3,0,0.5-0.1,0.6-0.3l2.3-3.1c1.9,1.3,4.2,2,6.5,2.2v3.8
			c0.1,0.4,0.5,0.8,0.9,0.7c0.4,0,0.7-0.3,0.7-0.7v-3.8c2.3-0.1,4.6-0.8,6.6-2l2.1,2.9c0.2,0.2,0.4,0.3,0.6,0.3
			c0.2,0,0.3-0.1,0.5-0.2c0.4-0.3,0.4-0.7,0.2-1.1l0,0l-2.1-2.9c1.9-1.5,3.4-3.4,4.3-5.6l3.2,1h0.2c0.3,0,0.7-0.2,0.8-0.5
			c0.1-0.4-0.1-0.9-0.5-1l-3.2-1c0.7-2.4,0.7-4.9,0.1-7.2l3.1-1c0.4-0.1,0.6-0.6,0.5-1l0,0c-0.1-0.4-0.6-0.6-1-0.5l-3.1,1
			c-0.9-2.3-2.3-4.3-4.2-5.8l1.9-2.6c0.3-0.4,0.2-0.8-0.2-1.1l0,0c-0.3-0.3-0.8-0.2-1.1,0.2l0,0l-1.9,2.6c-2-1.3-4.4-2-6.8-2.1v-3.4
			c-0.1-0.4-0.5-0.8-0.9-0.7c-0.4,0-0.7,0.3-0.7,0.7v3.4c-2.4,0.2-4.6,1-6.6,2.3l-2.1-2.9c-0.3-0.3-0.8-0.4-1.1-0.1
			c-0.3,0.3-0.4,0.7-0.2,1l2.1,2.9C39.3,41,37.9,43,37.1,45.2z M62.2,50c0,6.7-5.4,12.2-12.2,12.3c-6.7,0-12.2-5.4-12.3-12.2
			s5.4-12.2,12.2-12.3c0,0,0,0,0.1,0C56.7,37.8,62.2,43.3,62.2,50z"/>
		<path d="M50,82.4C67.9,82,82,67,81.6,49.1C81.1,31.9,67.2,18,50,17.6c-4.1,0-8.2,0.8-12.1,2.4c-0.4,0.2-0.6,0.6-0.4,1
			c0.2,0.4,0.6,0.6,1,0.4c15.8-6.3,34,1.9,39.7,17.9C83.7,55,76,72.3,60.3,78.7c-15.8,6.4-32.7-1.5-39-17.3
			c-2.9-7.2-2.9-15.2-0.2-22.4c0.2-0.4,0-0.9-0.5-1c-0.4-0.2-0.9,0-1,0.5l0,0c-6.4,16.8,2,35.5,18.8,41.9
			C42.2,81.7,46.1,82.4,50,82.4z"/>
		<path d="M50,2.5C23.7,2.5,2.5,23.8,2.5,50s21.3,47.5,47.6,47.5c8.1,0,16.2-2.1,23.3-6.1c0.4-0.2,0.5-0.7,0.2-1.1
			c-0.2-0.3-0.7-0.5-1-0.3C50.4,102.5,22.4,94.7,10,72.6S5.3,22.5,27.3,10.1s50.1-4.7,62.6,17.4c8,14.1,7.9,31.5-0.2,45.5
			c-0.2,0.4-0.1,0.9,0.3,1.1s0.9,0.1,1.1-0.3l0,0c13.1-22.7,5.4-51.8-17.4-65C66.5,4.7,58.3,2.5,50,2.5z"/>
		<path d="M27.1,19.7c-4.4,0-7.9,3.5-7.9,7.9s3.5,7.9,7.9,7.9S35,32,35,27.6l0,0C35,23.2,31.5,19.7,27.1,19.7z M27.1,33.8
			c-3.5,0-6.3-2.8-6.3-6.3s2.8-6.3,6.3-6.3s6.3,2.8,6.3,6.3l0,0C33.4,31,30.6,33.8,27.1,33.8z"/>
		<path d="M82.4,75c-4.4,0-7.9,3.5-7.9,7.9s3.5,7.9,7.9,7.9s7.9-3.5,7.9-7.9l0,0C90.3,78.5,86.7,75,82.4,75z M82.4,89.1
			c-3.5,0-6.3-2.8-6.3-6.3s2.8-6.3,6.3-6.3s6.3,2.8,6.3,6.3l0,0C88.7,86.3,85.9,89.1,82.4,89.1L82.4,89.1z"/>
	</g>
</g>
</svg>
