<svg xmlns="http://www.w3.org/2000/svg" viewBox="0 0 75.39 67.98"><defs><style>.cls-1{fill:#012635;}</style></defs><title>Asset 356</title><g id="Layer_2" data-name="Layer 2"><g id="navy_strokes" data-name="navy strokes"><path class="cls-1" d="M33.37,64.41l-9.76,2a16.77,16.77,0,0,1-7.83-.63L4.93,61.68A6,6,0,0,1,1.35,56.5v-45A6,6,0,0,1,4.93,6.3L15.78,2.19a16.77,16.77,0,0,1,7.83-.63L49.94,7a4.86,4.86,0,0,1,3.67,4.5v5.45a.68.68,0,1,0,1.35,0V11.48a6.21,6.21,0,0,0-4.74-5.82L23.89.24A18.26,18.26,0,0,0,15.3.92L4.45,5A7.42,7.42,0,0,0,0,11.48v45a7.4,7.4,0,0,0,4.45,6.44L15.3,67.05a17.68,17.68,0,0,0,5.87.93,14,14,0,0,0,2.72-.24l9.75-2a.67.67,0,1,0-.27-1.32Z"/><path class="cls-1" d="M18.87,5.75V62.22a.68.68,0,1,0,1.35,0V5.75a.68.68,0,0,0-1.35,0Z"/><path class="cls-1" d="M52.23,20.73A23.16,23.16,0,1,0,75.39,43.89,23.19,23.19,0,0,0,52.23,20.73Zm0,45A21.81,21.81,0,1,1,74,43.89,21.84,21.84,0,0,1,52.23,65.7Z"/><path class="cls-1" d="M4.14,18.49a.68.68,0,0,0,.13,1.34h.12l11.34-2.14a.69.69,0,0,0,.54-.79.68.68,0,0,0-.79-.54Z"/><path class="cls-1" d="M68.12,52H65.78V46a2.53,2.53,0,0,0-2.53-2.53H61A2.53,2.53,0,0,0,58.47,46v6H56.14V40.37a2.54,2.54,0,0,0-2.53-2.53H51.36a2.53,2.53,0,0,0-2.53,2.53V52H46.5V34.71A2.53,2.53,0,0,0,44,32.18H41.72a2.53,2.53,0,0,0-2.53,2.53V52H36.84a.68.68,0,0,0,0,1.35H68.12a.68.68,0,1,0,0-1.35Zm-8.3-6A1.18,1.18,0,0,1,61,44.8h2.25A1.18,1.18,0,0,1,64.43,46v6H59.82Zm-9.64-5.61a1.18,1.18,0,0,1,1.18-1.18h2.25a1.18,1.18,0,0,1,1.18,1.18V52H50.18Zm-9.64-5.66a1.18,1.18,0,0,1,1.18-1.18H44a1.18,1.18,0,0,1,1.18,1.18V52H40.54Z"/></g></g></svg>