<svg xmlns="http://www.w3.org/2000/svg" viewBox="0 0 75.4 67.98"><defs><style>.cls-1{fill:#012635;}</style></defs><title>Asset 354</title><g id="Layer_2" data-name="Layer 2"><g id="navy_strokes" data-name="navy strokes"><path class="cls-1" d="M33.37,64.41l-9.76,2a16.77,16.77,0,0,1-7.83-.63L4.93,61.68A6,6,0,0,1,1.35,56.5v-45A6,6,0,0,1,4.93,6.3L15.78,2.19a16.8,16.8,0,0,1,7.84-.63L50,7a4.86,4.86,0,0,1,3.66,4.5v5.45a.68.68,0,1,0,1.35,0V11.48a6.21,6.21,0,0,0-4.74-5.82L23.89.24A18.26,18.26,0,0,0,15.3.92L4.45,5A7.42,7.42,0,0,0,0,11.48v45a7.4,7.4,0,0,0,4.45,6.44L15.3,67.05a17.68,17.68,0,0,0,5.87.93,14,14,0,0,0,2.72-.24l9.75-2a.67.67,0,1,0-.27-1.32Z"/><path class="cls-1" d="M18.87,5.75V62.22a.68.68,0,0,0,.68.68.67.67,0,0,0,.67-.68V5.75a.67.67,0,0,0-.67-.67A.68.68,0,0,0,18.87,5.75Z"/><path class="cls-1" d="M52.23,20.73A23.16,23.16,0,1,0,75.4,43.89,23.19,23.19,0,0,0,52.23,20.73Zm0,45A21.81,21.81,0,1,1,74.05,43.89,21.84,21.84,0,0,1,52.23,65.7Z"/><path class="cls-1" d="M4.14,18.49a.68.68,0,0,0,.13,1.34h.12l11.34-2.14a.69.69,0,0,0,.54-.79.68.68,0,0,0-.79-.54Z"/><path class="cls-1" d="M41.2,34.59a6.84,6.84,0,0,0,4.09-.42c2-.81,2.67-.56,3.44-.3l.36.12c.93.28,9.8,3.27,10.72,3.58a2.4,2.4,0,0,1-.34.87c-.44.82-1.13,1.24-3,.62-.53-.17-1.18-.4-1.83-.63-3-1.06-3.39-1.19-3.7-.4a6.44,6.44,0,0,1-2.75,3.39c-2.08,1.13-3.64.85-6,.24a.68.68,0,0,0-.82.49.66.66,0,0,0,.48.82,14,14,0,0,0,3.46.57,7,7,0,0,0,3.48-.94A7.52,7.52,0,0,0,52,39c.54.15,1.46.48,2.18.73s1.33.47,1.87.64c.83.27,3.37,1.09,4.64-1.26A2.51,2.51,0,0,0,61.07,37a1.21,1.21,0,0,0-.78-.71c-.08,0-9.83-3.32-10.81-3.62l-.32-.1c-.88-.3-2-.67-4.39.34a5.15,5.15,0,0,1-3.87.16,2.22,2.22,0,0,0-1.14-.93l-2.69-.94a.67.67,0,0,0-.45,1.27l2.69.95a.83.83,0,0,1,.49.43.89.89,0,0,1,0,.66L35.75,46.12a.84.84,0,0,1-1.08.52L32.8,46a.67.67,0,0,0-.45,1.27l1.87.65A2,2,0,0,0,35,48,2.22,2.22,0,0,0,37,46.57L41.11,35A2.34,2.34,0,0,0,41.2,34.59Z"/><path class="cls-1" d="M72.61,46.93a.67.67,0,0,0-.9-.32l-1.44.69a.82.82,0,0,1-.65,0,.87.87,0,0,1-.49-.43L63.82,35.81a.82.82,0,0,1,0-.65.83.83,0,0,1,.43-.49l4-1.91a.68.68,0,1,0-.59-1.22l-4,1.91a2.21,2.21,0,0,0-1,2.94l5.31,11.09a2.29,2.29,0,0,0,.51.68,19.17,19.17,0,0,1-4.11,3.11C60.25,53.8,55,56.67,55,56.7L49,60a.84.84,0,0,1-.64.07.9.9,0,0,1-.53-.45l-.28-.57a1,1,0,0,1,.38-1.27l5.53-3.18a.68.68,0,0,0,.25-.92.67.67,0,0,0-.92-.25l-.12.07-.1,0-8,4.19a1,1,0,0,1-1.29-.37l-.3-.54a.77.77,0,0,1-.06-.63A1.4,1.4,0,0,1,43,56l7.26-4,1.14-.59a.67.67,0,0,0,.28-.91.67.67,0,0,0-.91-.29l-8,4.19A2.2,2.2,0,0,0,42,55l-.84.46a.78.78,0,0,1-1.05-.31l-.27-.5a.73.73,0,0,1-.05-.56.76.76,0,0,1,.38-.45l8.31-4.46a.66.66,0,0,0,.27-.91.67.67,0,0,0-.91-.28l-2,1.08-5.23,2.56a.89.89,0,0,1-.68.06.94.94,0,0,1-.54-.44l-.29-.56a.93.93,0,0,1,.38-1.24l4.83-2.56a.67.67,0,0,0,.28-.91.67.67,0,0,0-.91-.28l-4.83,2.56a2.27,2.27,0,0,0-.94,3.06l.29.55a2.19,2.19,0,0,0,.89.92,2,2,0,0,0-.58.9,2,2,0,0,0,.15,1.6l.27.5a2.13,2.13,0,0,0,1.88,1.11,2.1,2.1,0,0,0,.69-.13,2.38,2.38,0,0,0,.24.71L42,58a2.31,2.31,0,0,0,2,1.17A2.36,2.36,0,0,0,45.13,59l.94-.49a2.21,2.21,0,0,0,.24,1.25l.28.56a2.22,2.22,0,0,0,1.33,1.13,2.37,2.37,0,0,0,.65.09,2.14,2.14,0,0,0,1-.26l6-3.35S60.93,55,65,52.42c3.07-1.91,4.24-3.09,4.69-3.7h.18a2.23,2.23,0,0,0,.95-.21l1.44-.69A.68.68,0,0,0,72.61,46.93Z"/></g></g></svg>