<svg xmlns="http://www.w3.org/2000/svg" viewBox="0 0 75.4 67.98"><defs><style>.cls-1{fill:#012635;}</style></defs><title>Asset 357</title><g id="Layer_2" data-name="Layer 2"><g id="navy_strokes" data-name="navy strokes"><path class="cls-1" d="M33.37,64.41l-9.76,2a16.77,16.77,0,0,1-7.83-.63L4.93,61.68A6,6,0,0,1,1.35,56.5v-45A6,6,0,0,1,4.93,6.3L15.78,2.19a16.8,16.8,0,0,1,7.84-.63L50,7a4.86,4.86,0,0,1,3.66,4.5v5.45a.68.68,0,1,0,1.35,0V11.48a6.21,6.21,0,0,0-4.74-5.82L23.89.24A18.26,18.26,0,0,0,15.3.92L4.45,5A7.42,7.42,0,0,0,0,11.48v45a7.4,7.4,0,0,0,4.45,6.44L15.3,67.05a17.68,17.68,0,0,0,5.87.93,14,14,0,0,0,2.72-.24l9.75-2a.67.67,0,1,0-.27-1.32Z"/><path class="cls-1" d="M18.87,5.75V62.22a.68.68,0,0,0,.68.68.67.67,0,0,0,.67-.68V5.75a.67.67,0,0,0-.67-.67A.68.68,0,0,0,18.87,5.75Z"/><path class="cls-1" d="M52.23,20.73A23.16,23.16,0,1,0,75.4,43.89,23.19,23.19,0,0,0,52.23,20.73Zm0,45A21.81,21.81,0,1,1,74.05,43.89,21.84,21.84,0,0,1,52.23,65.7Z"/><path class="cls-1" d="M4.15,18.49a.68.68,0,0,0,.12,1.34H4.4l11.33-2.14a.69.69,0,0,0,.54-.79.68.68,0,0,0-.79-.54Z"/><path class="cls-1" d="M44.74,40.28a3.59,3.59,0,0,0,3.09,1.52,6,6,0,0,0,1.58-.23.67.67,0,1,0-.35-1.3c-2.58.71-3.27-.83-3.34-1a.67.67,0,0,0-.8-.41,3.36,3.36,0,0,1-2.63-.16,2.5,2.5,0,0,1-1-1.44.67.67,0,0,0-.66-.55,3.46,3.46,0,0,1-3.4-2.24h12a.68.68,0,1,0,0-1.35H36.29a.65.65,0,0,0-.51.23.67.67,0,0,0-.16.54A4.9,4.9,0,0,0,40.1,38a3.66,3.66,0,0,0,1.46,1.79A4.3,4.3,0,0,0,44.74,40.28Z"/><path class="cls-1" d="M68.69,33.35a.65.65,0,0,0-.51-.23h-13a.68.68,0,0,0,0,1.35H67.29a3.46,3.46,0,0,1-3.41,2.24.68.68,0,0,0-.66.54,2.53,2.53,0,0,1-1,1.45,3.36,3.36,0,0,1-2.63.16.68.68,0,0,0-.8.41c-.07.17-.77,1.71-3.34,1a.67.67,0,1,0-.35,1.3,6,6,0,0,0,1.58.23,3.59,3.59,0,0,0,3.09-1.52,4.3,4.3,0,0,0,3.18-.45A3.66,3.66,0,0,0,64.37,38a4.9,4.9,0,0,0,4.48-4.15A.67.67,0,0,0,68.69,33.35Z"/><path class="cls-1" d="M61.13,44.87H52.91V32.32a3.73,3.73,0,1,0-1.35,0V44.87H43.34a.68.68,0,0,0-.67.68.67.67,0,0,0,.67.67H61.13a.67.67,0,0,0,.67-.67A.68.68,0,0,0,61.13,44.87ZM49.86,28.66A2.38,2.38,0,1,1,52.23,31,2.37,2.37,0,0,1,49.86,28.66Z"/><path class="cls-1" d="M58.55,50.38H52.91V48.55a.68.68,0,1,0-1.35,0v1.83H45.92a.68.68,0,0,0-.68.68.67.67,0,0,0,.68.67H58.55a.68.68,0,0,0,.68-.67A.69.69,0,0,0,58.55,50.38Z"/><path class="cls-1" d="M55.23,55.74H52.91V54.06a.68.68,0,1,0-1.35,0v1.68H49.23a.68.68,0,0,0-.67.68.67.67,0,0,0,.67.67h6a.67.67,0,0,0,.68-.67A.68.68,0,0,0,55.23,55.74Z"/><path class="cls-1" d="M52.23,58.74a.68.68,0,0,0-.67.68v2.52a.68.68,0,1,0,1.35,0V59.42A.68.68,0,0,0,52.23,58.74Z"/></g></g></svg>