<svg xmlns="http://www.w3.org/2000/svg" viewBox="0 0 75.39 67.98"><defs><style>.cls-1{fill:#012635;}</style></defs><title>Asset 355</title><g id="Layer_2" data-name="Layer 2"><g id="navy_strokes" data-name="navy strokes"><path class="cls-1" d="M33.37,64.41l-9.76,2a16.77,16.77,0,0,1-7.83-.63L4.93,61.68A6,6,0,0,1,1.35,56.5v-45A6,6,0,0,1,4.93,6.3L15.78,2.19a16.77,16.77,0,0,1,7.83-.63L49.94,7a4.86,4.86,0,0,1,3.67,4.5v5.45a.68.68,0,1,0,1.35,0V11.48a6.21,6.21,0,0,0-4.74-5.82L23.89.24A18.26,18.26,0,0,0,15.3.92L4.45,5A7.42,7.42,0,0,0,0,11.48v45a7.4,7.4,0,0,0,4.45,6.44L15.3,67.05a17.68,17.68,0,0,0,5.87.93,14,14,0,0,0,2.72-.24l9.75-2a.67.67,0,1,0-.27-1.32Z"/><path class="cls-1" d="M18.87,5.75V62.22a.68.68,0,1,0,1.35,0V5.75a.68.68,0,0,0-1.35,0Z"/><path class="cls-1" d="M52.23,20.73A23.16,23.16,0,1,0,75.39,43.89,23.19,23.19,0,0,0,52.23,20.73Zm0,45A21.81,21.81,0,1,1,74,43.89,21.84,21.84,0,0,1,52.23,65.7Z"/><path class="cls-1" d="M4.14,18.49a.68.68,0,0,0,.13,1.34h.12l11.34-2.14a.69.69,0,0,0,.54-.79.68.68,0,0,0-.79-.54Z"/><path class="cls-1" d="M69.79,52.85l-6.33-6.32a14.53,14.53,0,0,0-3.54-14.65,14.31,14.31,0,0,0-13.51-3.83.7.7,0,0,0-.5.47.67.67,0,0,0,.17.66l8.73,8.72-2,7.34-7.33,2L36.78,38.5a.67.67,0,0,0-.66-.17.7.7,0,0,0-.47.5A14.34,14.34,0,0,0,39.5,52.34a14.5,14.5,0,0,0,14.64,3.52l6.26,6.25a.68.68,0,0,0,1-1L54.8,54.61a.65.65,0,0,0-.7-.16,13.15,13.15,0,0,1-13.65-3.06,13,13,0,0,1-3.71-11l8.09,8.09a.68.68,0,0,0,.65.17l8.09-2.18a.69.69,0,0,0,.48-.47l2.16-8.1a.68.68,0,0,0-.17-.65l-8.1-8.09A13.08,13.08,0,0,1,62.05,46.48a.67.67,0,0,0,.16.71l6.62,6.62a.68.68,0,0,0,1-1Z"/></g></g></svg>