<?xml version="1.0" encoding="utf-8"?>
<!-- Generator: Adobe Illustrator 22.1.0, SVG Export Plug-In . SVG Version: 6.00 Build 0)  -->
<svg version="1.1" id="Layer_1" xmlns="http://www.w3.org/2000/svg" xmlns:xlink="http://www.w3.org/1999/xlink" x="0px" y="0px"
	 viewBox="0 0 100 100" style="enable-background:new 0 0 100 100;" xml:space="preserve">
<title>audience</title>
<g id="Layer_2_1_">
	<g id="black_shapes">
		<path d="M50.2,52.7c9.5,0,17.2-9.2,17.2-20.5s-7.7-20.5-17.2-20.5S33,20.9,33,32.2S40.8,52.7,50.2,52.7z M50.2,13.1
			C59,13.1,66,21.7,66,32.2S59,51.3,50.2,51.3s-15.8-8.6-15.8-19.1S41.5,13.1,50.2,13.1z"/>
		<path d="M71.7,61c-3.5-0.8-10.8-5.7-10.9-5.7c-0.3-0.2-0.8-0.1-1,0.2c-0.2,0.3-0.1,0.8,0.2,1c0.3,0.2,7.6,5,11.3,5.9
			c2.2,0.5,5.8,1.8,6.5,5.3c0.5,3.7,0.7,7.4,0.6,11.1c-0.1,0.6-1.7,2.6-7.4,4.7c-6.7,2.1-13.6,3.3-20.6,3.5
			c-3.9,0-15.7-1.5-21.2-3.5c-5.7-2.1-7.3-4-7.4-4.6c-0.1-3.7,0.1-7.4,0.6-11.1c0.6-3.5,4.3-4.8,6.5-5.3c3.8-0.9,11-5.7,11.3-5.9
			c0.3-0.2,0.4-0.7,0.2-1c-0.2-0.3-0.7-0.4-1-0.2c-0.1,0-7.4,4.9-10.9,5.7c-4.3,1-7,3.3-7.5,6.4c-0.6,3.2-0.9,10.4-0.6,11.7
			c0.4,1.7,3.5,3.8,8.3,5.6c5.6,2.1,17.7,3.6,21.6,3.6c7.1-0.2,14.2-1.4,21-3.6c5.6-2.1,8-4.3,8.3-5.6c0.4-1.4,0-8.6-0.6-11.6
			C78.8,64.5,76,62,71.7,61z"/>
		<path d="M29.4,42.7c0-6.5-4.5-11.8-9.9-11.8s-9.9,5.3-9.9,11.8s4.4,11.8,9.9,11.8S29.4,49.2,29.4,42.7z M19.4,53.1
			c-4.7,0-8.5-4.7-8.5-10.4s3.8-10.4,8.5-10.4S28,37,28,42.7S24.1,53.1,19.4,53.1L19.4,53.1z"/>
		<path d="M25.5,55.4c-0.3-0.2-0.8-0.1-1,0.2c-0.2,0.3-0.1,0.8,0.2,1c0.1,0.1,2,1.3,3.9,2.3c0.1,0,0.2,0.1,0.3,0.1
			c0.3,0,0.5-0.1,0.6-0.4c0.2-0.3,0-0.8-0.3-0.9c0,0,0,0,0,0C27.5,56.7,25.6,55.4,25.5,55.4z"/>
		<path d="M16.2,72.8c-2.8-0.3-5.6-0.9-8.3-1.7c-3-1-3.9-2.1-4-2.4c-0.1-2,0-4.1,0.3-6.1c0.3-1.7,2.3-2.5,3.4-2.7
			c2.2-0.5,6.2-3.2,6.4-3.3c0.3-0.3,0.3-0.7,0.1-1c-0.2-0.3-0.6-0.3-0.9-0.2c-1.9,1.3-3.9,2.3-6,3.1c-2.6,0.6-4.1,2-4.5,3.8
			c-0.3,2.2-0.4,4.4-0.3,6.7c0.3,1.1,2,2.3,4.8,3.3c2.8,0.9,5.7,1.5,8.6,1.8h0.1c0.4,0,0.7-0.3,0.7-0.7
			C16.8,73.1,16.5,72.8,16.2,72.8L16.2,72.8z"/>
		<path d="M90.5,42.7c0-6.5-4.5-11.8-9.9-11.8c-5.5,0-9.9,5.3-9.9,11.8s4.5,11.8,9.9,11.8C86.1,54.5,90.5,49.2,90.5,42.7z
			 M80.6,53.1c-4.7,0-8.5-4.7-8.5-10.4s3.8-10.4,8.5-10.4s8.5,4.7,8.5,10.4S85.3,53.1,80.6,53.1L80.6,53.1z"/>
		<path d="M71,59c0.1,0,0.2,0,0.3-0.1c1.9-1,3.9-2.3,3.9-2.3c0.3-0.2,0.4-0.7,0.2-1c-0.2-0.3-0.7-0.4-1-0.2c0,0-2,1.3-3.8,2.2
			c-0.3,0.2-0.5,0.6-0.3,0.9C70.5,58.8,70.7,59,71,59z"/>
		<path d="M97.1,62.4c-0.3-1.9-1.9-3.2-4.5-3.8c-2.1-0.8-4.1-1.8-6-3.1c-0.3-0.2-0.8,0-0.9,0.3c-0.1,0.3-0.1,0.6,0.2,0.9
			c0.2,0.1,4.3,2.8,6.4,3.3c1.1,0.3,3.1,1,3.4,2.7c0.3,2,0.4,4,0.3,6.1c-0.1,0.3-1,1.3-3.9,2.4c-2.7,0.8-5.5,1.4-8.3,1.7
			c-0.4,0-0.7,0.4-0.7,0.7c0,0.4,0.4,0.7,0.7,0.7H84c2.9-0.3,5.8-0.9,8.7-1.8c2.8-1,4.6-2.2,4.8-3.3C97.6,66.8,97.4,64.6,97.1,62.4z
			"/>
	</g>
</g>
</svg>
