<?xml version="1.0" encoding="utf-8"?>
<!-- Generator: Adobe Illustrator 22.1.0, SVG Export Plug-In . SVG Version: 6.00 Build 0)  -->
<svg version="1.1" id="Layer_1" xmlns="http://www.w3.org/2000/svg" xmlns:xlink="http://www.w3.org/1999/xlink" x="0px" y="0px"
	 viewBox="0 0 100 100" style="enable-background:new 0 0 100 100;" xml:space="preserve">
<style type="text/css">
	.st0{fill:none;}
</style>
<title>funnel</title>
<g id="Layer_2_1_">
	<g id="black_shapes">
		<path d="M50.8,18.1c3.7,0,6.6-3.5,6.6-7.8s-3-7.8-6.6-7.8s-6.6,3.5-6.6,7.8S47.2,18.1,50.8,18.1z M50.8,4c2.8,0,5.1,2.8,5.1,6.3
			s-2.3,6.2-5.1,6.2s-5.1-2.8-5.1-6.2S48,4,50.8,4z"/>
		<line class="st0" x1="41.3" y1="28.4" x2="41.3" y2="28.4"/>
		<path d="M43.1,31.1c2.6,0.8,5.2,1.2,7.9,1.3c2.6-0.1,5.2-0.5,7.7-1.3c1.9-0.7,3.1-1.5,3.3-2.4c0.1-1.5,0-2.9-0.2-4.4
			c-0.4-1.4-1.6-2.5-3.1-2.7c-1.3-0.5-2.5-1.1-3.7-1.9c-0.3-0.3-0.8-0.2-1.1,0.1s-0.2,0.8,0.1,1.1c0,0,0.1,0.1,0.1,0.1
			c1.3,0.9,2.7,1.6,4.2,2.2c0.6,0.1,1.7,0.5,1.9,1.5c0.2,1.2,0.2,2.4,0.2,3.6c0,0-0.4,0.6-2.3,1.3c-2.3,0.7-4.7,1.1-7.1,1.2
			c-2.5-0.1-4.9-0.5-7.3-1.2c-0.9-0.2-1.7-0.6-2.3-1.2l0,0c0-1.2,0-2.5,0.2-3.7c0.2-0.9,1.3-1.3,1.9-1.5c1.5-0.5,2.9-1.3,4.2-2.2
			c0.4-0.2,0.5-0.7,0.2-1.1s-0.7-0.5-1.1-0.2l0,0c-1.1,0.8-2.4,1.4-3.7,1.9c-1.5,0.2-2.7,1.3-3.1,2.7c-0.2,1.4-0.3,2.9-0.2,4.4
			C40,29.5,41.1,30.4,43.1,31.1z"/>
		<path d="M78.7,18.1c3.7,0,6.6-3.5,6.6-7.8s-3-7.8-6.6-7.8s-6.6,3.5-6.6,7.8S75,18.1,78.7,18.1z M78.7,4c2.8,0,5.1,2.8,5.1,6.3
			s-2.3,6.2-5.1,6.2s-5.1-2.8-5.1-6.2S75.9,4,78.7,4z"/>
		<line class="st0" x1="69.2" y1="28.4" x2="69.2" y2="28.4"/>
		<path d="M89.6,24.4c-0.4-1.4-1.6-2.5-3.1-2.7c-1.3-0.5-2.5-1.1-3.7-1.9c-0.4-0.2-0.8-0.1-1.1,0.3c-0.2,0.3-0.1,0.7,0.2,1
			c1.3,0.9,2.7,1.6,4.2,2.2c0.6,0.1,1.7,0.5,1.9,1.5c0.2,1.2,0.2,2.4,0.2,3.6c0,0-0.4,0.6-2.3,1.3c-2.3,0.7-4.7,1.1-7.1,1.2
			c-2.5-0.1-4.9-0.5-7.3-1.2c-0.9-0.2-1.7-0.6-2.3-1.2l0,0c0-1.2,0-2.5,0.2-3.7c0.2-0.9,1.3-1.3,1.9-1.5c1.5-0.5,2.9-1.3,4.2-2.2
			c0.4-0.2,0.5-0.7,0.2-1.1c0,0,0,0,0,0c-0.2-0.4-0.7-0.5-1.1-0.2c0,0,0,0,0,0c-1.1,0.8-2.4,1.4-3.7,1.9c-1.5,0.2-2.7,1.3-3.1,2.7
			c-0.2,1.4-0.3,2.9-0.2,4.4c0.2,0.8,1.4,1.7,3.3,2.3c2.6,0.8,5.2,1.2,7.9,1.3c2.6-0.1,5.2-0.5,7.7-1.3c1.9-0.7,3.1-1.5,3.3-2.4
			C89.8,27.2,89.8,25.8,89.6,24.4z"/>
		<path d="M21.3,18.1c3.7,0,6.6-3.5,6.6-7.8s-3-7.8-6.6-7.8s-6.6,3.5-6.6,7.8S17.6,18.1,21.3,18.1z M21.3,4c2.8,0,5.1,2.8,5.1,6.3
			s-2.3,6.2-5.1,6.2s-5.1-2.8-5.1-6.2S18.5,4,21.3,4z"/>
		<line class="st0" x1="11.8" y1="28.4" x2="11.8" y2="28.4"/>
		<path d="M21.4,32.4c2.6-0.1,5.2-0.5,7.7-1.3c1.9-0.7,3.1-1.5,3.3-2.4c0.1-1.5,0-2.9-0.2-4.4c-0.4-1.4-1.6-2.5-3.1-2.7
			c-1.3-0.5-2.5-1.1-3.7-1.9c-0.4-0.2-0.8-0.1-1.1,0.3c-0.2,0.3-0.1,0.7,0.2,1c1.3,0.9,2.7,1.6,4.2,2.2c0.6,0.1,1.7,0.5,1.9,1.5
			c0.2,1.2,0.2,2.4,0.2,3.6c0,0-0.4,0.6-2.3,1.3c-2.3,0.7-4.7,1.1-7.1,1.2c-2.5-0.1-4.9-0.5-7.3-1.2c-0.9-0.2-1.7-0.6-2.3-1.2l0,0
			c0-1.3,0-2.5,0.2-3.7c0.2-0.9,1.3-1.3,1.9-1.5c1.5-0.5,2.9-1.3,4.2-2.2c0.4-0.2,0.5-0.7,0.2-1.1s-0.7-0.5-1.1-0.2
			c-1.1,0.8-2.4,1.4-3.7,1.9c-1.5,0.2-2.7,1.3-3.1,2.7c-0.2,1.4-0.3,2.9-0.2,4.4c0.2,0.8,1.4,1.7,3.3,2.3
			C16.1,31.8,18.7,32.3,21.4,32.4z"/>
		<path d="M86.9,36.2H14.2c-2.1,0-3.2,0.3-3.2,2c0,0.6,0,1.2,29.6,36L43,77c0.3,1.5,0.1,12.7,0,19.7c0,0.4,0.3,0.8,0.8,0.8l0,0
			c0.4,0,0.8-0.3,0.8-0.8c0.5-19.7,0-20.4-0.2-20.6c-0.2-0.3-1-1.2-2.5-2.9C23.3,51.4,13.5,39.6,12.5,38c0-0.1,0-0.1,0-0.1l0,0
			c0,0,0.3-0.2,1.7-0.2H87C83.5,42.1,56.6,75,56.6,76.4c0,0.2,0,0.8,0,1.6c0.1,2.3,0.4,9.2,0.1,10.4c-0.7,0.6-4.2,3-7.4,5.1
			c-0.4,0.2-0.5,0.7-0.2,1.1c0.2,0.4,0.7,0.5,1.1,0.2c1.2-0.8,7.1-4.7,7.7-5.4C58.3,89,58.6,88,58.2,78c0-0.6,0-1.2,0-1.4
			c1.6-2.7,28.7-36.3,30.4-38.2c0.5-0.3,0.6-1,0.3-1.5C88.5,36.2,87.5,36.1,86.9,36.2z"/>
	</g>
</g>
</svg>
