<?xml version="1.0" encoding="utf-8"?>
<!-- Generator: Adobe Illustrator 22.1.0, SVG Export Plug-In . SVG Version: 6.00 Build 0)  -->
<svg version="1.1" id="Layer_1" xmlns="http://www.w3.org/2000/svg" xmlns:xlink="http://www.w3.org/1999/xlink" x="0px" y="0px"
	 viewBox="0 0 100 100" style="enable-background:new 0 0 100 100;" xml:space="preserve">
<title>personalization</title>
<g id="Layer_2_1_">
	<g id="black_shapes">
		<path d="M22,34.6c0.1,0,0.1,0,0.2,0c0.3,0,0.6-0.2,0.7-0.5c2.8-9,16.2-22,33.3-22c9.2,0.1,18.1,3.2,25.3,8.8
			c-2.4,0.8-10.2,1.3-17,1.5c-0.4,0-0.7,0.4-0.7,0.8c0,0.3,0.3,0.6,0.7,0.7l0,0c5.1-0.1,17.1-0.5,18.8-2.3l0,0l0,0v-0.1
			c0,0,0-0.1,0.1-0.1c0.1,0,0-0.1,0-0.1c1.2-2.4,0-14.3-0.4-18c0-0.4-0.4-0.7-0.8-0.7c0,0,0,0,0,0c-0.4,0-0.7,0.4-0.7,0.8
			c0.7,6.4,1.1,13.7,0.8,16.3c-7.4-5.9-16.6-9.1-26.1-9.1c-17.8,0-31.8,13.6-34.7,23.1C21.4,34,21.6,34.4,22,34.6
			C22,34.6,22,34.6,22,34.6z"/>
		<path d="M92.7,70.4C101.6,55,96.8,36,90,28.8c-0.3-0.3-0.8-0.3-1.1,0c0,0,0,0,0,0c-0.3,0.3-0.3,0.7-0.1,1c0,0,0,0,0.1,0.1
			c6.4,6.9,11,25,2.4,39.9c-4.7,7.9-11.8,14-20.3,17.5c0.5-2.5,3.9-9.5,7.2-15.5c0.2-0.4,0.1-0.8-0.3-1s-0.8-0.1-1,0.3
			c-2.5,4.4-8,14.8-7.4,17.3c0,0,0,0.1,0,0.1l0,0l0,0c0,0,0,0,0,0.1l0.1,0.1c1.4,2.2,12.3,7.2,15.7,8.7c0.1,0,0.2,0.1,0.3,0.1
			c0.3,0,0.6-0.2,0.7-0.4c0.2-0.4,0-0.8-0.4-1c-5.9-2.6-12.4-5.9-14.5-7.5C80.4,85,87.9,78.6,92.7,70.4z"/>
		<path d="M59.6,89.1c-9.2,2.1-27.2-3-35.7-17.8c-4.5-8-6.3-17.3-5.1-26.4c1.9,1.7,6.3,8.1,9.8,14c0.1,0.2,0.4,0.4,0.6,0.4
			c0.1,0,0.3,0,0.4-0.1c0.3-0.2,0.5-0.7,0.3-1c0,0,0,0,0,0c-2.6-4.4-8.8-14.3-11.3-15.1h-0.1h-0.1c0,0-0.1,0-0.1,0h-0.1
			c-2.6,0.1-12.4,7.1-15.4,9.3c-0.3,0.2-0.4,0.7-0.2,1c0.2,0.3,0.7,0.4,1,0.2l0,0c5.2-3.8,11.3-7.8,13.7-8.8
			c-1.4,9.4,0.5,19,5.2,27.3c7.6,13.2,22.5,19,32.6,19c1.6,0,3.1-0.1,4.7-0.5c0.4-0.1,0.6-0.5,0.6-0.9C60.4,89.3,60,89,59.6,89.1z"
			/>
		<path d="M56.2,29c-5.3,0-9.6,5.1-9.6,11.4s4.3,11.4,9.6,11.4s9.6-5.1,9.6-11.4S61.5,29,56.2,29z M56.2,50.3
			c-4.5,0-8.1-4.4-8.1-9.9s3.6-9.9,8.1-9.9s8.1,4.5,8.1,9.9S60.7,50.3,56.2,50.3z"/>
		<path d="M72.5,65.7c0.1-2.1,0-4.3-0.3-6.4c-0.4-1.8-1.9-3.2-4.3-3.7c-2-0.8-3.9-1.8-5.7-3c-0.3-0.3-0.8-0.2-1,0.1
			c-0.3,0.3-0.2,0.8,0.1,1c0,0,0.1,0,0.1,0.1c0.2,0.1,4.1,2.7,6.2,3.2c1.1,0.2,2.9,0.9,3.2,2.6c0.3,1.9,0.4,3.9,0.3,5.8
			c-0.1,0.3-1,1.2-3.7,2.2c-3.5,1.1-7.2,1.8-10.9,1.9c-3.8-0.2-7.6-0.8-11.2-1.9c-2.8-1-3.7-2-3.7-2.2c-0.1-1.9,0-3.9,0.3-5.8
			c0.3-1.7,2.2-2.3,3.2-2.6c2.1-0.5,6-3.1,6.2-3.2c0.4-0.2,0.5-0.7,0.3-1s-0.7-0.5-1-0.3c0,0-0.1,0-0.1,0.1c-1.8,1.2-3.7,2.2-5.7,3
			c-2.4,0.6-4,1.9-4.3,3.7c-0.3,2.1-0.4,4.3-0.3,6.4c0.3,1.1,2,2.3,4.7,3.3c3.8,1.1,7.8,1.8,11.7,1.9c3.9-0.1,7.7-0.8,11.4-2
			C70.5,68.1,72.2,66.8,72.5,65.7z"/>
	</g>
</g>
</svg>
