<?xml version="1.0" encoding="utf-8"?>
<!-- Generator: Adobe Illustrator 22.1.0, SVG Export Plug-In . SVG Version: 6.00 Build 0)  -->
<svg version="1.1" id="Layer_1" xmlns="http://www.w3.org/2000/svg" xmlns:xlink="http://www.w3.org/1999/xlink" x="0px" y="0px"
	 viewBox="0 0 100 100" style="enable-background:new 0 0 100 100;" xml:space="preserve">
<title>controller</title>
<g id="Layer_2_1_">
	<g id="black_shapes">
		<path d="M48,62.5c0-1-0.8-1.8-1.8-1.8c-1,0-1.8,0.8-1.8,1.8c0,1,0.8,1.8,1.8,1.8c0,0,0,0,0,0C47.2,64.3,48,63.5,48,62.5
			C48,62.5,48,62.5,48,62.5z"/>
		<path d="M55.3,62.5c0-1-0.8-1.8-1.8-1.8s-1.8,0.8-1.8,1.8c0,1,0.8,1.8,1.8,1.8l0,0C54.5,64.3,55.3,63.5,55.3,62.5
			C55.3,62.5,55.3,62.5,55.3,62.5z"/>
		<path d="M73.8,37.4c-1,0-1.8,0.8-1.8,1.8c0,1,0.8,1.8,1.8,1.8c1,0,1.8-0.8,1.8-1.8c0,0,0,0,0,0C75.6,38.2,74.8,37.4,73.8,37.4z"/>
		<path d="M73.8,50.3c-1,0-1.8,0.8-1.8,1.8s0.8,1.8,1.8,1.8s1.8-0.8,1.8-1.8l0,0C75.6,51.1,74.8,50.3,73.8,50.3z"/>
		<path d="M80.3,43.8c-1,0-1.8,0.8-1.8,1.8c0,1,0.8,1.8,1.8,1.8s1.8-0.8,1.8-1.8l0,0C82,44.6,81.2,43.8,80.3,43.8z"/>
		<path d="M67.4,43.8c-1,0-1.8,0.8-1.8,1.8c0,1,0.8,1.8,1.8,1.8s1.8-0.8,1.8-1.8l0,0C69.2,44.6,68.4,43.8,67.4,43.8z"/>
		<path d="M33.4,44.9h-6.9v-6.9c-0.1-0.5-0.5-0.8-1-0.8c-0.4,0-0.7,0.4-0.8,0.8v6.9H18c-0.5-0.1-0.9,0.3-1,0.8
			c-0.1,0.5,0.3,0.9,0.8,1c0.1,0,0.1,0,0.2,0h6.8v6.8c-0.1,0.5,0.3,0.9,0.8,1c0.5,0.1,0.9-0.3,1-0.8c0-0.1,0-0.1,0-0.2v-6.8h6.9
			c0.5-0.1,0.8-0.5,0.8-1C34.2,45.3,33.8,45,33.4,44.9z"/>
		<path d="M36,66.8c-3.3,0-6,2.7-6,6s2.7,6,6,6c3.3,0,6-2.7,6-6c0,0,0,0,0,0C42,69.5,39.3,66.8,36,66.8z M36,77.1
			c-2.4,0-4.3-1.9-4.3-4.3c0-2.4,1.9-4.3,4.3-4.3c2.4,0,4.3,1.9,4.3,4.3c0,0,0,0,0,0C40.3,75.2,38.4,77.1,36,77.1z"/>
		<path d="M64.3,66.8c-3.3,0-6,2.7-6,6c0,3.3,2.7,6,6,6c3.3,0,6-2.7,6-6c0,0,0,0,0,0C70.3,69.5,67.7,66.8,64.3,66.8z M64.3,77.1
			c-2.4,0-4.3-1.9-4.3-4.3c0-2.4,1.9-4.3,4.3-4.3c2.4,0,4.3,1.9,4.3,4.3c0,0,0,0,0,0C68.6,75.2,66.7,77.1,64.3,77.1z"/>
		<path d="M89.2,53.9L89.2,53.9c4.2-8.3,0.9-18.5-7.4-22.8c-6.1-3.1-13.4-2.2-18.6,2.2h-0.1H51V28c0-0.6-0.2-1.2-0.7-1.6
			c-0.8-0.6-1.8-0.9-2.8-0.8H43c-0.6,0-1.3-0.2-1.7-0.7c-0.6-0.6-0.8-1.5-0.8-2.3c-0.1-0.8,0.2-1.6,0.8-2.2c0.6-0.5,1.3-0.8,2.1-0.8
			h20.8c2.5-0.1,4.4-2.2,4.4-4.7c0,0,0,0,0-0.1c0.2-2.4-1.7-4.6-4.1-4.7c0,0-0.1,0-0.1,0H53.8c-1.1,0-2.2-0.3-3.1-0.9
			c-0.5-0.6-0.8-1.3-0.9-2.1V3.3c-0.1-0.5-0.5-0.8-1-0.8c-0.4,0-0.7,0.4-0.8,0.8v3.9c0.1,1.2,0.6,2.4,1.4,3.3
			c1.2,0.9,2.8,1.4,4.3,1.4h10.5c1.5,0.1,2.7,1.3,2.6,2.8c0,0,0,0.1,0,0.1c0.1,1.6-1,2.9-2.6,3c0,0-0.1,0-0.1,0H43.4
			c-1.2,0-2.4,0.4-3.3,1.2c-0.9,0.9-1.4,2.2-1.3,3.5c-0.1,1.3,0.4,2.6,1.3,3.6c0.8,0.7,1.8,1.1,2.9,1.1h4.5c0.6,0,1.1,0.1,1.6,0.4
			c0.1,0.1,0.1,0.2,0.1,0.3v5.3H37.1c-7.2-6-17.9-4.9-23.9,2.3c-4.1,5-5,11.8-2.4,17.7c0,0,0,0.1,0,0.1C9.2,67,7.3,84.3,7.2,89.1
			c-0.2,3.5,1.9,6.6,5.2,7.8c1.2,0.5,2.4,0.7,3.6,0.7c2.3,0.1,4.4-0.8,6-2.4c3.3-4.3,6.4-8.9,9.1-13.6c0.2-0.4,0-1-0.4-1.2
			c-0.4-0.2-0.8-0.1-1.1,0.3c-2.7,4.6-5.7,9.1-9,13.4c-1.6,1.8-4.9,2.4-7.7,1.3c-2.6-0.9-4.3-3.4-4.1-6.2C9,84.6,10.7,69,12.3,55.9
			c5.2,7.8,15.7,9.8,23.5,4.6s9.8-15.7,4.6-23.5c-0.5-0.7-1-1.3-1.5-1.9h22.5C55.1,42,55.6,52.7,62.5,59c6.9,6.3,17.6,5.8,23.9-1.1
			c0.5-0.5,0.9-1.1,1.3-1.7c1.5,12.9,3.3,28.3,3.4,32.8c0.2,2.7-1.5,5.2-4.1,6.2c-2.8,1.1-6.1,0.6-7.7-1.3c-3.3-4.3-6.3-8.7-9-13.4
			c-0.2-0.4-0.8-0.5-1.2-0.3c0,0,0,0,0,0c-0.4,0.3-0.5,0.8-0.3,1.2c2.8,4.7,5.8,9.2,9.1,13.6c1.6,1.6,3.8,2.5,6,2.4
			c1.2,0,2.5-0.2,3.6-0.7c3.3-1.2,5.3-4.3,5.1-7.8C92.8,84.2,90.8,67.2,89.2,53.9z M26.4,61.6c-8.4,0-15.2-6.8-15.2-15.2
			s6.8-15.2,15.2-15.2S41.6,38,41.6,46.4c0,0,0,0,0,0C41.6,54.8,34.8,61.6,26.4,61.6z M74,61.6c-8.4,0-15.2-6.8-15.2-15.2
			c0-8.4,6.8-15.2,15.2-15.2S89.2,38,89.2,46.4c0,0,0,0,0,0C89.2,54.8,82.4,61.6,74,61.6z"/>
		<path d="M55.3,71.9H45c-0.5-0.1-0.9,0.3-1,0.8c-0.1,0.5,0.3,0.9,0.8,1c0.1,0,0.1,0,0.2,0h10.3c0.5-0.1,0.8-0.5,0.8-1
			C56,72.3,55.7,72,55.3,71.9z"/>
	</g>
</g>
</svg>
