<?xml version="1.0" encoding="utf-8"?>
<!-- Generator: Adobe Illustrator 22.1.0, SVG Export Plug-In . SVG Version: 6.00 Build 0)  -->
<svg version="1.1" id="Layer_1" xmlns="http://www.w3.org/2000/svg" xmlns:xlink="http://www.w3.org/1999/xlink" x="0px" y="0px"
	 viewBox="0 0 100 100" style="enable-background:new 0 0 100 100;" xml:space="preserve">
<title>cube</title>
<g id="Layer_2_1_">
	<g id="black_shapes">
		<path d="M91.4,26.6L91.4,26.6c0-0.1,0-0.2-0.1-0.3l0,0c-0.1-0.1-0.1-0.2-0.2-0.2l0,0L70.8,14.3c0,0-0.1,0-0.1-0.1L50.4,2.6l0,0
			c-0.1-0.1-0.2-0.1-0.4-0.1l0,0c-0.1,0-0.2,0-0.3,0.1l0,0l-20,11.5L9,26l0,0c-0.1,0.1-0.2,0.2-0.2,0.3c-0.1,0.1-0.1,0.2-0.1,0.3
			l0,0v46.8l0,0c0,0.1,0,0.3,0.1,0.4l0,0C8.8,73.9,8.9,74,9,74l20.1,11.6c0,0.1,0.1,0.1,0.2,0.2h0.1c0.1,0,0.2,0.1,0.3,0.1
			l19.9,11.5l0,0c0.2,0.1,0.5,0.1,0.7,0l0,0L70.5,86l0,0c0.3,0,0.5-0.2,0.7-0.4L91,74.2l0,0c0.1-0.1,0.1-0.1,0.2-0.2
			c0,0,0.1,0,0.1-0.1c0.1-0.1,0.1-0.2,0.1-0.3l0,0L91.4,26.6z M48.7,26.5L30.6,36.8V16L48.7,26.5z M49.2,48.8L31.1,38.3l18.2-10.4
			L49.2,48.8z M50.7,27.6L69,38.2L50.7,48.7L50.7,27.6z M48.4,50L30.5,60.4V39.8L48.4,50z M49.2,51.3v20.1l-17.5-10L49.2,51.3z
			 M50.7,51.4l17.7,10.2L50.7,72V51.4z M51.4,50l18.3-10.5v21.1L51.4,50z M51.7,26.5l17.9-10.3v20.6L51.7,26.5z M29,59.8L11.3,49.6
			l17.7-10.2L29,59.8z M49,73L30.5,83.9V62.4L49,73z M69.7,62.6v20.6L52,73L69.7,62.6z M71.2,39.4l17.7,10.2L71.2,60L71.2,39.4z
			 M89.9,48.4L72.1,38.2l17.8-10.3V48.4z M71.2,37V16.3l18,10.3L71.2,37z M50.7,25.3V4.5l18.1,10.4L50.7,25.3z M49.2,25L31.4,14.7
			L49.2,4.5L49.2,25z M29.1,37.1L10.8,26.6l18.3-10.5L29.1,37.1z M28.1,38.2L10.1,48.6V27.9L28.1,38.2z M10.1,50.6l18.6,10.7
			L10.1,72.1V50.6z M29,62.9v20.8L10.8,73.4L29,62.9z M49.2,74.6v20.8L31.3,85.1L49.2,74.6z M50.7,74l18.7,10.8L50.7,95.5V74z
			 M71.2,63.2l17.9,10.3L71.2,83.8L71.2,63.2z M71.4,61.6l18.5-10.8v21.5L71.4,61.6z"/>
	</g>
</g>
</svg>
