<?xml version="1.0" encoding="utf-8"?>
<!-- Generator: Adobe Illustrator 22.1.0, SVG Export Plug-In . SVG Version: 6.00 Build 0)  -->
<svg version="1.1" id="Layer_1" xmlns="http://www.w3.org/2000/svg" xmlns:xlink="http://www.w3.org/1999/xlink" x="0px" y="0px"
	 viewBox="0 0 100 100" style="enable-background:new 0 0 100 100;" xml:space="preserve">
<title>education</title>
<g id="Layer_2_1_">
	<g id="black_shapes">
		<path d="M94.8,58.5v-8c0-3.5-2.8-6.2-6.3-6.2H62.8c4.1-1.7,8.6-6.1,8.8-15.2c0.2-12.7-6.7-14.2-9.7-14.8l-0.2-0.1
			c-2.5-0.3-5,0-7.4,1c-0.1-1.2,0.2-2.5,0.7-3.6c1.7-2.7,5.7-5.4,5.8-5.4c0.3-0.2,0.4-0.7,0.2-1c-0.2-0.3-0.7-0.4-1-0.2
			c-1.9,1.3-3.6,2.7-5.1,4.4c-0.3-1.9-1.1-3.7-2.3-5.1c-1.2-1.2-3.4-1.8-6.3-1.7H46c-0.2,0-0.4,0.1-0.5,0.2
			c-0.1,0.1-0.2,0.3-0.2,0.6c0,0.2,0.3,4.4,2.5,6.6c1.3,1.2,3.1,1.7,4.8,1.7h0.7c-0.4,1.2-0.6,2.4-0.6,3.7c-1.8-0.8-4.7-1.8-7.3-1.3
			h-0.2c-3,0.6-10,2-9.7,14.8c0.2,9.5,5.1,13.9,9.4,15.4H15.8c-3.4,0-6.2,2.8-6.2,6.2v7.7c0,0.2,0.1,0.4,0.3,0.6
			c-2.8,0.7-4.7,3.2-4.7,6.1v7.7c0,3.5,2.8,6.2,6.2,6.3h0.4c-1.4,1.2-2.2,2.9-2.2,4.8v7.7c0,3.5,2.8,6.2,6.2,6.3h72.7
			c3.5,0,6.3-2.8,6.3-6.3v-7.7c0-3.5-2.8-6.2-6.3-6.2h-0.4c1.4-1.2,2.2-2.9,2.2-4.8v-7.7c0-0.2,0-0.4,0-0.6
			C94.4,64.1,94.8,60.9,94.8,58.5z M48.8,8.9c-1.1-1.4-1.8-3.1-2-4.9c2.9,0,4.1,0.8,4.5,1.2c1.2,1.4,1.9,3,2,4.8
			C52.3,10.1,50.1,10.1,48.8,8.9L48.8,8.9z M37,28.8c-0.2-11.5,5.7-12.8,8.5-13.4h0.2c2.2-0.5,4.7,0.5,6.2,1.1
			c-0.8,0.5-1.6,1-2.3,1.5c-0.6,0.5-1.1,0.8-1.4,1l0,0l0,0c-0.6,0.5-0.5,0.7-0.2,1.1c0.1,0.2,0.4,0.3,0.6,0.3c0.2,0,0.3,0,0.4-0.1
			l0.1-0.1c0.1-0.1,0.5-0.4,1.3-1c1.5-1,3-1.9,4.6-2.7c0,0,0.1-0.1,0.1-0.1c1.9-0.8,4-1.1,6.1-0.8h0.3c2.8,0.6,8.7,1.9,8.5,13.3
			c-0.1,5.1-2.5,14-11,14.6c-1.2,0.1-2.4-0.2-3.5-0.8c-0.7-0.4-1.5-0.7-2.3-0.8c-0.6,0.1-1.1,0.3-1.6,0.6c-1.1,0.6-2.3,0.9-3.5,0.8
			C39.6,42.7,37.1,33.9,37,28.8z M52.2,44c0.8-0.5,1.9-0.4,2.6,0.2h-3.1C51.9,44.1,52.1,44,52.2,44z M88.9,72.5
			c0,2.6-2.1,4.8-4.8,4.8h-7.7c-0.4,0-0.7,0.3-0.7,0.7c0,0.4,0.3,0.7,0.7,0.7h12.1c2.6,0,4.8,2.1,4.8,4.8v7.7c0,2.6-2.1,4.8-4.8,4.8
			l0,0H30.9V81.3c-0.1-0.4-0.4-0.7-0.8-0.7c-0.3,0-0.6,0.3-0.7,0.7V96h-5.1V81.3c-0.1-0.4-0.4-0.7-0.8-0.7c-0.3,0-0.6,0.3-0.7,0.7
			V96h-7c-2.6,0-4.8-2.1-4.8-4.8v-7.7c0-2.6,2.1-4.8,4.8-4.8H61c0.4,0,0.7-0.3,0.7-0.7l0,0c0-0.4-0.3-0.7-0.7-0.7c0,0,0,0,0,0H11.4
			c-2.6,0-4.8-2.1-4.8-4.8v-7.7c0-2.6,2.1-4.8,4.8-4.8h53.4c-0.1,0.1-0.1,0.2-0.1,0.4v28.4c0,0.3,0.2,0.6,0.5,0.7c0.1,0,0.2,0,0.2,0
			c0.2,0,0.5-0.1,0.6-0.3l3.4-4.4l3.1,4.2c0.3,0.3,0.7,0.4,1.1,0.1c0.2-0.1,0.3-0.4,0.3-0.6V60.4c0-0.1,0-0.2-0.1-0.4h10.4
			c2.6,0,4.8,2.1,4.8,4.8V72.5z M66.1,60h6.4c-0.1,0.1-0.1,0.2-0.1,0.4v25.9l-2.3-3.2c-0.1-0.2-0.4-0.3-0.6-0.3
			c-0.2,0-0.5,0.1-0.6,0.3l-2.7,3.5V60.4C66.2,60.3,66.1,60.1,66.1,60z M93.3,58.5c0,3.1-0.8,4.2-3.1,4.2c-0.1,0-0.1,0-0.2,0
			c-0.9-2.5-3.2-4.2-5.9-4.2H11.4h-0.5c0.1-0.1,0.1-0.2,0.1-0.4v-7.7c0-2.6,2.1-4.8,4.8-4.8h5.9v9.2c-0.1,0.4,0.2,0.8,0.7,0.8
			c0.4,0.1,0.8-0.2,0.8-0.7c0-0.1,0-0.1,0-0.2v-9.1h56.9v9.2c-0.1,0.4,0.2,0.8,0.7,0.8c0.4,0.1,0.8-0.2,0.8-0.7c0-0.1,0-0.1,0-0.2
			v-9.2h7c2.6,0,4.8,2.1,4.8,4.8V58.5z"/>
		<path d="M32.4,61.8c-0.4,0-0.7,0.3-0.7,0.7v8.8c-0.1,0.4,0.2,0.8,0.7,0.8c0.4,0.1,0.8-0.2,0.8-0.7c0-0.1,0-0.1,0-0.2v-8.8
			C33.1,62.2,32.8,61.8,32.4,61.8C32.4,61.8,32.4,61.8,32.4,61.8z"/>
		<path d="M37.9,61.8c-0.4,0-0.7,0.3-0.7,0.7v8.8c-0.1,0.4,0.2,0.8,0.7,0.8c0.4,0.1,0.8-0.2,0.8-0.7c0-0.1,0-0.1,0-0.2v-8.8
			C38.6,62.2,38.3,61.8,37.9,61.8C37.9,61.8,37.9,61.8,37.9,61.8z"/>
		<path d="M44.5,61.8c-0.4,0-0.7,0.3-0.7,0.7v8.8c-0.1,0.4,0.2,0.8,0.7,0.8c0.4,0.1,0.8-0.2,0.8-0.7c0-0.1,0-0.1,0-0.2v-8.8
			C45.2,62.2,44.9,61.8,44.5,61.8C44.5,61.8,44.5,61.8,44.5,61.8z"/>
		<path d="M57,39.1c0.6,0.3,1.2,0.4,1.8,0.4c1.1,0,2.2-0.4,3.1-1.1c2.5-1.9,4.5-4.2,6-6.9c0.2-0.4,0.1-0.8-0.3-1c0,0,0,0,0,0
			c-0.4-0.2-0.8-0.1-1,0.3c-1.4,2.5-3.2,4.7-5.5,6.4c-0.9,0.8-2.3,1-3.4,0.6c-0.4-0.2-0.8-0.1-1,0.2C56.5,38.4,56.6,38.9,57,39.1z"
			/>
	</g>
</g>
</svg>
