<svg xmlns="http://www.w3.org/2000/svg" viewBox="0 0 80.71 89.35"><defs><style>.cls-1{fill:none;}.cls-2{fill:#012635;}</style></defs><title>icon-apollo</title><g id="Layer_2" data-name="Layer 2"><g id="navy_shapes" data-name="navy shapes"><path class="cls-1" d="M75.33,17.39a4,4,0,1,0-4-4A4,4,0,0,0,75.33,17.39Z"/><path class="cls-1" d="M45.33,31.93,55,59.36h6.9L48.82,25.24H40.56L27.46,59.36h6.9l1.94-5.58a.66.66,0,0,1,.63-.46H47.47l-2.12-5.64h-6a.68.68,0,0,1-.64-.9l5.33-14.86a.67.67,0,0,1,.64-.44A.72.72,0,0,1,45.33,31.93Z"/><path class="cls-2" d="M78.51,71.73A43.32,43.32,0,1,1,44.67,1.35,42.91,42.91,0,0,1,71,10.24a5.33,5.33,0,0,0-1,3.12A5.38,5.38,0,1,0,75.33,8,5.33,5.33,0,0,0,71.9,9.25,44.27,44.27,0,0,0,44.67,0a44.68,44.68,0,1,0,34.9,72.58.68.68,0,0,0-1.06-.85ZM75.33,9.33a4,4,0,1,1-4,4A4,4,0,0,1,75.33,9.33Z"/><path class="cls-2" d="M53.9,60.26a.67.67,0,0,0,.63.45h8.36a.68.68,0,0,0,.56-.29.67.67,0,0,0,.07-.63L49.91,24.32a.67.67,0,0,0-.63-.43H40.09a.67.67,0,0,0-.63.43L25.85,59.79a.68.68,0,0,0,.08.63.66.66,0,0,0,.55.29h8.36a.67.67,0,0,0,.64-.45l1.94-5.59h11a.66.66,0,0,0,.55-.29.65.65,0,0,0,.08-.62l-2.63-7a.67.67,0,0,0-.64-.44H40.32l4.36-12.17ZM44.05,31.92,38.72,46.78a.68.68,0,0,0,.64.9h6l2.12,5.64H36.93a.66.66,0,0,0-.63.46l-1.94,5.58h-6.9l13.1-34.12h8.26L61.91,59.36H55L45.33,31.93a.72.72,0,0,0-.64-.45A.67.67,0,0,0,44.05,31.92Z"/></g></g></svg>