<svg xmlns="http://www.w3.org/2000/svg" viewBox="0 0 89.36 89.28"><defs><style>.cls-1{fill:none;}.cls-2{fill:#012635;}</style></defs><title>icon-dart</title><g id="Layer_2" data-name="Layer 2"><g id="navy_shapes" data-name="navy shapes"><path class="cls-1" d="M20.51,15.81h45a4.77,4.77,0,0,1,.63.06l.32,0c-4.23-4.19-8.21-8.06-10.74-10.51l-2.3-2.24C51,.73,48.19.76,43.26,3.26c-.45.22-1.51.81-3.06,1.66C36,7.21,28.56,11.31,19.68,15.82Z"/><path class="cls-1" d="M15.76,66.07l.32-46.67C11.54,28.32,7.32,35.92,5,40.17c-.85,1.54-1.47,2.65-1.7,3.09C.76,48.19.73,51.05,3.13,53.45c.34.33,1.11,1.16,2.2,2.33,2.41,2.57,6.24,6.68,10.52,11C15.81,66.56,15.78,66.32,15.76,66.07Z"/><path class="cls-1" d="M22.82,71.74H70.28L17.44,18.16,17.11,66a6.07,6.07,0,0,0,5.7,5.72Z"/><path class="cls-1" d="M68.59,18.05A10.82,10.82,0,0,0,66,17.18c-.14,0-.29,0-.44,0H20.92l-2.55,0,53.8,54.56H88V36.29l-18.8-17.8A3.86,3.86,0,0,0,68.59,18.05Z"/><path class="cls-1" d="M22.83,73.09h0A5.8,5.8,0,0,1,21.69,73l14.12,15H71.26l0-14.84Zm14.4,3.78h0l-8.09-.05a.68.68,0,1,1,0-1.35h0l8.09,0a.68.68,0,0,1,.67.68A.67.67,0,0,1,37.23,76.87Z"/><path class="cls-2" d="M89.14,35.51,71.26,18.61l-1.13-1.12c-.14-.12-.3-.21-.45-.32l-.06-.09c-5-5-10-9.81-12.93-12.68L54.4,2.18c-2.86-2.87-6.26-2.9-11.74-.13-.46.23-1.54.82-3.11,1.68C35,6.24,26.46,10.92,16.47,15.92l0,0-.07.05,0,0,0,.06a.36.36,0,0,0-.07.1s0,0,0,0c-5,10-9.82,18.65-12.4,23.29-.89,1.61-1.48,2.68-1.72,3.14-2.77,5.49-2.74,8.89.12,11.75.34.33,1.09,1.14,2.17,2.3,2.74,2.93,7.32,7.83,12.29,12.8L18.92,72,35,89.07a.71.71,0,0,0,.49.21H71.94a.67.67,0,0,0,.67-.67l0-15.52H88.68a.68.68,0,0,0,.68-.67V36A.66.66,0,0,0,89.14,35.51ZM40.2,4.92c1.55-.85,2.61-1.44,3.06-1.66C48.19.76,51,.73,53.45,3.13l2.3,2.24c2.53,2.45,6.51,6.32,10.74,10.51l-.32,0a4.77,4.77,0,0,0-.63-.06H19.68C28.56,11.31,36,7.21,40.2,4.92ZM17.11,66l.33-47.86L70.28,71.74H22.81A6.07,6.07,0,0,1,17.11,66Zm-14-12.57c-2.4-2.4-2.37-5.26.12-10.19.23-.44.85-1.55,1.7-3.09,2.37-4.25,6.59-11.85,11.13-20.77l-.32,46.67c0,.25.05.49.09.73-4.28-4.34-8.11-8.45-10.52-11C4.24,54.61,3.47,53.78,3.13,53.45ZM35.81,87.93,21.69,73a5.8,5.8,0,0,0,1.11.11H71.22l0,14.84ZM88,71.74H72.17L18.37,17.18l2.55,0H65.54c.15,0,.3,0,.44,0a10.82,10.82,0,0,1,2.61.87,3.86,3.86,0,0,1,.62.44L88,36.29Z"/><path class="cls-2" d="M37.23,75.52l-8.09,0h0a.68.68,0,1,0,0,1.35l8.09.05h0a.67.67,0,0,0,.67-.67A.68.68,0,0,0,37.23,75.52Z"/></g></g></svg>