<svg xmlns="http://www.w3.org/2000/svg" viewBox="0 0 89.35 80.07"><defs><style>.cls-1{fill:none;}.cls-2{fill:#012635;}</style></defs><title>icon-reactjs</title><g id="Layer_2" data-name="Layer 2"><g id="navy_shapes" data-name="navy shapes"><path class="cls-1" d="M26,41.81a92.62,92.62,0,0,0-4.27,11.76,94.73,94.73,0,0,0,12.18,1.94c-1.45-2.16-2.87-4.44-4.24-6.81S27.12,44.09,26,41.81Z"/><path class="cls-1" d="M52.92,57.07c-2.66.18-5.42.29-8.25.29s-5.42-.1-8-.28a93.73,93.73,0,0,0,8.28,10.14A92.29,92.29,0,0,0,52.92,57.07Z"/><path class="cls-1" d="M23.72,78c4.71,2.6,12.39-1.45,20.28-9.75A93.11,93.11,0,0,1,34.9,57a94.79,94.79,0,0,1-13.54-2.06C18.32,66.33,18.91,75.3,23.72,78Z"/><path class="cls-1" d="M29.51,31.66c1.37-2.48,2.79-4.84,4.24-7.09a93.39,93.39,0,0,0-12.38,2,92.7,92.7,0,0,0,4.6,12Q27.58,35.16,29.51,31.66Z"/><path class="cls-1" d="M20.05,26.9C8.76,29.79,1.35,34.6,1.35,40s7.56,10.35,19,13.23a94.29,94.29,0,0,1,4.82-13A94.41,94.41,0,0,1,20.05,26.9Z"/><path class="cls-1" d="M26.37,1.67A6.63,6.63,0,0,0,23,2.51c-4.71,2.72-5.16,11.54-2,22.76A93.48,93.48,0,0,1,34.7,23.13a93.39,93.39,0,0,1,8.77-11.25C37.13,5.45,31,1.67,26.37,1.67Z"/><path class="cls-1" d="M36.43,23q4-.29,8.24-.29c2.75,0,5.43.1,8,.27a93.57,93.57,0,0,0-8.28-10.13A91.35,91.35,0,0,0,36.43,23Z"/><path class="cls-1" d="M65.63,2.11a6.56,6.56,0,0,0-3.22-.78c-4.62,0-10.77,3.91-17.06,10.53a93.9,93.9,0,0,1,9.09,11.25A94.89,94.89,0,0,1,68,25.18C71,13.73,70.44,4.77,65.63,2.11Z"/><path class="cls-1" d="M63,78.4a6.53,6.53,0,0,0,3.36-.85c4.71-2.71,5.16-11.54,2-22.75a96.24,96.24,0,0,1-13.71,2.14,93.39,93.39,0,0,1-8.77,11.25C52.22,74.61,58.38,78.4,63,78.4Z"/><path class="cls-1" d="M63.35,38.25a91.52,91.52,0,0,0,4.27-11.76,93,93,0,0,0-12.19-1.93q2.18,3.24,4.25,6.81C61,33.68,62.23,36,63.35,38.25Z"/><path class="cls-1" d="M62.64,39.86c-1.24-2.58-2.62-5.19-4.13-7.81s-3.16-5.23-4.82-7.64q-4.36-.35-9-.35c-3.16,0-6.23.13-9.2.37Q33,28.15,30.69,32.31c-1.46,2.65-2.79,5.29-4,7.89C28,42.78,29.33,45.4,30.84,48s3.16,5.23,4.82,7.64c2.91.22,5.92.35,9,.35s6.24-.13,9.21-.37c1.65-2.48,3.25-5.12,4.78-7.88S61.45,42.47,62.64,39.86ZM45.16,48.94a9,9,0,1,1,9-9A9,9,0,0,1,45.16,48.94Z"/><path class="cls-1" d="M59.84,48.41c-1.37,2.47-2.79,4.84-4.24,7.08a93.17,93.17,0,0,0,12.38-2,92.15,92.15,0,0,0-4.6-12C62.31,43.75,61.13,46.08,59.84,48.41Z"/><path class="cls-1" d="M69,26.81a94.76,94.76,0,0,1-4.82,13A94.79,94.79,0,0,1,69.3,53.16C80.59,50.28,88,45.47,88,40S80.44,29.69,69,26.81Z"/><path class="cls-1" d="M45.16,32.3A7.65,7.65,0,1,0,52.81,40,7.66,7.66,0,0,0,45.16,32.3Z"/><path class="cls-2" d="M45.16,31a9,9,0,1,0,9,9A9,9,0,0,0,45.16,31Zm0,16.64A7.65,7.65,0,1,1,52.81,40,7.65,7.65,0,0,1,45.16,47.59Z"/><path class="cls-2" d="M26,38.61a92.7,92.7,0,0,1-4.6-12l-1.32.32a94.41,94.41,0,0,0,5.17,13.32C25.46,39.68,25.71,39.14,26,38.61Z"/><path class="cls-2" d="M23,2.51a6.63,6.63,0,0,1,3.36-.84c4.6,0,10.76,3.78,17.1,10.21l.93-1C35.86,2.27,27.56-1.67,22.34,1.34s-6,12.37-2.67,24.26c.43-.12.87-.22,1.32-.33C17.85,14.05,18.3,5.23,23,2.51Z"/><path class="cls-2" d="M26.71,40.2,26,41.81c1.12,2.28,2.34,4.57,3.67,6.89s2.79,4.65,4.24,6.81l1.75.15Q33.17,52,30.84,48C29.33,45.4,28,42.78,26.71,40.2Z"/><path class="cls-2" d="M62.64,39.86c.24-.53.48-1.07.71-1.61C62.23,36,61,33.68,59.68,31.37s-2.8-4.65-4.25-6.81c-.57-.06-1.15-.1-1.74-.15q2.49,3.61,4.82,7.64C60,34.67,61.4,37.28,62.64,39.86Z"/><path class="cls-2" d="M44.93,67.22a93.73,93.73,0,0,1-8.28-10.14L34.9,57A93.11,93.11,0,0,0,44,68.21C44.31,67.89,44.62,67.55,44.93,67.22Z"/><path class="cls-2" d="M66.34,77.55A6.53,6.53,0,0,1,63,78.4c-4.6,0-10.76-3.79-17.1-10.21l-.93,1C51.57,75.86,58,79.73,63.05,79.73a7.78,7.78,0,0,0,4-1c5.28-3,6-12.37,2.67-24.25l-1.32.33C71.5,66,71.05,74.84,66.34,77.55Z"/><path class="cls-2" d="M44.42,12.85A93.57,93.57,0,0,1,52.7,23l1.74.13a93.9,93.9,0,0,0-9.09-11.25Q44.89,12.34,44.42,12.85Z"/><path class="cls-2" d="M63.38,41.46a92.15,92.15,0,0,1,4.6,12c.45-.11.89-.21,1.32-.33a94.79,94.79,0,0,0-5.17-13.31C63.89,40.39,63.64,40.92,63.38,41.46Z"/><path class="cls-2" d="M63.38,41.46c.26-.54.51-1.07.75-1.61a94.76,94.76,0,0,0,4.82-13l-1.33-.32a91.52,91.52,0,0,1-4.27,11.76c-.23.54-.47,1.08-.71,1.61-1.19,2.61-2.52,5.25-4,7.9s-3.13,5.4-4.78,7.88c.58,0,1.15-.09,1.72-.15,1.45-2.24,2.87-4.61,4.24-7.08S62.31,43.75,63.38,41.46Z"/><path class="cls-2" d="M54.65,56.94l-1.73.13a92.29,92.29,0,0,1-8,10.15c-.31.33-.62.67-.93,1C36.11,76.51,28.43,80.56,23.72,78s-5.4-11.63-2.36-23.07l-1.31-.33c-3.2,12.12-2.37,21.6,3,24.58a7.72,7.72,0,0,0,3.8.93c5,0,11.51-4,18.08-10.88l.93-1A93.39,93.39,0,0,0,54.65,56.94Z"/><path class="cls-2" d="M34.7,23.13,36.43,23a91.35,91.35,0,0,1,8-10.15q.46-.51.93-1C51.64,5.24,57.79,1.33,62.41,1.33a6.56,6.56,0,0,1,3.22.78C70.44,4.77,71,13.73,68,25.18l1.31.32c3.2-12.12,2.37-21.59-3-24.57s-13.5,1.18-21.88,10l-.93,1A93.39,93.39,0,0,0,34.7,23.13Z"/><path class="cls-2" d="M26.71,40.2c1.19-2.6,2.52-5.24,4-7.89s3.13-5.4,4.78-7.88l-1.72.14c-1.45,2.25-2.87,4.61-4.24,7.09S27,36.31,26,38.61c-.26.53-.51,1.07-.75,1.61a94.29,94.29,0,0,0-4.82,13l1.33.31A92.62,92.62,0,0,1,26,41.81Z"/><path class="cls-2" d="M89.35,40c0-6.15-7.89-11.46-20-14.53L68,25.18a94.89,94.89,0,0,0-13.55-2.07L52.7,23c-2.6-.17-5.28-.27-8-.27s-5.57.1-8.24.29l-1.73.13A93.48,93.48,0,0,0,21,25.27c-.45.11-.89.21-1.32.33C7.73,28.67,0,33.94,0,40S7.89,51.5,20.05,54.56l1.31.33A94.79,94.79,0,0,0,34.9,57l1.75.13c2.6.18,5.28.28,8,.28s5.59-.11,8.25-.29l1.73-.13A96.24,96.24,0,0,0,68.36,54.8l1.32-.33C81.62,51.39,89.35,46.13,89.35,40Zm-20,13.13c-.43.12-.87.22-1.32.33a93.17,93.17,0,0,1-12.38,2c-.57.06-1.14.1-1.72.15-3,.24-6.05.37-9.21.37s-6.1-.13-9-.35l-1.75-.15a94.73,94.73,0,0,1-12.18-1.94l-1.33-.31c-11.49-2.88-19-7.73-19-13.23S8.76,29.79,20.05,26.9l1.32-.32a93.39,93.39,0,0,1,12.38-2l1.72-.14c3-.24,6-.37,9.2-.37s6.11.12,9,.35c.59.05,1.17.09,1.74.15a93,93,0,0,1,12.19,1.93l1.33.32C80.44,29.69,88,34.54,88,40S80.59,50.28,69.3,53.16Z"/></g></g></svg>