<svg xmlns="http://www.w3.org/2000/svg" viewBox="0 0 95 78.15"><defs><style>.cls-1{fill:#012635;}</style></defs><title>icon-macbook</title><g id="Layer_2" data-name="Layer 2"><g id="navy_strokes" data-name="navy strokes"><path class="cls-1" d="M17.17,46.44H77.83a.68.68,0,0,0,.67-.68V13a.67.67,0,1,0-1.34,0V45.09H73.5V42.23A4.47,4.47,0,0,0,68.83,38h-.29c0-.06,0-.12,0-.19a5.38,5.38,0,0,0-10.76,0c0,.07,0,.13,0,.19H52.89c0-.06,0-.12,0-.19a5.38,5.38,0,1,0-10.76,0c0,.07,0,.13,0,.19H37.23c0-.06,0-.12,0-.19a5.38,5.38,0,1,0-10.76,0c0,.07,0,.13,0,.19h-.38a4.45,4.45,0,0,0-4.64,4.23v2.86H17.84V10.73h58a.68.68,0,0,0,.67-.68.67.67,0,0,0-.67-.67H17.17a.67.67,0,0,0-.68.67V45.76A.68.68,0,0,0,17.17,46.44Zm46-12.66a4,4,0,1,1-4,4A4,4,0,0,1,63.18,33.78Zm-15.65,0a4,4,0,1,1-4,4A4,4,0,0,1,47.53,33.78Zm-15.66,0a4,4,0,1,1-4,4A4,4,0,0,1,31.87,33.78Zm-9,8.45a3.11,3.11,0,0,1,3.29-2.88h.62a5.34,5.34,0,0,0,10.25,0h5.4a5.34,5.34,0,0,0,10.25,0h5.41a5.34,5.34,0,0,0,10.25,0h.52a3.14,3.14,0,0,1,3.33,2.88v2.86H22.84Z"/><path class="cls-1" d="M94.33,67.92,85.59,54.64a8.73,8.73,0,0,0-4.16-3.12,4.67,4.67,0,0,0,2.07-3.88v-43A4.68,4.68,0,0,0,78.83,0H16.17a4.68,4.68,0,0,0-4.68,4.67v43a4.7,4.7,0,0,0,2.07,3.88,8.7,8.7,0,0,0-4.15,3.12L.67,67.92A3.42,3.42,0,0,0,0,70.14a.19.19,0,0,0,0,.07v3.64a4.51,4.51,0,0,0,4.67,4.3H74.33a.68.68,0,1,0,0-1.35H4.67a3.15,3.15,0,0,1-3.32-3V72A4,4,0,0,0,3,72.3H92A4,4,0,0,0,93.52,72v1.84a3.16,3.16,0,0,1-3.33,3H81a.68.68,0,0,0,0,1.35h9.23a4.51,4.51,0,0,0,4.68-4.3V70.67A3.12,3.12,0,0,0,94.33,67.92ZM12.84,47.64v-43a3.33,3.33,0,0,1,3.33-3.32H78.83a3.32,3.32,0,0,1,3.32,3.32v43A3.32,3.32,0,0,1,78.83,51H16.17A3.33,3.33,0,0,1,12.84,47.64ZM92,71H3a1.74,1.74,0,0,1-1.59-.63,1.73,1.73,0,0,1,.35-1.67l8.73-13.28a7.67,7.67,0,0,1,5.64-3H78.83a7.63,7.63,0,0,1,5.63,3L93.2,68.66a2.25,2.25,0,0,1,.43,1.19.76.76,0,0,0-.11.36v.15A1.77,1.77,0,0,1,92,71Z"/><path class="cls-1" d="M74.79,57.4a4.79,4.79,0,0,0-3.65-2H23.86a4.79,4.79,0,0,0-3.65,2l-4.34,6.73a1.65,1.65,0,0,0,1.48,2.72h60.3a1.65,1.65,0,0,0,1.48-2.72Zm3.36,8c0,.06-.19.14-.5.14H17.35c-.31,0-.47-.08-.5-.14s0-.24.15-.5l3-4.57a.69.69,0,0,0,.35.11h8a.68.68,0,1,0,0-1.35H20.75l.59-.92a3.45,3.45,0,0,1,2.52-1.37H71.14a3.48,3.48,0,0,1,2.52,1.38l.59.91h-40a.68.68,0,1,0,0,1.35H74.69a.69.69,0,0,0,.35-.11L78,64.86C78.16,65.12,78.18,65.3,78.15,65.36Z"/><circle class="cls-1" cx="47.5" cy="5.41" r="1.36"/></g></g></svg>