<svg xmlns="http://www.w3.org/2000/svg" viewBox="0 0 89.35 89.35"><defs><style>.cls-1{fill:none;}.cls-2{fill:#012635;}</style></defs><title>icon-gatsbyjs</title><g id="Layer_2" data-name="Layer 2"><g id="navy_shapes" data-name="navy shapes"><path class="cls-1" d="M57.77,50.26H72.38a.67.67,0,0,1,.53.25.69.69,0,0,1,.13.57,29.08,29.08,0,0,1-18.63,21,.65.65,0,0,1-.7-.16L17.43,35.64a.65.65,0,0,1-.16-.7,29.07,29.07,0,0,1,51.27-6.86l3.27-3.27a33.62,33.62,0,0,0-54.57.4A34.47,34.47,0,0,0,14,30.9,32.61,32.61,0,0,0,11.93,37L52.38,77.42a33.37,33.37,0,0,0,11.76-5.31,33.44,33.44,0,0,0,13.61-21.3,34,34,0,0,0,.57-5.66H57.77Z"/><path class="cls-1" d="M42.12,78.21l-31-31A33.58,33.58,0,0,0,42.12,78.21Z"/><path class="cls-1" d="M44.67,1.35A43.33,43.33,0,1,0,88,44.67,43.38,43.38,0,0,0,44.67,1.35Zm-.21,77.89a.68.68,0,0,1-.62.41h0A34.94,34.94,0,0,1,9.7,45.53a.68.68,0,0,1,1.15-.5L37.32,71.5l7,7A.67.67,0,0,1,44.46,79.24Zm20.47-6a35,35,0,0,1-12.61,5.61l-.15,0a.67.67,0,0,1-.48-.2l-41-41a.65.65,0,0,1-.18-.62,34.1,34.1,0,0,1,2.22-6.69,35,35,0,0,1,60.5-5.86.67.67,0,0,1-.08.87l-4.25,4.25a.69.69,0,0,1-.55.19.66.66,0,0,1-.49-.3,27.72,27.72,0,0,0-46.37-.06A27.09,27.09,0,0,0,18.69,35L54.36,70.66a27.78,27.78,0,0,0,17.16-19H57.09a.67.67,0,0,1-.67-.67V44.47a.67.67,0,0,1,.67-.67H79a.66.66,0,0,1,.67.66H79l.68.07v.13a35.59,35.59,0,0,1-.59,6.39A34.85,34.85,0,0,1,64.93,73.21Z"/><path class="cls-2" d="M44.67,0A44.68,44.68,0,1,0,89.35,44.67,44.72,44.72,0,0,0,44.67,0Zm0,88A43.33,43.33,0,1,1,88,44.67,43.38,43.38,0,0,1,44.67,88Z"/><path class="cls-2" d="M37.32,71.5,10.85,45a.68.68,0,0,0-1.15.5A34.94,34.94,0,0,0,43.82,79.65h0a.68.68,0,0,0,.48-1.15ZM11.14,47.23l31,31A33.58,33.58,0,0,1,11.14,47.23Z"/><path class="cls-2" d="M79.67,44.54,79,44.47h.67A.66.66,0,0,0,79,43.8H57.09a.67.67,0,0,0-.67.67v6.47a.67.67,0,0,0,.67.67H71.52a27.78,27.78,0,0,1-17.16,19L18.69,35a27.09,27.09,0,0,1,2.82-5.55,27.72,27.72,0,0,1,46.37.06.66.66,0,0,0,.49.3.69.69,0,0,0,.55-.19l4.25-4.25a.67.67,0,0,0,.08-.87,35,35,0,0,0-60.5,5.86A34.1,34.1,0,0,0,10.53,37a.65.65,0,0,0,.18.62l41,41a.67.67,0,0,0,.48.2l.15,0A35,35,0,0,0,79.08,51.06a35.59,35.59,0,0,0,.59-6.39Zm-1.92,6.27a33.44,33.44,0,0,1-13.61,21.3,33.37,33.37,0,0,1-11.76,5.31L11.93,37A32.61,32.61,0,0,1,14,30.9a34.47,34.47,0,0,1,3.26-5.69,33.62,33.62,0,0,1,54.57-.4l-3.27,3.27a29.07,29.07,0,0,0-51.27,6.86.65.65,0,0,0,.16.7L53.71,71.92a.65.65,0,0,0,.7.16A29.08,29.08,0,0,0,73,51.08a.69.69,0,0,0-.13-.57.67.67,0,0,0-.53-.25H57.77V45.15H78.32A34,34,0,0,1,77.75,50.81Z"/></g></g></svg>