<svg xmlns="http://www.w3.org/2000/svg" viewBox="0 0 67.81 83.35"><defs><style>.cls-1{fill:none;}.cls-2{fill:#012635;}</style></defs><title>icon-flutter</title><g id="Layer_2" data-name="Layer 2"><g id="navy_shapes" data-name="navy shapes"><polygon class="cls-1" points="65.06 39.33 42.47 39.33 21.06 60.74 32.38 72.01 65.06 39.33"/><path class="cls-1" d="M1.62,41.29,13.47,53.15,65.26,1.35H42.08C29,14.21,5.09,37.75,1.62,41.29Z"/><path class="cls-1" d="M33.46,73.13,42.32,82H65.5L45.05,61.54Zm9.85-5.27-5.76,5.68a.66.66,0,0,1-.47.19.63.63,0,0,1-.48-.2.68.68,0,0,1,0-1l5.76-5.68a.67.67,0,0,1,1,0A.69.69,0,0,1,43.31,67.86Z"/><path class="cls-2" d="M67.61,82.2,45.85,60.44,67.17,39.13a.68.68,0,0,0,.14-.74.67.67,0,0,0-.62-.41H42.19a.71.71,0,0,0-.48.19L19.63,60.27a.66.66,0,0,0-.2.48.63.63,0,0,0,.2.47L31.9,73.44h0a.86.86,0,0,0,.1.16l9.55,9.54a.65.65,0,0,0,.47.2H67.13a.67.67,0,0,0,.63-.42A.68.68,0,0,0,67.61,82.2ZM42.47,39.33H65.06L32.38,72,21.06,60.74ZM42.32,82l-8.86-8.87L45.05,61.54,65.5,82Z"/><path class="cls-2" d="M67.51.42A.66.66,0,0,0,66.89,0H41.8a.67.67,0,0,0-.47.19L20.74,20.46,6.6,34.42C-.14,41.1-.14,41.1.05,41.56a.54.54,0,0,0,.15.22L13,54.58a.68.68,0,0,0,1,0L67.36,1.15A.66.66,0,0,0,67.51.42Zm-54,52.73L1.62,41.29C5.09,37.75,29,14.21,42.08,1.35H65.26Z"/><path class="cls-2" d="M42.36,66.9,36.6,72.58a.68.68,0,0,0,0,1,.63.63,0,0,0,.48.2.66.66,0,0,0,.47-.19l5.76-5.68a.69.69,0,0,0,0-1A.67.67,0,0,0,42.36,66.9Z"/></g></g></svg>