<svg xmlns="http://www.w3.org/2000/svg" viewBox="0 0 89.35 89.35"><defs><style>.cls-1{fill:none;}.cls-2{fill:#012635;}</style></defs><title>icon-graphql</title><g id="Layer_2" data-name="Layer 2"><g id="navy_shapes" data-name="navy shapes"><path class="cls-1" d="M21.42,29.26a5,5,0,1,0-5,4.95A5,5,0,0,0,21.42,29.26Z"/><path class="cls-1" d="M65.63,28.58a6.38,6.38,0,0,1,.29-1.31L48.87,17.62a6.23,6.23,0,0,1-4.69,2.11,6.31,6.31,0,0,1-4.68-2.09l-17,9.65a6.18,6.18,0,0,1,.28,1.29Z"/><path class="cls-1" d="M65.63,29.93H22.73a5.2,5.2,0,0,1-.19,1l17.19,9.73a6.29,6.29,0,0,1,8.92,0l17.18-9.72A6.43,6.43,0,0,1,65.63,29.93Z"/><path class="cls-1" d="M44.18,18.38a4.95,4.95,0,1,0-5-4.94A4.95,4.95,0,0,0,44.18,18.38Z"/><path class="cls-1" d="M44.18,50a5,5,0,1,0-5-5A5,5,0,0,0,44.18,50Z"/><path class="cls-1" d="M67.25,30.9a.79.79,0,0,1,.08.26,4.95,4.95,0,1,0-.38-1.9A4.72,4.72,0,0,0,67.25,30.9Z"/><path class="cls-1" d="M71.9,56.65a5,5,0,1,0,4.94,5A5,5,0,0,0,71.9,56.65Z"/><path class="cls-1" d="M16.47,56.65a4.95,4.95,0,1,0,5,5A5,5,0,0,0,16.47,56.65Z"/><path class="cls-1" d="M44.67,1.35A43.33,43.33,0,1,0,88,44.67,43.38,43.38,0,0,0,44.67,1.35ZM71.9,67.9a6.29,6.29,0,0,1-5.47-3.19L50.28,73.87A6.22,6.22,0,0,1,51,76.72a6.3,6.3,0,1,1-12.1-2.45L22,64.7a6.3,6.3,0,1,1-6.15-9.36V35.52a6.3,6.3,0,1,1,6.09-9.46l16.82-9.52a6.3,6.3,0,1,1,11,0L66.49,26a6.29,6.29,0,1,1,6.08,9.48V55.34A6.3,6.3,0,0,1,71.9,67.9Z"/><circle class="cls-1" cx="44.67" cy="76.72" r="4.95"/><path class="cls-1" d="M71.22,55.34V35.52a6.29,6.29,0,0,1-4.89-3.33L49.5,41.71a6.31,6.31,0,1,1-10.62,0L22.05,32.17a6.32,6.32,0,0,1-4.9,3.35V55.34a6.31,6.31,0,0,1,5.62,6.26,6.23,6.23,0,0,1-.28,1.85l17,9.65a6.29,6.29,0,0,1,10-.37l16.33-9.26a6.41,6.41,0,0,1-.28-1.87A6.3,6.3,0,0,1,71.22,55.34Z"/><path class="cls-2" d="M44.67,0A44.68,44.68,0,1,0,89.35,44.67,44.72,44.72,0,0,0,44.67,0Zm0,88A43.33,43.33,0,1,1,88,44.67,43.38,43.38,0,0,1,44.67,88Z"/><path class="cls-2" d="M72.57,55.34V35.52A6.3,6.3,0,1,0,66.49,26L49.67,16.52a6.3,6.3,0,1,0-11,0L21.89,26.06a6.3,6.3,0,1,0-6.09,9.46V55.34A6.3,6.3,0,1,0,22,64.7l16.92,9.57a6.3,6.3,0,1,0,11.41-.4l16.15-9.16a6.29,6.29,0,1,0,6.14-9.37Zm-.67-31a5,5,0,1,1-4.57,6.85.79.79,0,0,0-.08-.26,4.72,4.72,0,0,1-.3-1.64A5,5,0,0,1,71.9,24.31ZM44.18,40.13a4.95,4.95,0,1,1-5,4.95A5,5,0,0,1,44.18,40.13Zm0-1.35a6.29,6.29,0,0,0-4.45,1.85L22.54,30.9a5.2,5.2,0,0,0,.19-1h42.9a6.43,6.43,0,0,0,.2,1L48.65,40.64A6.27,6.27,0,0,0,44.18,38.78Zm0-30.29a4.95,4.95,0,1,1-5,4.95A5,5,0,0,1,44.18,8.49ZM39.5,17.64a6.31,6.31,0,0,0,4.68,2.09,6.23,6.23,0,0,0,4.69-2.11l17.05,9.65a6.38,6.38,0,0,0-.29,1.31H22.73a6.18,6.18,0,0,0-.28-1.29Zm-28,11.62a4.95,4.95,0,1,1,4.95,4.95A5,5,0,0,1,11.52,29.26Zm4.95,37.29a5,5,0,1,1,5-4.95A5,5,0,0,1,16.47,66.55Zm28.2,15.12a5,5,0,1,1,4.95-5A5,5,0,0,1,44.67,81.67Zm4.88-8.94a6.29,6.29,0,0,0-10,.37l-17-9.65a6.23,6.23,0,0,0,.28-1.85,6.31,6.31,0,0,0-5.62-6.26V35.52a6.32,6.32,0,0,0,4.9-3.35L38.88,41.7a6.21,6.21,0,0,0-1,3.38A6.3,6.3,0,1,0,49.5,41.71l16.83-9.52a6.29,6.29,0,0,0,4.89,3.33V55.34A6.3,6.3,0,0,0,65.6,61.6a6.41,6.41,0,0,0,.28,1.87ZM71.9,66.55a5,5,0,1,1,4.94-4.95A5,5,0,0,1,71.9,66.55Z"/></g></g></svg>