<svg xmlns="http://www.w3.org/2000/svg" viewBox="0 0 83.25 76.44"><defs><style>.cls-1{fill:#012635;}</style></defs><title>icon-e-commerce</title><g id="Layer_2" data-name="Layer 2"><g id="navy_shapes" data-name="navy shapes"><path class="cls-1" d="M37.51,66.77a2.68,2.68,0,1,0,2.68,2.67A2.68,2.68,0,0,0,37.51,66.77Zm0,4a1.33,1.33,0,1,1,1.33-1.33A1.33,1.33,0,0,1,37.51,70.77Z"/><path class="cls-1" d="M65.05,66.77a2.68,2.68,0,1,0,2.67,2.67A2.68,2.68,0,0,0,65.05,66.77Zm0,4a1.33,1.33,0,1,1,0-2.65,1.33,1.33,0,0,1,0,2.65Z"/><path class="cls-1" d="M54.51,33.91a2.68,2.68,0,1,0-2.67,2.67A2.68,2.68,0,0,0,54.51,33.91Zm-2.67,1.32a1.33,1.33,0,1,1,1.32-1.32A1.33,1.33,0,0,1,51.84,35.23Z"/><path class="cls-1" d="M73.92,47.7c3.66,0,9.23-25.23,9.28-25.48a2.1,2.1,0,0,0-.4-1.8c-1-1.19-3.35-1.17-5.63-1.15H22L18.42,4a5.1,5.1,0,0,0-.66-1.65A3.69,3.69,0,0,0,14.35,0H3.67A3.68,3.68,0,0,0,0,3.67v.38A3.68,3.68,0,0,0,3.67,7.72h8.12L24,59.69a4.75,4.75,0,0,0,.75,1.79,3.67,3.67,0,0,0,3.38,2.24h5.35a7,7,0,1,0,8,0H61a7,7,0,1,0,8,0h3.86a3.68,3.68,0,0,0,3.68-3.67v-.38A3.68,3.68,0,0,0,72.93,56H30.65L28.7,47.7ZM43.16,69.44a5.65,5.65,0,1,1-5.65-5.65A5.65,5.65,0,0,1,43.16,69.44Zm27.54,0a5.65,5.65,0,1,1-5.65-5.65A5.66,5.66,0,0,1,70.7,69.44ZM51.84,39.89a.67.67,0,0,0-.68.68v5.78h-11L38.9,33.71h6.64a.68.68,0,0,0,.68-.68.67.67,0,0,0-.68-.67H38.76L37.55,20.63H51.16v6a.68.68,0,0,0,1.35,0v-6h13.4L64.7,32.36H58.65A.67.67,0,0,0,58,33a.68.68,0,0,0,.67.68h5.91l-1.3,12.64H52.51V40.57A.67.67,0,0,0,51.84,39.89Zm22.08,6.46h-9.3l1.3-12.64h13C76.57,41.71,74.57,46.12,73.92,46.35Zm3.26-25.73c1.78,0,4,0,4.58.67a.69.69,0,0,1,.12.66c-.88,3.92-1.76,7.4-2.61,10.42H66.06l1.21-11.73h9.91Zm-41,0L37.4,32.36H25.09L22.33,20.63ZM30.12,57.35H72.93a2.33,2.33,0,0,1,2.33,2.32v.38a2.33,2.33,0,0,1-2.33,2.32H28.14A2.33,2.33,0,0,1,26,60.9l-.07-.14a3.36,3.36,0,0,1-.58-1.36L13,6.89a.68.68,0,0,0-.66-.52H3.67A2.32,2.32,0,0,1,1.35,4.05V3.67A2.32,2.32,0,0,1,3.67,1.35H14.35a2.33,2.33,0,0,1,2.17,1.53.83.83,0,0,0,.07.13,3.51,3.51,0,0,1,.51,1.25L29.46,56.83A.68.68,0,0,0,30.12,57.35ZM25.41,33.71H37.54l1.3,12.64H28.51l-.12,0Z"/></g></g></svg>