<svg xmlns="http://www.w3.org/2000/svg" viewBox="0 0 75.36 79.26"><defs><style>.cls-1{fill:#012635;}</style></defs><title>icon-SEO</title><g id="Layer_2" data-name="Layer 2"><g id="navy_shapes" data-name="navy shapes"><path class="cls-1" d="M74.13,69.18l-.07-.09L58.66,53.67a6.37,6.37,0,0,0-5.92-.91l-5-5-.17-.16a.6.6,0,0,0-.28-.13,26.4,26.4,0,0,0-2-34.9l5-4.69a4.14,4.14,0,0,0,1.91.49,4.18,4.18,0,1,0-4.17-4.18A4.11,4.11,0,0,0,49.27,7l-4.92,4.57a26.47,26.47,0,1,0-.81,39.71.69.69,0,0,0,.18.42l5.05,5,.06,0a6.62,6.62,0,0,0,.69,5.47l.08.09C49.72,62.5,61.92,75,64,77.07a7,7,0,0,0,4.87,2.19,6.71,6.71,0,0,0,4.77-2.19C76.46,74.27,75.19,70.68,74.13,69.18ZM52.28,1.35a2.83,2.83,0,1,1-2.82,2.82A2.83,2.83,0,0,1,52.28,1.35ZM1.35,31.11A25.12,25.12,0,1,1,26.47,56.23,25.15,25.15,0,0,1,1.35,31.11ZM44.68,50.78a.78.78,0,0,0-.34-.17,25.22,25.22,0,0,0,2.16-2.23.69.69,0,0,0,.18.24l4.81,4.81a6.82,6.82,0,0,0-1,.83,7.27,7.27,0,0,0-1,1.29Zm28,25.33a5.34,5.34,0,0,1-3.81,1.8A5.59,5.59,0,0,1,65,76.11c-2-2-13.56-13.79-14.38-14.63a5.06,5.06,0,0,1,7.16-6.8L73.06,70C73.34,70.42,75.28,73.54,72.71,76.11Z"/><path class="cls-1" d="M26.47,12.5a18.61,18.61,0,1,0,18.6,18.61A18.62,18.62,0,0,0,26.47,12.5Zm0,1.35a17.21,17.21,0,0,1,11.1,4.07l-1.41,1.31a4.13,4.13,0,0,0-2.36-.74,4.16,4.16,0,0,0-2,7.81L27.63,36a4.09,4.09,0,0,0-3.73.24l-4.44-4.44A4.09,4.09,0,0,0,20,29.71a4.16,4.16,0,0,0-8.29-.54H9.33A17.28,17.28,0,0,1,26.47,13.85ZM31,22.66a2.83,2.83,0,1,1,2.83,2.83A2.83,2.83,0,0,1,31,22.66Zm-6.74,15,.07-.05v0A2.8,2.8,0,0,1,26,37a2.83,2.83,0,1,1-2.82,2.83A2.78,2.78,0,0,1,24.23,37.63Zm-8.36-5.09a2.83,2.83,0,1,1,2.82-2.83A2.83,2.83,0,0,1,15.87,32.54Zm10.6,15.82A17.27,17.27,0,0,1,9.22,31.11c0-.2,0-.39,0-.59h2.52a4.18,4.18,0,0,0,4.1,3.36,4.13,4.13,0,0,0,2.73-1l4.25,4.25a4.18,4.18,0,1,0,5.92-.35l4.28-10a3.67,3.67,0,0,0,.75.08A4.18,4.18,0,0,0,38,22.66a4.11,4.11,0,0,0-.85-2.49l1.45-1.34a17.24,17.24,0,0,1-12.1,29.53Z"/></g></g></svg>