<svg xmlns="http://www.w3.org/2000/svg" viewBox="0 0 89.35 91.35"><defs><style>.cls-1{fill:none;}.cls-2{fill:#012635;}</style></defs><title>icon-php</title><g id="Layer_2" data-name="Layer 2"><g id="navy_shapes" data-name="navy shapes"><path class="cls-1" d="M19.05,51.09a.68.68,0,0,1,.67-.55H25.1c2.78,0,7.65-1.48,8.25-7a5.33,5.33,0,0,0-1.14-4.31,6.56,6.56,0,0,0-4.6-1.88c-1.49,0-7.73-.05-9.66-.07l-3.37,19h3.51Zm1.91-11a.68.68,0,0,1,.67-.56l1.54,0c2.55-.06,4.95-.11,6.11,1.22a3.08,3.08,0,0,1,.59,2.62c-.75,4.89-4.26,4.89-5.41,4.89-1.49,0-4.12-.07-4.12-.07a.72.72,0,0,1-.51-.25.7.7,0,0,1-.14-.54Z"/><path class="cls-1" d="M28.54,43.18a1.81,1.81,0,0,0-.27-1.52c-.75-.85-2.94-.8-5.08-.76h-1l-1.05,6c.89,0,2.34,0,3.31,0C26.19,46.93,28,46.49,28.54,43.18Z"/><path class="cls-1" d="M69.4,43.18a1.78,1.78,0,0,0-.27-1.52c-.74-.85-2.94-.8-5.07-.76h-1l-1,6c.89,0,2.34,0,3.3,0C67.05,46.93,68.89,46.49,69.4,43.18Z"/><path class="cls-1" d="M41.65,40.1a.67.67,0,0,1,.66-.53H47a2.78,2.78,0,0,1,2.25.77c.66.82.54,2.12.11,4.08-.51,2.33-1.05,4.91-1.32,6.19H51.4L53,43.77c.57-2.47.42-4.35-.44-5.43a3.32,3.32,0,0,0-2.66-1.1H43.16a.69.69,0,0,1-.53-.25.72.72,0,0,1-.13-.57l1.39-6.7c-1.47,0-2.93,0-3.64,0L36.12,50.61h3.24Z"/><path class="cls-1" d="M59.92,51.09a.67.67,0,0,1,.66-.55H66c2.79,0,7.65-1.48,8.25-7a5.36,5.36,0,0,0-1.13-4.31,6.58,6.58,0,0,0-4.61-1.88c-1.49,0-7.73-.05-9.66-.07l-3.37,19H59Zm1.91-11a.67.67,0,0,1,.66-.56l1.54,0c2.55-.06,5-.11,6.12,1.22a3.08,3.08,0,0,1,.58,2.62c-.75,4.89-4.25,4.89-5.41,4.89-1.49,0-4.12-.07-4.12-.07a.68.68,0,0,1-.5-.25.67.67,0,0,1-.15-.54Z"/><path class="cls-1" d="M44.67,68.88C68.56,68.88,88,58.47,88,45.67s-19.44-23.2-43.33-23.2S1.35,32.88,1.35,45.67,20.79,68.88,44.67,68.88Zm13.58-33h0s8.46.07,10.22.07a8,8,0,0,1,5.61,2.33,6.61,6.61,0,0,1,1.47,5.35c-.7,6.53-6.58,8.25-9.59,8.25H61.14l-1,5.11a.67.67,0,0,1-.66.55H54.63a.65.65,0,0,1-.51-.24.68.68,0,0,1-.15-.55l3.61-20.32A.68.68,0,0,1,58.25,35.89Zm-19.18-7.1c.22-.52.21-.52,5.66-.41a.67.67,0,0,1,.51.26.65.65,0,0,1,.14.55L44,35.89h5.89a4.55,4.55,0,0,1,3.71,1.61c1.14,1.44,1.38,3.65.7,6.58l-1.7,7.36a.67.67,0,0,1-.65.52H47.19a.68.68,0,0,1-.66-.81s.78-3.76,1.49-7c.15-.67.54-2.47.16-2.94-.15-.18-.54-.27-1.2-.27H42.85L40.56,51.43a.67.67,0,0,1-.66.53H35.3a.67.67,0,0,1-.52-.25.65.65,0,0,1-.14-.55L39,29A.61.61,0,0,1,39.07,28.79ZM16.72,36.44a.66.66,0,0,1,.66-.55h0s8.45.07,10.22.07a8,8,0,0,1,5.61,2.33,6.64,6.64,0,0,1,1.47,5.35c-.7,6.53-6.58,8.25-9.59,8.25H20.28l-1,5.11a.67.67,0,0,1-.66.55H13.77a.66.66,0,0,1-.52-.24.64.64,0,0,1-.14-.55Z"/><path class="cls-2" d="M13.77,57.55h4.89a.67.67,0,0,0,.66-.55l1-5.11H25.1c3,0,8.89-1.72,9.59-8.25a6.64,6.64,0,0,0-1.47-5.35A8,8,0,0,0,27.61,36c-1.77,0-10.22-.07-10.22-.07h0a.66.66,0,0,0-.66.55L13.11,56.76a.64.64,0,0,0,.14.55A.66.66,0,0,0,13.77,57.55ZM18,37.24c1.93,0,8.17.07,9.66.07a6.56,6.56,0,0,1,4.6,1.88,5.33,5.33,0,0,1,1.14,4.31c-.6,5.56-5.47,7-8.25,7H19.72a.68.68,0,0,0-.67.55l-1,5.11H14.58Z"/><path class="cls-2" d="M20.34,48.21s2.63.07,4.12.07c1.15,0,4.66,0,5.41-4.89a3.08,3.08,0,0,0-.59-2.62c-1.16-1.33-3.56-1.28-6.11-1.22l-1.54,0a.68.68,0,0,0-.67.56l-1.27,7.29a.7.7,0,0,0,.14.54A.72.72,0,0,0,20.34,48.21Zm1.86-7.3h1c2.14,0,4.33-.09,5.08.76a1.81,1.81,0,0,1,.27,1.52c-.51,3.31-2.35,3.75-4.08,3.75-1,0-2.42,0-3.31,0Z"/><path class="cls-2" d="M54.12,57.31a.65.65,0,0,0,.51.24h4.89a.67.67,0,0,0,.66-.55l1-5.11H66c3,0,8.89-1.72,9.59-8.25a6.61,6.61,0,0,0-1.47-5.35A8,8,0,0,0,68.47,36c-1.76,0-10.22-.07-10.22-.07h0a.68.68,0,0,0-.67.55L54,56.76A.68.68,0,0,0,54.12,57.31Zm4.69-20.07c1.93,0,8.17.07,9.66.07a6.58,6.58,0,0,1,4.61,1.88,5.36,5.36,0,0,1,1.13,4.31c-.6,5.56-5.46,7-8.25,7H60.58a.67.67,0,0,0-.66.55L59,56.2H55.44Z"/><path class="cls-2" d="M61.2,48.21s2.63.07,4.12.07c1.16,0,4.66,0,5.41-4.89a3.08,3.08,0,0,0-.58-2.62C69,39.44,66.58,39.49,64,39.55l-1.54,0a.67.67,0,0,0-.66.56l-1.28,7.29a.67.67,0,0,0,.15.54A.68.68,0,0,0,61.2,48.21Zm1.86-7.3h1c2.13,0,4.33-.09,5.07.76a1.78,1.78,0,0,1,.27,1.52c-.51,3.31-2.35,3.75-4.08,3.75-1,0-2.41,0-3.3,0Z"/><path class="cls-2" d="M34.78,51.71a.67.67,0,0,0,.52.25h4.6a.67.67,0,0,0,.66-.53l2.29-10.51H47c.66,0,1.05.09,1.2.27.38.47,0,2.27-.16,2.94-.71,3.26-1.49,7-1.49,7a.68.68,0,0,0,.66.81h4.75a.67.67,0,0,0,.65-.52l1.7-7.36c.68-2.93.44-5.14-.7-6.58a4.55,4.55,0,0,0-3.71-1.61H44l1.39-6.7a.65.65,0,0,0-.14-.55.67.67,0,0,0-.51-.26c-5.45-.11-5.44-.11-5.66.41A.61.61,0,0,0,39,29L34.64,51.16A.65.65,0,0,0,34.78,51.71Zm5.47-22c.71,0,2.17,0,3.64,0l-1.39,6.7a.72.72,0,0,0,.13.57.69.69,0,0,0,.53.25h6.72a3.32,3.32,0,0,1,2.66,1.1c.86,1.08,1,3,.44,5.43L51.4,50.61H48c.27-1.28.81-3.86,1.32-6.19.43-2,.55-3.26-.11-4.08A2.78,2.78,0,0,0,47,39.57H42.31a.67.67,0,0,0-.66.53L39.36,50.61H36.12Z"/><path class="cls-2" d="M44.67,70.23c24.64,0,44.68-11,44.68-24.56s-20-24.55-44.68-24.55S0,32.14,0,45.67,20,70.23,44.67,70.23Zm0-47.76C68.56,22.47,88,32.88,88,45.67S68.56,68.88,44.67,68.88,1.35,58.47,1.35,45.67,20.79,22.47,44.67,22.47Z"/><path class="cls-2" d="M87.65,69.79C78.14,82.44,62.08,90,44.67,90s-33.5-7.57-43-20.25a.67.67,0,0,0-.94-.14.68.68,0,0,0-.14,1c9.76,13,26.24,20.79,44.08,20.79S79,83.59,88.73,70.6a.69.69,0,0,0-.13-.95A.68.68,0,0,0,87.65,69.79Z"/><path class="cls-2" d="M1.13,21.87a.65.65,0,0,0,.54-.27c9.51-12.68,25.58-20.25,43-20.25s33.47,7.56,43,20.21a.68.68,0,0,0,.95.14.69.69,0,0,0,.13-.95C79,7.76,62.5,0,44.67,0S10.35,7.77.59,20.79a.67.67,0,0,0,.14.94A.61.61,0,0,0,1.13,21.87Z"/><path class="cls-2" d="M44.67,11.84a67.41,67.41,0,0,0-25.14,4.7A.68.68,0,1,0,20,17.79a66.13,66.13,0,0,1,24.63-4.6A65.88,65.88,0,0,1,69.79,18a.85.85,0,0,0,.26.05.68.68,0,0,0,.63-.42.68.68,0,0,0-.37-.88A67.22,67.22,0,0,0,44.67,11.84Z"/><path class="cls-2" d="M69.79,73.5a65.88,65.88,0,0,1-25.12,4.8A66.13,66.13,0,0,1,20,73.7.68.68,0,1,0,19.53,75a67.45,67.45,0,0,0,25.14,4.7,67.22,67.22,0,0,0,25.64-4.9.68.68,0,1,0-.52-1.25Z"/></g></g></svg>