<?xml version="1.0" encoding="utf-8"?>
<!-- Generator: Adobe Illustrator 22.1.0, SVG Export Plug-In . SVG Version: 6.00 Build 0)  -->
<svg version="1.1" id="Layer_1" xmlns="http://www.w3.org/2000/svg" xmlns:xlink="http://www.w3.org/1999/xlink" x="0px" y="0px"
	 viewBox="0 0 100 100" style="enable-background:new 0 0 100 100;" xml:space="preserve">
<title>idea</title>
<g id="Layer_2_1_">
	<g id="black_shapes">
		<path d="M61.2,79.5l-22,6.3c-0.4,0.1-0.6,0.5-0.5,0.9c0.1,0.3,0.4,0.6,0.7,0.6h0.2l22-6.3c0.4-0.1,0.6-0.5,0.5-0.9c0,0,0,0,0,0
			C62,79.7,61.6,79.4,61.2,79.5C61.2,79.5,61.2,79.5,61.2,79.5z"/>
		<path d="M61.2,84.2l-22,6.3c-0.4,0.1-0.6,0.5-0.5,0.9c0.1,0.3,0.4,0.5,0.7,0.5c0.1,0,0.1,0,0.2,0l22-6.3c0.4-0.1,0.6-0.5,0.5-0.9
			c0,0,0,0,0,0C62,84.4,61.6,84.1,61.2,84.2C61.2,84.2,61.2,84.2,61.2,84.2z"/>
		<path d="M54.6,94.6c-3.8,3.1-8.4,0.1-8.6,0c-0.3-0.2-0.8-0.1-1,0.2c-0.2,0.3-0.1,0.8,0.2,1l0,0c1.7,1.1,3.6,1.6,5.5,1.7
			c1.8,0,3.4-0.6,4.8-1.7c0.3-0.3,0.2-0.8-0.1-1C55.2,94.6,54.9,94.5,54.6,94.6L54.6,94.6z"/>
		<path d="M50,13.8c0.4,0,0.7-0.3,0.7-0.7c0,0,0,0,0,0V3.2c0-0.4-0.3-0.7-0.7-0.7c-0.4,0-0.7,0.3-0.7,0.7V13
			C49.3,13.4,49.6,13.8,50,13.8z"/>
		<path d="M27.8,19.4c0.1,0.1,0.3,0.2,0.5,0.2c0.4,0,0.7-0.3,0.7-0.8c0-0.2-0.1-0.4-0.2-0.5l-6.3-6.3c-0.3-0.3-0.8-0.3-1.1,0
			c-0.3,0.3-0.3,0.8,0,1.1L27.8,19.4z"/>
		<path d="M19.7,37.7c0.4,0,0.7-0.3,0.7-0.6c0.1-0.4-0.2-0.8-0.6-0.8c0,0,0,0,0,0l-11-1.6C8.4,34.6,8,34.9,8,35.3
			c-0.1,0.4,0.2,0.8,0.6,0.8c0,0,0,0,0,0L19.7,37.7L19.7,37.7z"/>
		<path d="M21.8,56.8l-9.4,4.7c-0.4,0.2-0.5,0.6-0.3,1c0,0,0,0,0,0c0.1,0.3,0.4,0.4,0.7,0.4c0.1,0,0.2,0,0.3-0.1l9.4-4.7
			c0.3-0.2,0.4-0.7,0.2-1C22.4,56.8,22.1,56.6,21.8,56.8L21.8,56.8z"/>
		<path d="M88.5,63.1L79,58.3c-0.4-0.2-0.8,0-1,0.4c-0.1,0.3,0,0.7,0.3,0.9l9.4,4.7c0.4,0.2,0.8,0,1-0.3
			C89,63.7,88.9,63.2,88.5,63.1z"/>
		<path d="M91.2,33.1l-9.4,1.6c-0.4,0.1-0.7,0.5-0.6,0.8c0.1,0.4,0.4,0.6,0.7,0.6H82l9.4-1.6c0.4-0.1,0.7-0.4,0.6-0.8c0,0,0,0,0,0
			C91.9,33.3,91.6,33,91.2,33.1z"/>
		<path d="M72.4,19.6c0.2,0,0.4-0.1,0.5-0.2l6.3-6.3c0.3-0.3,0.3-0.8,0-1.1s-0.8-0.3-1.1,0l-6.3,6.3c-0.3,0.3-0.3,0.7,0,1
			c0,0,0,0,0,0C72,19.5,72.2,19.6,72.4,19.6z"/>
		<path d="M50.2,18.4c-13.7,0-24.9,11.2-24.9,24.9c0.1,6,2.1,11.8,5.7,16.6c1,1.3,2,2.6,2.9,3.8c2.9,3.6,4.7,8,5.3,12.6
			c0,0.4,0.4,0.7,0.8,0.7s0.7-0.4,0.7-0.8c-0.6-4.9-2.5-9.5-5.6-13.4c-0.9-1.1-1.9-2.4-2.9-3.7c-3.4-4.5-5.3-10-5.4-15.7
			c0.3-12.9,11-23.2,23.9-23c12.6,0.3,22.7,10.3,23,22.9c-0.8,9.8-4.4,14.5-6.9,17.2c-3.2,3.4-5.6,10.4-6,15.1
			c-2.7,0.7-15.7,4.2-21,5.6c-0.4,0.1-0.6,0.5-0.5,0.9c0.1,0.3,0.4,0.6,0.7,0.6c0.1,0,0.1,0,0.2,0l18.2-4.8c3.9-1,4-1.1,3.9-1.7
			c0.2-4.4,2.5-11.3,5.6-14.6c2.7-2.9,6.4-7.8,7.3-18.1C75.2,29.6,64,18.4,50.2,18.4C50.2,18.4,50.2,18.4,50.2,18.4z"/>
	</g>
</g>
</svg>
