<?xml version="1.0" encoding="utf-8"?>
<!-- Generator: Adobe Illustrator 22.1.0, SVG Export Plug-In . SVG Version: 6.00 Build 0)  -->
<svg version="1.1" id="Layer_1" xmlns="http://www.w3.org/2000/svg" xmlns:xlink="http://www.w3.org/1999/xlink" x="0px" y="0px"
	 viewBox="0 0 100 100" style="enable-background:new 0 0 100 100;" xml:space="preserve">
<title>ideas</title>
<g id="Layer_2_1_">
	<g id="black_shapes">
		<path d="M32,57.6H13.7c-0.4,0-0.8,0.3-0.8,0.8c0,0.4,0.3,0.8,0.8,0.8H32c0.4,0,0.8-0.4,0.8-0.8l0,0C32.8,57.9,32.4,57.6,32,57.6
			C32,57.6,32,57.6,32,57.6z"/>
		<path d="M85.8,57.6H67.5c-0.4,0-0.8,0.3-0.8,0.8c0,0.4,0.4,0.8,0.8,0.8h18.3c0.4,0,0.8-0.4,0.8-0.8C86.6,57.9,86.3,57.6,85.8,57.6
			z"/>
		<path d="M48.7,23.3v18.3c0,0.4,0.4,0.8,0.8,0.8l0,0c0.4,0,0.8-0.3,0.8-0.8c0,0,0,0,0,0V23.3c0-0.4-0.3-0.8-0.8-0.8
			C49,22.5,48.7,22.9,48.7,23.3z"/>
		<path d="M75.5,32.2c-0.3-0.3-0.8-0.3-1.1,0c0,0,0,0,0,0L61.5,45.2c-0.3,0.3-0.4,0.8-0.1,1.1c0,0,0,0,0.1,0.1
			c0.3,0.3,0.8,0.3,1.1,0l12.9-13C75.9,33,75.9,32.6,75.5,32.2C75.6,32.2,75.6,32.2,75.5,32.2z"/>
		<path d="M37.6,46.3c0.3-0.3,0.4-0.8,0.1-1.1c0,0,0,0-0.1-0.1l-13-12.9c-0.3-0.3-0.8-0.3-1.2,0c-0.3,0.3-0.3,0.8,0,1.2l13,12.9
			C36.8,46.6,37.3,46.6,37.6,46.3C37.7,46.3,37.7,46.3,37.6,46.3L37.6,46.3z"/>
		<path d="M6.8,54.1c-2.4,0-4.3,1.9-4.3,4.3c0,2.4,1.9,4.3,4.3,4.3c2.4,0,4.3-1.9,4.3-4.3c0,0,0,0,0,0C11.1,56,9.2,54.1,6.8,54.1
			C6.8,54.1,6.8,54.1,6.8,54.1z M6.8,61.1c-1.5,0-2.7-1.2-2.7-2.7c0-1.5,1.2-2.7,2.7-2.7s2.7,1.2,2.7,2.7
			C9.5,59.9,8.3,61.1,6.8,61.1C6.8,61.1,6.8,61.1,6.8,61.1z"/>
		<path d="M93.2,54.1c-2.4,0-4.3,1.9-4.3,4.3c0,2.4,1.9,4.3,4.3,4.3c2.4,0,4.3-1.9,4.3-4.3c0,0,0,0,0,0C97.5,56,95.6,54.1,93.2,54.1
			C93.2,54.1,93.2,54.1,93.2,54.1z M93.2,61.1c-1.5,0-2.7-1.2-2.7-2.7c0-1.5,1.2-2.7,2.7-2.7c1.5,0,2.7,1.2,2.7,2.7
			C95.9,59.9,94.7,61.1,93.2,61.1L93.2,61.1z"/>
		<path d="M49.5,20.2c2.4,0,4.3-1.9,4.3-4.3s-1.9-4.3-4.3-4.3s-4.3,1.9-4.3,4.3S47.1,20.2,49.5,20.2L49.5,20.2z M49.5,13.2
			c1.5,0,2.7,1.2,2.7,2.7s-1.2,2.7-2.7,2.7c-1.5,0-2.7-1.2-2.7-2.7c0,0,0,0,0,0C46.7,14.4,48,13.2,49.5,13.2
			C49.5,13.2,49.5,13.2,49.5,13.2z"/>
		<path d="M18.8,32c2.4,0,4.3-1.9,4.3-4.3c0-2.4-1.9-4.3-4.3-4.3s-4.3,1.9-4.3,4.3c0,0,0,0,0,0C14.6,30.1,16.5,32,18.8,32z M18.8,25
			c1.5,0,2.7,1.2,2.7,2.7c0,1.5-1.2,2.7-2.7,2.7c-1.5,0-2.7-1.2-2.7-2.7c0,0,0,0,0,0C16.1,26.3,17.3,25,18.8,25z"/>
		<path d="M79.6,32c2.4,0,4.3-1.9,4.3-4.3s-1.9-4.3-4.3-4.3c-2.4,0-4.3,1.9-4.3,4.3c0,0,0,0,0,0C75.3,30.1,77.2,32,79.6,32z
			 M79.6,25c1.5,0,2.7,1.2,2.7,2.7c0,1.5-1.2,2.7-2.7,2.7c-1.5,0-2.7-1.2-2.7-2.7C76.9,26.3,78.1,25,79.6,25L79.6,25z"/>
		<path d="M49.5,46.4c-6.9,0-12.5,5.6-12.6,12.6c0.1,3,1.1,5.9,2.9,8.3c0.5,0.7,1,1.3,1.4,1.9c1.3,1.7,2.2,3.7,2.5,5.8
			c0.1,0.4,0.5,0.7,0.9,0.6c0.4-0.1,0.7-0.4,0.7-0.8c-0.3-2.5-1.3-4.8-2.9-6.8c-0.4-0.5-0.9-1.2-1.4-1.8c-1.6-2.1-2.5-4.7-2.6-7.4
			c0-6.1,4.9-11,10.9-11c6.1,0,11,4.9,11,10.9c-0.4,4.7-2,6.8-3.2,8.2c-1.7,2.1-2.7,4.6-3,7.3l-10,2.7c-0.4,0.1-0.7,0.5-0.6,0.9
			c0,0,0,0,0,0c0.1,0.3,0.4,0.6,0.8,0.6h0.2l5.2-1.4c5.7-1.5,5.9-1.6,5.8-2.2c0.2-2.5,1.1-4.8,2.6-6.8c1.3-1.5,3.2-4,3.7-9.2
			C62,52,56.4,46.4,49.5,46.4z"/>
		<path d="M54.7,78.4l-0.2-0.8L44,80.4c-0.4,0.1-0.7,0.5-0.6,1c0,0,0,0,0,0c0.1,0.4,0.4,0.6,0.8,0.6h0.2l5.2-1.4
			c5.9-1.6,5.9-1.6,5.8-2.3L54.7,78.4z"/>
		<path d="M51.3,86.2c-1.6,1.3-3.6,0-3.7,0c-0.4-0.2-0.8-0.2-1.1,0.2c-0.2,0.4-0.1,0.9,0.2,1.1c0.9,0.6,1.9,0.9,2.9,0.9
			c1,0,1.9-0.3,2.6-0.9c0.3-0.3,0.4-0.8,0.1-1.1c0,0,0,0,0,0C52.1,86,51.6,85.9,51.3,86.2z"/>
		<path d="M54.7,81.9l-0.2-0.8L44,83.9c-0.4,0.1-0.7,0.5-0.6,1c0,0,0,0,0,0c0.1,0.4,0.4,0.6,0.8,0.6h0.2l5.2-1.4
			c5.9-1.6,5.9-1.6,5.8-2.3L54.7,81.9z"/>
	</g>
</g>
</svg>
