<?xml version="1.0" encoding="utf-8"?>
<!-- Generator: Adobe Illustrator 22.1.0, SVG Export Plug-In . SVG Version: 6.00 Build 0)  -->
<svg version="1.1" id="Layer_1" xmlns="http://www.w3.org/2000/svg" xmlns:xlink="http://www.w3.org/1999/xlink" x="0px" y="0px"
	 viewBox="0 0 100 100" style="enable-background:new 0 0 100 100;" xml:space="preserve">
<title>modules</title>
<g id="Layer_2_1_">
	<g id="black_shapes">
		<path d="M97.4,55.9L97.4,55.9c-0.1-0.1-0.2-0.2-0.3-0.3l0,0l-23-12.9V16.6c0-0.1,0-0.3-0.1-0.4l0,0C74,16.1,74,16,73.9,16l0,0
			L50.6,2.9c-0.2-0.1-0.5-0.1-0.8,0l-23.6,13l0,0c-0.1,0.1-0.1,0.1-0.2,0.2c0,0,0,0-0.1,0.1c-0.1,0.1-0.1,0.2-0.1,0.4v26.5l-23,12.5
			l0,0c-0.1,0.1-0.1,0.1-0.2,0.2l-0.1,0.1c-0.1,0.1-0.1,0.2-0.1,0.4v26.6c0,0.3,0.1,0.5,0.4,0.7l23.4,13.6l0,0h0.2
			c0.1,0,0.1,0,0.2,0c0.1,0,0.3,0,0.4-0.1l0,0L50,83.7l23,13.4l0,0h0.2c0.1,0,0.1,0,0.2,0c0.1,0,0.3,0,0.4-0.1l0,0l23.4-13.5
			c0.2-0.1,0.4-0.4,0.4-0.7V56.3C97.5,56.2,97.5,56.1,97.4,55.9z M49.2,55L27.5,42.6l0,0V17.8L49.2,29V55z M73.3,67.4L52,56.4l6.8-4
			l14.6-8.2l21.6,12L73.3,67.4z M72.6,42.6l-14.5,8.4l-7.3,4.1v-26l21.8-11.3V42.6z M50.2,4.5l21.5,12.1L50,27.6L28.3,16.5L50.2,4.5
			z M27,44.2l21,12.2L26.8,67.3L5,56.3L27,44.2z M4.1,57.6l21.8,11.2v26.3L4.1,82.4V57.6z M27.4,69.1L27.4,69.1l21.8-11.2v24.5
			L27.4,95.1V69.1z M50.8,57.6l21.8,11.2v26.3L50.8,82.4V57.6z M74.2,95.1V68.9l21.8-11.2v24.7L74.2,95.1z"/>
		<path d="M21.9,71.6L8.5,79.1c-0.4,0.2-0.5,0.7-0.3,1.1c0.1,0.2,0.4,0.4,0.7,0.4c0.1,0,0.3,0,0.4-0.1L22.7,73
			c0.4-0.2,0.6-0.6,0.4-1c-0.2-0.4-0.6-0.6-1-0.4C22,71.6,22,71.6,21.9,71.6z"/>
		<path d="M32,41c0.1,0,0.3,0,0.4-0.1l13.4-7.5c0.4-0.2,0.5-0.7,0.3-1.1c0,0,0,0,0,0c-0.2-0.4-0.7-0.5-1.1-0.3l-13.4,7.5
			c-0.4,0.2-0.5,0.7-0.3,1.1C31.5,40.8,31.8,41,32,41L32,41z"/>
		<path d="M68.3,71.6l-13.4,7.4c-0.4,0.2-0.5,0.7-0.3,1.1c0.1,0.3,0.4,0.4,0.7,0.4c0.1,0,0.3,0,0.4-0.1L69.1,73
			c0.4-0.2,0.5-0.7,0.3-1.1C69.2,71.5,68.7,71.4,68.3,71.6L68.3,71.6z"/>
		<path d="M54.8,33.4l13.4,7.5c0.1,0.1,0.2,0.1,0.4,0.1c0.3,0,0.6-0.2,0.7-0.4c0.2-0.4,0.1-0.9-0.3-1.1c0,0,0,0,0,0l-13.4-7.5
			c-0.4-0.2-0.9-0.1-1.1,0.3C54.3,32.8,54.4,33.2,54.8,33.4z"/>
		<path d="M45.8,79.1l-13.4-7.4c-0.4-0.2-0.8-0.2-1.1,0.2c-0.2,0.4-0.2,0.8,0.2,1.1c0.1,0,0.1,0.1,0.2,0.1l13.4,7.5
			c0.1,0.1,0.3,0.1,0.4,0.1c0.4,0,0.8-0.4,0.8-0.8C46.3,79.5,46.1,79.2,45.8,79.1L45.8,79.1z"/>
		<path d="M92.2,79.1l-13.4-7.4c-0.4-0.2-0.9-0.1-1.1,0.3c-0.2,0.4-0.1,0.9,0.3,1.1c0,0,0,0,0,0l13.4,7.5c0.1,0.1,0.3,0.1,0.4,0.1
			c0.3,0,0.6-0.2,0.7-0.4C92.7,79.8,92.6,79.3,92.2,79.1z"/>
	</g>
</g>
</svg>
