<?xml version="1.0" encoding="utf-8"?>
<!-- Generator: Adobe Illustrator 22.1.0, SVG Export Plug-In . SVG Version: 6.00 Build 0)  -->
<svg version="1.1" id="Layer_1" xmlns="http://www.w3.org/2000/svg" xmlns:xlink="http://www.w3.org/1999/xlink" x="0px" y="0px"
	 viewBox="0 0 100 100" style="enable-background:new 0 0 100 100;" xml:space="preserve">
<title>robot</title>
<g id="Layer_2_1_">
	<g id="black_shapes">
		<path d="M39.3,20.6c0,2.5,2,4.5,4.5,4.5c2.5,0,4.5-2,4.5-4.5s-2-4.5-4.5-4.5C41.3,16.1,39.3,18.1,39.3,20.6z M43.8,17.5
			c1.7,0,3,1.3,3.1,3c0,1.7-1.3,3-3,3.1s-3-1.3-3.1-3c0,0,0,0,0,0C40.9,18.9,42.2,17.6,43.8,17.5L43.8,17.5z"/>
		<path d="M60.7,20.6c0-2.5-2-4.5-4.5-4.5c-2.5,0-4.5,2-4.5,4.5s2,4.5,4.5,4.5C58.7,25.1,60.7,23.1,60.7,20.6z M53.1,20.6
			c0-1.7,1.3-3,3-3c1.7,0,3,1.3,3,3c0,1.7-1.3,3-3,3c0,0,0,0,0,0C54.4,23.6,53.1,22.2,53.1,20.6L53.1,20.6z"/>
		<path d="M46.6,28.3h6.8c0.4-0.1,0.7-0.4,0.7-0.9c0-0.4-0.3-0.6-0.7-0.7h-6.8c-0.4,0.1-0.7,0.4-0.7,0.9C46,28,46.2,28.2,46.6,28.3z
			"/>
		<path d="M53.4,55h-6.8c-0.4,0.1-0.7,0.4-0.7,0.9c0,0.4,0.3,0.6,0.7,0.7h6.8c0.4-0.1,0.7-0.4,0.7-0.9C54,55.3,53.8,55.1,53.4,55z"
			/>
		<path d="M51.3,59.2h-2.7c-0.4-0.1-0.8,0.2-0.9,0.7c-0.1,0.4,0.2,0.8,0.7,0.9c0.1,0,0.1,0,0.2,0h2.7c0.4,0.1,0.8-0.2,0.9-0.7
			c0.1-0.4-0.2-0.8-0.7-0.9C51.5,59.2,51.4,59.2,51.3,59.2z"/>
		<path d="M90.2,39.3c-0.1-0.4-0.4-0.7-0.9-0.6c0,0,0,0,0,0c-0.4,0.1-0.7,0.5-0.6,0.9c0.3,1.8,0.3,4.6-0.4,5.4
			c-0.8,0.8-2.5,0.9-3.9,0.8l-0.2-4c0-0.4-0.4-0.7-0.8-0.7c-0.4,0-0.7,0.4-0.7,0.8c0,0,0,0,0,0l0.3,4.3l-6.4,5.3L64.7,42
			c1.2-1.4,1-3.6-0.4-4.8c-1.4-1.2-3.6-1-4.8,0.4c-0.3,0.3-0.5,0.7-0.6,1h-0.1h-4.5v-4.9h4.4c0.4-0.1,0.7-0.4,0.7-0.9
			c0-0.4-0.3-0.6-0.7-0.7l0,0c-3.9,0-8.8,0.1-8.8,0.1c-5.4,0-13.3,0-15.7,0v-10C34.3,12.2,41.3,4,50,4s15.7,8.2,15.7,18.3v9.8h-3
			h-0.2c-0.4,0-0.7,0.3-0.7,0.7c0,0,0,0,0,0c0,0.4,0.4,0.8,0.8,0.8l0,0c4.5-0.1,4.5-0.1,4.5-0.8v-8.7c0.8-0.2,1.6-0.7,1.9-1.5h3
			c0.6,1.3,2.1,1.9,3.4,1.4c1.3-0.6,1.9-2.1,1.4-3.4c-0.6-1.3-2.1-1.9-3.4-1.4c-0.6,0.3-1.1,0.7-1.4,1.4h-3
			c-0.4-0.9-1.2-1.5-2.2-1.5C65.6,9.7,58.5,2.5,50,2.5S34.4,9.7,33.1,19c-1,0.1-1.8,0.7-2.2,1.5h-3c-0.6-1.3-2.1-1.9-3.4-1.4
			c-1.3,0.6-1.9,2.1-1.4,3.4c0.6,1.3,2.1,1.9,3.4,1.4c0.6-0.3,1.1-0.7,1.4-1.4h3c0.3,0.8,1.1,1.4,1.9,1.5v8.9c0,0.2,0.1,0.4,0.2,0.5
			c0.2,0.2,0.2,0.3,5.9,0.3h6.8v4.9h-5c-1-1.6-3.1-2.1-4.7-1.1c-0.9,0.6-1.5,1.6-1.6,2.7c0,0.7,0.2,1.3,0.6,1.9l-11.5,9.1l-6.4-5.3
			l0.3-4.3c0-0.4-0.3-0.8-0.7-0.8c0,0,0,0,0,0c-0.4,0-0.8,0.3-0.8,0.7l-0.2,4c-1.3,0-3.2-0.1-3.9-0.8c-0.7-0.7-0.7-3.6-0.4-5.4
			c0.1-0.4-0.2-0.8-0.6-0.9c0,0,0,0,0,0c-0.4-0.1-0.8,0.2-0.9,0.6c-0.1,0.8-0.7,5.1,0.9,6.7c1.1,1.1,3.2,1.3,4.5,1.3h0.7l3.9,8.6
			c0,0,0.1,0.1,0.1,0.1c0.5,1.8,2.3,2.8,4.1,2.4c0.9-0.2,1.6-0.8,2-1.6l8.7-6.3v12.9c0,1.3,0.9,2.5,2.2,2.8
			c-0.2,0.4-0.4,0.9-0.4,1.4v7.3l0,0c-2.5,0-4.6,2-4.6,4.6s2,4.6,4.6,4.6l0,0v3.6c0,0.4,0.3,0.8,0.8,0.8c0.4,0,0.8-0.3,0.8-0.8v-3.9
			c0.8-0.3,1.6-0.8,2.1-1.6h3c0.7,0,1.3,0.6,1.3,1.3l0,0v1c-0.1,0.4,0.2,0.8,0.7,0.9c0.4,0.1,0.8-0.2,0.9-0.7c0-0.1,0-0.1,0-0.2v-1
			c0-1.6-1.3-2.8-2.8-2.8h-2.3c0.1-0.4,0.2-0.7,0.2-1.1c0-0.2,0-0.4-0.1-0.7H43c1.6,0,2.9-1.2,2.9-2.8c0,0,0,0,0-0.1v-8.4
			c0-0.5-0.1-0.9-0.3-1.3h8.8c-0.2,0.4-0.3,0.9-0.3,1.3v8.4c0,1.6,1.3,2.8,2.9,2.8c0,0,0,0,0,0h2.1c0,0.2-0.1,0.4-0.1,0.7
			c0,0.4,0.1,0.8,0.2,1.1H57c-1.6,0-2.8,1.3-2.8,2.8v1c-0.1,0.4,0.2,0.8,0.7,0.9c0.4,0.1,0.8-0.2,0.9-0.7c0-0.1,0-0.1,0-0.2v-1
			c0-0.7,0.6-1.3,1.3-1.3h3c0.5,0.7,1.3,1.3,2.1,1.6v3.9c0.1,0.4,0.4,0.7,0.9,0.7c0.4,0,0.6-0.3,0.7-0.7v-3.6l0,0
			c2.5,0,4.6-2,4.6-4.6c0-2.5-2-4.6-4.6-4.6l0,0v-7.4c0-0.5-0.1-1-0.4-1.4c1.3-0.3,2.2-1.4,2.2-2.8V50.5l8.7,6.3
			c0.6,1,1.7,1.7,2.9,1.7c1.5,0,2.8-1,3.2-2.5c0,0,0.1-0.1,0.1-0.1l3.9-8.6h0.7c1.3,0,3.4-0.2,4.5-1.3C91,44.4,90.4,40.2,90.2,39.3z
			 M78.2,52l3.4-2.8l-1.9,4.2C79.4,52.7,78.9,52.3,78.2,52z M61.8,38.6c1,0,1.8,0.8,1.8,1.8c0,1-0.8,1.8-1.8,1.8
			c-1,0-1.8-0.8-1.8-1.8c0,0,0,0,0,0C60,39.4,60.8,38.6,61.8,38.6z M47.2,38.7v-4.9h5.6v4.9L47.2,38.7L47.2,38.7z M37.8,38.6
			c1,0,1.8,0.8,1.8,1.8c0,1-0.8,1.8-1.8,1.8c-1,0-1.8-0.8-1.8-1.8c0,0,0,0,0,0C36,39.4,36.8,38.6,37.8,38.6z M20.2,53.3l-1.9-4.2
			l3.4,2.8C21.1,52.3,20.6,52.7,20.2,53.3z M23,57c-1,0-1.8-0.8-1.8-1.8c0-1,0.8-1.8,1.8-1.8c1,0,1.8,0.8,1.8,1.8l0,0
			C24.8,56.1,24,56.9,23,57L23,57z M36.4,82.4c-1.7,0-3-1.4-3-3c0-1.7,1.4-3,3-3c1.7,0,3,1.4,3,3c0,0,0,0,0,0
			C39.5,81.1,38.1,82.4,36.4,82.4C36.5,82.4,36.4,82.4,36.4,82.4z M66.6,79.4c0,1.7-1.4,3-3,3c-1.7,0-3-1.4-3-3c0-1.7,1.4-3,3-3
			c0,0,0,0,0,0C65.2,76.4,66.6,77.7,66.6,79.4z M63.8,63.3c0,0.7-0.6,1.3-1.3,1.3h-1c-0.4,0-0.8,0.3-0.8,0.8l0,0v0.2
			c0,0.3,0.2,0.6,0.5,0.7c0.5,0.2,0.8,0.7,0.8,1.2v7.6c-1,0.4-1.9,1.1-2.4,2.1H57c-0.7,0-1.3-0.5-1.3-1.3v-8.4
			c0-0.6,0.3-1.3,1.1-1.3c0.4,0,0.8-0.3,0.8-0.8c0-0.4-0.3-0.8-0.8-0.8H43.3c-0.4,0-0.8,0.3-0.8,0.8l0,0c0,0.4,0.3,0.8,0.8,0.8
			c0,0,0,0,0,0c0.8,0,1.1,0.7,1.1,1.3v8.4c0,0.7-0.6,1.3-1.3,1.3c0,0,0,0,0,0h-2.6c-0.5-1-1.4-1.7-2.4-2.1v-7.7c0-0.5,0.3-1,0.8-1.2
			c0.3-0.1,0.5-0.4,0.5-0.7v-0.2c0-0.4-0.3-0.8-0.8-0.8h-1c-0.7,0-1.3-0.6-1.3-1.3V49c0-0.4-0.3-0.7-0.6-0.7h-0.1h-0.1
			c-0.2,0-0.3,0-0.4,0.1l-8.6,6.2c-0.2-0.9-0.7-1.8-1.5-2.3l11.3-9c0.5,0.3,1,0.4,1.6,0.4c1.9,0,3.4-1.5,3.4-3.4c0,0,0-0.1,0-0.1
			h17.4c0,0,0,0.1,0,0.1c0,1.9,1.5,3.4,3.4,3.4c0.7,0,1.3-0.2,1.9-0.6l11.5,9.1c-0.8,0.5-1.4,1.3-1.5,2.3l-8.6-6.2
			c-0.1-0.1-0.3-0.1-0.4-0.1h-0.2c-0.4,0.1-0.6,0.4-0.6,0.7L63.8,63.3z M77,56.9c-1,0-1.8-0.8-1.8-1.8s0.8-1.8,1.8-1.8
			c1,0,1.8,0.8,1.8,1.8c0,0,0,0,0,0C78.8,56.1,78,56.9,77,56.9C77,56.9,77,56.9,77,56.9z"/>
		<path d="M45.1,87.6c-0.4,0-0.8,0.3-0.8,0.7c0,0,0,0,0,0v6.3c0,0.7-0.6,1.3-1.3,1.3c0,0,0,0,0,0h-8.2c-0.7,0-1.3-0.6-1.3-1.3l0,0
			v-1.3c0-0.7,0.6-1.3,1.3-1.3c0,0,0,0,0,0h1.2c0.4,0,0.8-0.3,0.8-0.8c0-0.4-0.3-0.8-0.8-0.8h-1.2c-1.6,0-2.8,1.3-2.8,2.8l0,0v1.3
			c0,1.6,1.3,2.8,2.8,2.8l0,0h8.2c1.6,0,2.8-1.3,2.8-2.8l0,0v-6.3C45.9,87.9,45.5,87.6,45.1,87.6z"/>
		<path d="M65.1,90.5h-1.2c-0.4,0-0.8,0.3-0.8,0.7c0,0,0,0,0,0c0,0.4,0.3,0.8,0.8,0.8l0,0h1.2c0.7,0,1.3,0.6,1.3,1.3l0,0v1.3
			c0,0.7-0.6,1.3-1.3,1.3l0,0H57c-0.7,0-1.3-0.6-1.3-1.3l0,0v-6.3c0-0.4-0.3-0.8-0.8-0.8l0,0c-0.4,0-0.8,0.3-0.8,0.8c0,0,0,0,0,0
			v6.3c0,1.6,1.3,2.8,2.8,2.8c0,0,0,0,0,0h8.2c1.6,0,2.8-1.3,2.8-2.8v-1.3C68,91.8,66.7,90.5,65.1,90.5
			C65.1,90.5,65.1,90.5,65.1,90.5z"/>
		<path d="M43.6,13.2c0,0.4,0.3,0.8,0.8,0.8h11.2c0.4,0,0.8-0.3,0.8-0.8c0-0.4-0.3-0.8-0.8-0.8H44.4C44,12.4,43.6,12.8,43.6,13.2
			L43.6,13.2z"/>
		<path d="M55.6,51.1H44.4c-0.4,0-0.8,0.3-0.8,0.8c0,0.4,0.3,0.8,0.8,0.8l0,0h11.2c0.4,0,0.8-0.3,0.8-0.8
			C56.4,51.4,56,51.1,55.6,51.1z"/>
		<path d="M48.3,8.5c0-0.9-0.7-1.6-1.6-1.6c-0.9,0-1.6,0.7-1.6,1.6c0,0.9,0.7,1.6,1.6,1.6c0,0,0,0,0,0C47.7,10.1,48.4,9.4,48.3,8.5z
			"/>
		<path d="M54.8,8.5c0-0.9-0.7-1.6-1.6-1.6s-1.6,0.7-1.6,1.6s0.7,1.6,1.6,1.6c0,0,0,0,0,0C54.1,10.1,54.8,9.4,54.8,8.5
			C54.8,8.5,54.8,8.5,54.8,8.5z"/>
		<path d="M45.1,46.2c0-0.9-0.7-1.6-1.6-1.6c-0.9,0-1.6,0.7-1.6,1.6c0,0.9,0.7,1.6,1.6,1.6c0,0,0,0,0,0
			C44.4,47.8,45.1,47.1,45.1,46.2C45.1,46.2,45.1,46.2,45.1,46.2z"/>
		<path d="M50,47.8c0.9,0,1.6-0.7,1.6-1.6c0-0.9-0.7-1.6-1.6-1.6c-0.9,0-1.6,0.7-1.6,1.6l0,0C48.4,47,49.1,47.8,50,47.8z"/>
		<path d="M56.4,44.6c-0.9,0-1.6,0.7-1.6,1.6c0,0.9,0.7,1.6,1.6,1.6c0.9,0,1.6-0.7,1.6-1.6c0,0,0,0,0,0C58,45.3,57.3,44.6,56.4,44.6
			C56.4,44.6,56.4,44.6,56.4,44.6z"/>
	</g>
</g>
</svg>
