<svg xmlns="http://www.w3.org/2000/svg" viewBox="0 0 75.35 75.35"><title>tech</title><g id="Layer_2" data-name="Layer 2"><g id="black_shapes" data-name="black shapes"><path d="M40.35,61A3.68,3.68,0,1,0,44,57.37,3.68,3.68,0,0,0,40.35,61Zm6,0A2.33,2.33,0,1,1,44,58.72,2.33,2.33,0,0,1,46.35,61Z"/><path d="M40.35,36.2A3.68,3.68,0,1,0,44,32.52,3.68,3.68,0,0,0,40.35,36.2ZM44,33.87A2.33,2.33,0,1,1,41.7,36.2,2.33,2.33,0,0,1,44,33.87Z"/><path d="M16,15.54a3.68,3.68,0,1,0,5.2,0A3.69,3.69,0,0,0,16,15.54Zm4.25,4.24a2.33,2.33,0,1,1-1.65-4,2.33,2.33,0,0,1,1.65,4Z"/><path d="M46.6,14.54H74.67a.68.68,0,0,0,.68-.68V.67A.67.67,0,0,0,74.67,0H39.6a.67.67,0,0,0-.48.2l-14,14.16a.67.67,0,0,0-.13.76,7.08,7.08,0,1,1-3.43-3.4.69.69,0,0,0,.76-.14L32.71,1.15l0,0a.71.71,0,0,0,.11-.17.69.69,0,0,0,0-.24v0h0a.74.74,0,0,0,0-.25.6.6,0,0,0-.14-.21h0s0,0,0,0a.71.71,0,0,0-.18-.12l-.2,0H.67A.67.67,0,0,0,0,.67v74a.67.67,0,0,0,.67.68h74a.67.67,0,0,0,.68-.68V63.62a.67.67,0,0,0-.68-.67H51.32a.7.7,0,0,0-.65.5,7.07,7.07,0,1,1,0-4.76.68.68,0,0,0,.64.45H74.67a.68.68,0,0,0,.68-.68V19.15a.69.69,0,0,0-.67-.68l-28.07-.1h0a.75.75,0,0,0-.26.05l-.09.06a.54.54,0,0,0-.12.09s0,0-.05.06-.07.09-.1.15,0,0,0,.07a.58.58,0,0,0,0,.19h0v9.84a.67.67,0,0,0,.45.63,7.09,7.09,0,1,1-4.71,0,.67.67,0,0,0,.45-.63V14.54H46.6Zm-5.16-1.35a.67.67,0,0,0-.67.67V28.42a8.4,8.4,0,1,0,6.51,0V19.72l26.72.1v38H51.79a8.42,8.42,0,1,0,0,6.51H74V74H1.35V1.35H30.6l-8.91,9A8.43,8.43,0,1,0,26.4,15L39.89,1.35H74V13.19H41.44Z"/></g></g></svg>