<?xml version="1.0" encoding="utf-8"?>
<!-- Generator: Adobe Illustrator 22.1.0, SVG Export Plug-In . SVG Version: 6.00 Build 0)  -->
<svg version="1.1" id="Layer_1" xmlns="http://www.w3.org/2000/svg" xmlns:xlink="http://www.w3.org/1999/xlink" x="0px" y="0px"
	 viewBox="0 0 100 100" style="enable-background:new 0 0 100 100;" xml:space="preserve">
<title>authenticated-user</title>
<g id="Layer_2_1_">
	<g id="black_shapes">
		<path d="M79.1,62.3c-1.7-0.2-3.2,1-3.5,2.7c-0.2,1.7,1,3.2,2.7,3.5l0,0v3.1c-0.1,0.4,0.3,0.8,0.7,0.9c0.4,0.1,0.8-0.3,0.9-0.7
			c0-0.1,0-0.1,0-0.2v-3.1c1.6-0.4,2.6-2.1,2.2-3.8C81.7,63.3,80.5,62.4,79.1,62.3L79.1,62.3z M79.1,67c-0.8,0-1.5-0.7-1.6-1.5
			c0-0.8,0.7-1.5,1.5-1.6c0.8,0,1.5,0.7,1.6,1.5c0,0,0,0,0,0C80.6,66.3,79.9,67,79.1,67z"/>
		<path d="M88.9,57.5v-2.3c0.2-5.5-4.1-10.1-9.6-10.3c-5.5-0.2-10.1,4.1-10.3,9.6c0,0.2,0,0.5,0,0.7v2.3c-1.7,0-3,1.4-3.1,3.1v13.7
			c0,1.7,1.4,3.1,3.1,3.1h19.8c1.7,0,3.1-1.4,3.1-3.1V60.6C92,58.9,90.7,57.5,88.9,57.5z M79,46.8c4.6,0,8.4,3.8,8.4,8.4v2.3H70.7
			v-2.3C70.7,50.6,74.4,46.8,79,46.8L79,46.8L79,46.8z M90.5,74.2c0,0.8-0.7,1.5-1.5,1.6c0,0,0,0,0,0H69.2c-0.8,0-1.5-0.7-1.5-1.5
			c0,0,0,0,0,0V60.6c0-0.8,0.7-1.5,1.5-1.5h19.8c0.8,0,1.5,0.7,1.5,1.5L90.5,74.2z"/>
		<path d="M44.8,53.2c11.8,0,21.3-11.4,21.3-25.4S56.5,2.5,44.8,2.5S23.5,13.9,23.5,27.9S33.1,53.2,44.8,53.2z M44.8,4.1
			c10.9,0,19.7,10.7,19.7,23.8s-8.8,23.8-19.7,23.8S25.1,41,25.1,27.9S33.9,4.1,44.8,4.1z"/>
		<path d="M58,56.8c-0.4-0.3-0.9-0.2-1.1,0.2S56.7,57.8,57,58c1.6,1.2,3.2,2.2,4.9,3.2c0.1,0.1,0.2,0.1,0.4,0.1
			c0.4,0,0.8-0.3,0.8-0.7c0-0.3-0.1-0.6-0.4-0.7C61.1,58.9,59.5,57.9,58,56.8z"/>
		<path d="M80.7,80.2c-0.4,0-0.8,0.4-0.8,0.8c0.1,1.6,0.1,3.2,0,4.7c-0.2,0.7-2.2,3.2-9.3,5.8c-6.8,2.5-19.1,4.4-25.6,4.4
			c-4.8,0-19.5-1.9-26.3-4.3c-7.1-2.6-9.1-5-9.3-5.8c-0.2-4.6,0.1-9.3,0.7-13.9c0.8-4.4,5.5-6,8.1-6.7c4.6-1.1,13.7-7,14-7.3
			c0.4-0.2,0.5-0.7,0.2-1.1c-0.2-0.4-0.7-0.5-1.1-0.2c-0.1,0.1-9.2,6.1-13.5,7.1c-5.3,1.2-8.6,4.1-9.3,7.9c-0.7,3.6-1.1,13-0.7,14.5
			c0.4,1.5,3.3,4.3,10.3,6.9c6.9,2.6,22,4.5,26.8,4.5c6.6,0,19.1-1.9,26.1-4.5c7-2.6,9.8-5.2,10.2-6.9c0.2-1.7,0.2-3.4,0-5.2
			C81.5,80.5,81.2,80.2,80.7,80.2z"/>
	</g>
</g>
</svg>
