<?xml version="1.0" encoding="utf-8"?>
<!-- Generator: Adobe Illustrator 22.1.0, SVG Export Plug-In . SVG Version: 6.00 Build 0)  -->
<svg version="1.1" id="Layer_1" xmlns="http://www.w3.org/2000/svg" xmlns:xlink="http://www.w3.org/1999/xlink" x="0px" y="0px"
	 viewBox="0 0 100 100" style="enable-background:new 0 0 100 100;" xml:space="preserve">
<title>bug</title>
<g id="Layer_2_1_">
	<g id="black_shapes">
		<path d="M96.7,57H76.1c-0.1,0-0.2,0-0.3,0.1v-2.3c0.1-4.4-0.4-8.8-1.7-13c0.4,0,1.4,0.1,2.7,0.1c2.1,0,4.3-0.1,6.4-0.5
			c7.7-1.3,7.7-5.6,7.7-14.1v-1.6c0-0.4-0.4-0.7-0.8-0.6c-0.3,0-0.6,0.3-0.6,0.6v1.5c0,8.5,0,11.6-6.5,12.7c-3,0.4-5.9,0.6-8.9,0.4
			c-0.1,0-0.3,0-0.4,0.1c-1.1-2.8-3-5.2-5.4-6.8c0-0.3,0-0.5,0-0.8v-5.4c0-4-3.3-7.3-7.3-7.3h-3.5c3.1-2.2,5.2-6.5,5.2-11.6
			c0-0.4-0.3-0.7-0.7-0.7c-0.4,0-0.7,0.3-0.7,0.7c0,6.4-3.7,11.6-8.2,11.6h-3.7C44.7,20,41,14.8,41,8.4c0-0.4-0.4-0.7-0.8-0.6
			c-0.3,0-0.6,0.3-0.6,0.6c0,5,2.2,9.4,5.2,11.6h-4.6c-4,0-7.2,3.2-7.2,7.2v5.4c0,0.3,0,0.5,0.1,0.8l-0.2,0.1c-2.3,1.7-4,4-5.1,6.6
			c-3,0.2-6,0-8.9-0.4c-6.5-1.1-6.5-4.2-6.5-12.7v-1.5c0-0.4-0.4-0.7-0.8-0.6c-0.3,0-0.6,0.3-0.6,0.6v1.5c0,8.6,0,12.9,7.7,14.1
			c2.2,0.3,4.4,0.5,6.6,0.5c0.8,0,1.5,0,2,0c-1.3,4.2-1.9,8.6-1.8,13v2.2H3.3c-0.4,0-0.7,0.4-0.6,0.8c0,0.3,0.3,0.6,0.6,0.6h22.1
			v8.8c0,1.3,0.1,2.6,0.3,3.9c-2.9-0.2-5.8-0.1-8.6,0.3C9.3,72.7,9.3,77,9.3,85.6v1.5c0,0.4,0.3,0.7,0.7,0.7c0.4,0,0.7-0.3,0.7-0.7
			v-1.5c0-8.5,0-11.6,6.5-12.7c2.9-0.4,5.8-0.5,8.7-0.3c3.1,13.6,16.5,22.1,30.1,19.1c9.5-2.1,16.9-9.6,19.1-19.1c0.1,0,0.2,0,0.3,0
			c3-0.2,6-0.1,9,0.3C91,74,91,77.1,91,85.6v1.5c0,0.4,0.4,0.7,0.8,0.6c0.3,0,0.6-0.3,0.6-0.6v-1.5c0-8.6,0-12.9-7.7-14.1
			c-3.1-0.4-6.2-0.5-9.3-0.3c0.2-1.3,0.3-2.6,0.3-4v-8.9c0.1,0.1,0.2,0.1,0.3,0.1h20.6c0.4,0,0.8-0.2,0.8-0.6c0-0.4-0.2-0.8-0.6-0.8
			C96.9,57,96.8,57,96.7,57L96.7,57z M34.4,27.3c0-3.2,2.6-5.8,5.8-5.8h20.6c3.2,0,5.8,2.6,5.8,5.8v5.4c0,3.2-2.6,5.8-5.8,5.8H40.2
			c-3.2,0-5.8-2.6-5.8-5.8V27.3z M26.8,67.2V54.8c-0.2-4.6,0.6-9.2,2.1-13.6l0,0c0.9-2.4,2.4-4.5,4.4-6.1c1,2.9,3.8,4.9,6.8,4.9
			h10.2v50.8C37.4,90.7,26.9,80.2,26.8,67.2L26.8,67.2z M74.2,67.2c0,12.6-9.9,22.9-22.4,23.6V40h9c3.1,0,5.9-2,6.9-4.9
			c4.6,3.3,6.5,9.3,6.5,19.7V67.2z"/>
	</g>
</g>
</svg>
