<?xml version="1.0" encoding="utf-8"?>
<!-- Generator: Adobe Illustrator 22.1.0, SVG Export Plug-In . SVG Version: 6.00 Build 0)  -->
<svg version="1.1" id="Layer_1" xmlns="http://www.w3.org/2000/svg" xmlns:xlink="http://www.w3.org/1999/xlink" x="0px" y="0px"
	 viewBox="0 0 100 100" style="enable-background:new 0 0 100 100;" xml:space="preserve">
<title>code</title>
<g id="Layer_2_1_">
	<g id="black_shapes">
		<path d="M96.7,7.6H3.3c-0.4,0-0.8,0.3-0.8,0.8c0,0,0,0,0,0v83.3c0,0.4,0.3,0.8,0.7,0.8c0,0,0,0,0,0h4.5c0.4,0.1,0.8-0.2,0.9-0.7
			c0.1-0.4-0.2-0.8-0.7-0.9c-0.1,0-0.1,0-0.2,0H4V9.1h58.2v12H10c-0.4,0.1-0.7,0.4-0.7,0.9c0,0.3,0.3,0.6,0.7,0.7h78.8
			c0.4,0.1,0.8-0.2,0.9-0.7c0.1-0.4-0.2-0.8-0.7-0.9c-0.1,0-0.1,0-0.2,0H63.7v-12H96v15c-0.1,0.4,0.2,0.8,0.7,0.9
			c0.4,0.1,0.8-0.2,0.9-0.7c0-0.1,0-0.1,0-0.2V8.3C97.5,7.9,97.2,7.6,96.7,7.6C96.7,7.6,96.7,7.6,96.7,7.6z"/>
		<path d="M96.7,30.1c-0.4,0-0.8,0.3-0.8,0.8v60.1H14.5c-0.4,0.1-0.7,0.4-0.7,0.9c0,0.3,0.3,0.6,0.7,0.7h82.2c0.4,0,0.8-0.3,0.8-0.7
			c0,0,0,0,0,0V30.8C97.5,30.4,97.2,30.1,96.7,30.1C96.7,30.1,96.7,30.1,96.7,30.1z"/>
		<path d="M33,44.9c-0.2-0.3-0.7-0.4-1.1-0.2c0,0,0,0,0,0L16,56.3c-0.2,0.1-0.3,0.4-0.3,0.6c0,0.2,0.1,0.5,0.3,0.6l16,10.9
			c0.1,0.1,0.3,0.1,0.4,0.1c0.3,0,0.5-0.1,0.6-0.3c0.2-0.3,0.1-0.8-0.2-1.1L17.7,56.9L32.9,46C33.2,45.7,33.3,45.3,33,44.9
			C33,44.9,33,44.9,33,44.9z"/>
		<path d="M63.9,68.2c0.1,0.2,0.4,0.3,0.6,0.3c0.2,0,0.3,0,0.4-0.1l16-11.5c0.3-0.2,0.4-0.7,0.2-1.1c-0.1-0.1-0.1-0.1-0.2-0.2
			l-16-10.9c-0.3-0.2-0.8-0.2-1.1,0.2c-0.2,0.3-0.1,0.8,0.2,1.1l15.1,10.3L64,67.2C63.7,67.4,63.6,67.9,63.9,68.2
			C63.9,68.2,63.9,68.2,63.9,68.2z"/>
		<path d="M42,68.6c0.3,0,0.5-0.1,0.7-0.4l12.8-22.4c0.2-0.4,0.1-0.8-0.3-1c-0.4-0.2-0.8-0.1-1,0.3c0,0,0,0,0,0L41.4,67.4
			c-0.2,0.4-0.1,0.8,0.3,1C41.8,68.5,41.9,68.6,42,68.6z"/>
		<circle cx="70.9" cy="14.9" r="1.6"/>
		<circle cx="77.3" cy="14.9" r="1.6"/>
		<path d="M82.1,14.9c0,0.9,0.7,1.6,1.6,1.6c0.9,0,1.6-0.7,1.6-1.6s-0.7-1.6-1.6-1.6l0,0C82.9,13.4,82.2,14,82.1,14.9
			C82.1,14.9,82.1,14.9,82.1,14.9z"/>
	</g>
</g>
</svg>
