<?xml version="1.0" encoding="utf-8"?>
<!-- Generator: Adobe Illustrator 22.1.0, SVG Export Plug-In . SVG Version: 6.00 Build 0)  -->
<svg version="1.1" id="Layer_1" xmlns="http://www.w3.org/2000/svg" xmlns:xlink="http://www.w3.org/1999/xlink" x="0px" y="0px"
	 viewBox="0 0 100 100" style="enable-background:new 0 0 100 100;" xml:space="preserve">
<title>development</title>
<g id="Layer_2_1_">
	<g id="black_shapes">
		<path d="M90.2,4.7H9.8C5.8,4.7,2.5,8,2.5,12v60.5c0,4.1,3.3,7.3,7.3,7.3h27.4c-0.1,3-0.7,5.9-1.8,8.7c-2.2,5-8.3,5.3-8.4,5.3
			c-0.4,0.1-0.7,0.4-0.7,0.8c0,0.3,0.3,0.6,0.7,0.7h45.2c0.4-0.1,0.7-0.4,0.7-0.8c0-0.3-0.3-0.6-0.7-0.7c0,0-6.2-0.2-8.4-5.3
			c-1.1-2.8-1.7-5.7-1.8-8.7h28.1c4.1,0,7.3-3.3,7.3-7.3l0,0V12C97.5,8,94.2,4.7,90.2,4.7z M62.5,89.1c0.9,2,2.4,3.7,4.4,4.7H32.4
			c2-1,3.5-2.7,4.4-4.7c1.2-2.9,1.9-6.1,2-9.3h21.9C60.7,83.1,61.3,86.2,62.5,89.1z M96,72.5c0,3.2-2.6,5.9-5.9,5.9l0,0H9.8
			c-3.2,0-5.9-2.6-5.9-5.9V12c0-3.2,2.6-5.8,5.9-5.9h80.3c3.2,0,5.9,2.6,5.9,5.9V72.5z"/>
		<path d="M85.8,13.5H15.3c-3.4,0-6.2,2.8-6.2,6.2v41.8c0,3.4,2.8,6.2,6.2,6.2h70.4c3.4,0,6.2-2.8,6.2-6.2V19.7
			C92,16.3,89.2,13.5,85.8,13.5z M90.5,61.5c0,2.6-2.1,4.8-4.8,4.8l0,0H15.3c-2.6,0-4.8-2.1-4.8-4.8V19.7c0-2.6,2.1-4.7,4.8-4.8
			h70.4c2.6,0,4.8,2.1,4.8,4.8V61.5z"/>
		<path d="M49.6,71.1c-0.8,0-1.5,0.7-1.5,1.5c0,0.8,0.7,1.5,1.5,1.5c0.8,0,1.5-0.7,1.5-1.5c0,0,0,0,0,0
			C51.2,71.8,50.5,71.1,49.6,71.1C49.6,71.1,49.6,71.1,49.6,71.1z"/>
		<path d="M37,31.1c-0.2-0.3-0.7-0.4-1-0.2l-13.2,9.5c-0.2,0.1-0.3,0.4-0.3,0.6c0,0.2,0.1,0.5,0.3,0.6l13.2,9
			c0.1,0.1,0.3,0.1,0.4,0.1c0.2,0,0.5-0.1,0.6-0.3c0.2-0.3,0.1-0.8-0.2-1L24.5,41l12.3-8.8C37.2,32,37.3,31.5,37,31.1
			C37,31.2,37,31.1,37,31.1z"/>
		<path d="M63.2,30.9c-0.3-0.2-0.8-0.2-1,0.2c0,0,0,0,0,0c-0.2,0.3-0.1,0.8,0.2,1l12.3,8.4l-12.3,8.8c-0.3,0.2-0.4,0.7-0.2,1
			c0.1,0.2,0.4,0.3,0.6,0.3c0.2,0,0.3-0.1,0.4-0.1l13.2-9.5c0.3-0.2,0.4-0.7,0.2-1c0-0.1-0.1-0.1-0.2-0.2L63.2,30.9z"/>
		<path d="M55.3,30.9c-0.4-0.2-0.8-0.1-1,0.3c0,0,0,0,0,0L43.7,49.7c-0.2,0.4-0.1,0.8,0.3,1c0,0,0,0,0,0c0.1,0.1,0.2,0.1,0.4,0.1
			c0.3,0,0.5-0.1,0.6-0.4l10.6-18.5C55.8,31.6,55.7,31.1,55.3,30.9C55.3,30.9,55.3,30.9,55.3,30.9z"/>
	</g>
</g>
</svg>
