<?xml version="1.0" encoding="utf-8"?>
<!-- Generator: Adobe Illustrator 22.1.0, SVG Export Plug-In . SVG Version: 6.00 Build 0)  -->
<svg version="1.1" id="Layer_1" xmlns="http://www.w3.org/2000/svg" xmlns:xlink="http://www.w3.org/1999/xlink" x="0px" y="0px"
	 viewBox="0 0 100 100" style="enable-background:new 0 0 100 100;" xml:space="preserve">
<title>fax</title>
<g id="Layer_2_1_">
	<g id="black_shapes">
		<path d="M55.9,16.6h17c0.5,0.1,0.9-0.3,0.9-0.7c0.1-0.5-0.3-0.9-0.7-0.9c-0.1,0-0.1,0-0.2,0h-17c-0.5,0.1-0.8,0.5-0.7,0.9
			C55.2,16.3,55.5,16.6,55.9,16.6z"/>
		<path d="M55.9,27.3h17c0.5,0.1,0.9-0.3,0.9-0.7c0.1-0.5-0.3-0.9-0.7-0.9c-0.1,0-0.1,0-0.2,0h-17c-0.5,0.1-0.8,0.5-0.7,0.9
			C55.2,26.9,55.5,27.2,55.9,27.3z"/>
		<path d="M55.9,37.9h8.5c0.5,0.1,0.9-0.3,0.9-0.7c0.1-0.5-0.3-0.9-0.7-0.9c-0.1,0-0.1,0-0.2,0h-8.5c-0.5,0.1-0.8,0.5-0.7,0.9
			C55.2,37.6,55.5,37.9,55.9,37.9z"/>
		<path d="M91.8,45.7h-2.3V26.4c0-0.4-0.4-0.8-0.8-0.8H82V4.5c0-0.5-0.4-0.8-0.8-0.8c0,0,0,0,0,0H45.9c-0.5,0-0.8,0.4-0.8,0.8v21.1
			h-5.8c-0.5,0-0.8,0.4-0.8,0.8l0,0v19.3h-5.1V32.8c0-3.1-2.6-5.7-5.7-5.7H16.4c-3.1,0-5.7,2.5-5.7,5.7v12.9H8.2
			c-3.1,0-5.7,2.5-5.7,5.7v39.2c0,3.1,2.5,5.7,5.7,5.7h83.6c3.1,0,5.7-2.6,5.7-5.7V51.4C97.5,48.2,94.9,45.7,91.8,45.7z M87.9,27.2
			v18.5H82V27.2H87.9z M80.3,5.4v40.3H46.7V5.4H80.3z M40.1,27.3h5v18.4h-5V27.3z M12.4,32.8c0-2.2,1.8-4,4-4h11.3
			c2.2,0,4,1.8,4.1,4v50.5c0,2.2-1.8,4.1-4.1,4.1h0H16.4c-2.2,0-4-1.8-4-4.1V32.8z M95.9,90.6c0,2.2-1.8,4.1-4.1,4.1l0,0H8.2
			c-2.2,0-4-1.8-4-4.1V51.4c0-2.2,1.8-4,4-4h2.5v36c0,3.1,2.5,5.7,5.7,5.7h11.3c3.1,0,5.7-2.6,5.7-5.7v-36h58.5c2.2,0,4,1.8,4.1,4
			V90.6z"/>
		<path d="M81.2,56c-4.3,0-7.8,3.5-7.8,7.8c0,4.3,3.5,7.8,7.8,7.8c4.3,0,7.8-3.5,7.8-7.8c0,0,0,0,0,0C89,59.5,85.5,56,81.2,56z
			 M81.2,70c-3.4,0-6.2-2.8-6.2-6.2c0-3.4,2.8-6.2,6.2-6.2c3.4,0,6.2,2.8,6.2,6.2C87.3,67.2,84.6,70,81.2,70z"/>
		<path d="M64.9,55.1H40.5c-0.5,0-0.8,0.4-0.8,0.8c0,0,0,0,0,0v8.7c0,0.5,0.4,0.8,0.8,0.8l0,0h4.7c0.5,0,0.8-0.4,0.8-0.8
			c0-0.5-0.4-0.8-0.8-0.8h-3.8v-7.1H64v7.1h-13c-0.5,0-0.8,0.4-0.8,0.8c0,0.5,0.4,0.8,0.8,0.8h13.8c0.5,0,0.8-0.4,0.8-0.8v-8.7
			C65.7,55.5,65.3,55.1,64.9,55.1z"/>
		<path d="M64.9,72.8H40.5c-0.5-0.1-0.9,0.3-0.9,0.7c-0.1,0.5,0.3,0.9,0.7,0.9c0.1,0,0.1,0,0.2,0h24.3c0.5-0.1,0.8-0.5,0.7-0.9
			C65.5,73.2,65.2,72.9,64.9,72.8z"/>
		<path d="M64.9,79H40.5c-0.5,0-0.8,0.4-0.8,0.8c0,0,0,0,0,0c0,0.5,0.4,0.8,0.8,0.8l0,0h24.3c0.5,0,0.8-0.4,0.8-0.8
			C65.7,79.4,65.3,79,64.9,79z"/>
		<path d="M64.9,85.2H40.5c-0.5-0.1-0.9,0.3-0.9,0.7c-0.1,0.5,0.3,0.9,0.7,0.9c0.1,0,0.1,0,0.2,0h24.3c0.5-0.1,0.8-0.5,0.7-0.9
			C65.5,85.6,65.2,85.3,64.9,85.2z"/>
	</g>
</g>
</svg>
