<?xml version="1.0" encoding="utf-8"?>
<!-- Generator: Adobe Illustrator 22.1.0, SVG Export Plug-In . SVG Version: 6.00 Build 0)  -->
<svg version="1.1" id="Layer_1" xmlns="http://www.w3.org/2000/svg" xmlns:xlink="http://www.w3.org/1999/xlink" x="0px" y="0px"
	 viewBox="0 0 100 100" style="enable-background:new 0 0 100 100;" xml:space="preserve">
<title>home</title>
<g id="Layer_2_1_">
	<g id="black_shapes">
		<path d="M96.7,30.1c-0.4,0-0.8,0.3-0.8,0.8v60.1H14.5c-0.4,0.1-0.7,0.4-0.7,0.9c0,0.3,0.3,0.6,0.7,0.7h82.2c0.4,0,0.8-0.3,0.8-0.7
			c0,0,0,0,0,0V30.8C97.5,30.4,97.2,30.1,96.7,30.1C96.7,30.1,96.7,30.1,96.7,30.1z"/>
		<path d="M96.7,7.6H3.3c-0.4,0-0.8,0.3-0.8,0.8c0,0,0,0,0,0v83.3c0,0.4,0.3,0.8,0.7,0.8c0,0,0,0,0,0h4.5c0.4,0.1,0.8-0.2,0.9-0.7
			c0.1-0.4-0.2-0.8-0.7-0.9c-0.1,0-0.1,0-0.2,0H4V9.1h58.2v12H10c-0.4,0.1-0.7,0.4-0.7,0.9c0,0.3,0.3,0.6,0.7,0.7h78.8
			c0.4,0.1,0.8-0.2,0.9-0.7c0.1-0.4-0.2-0.8-0.7-0.9c-0.1,0-0.1,0-0.2,0H63.7v-12H96v15c-0.1,0.4,0.2,0.8,0.7,0.9
			c0.4,0.1,0.8-0.2,0.9-0.7c0-0.1,0-0.1,0-0.2V8.3C97.5,7.9,97.2,7.6,96.7,7.6C96.7,7.6,96.7,7.6,96.7,7.6z"/>
		<path d="M89.6,78.1c0-0.4-0.3-0.8-0.8-0.8c0,0,0,0,0,0H10c-0.4,0.1-0.7,0.4-0.7,0.9c0,0.3,0.3,0.6,0.7,0.7h78.8
			C89.3,78.9,89.6,78.6,89.6,78.1C89.6,78.2,89.6,78.2,89.6,78.1z"/>
		<path d="M69.7,14.9c0,0.9,0.7,1.6,1.6,1.6c0.9,0,1.6-0.7,1.6-1.6s-0.7-1.6-1.6-1.6c0,0,0,0-0.1,0C70.4,13.3,69.7,14,69.7,14.9z"/>
		<path d="M76.1,14.9c0,0.9,0.7,1.6,1.6,1.6c0.9,0,1.6-0.7,1.6-1.6c0-0.9-0.7-1.6-1.6-1.6c0,0,0,0,0,0C76.8,13.3,76.1,14,76.1,14.9z
			"/>
		<path d="M82.5,14.9c0,0.9,0.7,1.6,1.6,1.6c0.9,0,1.6-0.7,1.6-1.6c0-0.9-0.7-1.6-1.5-1.6C83.2,13.3,82.5,14,82.5,14.9
			C82.5,14.8,82.5,14.9,82.5,14.9z"/>
		<path d="M53.7,66.9h8.8c0.4,0,0.8-0.3,0.8-0.8l0,0v-14c0-0.4-0.3-0.8-0.8-0.8c-0.4,0-0.8,0.3-0.8,0.8v13.2h-7.3v-9.5
			c0-0.4-0.3-0.8-0.8-0.8h-7.4c-0.4,0-0.8,0.3-0.8,0.8v9.5h-7.3V51.5c0.1-0.4-0.2-0.8-0.7-0.9c-0.4-0.1-0.8,0.2-0.9,0.7
			c0,0.1,0,0.1,0,0.2v14.6c0,0.4,0.3,0.8,0.7,0.8c0,0,0,0,0,0h8.8c0.4,0,0.8-0.3,0.8-0.7c0,0,0,0,0,0v-9.5h5.8v9.5
			C52.9,66.5,53.2,66.9,53.7,66.9C53.6,66.9,53.7,66.9,53.7,66.9z"/>
		<path d="M49.5,33.3L32.6,50.2c-0.3,0.3-0.3,0.8,0,1.1c0.3,0.3,0.8,0.3,1.1,0L50,34.9l16.4,16.4c0.3,0.3,0.8,0.3,1.1,0c0,0,0,0,0,0
			c0.3-0.3,0.3-0.8,0-1.1c0,0,0,0,0,0L50.5,33.3C50.2,33,49.8,33,49.5,33.3z"/>
		<path d="M61.1,41.2c0.4,0,0.8-0.3,0.8-0.8v-5.1c0-0.4-0.4-0.7-0.8-0.7h-5.2c-0.4,0-0.8,0.3-0.8,0.8c0,0.4,0.3,0.8,0.8,0.8h4.4v4.3
			C60.3,40.9,60.6,41.2,61.1,41.2C61,41.2,61,41.2,61.1,41.2z"/>
	</g>
</g>
</svg>
