<?xml version="1.0" encoding="utf-8"?>
<!-- Generator: Adobe Illustrator 22.1.0, SVG Export Plug-In . SVG Version: 6.00 Build 0)  -->
<svg version="1.1" id="Layer_1" xmlns="http://www.w3.org/2000/svg" xmlns:xlink="http://www.w3.org/1999/xlink" x="0px" y="0px"
	 viewBox="0 0 100 100" style="enable-background:new 0 0 100 100;" xml:space="preserve">
<title>javascript</title>
<g id="Layer_2_1_">
	<g id="black_shapes">
		<path d="M96.7,30.1c-0.4,0-0.8,0.3-0.8,0.8v60.1H14.5c-0.4,0.1-0.7,0.4-0.7,0.9c0,0.3,0.3,0.6,0.7,0.7h82.2c0.4,0,0.8-0.3,0.8-0.7
			c0,0,0,0,0,0V30.8C97.5,30.4,97.2,30.1,96.7,30.1C96.7,30.1,96.7,30.1,96.7,30.1z"/>
		<path d="M62.9,7.6H3.3c-0.4,0-0.8,0.3-0.8,0.8c0,0,0,0,0,0v83.3c0,0.4,0.3,0.8,0.7,0.8c0,0,0,0,0,0h4.5c0.4,0.1,0.8-0.2,0.9-0.7
			c0.1-0.4-0.2-0.8-0.7-0.9c-0.1,0-0.1,0-0.2,0H4V9.1h58.2V8.3C62.2,7.9,62.5,7.6,62.9,7.6z"/>
		<path d="M96.7,7.6H62.9c0.4,0,0.8,0.3,0.8,0.7c0,0,0,0,0,0v0.8H96v15c-0.1,0.4,0.2,0.8,0.7,0.9c0.4,0.1,0.8-0.2,0.9-0.7
			c0-0.1,0-0.1,0-0.2V8.3C97.5,7.9,97.2,7.6,96.7,7.6C96.7,7.6,96.7,7.6,96.7,7.6z"/>
		<path d="M62.9,22.6h25.9c0.4,0.1,0.8-0.2,0.9-0.7c0.1-0.4-0.2-0.8-0.7-0.9c-0.1,0-0.1,0-0.2,0H63.7v0.8
			C63.7,22.3,63.4,22.6,62.9,22.6C63,22.6,63,22.6,62.9,22.6z"/>
		<path d="M62.2,21.8v-0.8H10c-0.4,0.1-0.7,0.4-0.7,0.9c0,0.3,0.3,0.6,0.7,0.7h52.9C62.5,22.6,62.2,22.3,62.2,21.8
			C62.2,21.8,62.2,21.8,62.2,21.8z"/>
		<path d="M89.6,78.1c0-0.4-0.3-0.8-0.8-0.8c0,0,0,0,0,0H10c-0.4,0.1-0.7,0.4-0.7,0.9c0,0.3,0.3,0.6,0.7,0.7h78.8
			C89.3,78.9,89.6,78.6,89.6,78.1C89.6,78.2,89.6,78.2,89.6,78.1z"/>
		<path d="M62.9,7.6c-0.4,0-0.8,0.3-0.8,0.8v13.5c-0.1,0.4,0.2,0.8,0.7,0.9c0.4,0.1,0.8-0.2,0.9-0.7c0-0.1,0-0.1,0-0.2V8.3
			C63.7,7.9,63.4,7.6,62.9,7.6C63,7.6,62.9,7.6,62.9,7.6z"/>
		<path d="M69.7,14.9c0,0.9,0.7,1.6,1.6,1.6c0.9,0,1.6-0.7,1.6-1.6s-0.7-1.6-1.6-1.6c0,0,0,0-0.1,0C70.4,13.3,69.7,14,69.7,14.9z"/>
		<path d="M76.1,14.9c0,0.9,0.7,1.6,1.6,1.6c0.9,0,1.6-0.7,1.6-1.6c0-0.9-0.7-1.6-1.6-1.6c0,0,0,0,0,0C76.8,13.3,76.1,14,76.1,14.9z
			"/>
		<path d="M82.5,14.9c0,0.9,0.7,1.6,1.6,1.6c0.9,0,1.6-0.7,1.6-1.6c0-0.9-0.7-1.6-1.5-1.6C83.2,13.3,82.5,14,82.5,14.9
			C82.5,14.8,82.5,14.9,82.5,14.9z"/>
		<path d="M27.3,49c1.1,0.1,2.1,0.3,3.1,0.7c1.8-0.7,3.8-1.9,3.8-4.3c0-1-0.1-2.3-0.1-3.6c-0.2-3-0.4-7.4,0.4-8.2
			c0.8-0.7,1.9-0.9,2.9-0.6c0.4,0.1,0.8-0.2,0.9-0.6c0.1-0.3-0.1-0.7-0.4-0.8c-1.6-0.5-3.3-0.2-4.5,0.9c-1.2,1.2-1.1,4.5-0.9,9.4
			c0.1,1.3,0.1,2.6,0.1,3.5c0,3-5.4,3.4-5.5,3.5c-0.4,0-0.7,0.4-0.7,0.8c0,0,0,0,0,0l0,0C26.6,49.3,26.9,49,27.3,49
			C27.3,49,27.3,49,27.3,49z"/>
		<path d="M27.3,50.5c0.1,0,5.5,0.5,5.5,3.5c0,1-0.1,2.3-0.1,3.5c-0.3,4.9-0.4,8.2,0.9,9.4c0.8,0.8,1.9,1.2,3,1.1
			c0.5,0,1.1-0.1,1.6-0.2c0.4-0.2,0.6-0.6,0.4-1c-0.2-0.4-0.6-0.5-1-0.4c-1,0.3-2.1,0.1-2.9-0.6c-0.8-0.8-0.6-5.3-0.4-8.2
			c0.1-1.3,0.1-2.6,0.1-3.6c0-2.4-1.9-3.6-3.8-4.3c-1-0.4-2.1-0.6-3.1-0.7c-0.4,0-0.8,0.3-0.8,0.7c0,0,0,0,0,0l0,0
			C26.5,50.1,26.8,50.5,27.3,50.5C27.2,50.5,27.2,50.5,27.3,50.5z"/>
		<path d="M74.3,49.7L74.3,49.7c0-0.4-0.3-0.8-0.7-0.8c0,0,0,0,0,0c0,0-5.5-0.5-5.5-3.5c0-1,0.1-2.3,0.1-3.5
			c0.3-4.9,0.4-8.2-0.9-9.4c-1.2-1.1-2.9-1.4-4.5-0.9c-0.4,0.1-0.6,0.6-0.5,1c0,0,0,0,0,0c0.1,0.4,0.5,0.6,0.9,0.5c0,0,0,0,0,0
			c1-0.3,2.1-0.1,2.9,0.6c0.8,0.8,0.6,5.3,0.4,8.2c-0.1,1.3-0.1,2.6-0.1,3.6c0,2.4,1.9,3.6,3.8,4.3c1-0.4,2-0.6,3.1-0.7
			C73.9,49,74.3,49.3,74.3,49.7C74.3,49.7,74.3,49.7,74.3,49.7z"/>
		<path d="M63.4,66.4c-0.4-0.1-0.8,0.2-0.9,0.6c-0.1,0.3,0.1,0.7,0.4,0.8c0.5,0.2,1,0.2,1.5,0.2c1.1,0,2.2-0.4,3-1.1
			c1.2-1.2,1.1-4.5,0.9-9.4c-0.1-1.3-0.1-2.6-0.1-3.5c0-3,5.4-3.4,5.5-3.5c0.4,0,0.7-0.4,0.7-0.8c0,0,0,0,0,0l0,0
			c0-0.4-0.4-0.7-0.8-0.7c-1.1,0.1-2.1,0.3-3.1,0.7c-1.8,0.7-3.8,1.9-3.8,4.3c0,1,0.1,2.3,0.1,3.6c0.2,2.9,0.4,7.4-0.4,8.2
			C65.5,66.5,64.4,66.7,63.4,66.4z"/>
		<circle cx="50" cy="42.7" r="0.9"/>
		<path d="M50,45.1c1.4,0,2.5-1.1,2.5-2.4s-1.1-2.5-2.4-2.5c-1.4,0-2.5,1.1-2.5,2.4c0,0,0,0,0,0C47.6,44,48.6,45.1,50,45.1z
			 M50,41.8c0.5,0,0.9,0.4,0.9,0.9c0,0.5-0.4,0.9-0.9,0.9c-0.5,0-0.9-0.4-0.9-0.9c0,0,0,0,0,0C49.1,42.2,49.5,41.8,50,41.8z"/>
		<path d="M50,55.3c-0.5,0.1-0.9,0.5-0.8,1c0,0.4,0.4,0.8,0.8,0.8c0.5,0,0.9-0.4,0.9-0.8c0-0.2-0.1-0.4-0.1-0.6
			C50.6,55.4,50.3,55.3,50,55.3z"/>
		<path d="M52.4,56.3C52.4,56.3,52.4,56.3,52.4,56.3c0-0.5-0.1-0.9-0.3-1.3c0,0.1,0.1,0.1,0.1,0.2C52.3,55.6,52.4,55.9,52.4,56.3z"
			/>
		<path d="M50,58.6c0.3,0,0.6-0.1,0.9-0.2c0.1-0.7,0.1-1.4,0-2.2c0,0.5-0.4,0.8-0.9,0.8c-0.5,0-0.9-0.4-1-0.9s0.4-0.9,0.9-1
			c0.3,0,0.7,0.2,0.8,0.5v-0.1c-0.1-0.4,0.1-0.8,0.6-0.9c0.3-0.1,0.6,0,0.8,0.3c-0.7-1.2-2.2-1.5-3.3-0.8c-1.2,0.7-1.5,2.2-0.8,3.3
			C48.4,58.2,49.2,58.6,50,58.6L50,58.6z"/>
		<path d="M51.3,54.7c-0.4,0.1-0.7,0.5-0.6,0.9v0.1c0,0.2,0.1,0.4,0.1,0.6c0.1,0.7,0.1,1.4,0,2.2c-0.2,1.3-0.8,2.4-1.8,3.3
			c-0.4,0.2-0.4,0.7-0.2,1.1c0,0,0,0,0,0.1c0.3,0.3,0.7,0.4,1.1,0.2c2-1.6,2.9-4.2,2.4-6.7c0-0.3-0.1-0.7-0.2-1
			c0-0.1-0.1-0.2-0.1-0.2l0,0C51.9,54.8,51.6,54.6,51.3,54.7z"/>
	</g>
</g>
</svg>
