<?xml version="1.0" encoding="utf-8"?>
<!-- Generator: Adobe Illustrator 22.1.0, SVG Export Plug-In . SVG Version: 6.00 Build 0)  -->
<svg version="1.1" id="Layer_1" xmlns="http://www.w3.org/2000/svg" xmlns:xlink="http://www.w3.org/1999/xlink" x="0px" y="0px"
	 viewBox="0 0 100 100" style="enable-background:new 0 0 100 100;" xml:space="preserve">
<title>phone</title>
<g id="Layer_2_1_">
	<g id="black_shapes">
		<path d="M71.3,2.5H28.6c-4,0-7.3,3.3-7.3,7.3v80.4c0,4,3.3,7.3,7.3,7.3h42.7c4,0,7.3-3.3,7.3-7.3V9.8C78.6,5.8,75.4,2.5,71.3,2.5
			C71.3,2.5,71.3,2.5,71.3,2.5z M77.2,90.2c0,3.2-2.6,5.8-5.8,5.8h0H28.7c-3.2,0-5.8-2.6-5.8-5.8V9.8c0-3.2,2.6-5.8,5.8-5.8h42.7
			c3.2,0,5.8,2.6,5.8,5.8V90.2z"/>
		<path d="M65,18.4H35c-3.4,0-6.2,2.8-6.2,6.2v51.1c0,3.4,2.8,6.2,6.2,6.2H65c3.4,0,6.2-2.8,6.2-6.2V24.6
			C71.2,21.1,68.5,18.4,65,18.4z M69.8,75.6c0,2.6-2.1,4.7-4.7,4.7H35c-2.6,0-4.7-2.1-4.7-4.7V24.6c0-2.6,2.1-4.7,4.7-4.7H65
			c2.6,0,4.7,2.1,4.7,4.7v0V75.6z"/>
		<path d="M39.7,12.5c0.1,0,0.2,0,0.3-0.1c0.1,0,0.2-0.1,0.2-0.1c0.1-0.1,0.2-0.3,0.2-0.5c0-0.2-0.1-0.4-0.2-0.5
			c-0.1-0.1-0.2-0.2-0.3-0.2c-0.3-0.1-0.6-0.1-0.8,0.2c-0.1,0.1-0.1,0.1-0.2,0.2c0,0.1-0.1,0.2-0.1,0.3c0,0.2,0.1,0.4,0.2,0.5
			C39.3,12.5,39.5,12.6,39.7,12.5z"/>
		<path d="M45.4,12.5h14.8c0.4,0,0.7-0.3,0.7-0.7c0-0.4-0.3-0.7-0.7-0.7H45.4c-0.4,0-0.7,0.3-0.7,0.7C44.7,12.2,45,12.5,45.4,12.5z"
			/>
		<path d="M43.1,70h-7.7c-0.4,0-0.7,0.4-0.6,0.8c0,0.3,0.3,0.6,0.6,0.6h7.7c0.4,0,0.8-0.2,0.8-0.6c0-0.4-0.2-0.8-0.6-0.8
			C43.2,70,43.1,70,43.1,70z"/>
		<path d="M64.6,70h-16c-0.4,0-0.7,0.4-0.6,0.8c0,0.3,0.3,0.6,0.6,0.6h16c0.4,0,0.8-0.2,0.8-0.6c0-0.4-0.2-0.8-0.6-0.8
			C64.7,70,64.6,70,64.6,70z"/>
		<path d="M50,84.7c-2.6,0-4.7,2.2-4.6,4.8c0,2.6,2.2,4.7,4.8,4.6c2.6,0,4.6-2.1,4.6-4.7C54.8,86.8,52.6,84.7,50,84.7
			C50,84.7,50,84.7,50,84.7z M50,92.7c-1.8,0-3.3-1.5-3.2-3.3c0-1.8,1.5-3.3,3.3-3.2c1.8,0,3.2,1.5,3.2,3.3
			C53.3,91.2,51.9,92.7,50,92.7C50,92.7,50,92.7,50,92.7z"/>
		<path d="M50,34c-3.8,0-6.9,3.7-6.9,8.2s3.1,8.2,6.9,8.2s6.9-3.7,6.9-8.2S53.8,34,50,34z M50,48.8c-3,0-5.5-3-5.5-6.7
			c0-3.7,2.4-6.7,5.5-6.7s5.5,3,5.5,6.7C55.5,45.8,53,48.8,50,48.8z"/>
		<path d="M50,29.9c-9.7,0-17.5,7.8-17.5,17.5S40.3,64.9,50,64.9S67.5,57,67.5,47.4S59.7,29.9,50,29.9z M61.6,58.5
			c0-1.1-0.1-2.2-0.3-3.3c-0.3-1.4-1.4-2.4-3.2-2.8c-1.4-0.5-2.7-1.2-4-2c-0.3-0.2-0.8-0.1-1,0.2c-0.2,0.3-0.1,0.8,0.2,1l0,0
			c1.4,0.9,2.8,1.7,4.4,2.3c0.7,0.2,1.9,0.6,2.1,1.6c0.2,1.5,0.2,2.9,0.2,4.4c-5.9,4.8-14.3,4.8-20.2,0c0-1.4,0-2.9,0.2-4.3
			c0.2-1,1.4-1.5,2.1-1.6c1.5-0.6,3-1.3,4.4-2.3c0.3-0.2,0.4-0.7,0.2-1c-0.2-0.3-0.7-0.4-1-0.2c0,0,0,0,0,0
			c-1.2,0.8-2.5,1.5-3.9,2.1c-1.5,0.2-2.8,1.3-3.2,2.8c-0.1,1.1-0.2,2.1-0.3,3.2c-6.1-6.4-5.9-16.6,0.5-22.7s16.6-5.9,22.7,0.5
			C67.4,42.5,67.4,52.3,61.6,58.5L61.6,58.5z"/>
	</g>
</g>
</svg>
