<?xml version="1.0" encoding="utf-8"?>
<!-- Generator: Adobe Illustrator 22.1.0, SVG Export Plug-In . SVG Version: 6.00 Build 0)  -->
<svg version="1.1" id="Layer_1" xmlns="http://www.w3.org/2000/svg" xmlns:xlink="http://www.w3.org/1999/xlink" x="0px" y="0px"
	 viewBox="0 0 100 100" style="enable-background:new 0 0 100 100;" xml:space="preserve">
<title>worldwide</title>
<g id="Layer_2_1_">
	<g id="black_shapes">
		<path d="M48.8,2.6c-16.1,0-31,8.7-39.3,22.9c-0.2,0.1-0.3,0.4-0.3,0.6C-3.8,48.8,3.7,77.8,25.9,91c7,4.1,14.8,6.4,22.9,6.4
			c26.6,0,48.2-20.2,48.2-47.4S75.4,0.6,48.8,2.6z M95.4,50.5H81.2V50c0-7.9-1.3-15.7-4-23.1h12c4.1,7,6.2,15,6.2,23.1
			C95.4,50.2,95.4,50.4,95.4,50.5z M87.6,75.7H76.1c3.1-7.5,4.8-15.5,5-23.6h14.2C95,60.5,92.3,68.7,87.6,75.7z M12.2,75.7
			c-4.7-7-7.4-15.2-7.8-23.7h14.2c0.2,8.1,1.9,16.1,5,23.6H12.3L12.2,75.7z M20.2,52.1H35c0.1,7.9,0.8,15.8,2.3,23.6H25.2
			C22,68.2,20.3,60.2,20.2,52.1z M20.2,50c0-7.9,1.3-15.7,4.1-23.1h12.7C35.7,34.5,35,42.3,35.1,50v0.5H20.2
			C20.1,50.4,20.1,50.2,20.2,50L20.2,50z M79.7,50.5h-15c0-0.2,0-0.3,0-0.5c0-7.7-0.6-15.5-1.9-23.1h12.8c2.7,7.4,4.1,15.2,4.1,23.1
			L79.7,50.5z M36.7,50.5V50c0-7.7,0.6-15.5,1.8-23.1h22.7c1.3,7.6,1.9,15.4,1.9,23.1c0,0.2,0,0.4,0,0.5H36.7z M63.2,52.1
			c0,7.9-0.8,15.9-2.3,23.6H39c-1.5-7.8-2.3-15.7-2.4-23.6L63.2,52.1z M62.6,25.3C60.9,15.9,58,8.2,54.4,4.6c8.6,2,16,9.8,20.6,20.7
			H62.6z M61,25.3H38.7c2.5-13.3,6.9-21.2,11.1-21.2C54.8,4.1,58.7,13.2,61,25.3L61,25.3z M37.2,25.3H24.8
			c4.5-10.9,12-18.7,20.6-20.7C41.8,8.1,39,15.9,37.2,25.3z M37.7,77.3c1.8,8.3,4.4,14.9,7.7,18.1c-7.9-1.9-14.9-8.6-19.5-18.1H37.7
			z M39.3,77.3h21.2C57.9,89,53.8,95.9,49.9,95.9C45.3,95.9,41.6,88.1,39.3,77.3L39.3,77.3z M62,77.3h11.8
			c-4.6,9.5-11.5,16.3-19.5,18.1C57.7,92.2,60.3,85.6,62,77.3L62,77.3z M62.4,75.7c1.5-7.8,2.2-15.7,2.3-23.6h14.9
			c-0.2,8.1-1.9,16.2-5.1,23.6H62.4z M88.2,25.3H76.6c-3.7-9.1-9.4-16.2-16.1-19.9C72,8.2,81.9,15.4,88.2,25.3L88.2,25.3z M39.2,5.4
			c-6.7,3.7-12.4,10.8-16.1,19.9H11.5C17.8,15.4,27.8,8.2,39.2,5.4z M10.6,26.9h12c-2.7,7.4-4,15.2-4,23.1c0,0.2,0,0.4,0,0.5H4.4
			c0-0.2,0-0.3,0-0.5C4.4,41.9,6.5,33.9,10.6,26.9L10.6,26.9z M13.3,77.3h11c3.7,7.9,8.9,14,15,17.4C28.8,92.1,19.6,85.9,13.3,77.3
			L13.3,77.3z M60.5,94.6c6.1-3.3,11.3-9.5,15-17.4h11C80.1,85.9,70.9,92.1,60.5,94.6z"/>
	</g>
</g>
</svg>
