<?xml version="1.0" encoding="utf-8"?>
<!-- Generator: Adobe Illustrator 22.1.0, SVG Export Plug-In . SVG Version: 6.00 Build 0)  -->
<svg version="1.1" id="Layer_1" xmlns="http://www.w3.org/2000/svg" xmlns:xlink="http://www.w3.org/1999/xlink" x="0px" y="0px"
	 viewBox="0 0 100 100" style="enable-background:new 0 0 100 100;" xml:space="preserve">
<title>analytics</title>
<g id="Layer_2_1_">
	<g id="black_shapes">
		<path d="M86.6,28v-0.3c0-0.6-0.2-1.2-0.7-1.7L63.5,3.2c-0.4-0.4-1-0.7-1.7-0.7h-38c-5.8,0-10.4,4.7-10.4,10.4v74.2
			c0,5.8,4.7,10.4,10.4,10.4h52.3c5.8,0,10.4-4.7,10.4-10.4V32.9c0-0.4-0.3-0.7-0.7-0.7c-0.4,0-0.7,0.3-0.7,0.7v54.1
			c0,4.9-4,8.9-8.9,8.9h-1V59.8c0-2.8-2.3-5.1-5.1-5.1h-7.7c-2.8,0-5.1,2.3-5.1,5.1v4.3c-1-1-2.3-1.5-3.7-1.5h-7.7
			c-1.4,0-2.7,0.6-3.7,1.5v-9.9c0-2.8-2.3-5.1-5.1-5.1h-7.7c-2.8,0-5.1,2.3-5.1,5.1V96h-0.3c-4.9,0-8.9-4-8.9-8.9V12.9
			c0-4.9,4-8.9,8.9-8.9h36.5c-1,0.8-1.6,2.1-1.5,3.4v17.3c0.1,2.3,2,4.2,4.4,4.1c0,0,0,0,0,0h22.6C86.3,28.7,86.6,28.4,86.6,28
			L86.6,28z M58.6,59.8c0-2,1.6-3.7,3.7-3.7H70c2,0,3.7,1.6,3.7,3.7V96h-15V59.8z M45.8,64h7.7c2,0,3.7,1.6,3.7,3.7V96h-15V67.7
			C42.1,65.7,43.8,64,45.8,64z M25.6,54.2c0-2,1.6-3.7,3.7-3.7H37c2,0,3.7,1.6,3.7,3.7l0,0V96h-15V54.2z M60.3,24.6V7.3
			c-0.2-1.3,0.7-2.4,2-2.6c0.1,0,0.2,0,0.3,0c0.1,0,0.1,0,0.2,0l22,22.4c0.1,0.1,0.1,0.1,0.1,0.2H63.2
			C61.6,27.3,60.4,26.2,60.3,24.6C60.3,24.6,60.3,24.6,60.3,24.6z"/>
		<path d="M24.9,39.9h50.2c0.4,0,0.7-0.3,0.7-0.7c0-0.4-0.3-0.7-0.7-0.7H24.9c-0.4,0-0.7,0.3-0.7,0.7C24.1,39.6,24.5,39.9,24.9,39.9
			z"/>
		<path d="M23.9,28.9h24c0.4-0.1,0.7-0.4,0.7-0.8c0-0.3-0.3-0.6-0.7-0.7h-24c-0.4-0.1-0.8,0.2-0.8,0.7c-0.1,0.4,0.2,0.8,0.7,0.8
			C23.8,28.9,23.9,28.9,23.9,28.9z"/>
		<path d="M23.9,17.9h24c0.4-0.1,0.7-0.4,0.7-0.8c0-0.3-0.3-0.6-0.7-0.7h-24c-0.4-0.1-0.8,0.2-0.8,0.7c-0.1,0.4,0.2,0.8,0.7,0.8
			C23.8,17.9,23.9,17.9,23.9,17.9z"/>
	</g>
</g>
</svg>
