<?xml version="1.0" encoding="utf-8"?>
<!-- Generator: Adobe Illustrator 22.1.0, SVG Export Plug-In . SVG Version: 6.00 Build 0)  -->
<svg version="1.1" id="Layer_1" xmlns="http://www.w3.org/2000/svg" xmlns:xlink="http://www.w3.org/1999/xlink" x="0px" y="0px"
	 viewBox="0 0 100 100" style="enable-background:new 0 0 100 100;" xml:space="preserve">
<title>enterprise</title>
<g id="Layer_2_1_">
	<g id="black_shapes">
		<path d="M96.5,13H84.7v0.9c0,0.5-0.4,0.9-0.9,0.9h11.9v3.5c0,0.5,0.4,0.9,0.9,0.9c0.5,0,0.9-0.4,0.9-0.9v-4.5
			C97.5,13.4,97.1,13,96.5,13C96.6,13,96.5,13,96.5,13z"/>
		<path d="M70.1,13.9V13H58.3c-0.5,0-0.9,0.4-0.9,0.9l0,0v80.7c0,0.5,0.4,0.9,0.9,0.9H62c0.5,0.1,1-0.3,1-0.8c0.1-0.5-0.3-1-0.8-1
			c-0.1,0-0.2,0-0.2,0h-2.7V14.8H71C70.5,14.8,70.1,14.4,70.1,13.9z"/>
		<path d="M96.5,25.6c-0.5,0-0.9,0.4-0.9,0.9v67.1H69c-0.5,0.1-0.9,0.5-0.8,1c0.1,0.4,0.4,0.8,0.8,0.8h27.5c0.5,0,0.9-0.4,0.9-0.9
			v-68C97.5,26.1,97,25.7,96.5,25.6z"/>
		<path d="M84.7,13.9V5.4c0-0.5-0.4-0.9-0.9-0.9H71c-0.5,0-0.9,0.4-0.9,0.9v8.5c0,0.5,0.4,0.9,0.9,0.9h12.8
			C84.3,14.8,84.7,14.4,84.7,13.9C84.7,13.9,84.7,13.9,84.7,13.9z M72,13V6.3h10.9V13H72z"/>
		<path d="M46.4,94.9h-0.1H46.4z"/>
		<path d="M46,31.9h-1v19.2h1c0.4,0,0.8,0.3,0.9,0.7V31.3C46.7,31.6,46.4,31.9,46,31.9z"/>
		<path d="M46,53h-1v19.2h0.9c0.5,0,0.9,0.4,0.9,0.8V52.2C46.7,52.6,46.4,52.9,46,53z"/>
		<path d="M43.9,93.1C31,92.3,19.4,85.1,12.9,74h-1.5c-0.5,0-0.9-0.4-0.9-0.9c0-0.5,0.4-0.9,0.9-0.9h0.4C9.8,68.2,8.4,64,7.7,59.6
			c-0.1-0.5-0.6-0.8-1.1-0.8c-0.5,0.1-0.8,0.6-0.8,1.1c3.3,20.2,20.2,35,40.2,35.2l0,0c-0.3,0-0.5-0.1-0.7-0.3
			C44.8,94.2,44.4,93.7,43.9,93.1z"/>
		<path d="M46,74h-1v17.7c0.5,0.6,1.1,1.2,1.6,1.9c0.1,0.2,0.2,0.4,0.2,0.6l0,0v-21C46.8,73.6,46.4,73.9,46,74z"/>
		<path d="M47,13.7c0-0.5-0.5-0.9-1-0.9c0,0,0,0,0,0h-0.2c-20,0.9-36.2,13.9-39.6,31.8c-0.1,0.5,0.2,1,0.8,1.1
			c0.5,0.1,1-0.2,1.1-0.8c0.9-4.7,2.8-9.2,5.5-13.1c-0.4-0.1-0.6-0.5-0.6-0.9c0-0.5,0.4-0.9,0.9-0.9l0,0h0.9
			C21.7,21.4,32,16,43.1,15l0.6-0.5l1.6-1.4c0.4-0.3,0.9-0.3,1.3,0.1c0,0,0,0,0,0c0.3,0.4,0.3,0.9,0,1.3c0,0-0.1,0.1-0.1,0.1
			L45,15.8v14.3h1c0.4,0,0.7,0.2,0.9,0.6V14.2C46.9,14.1,47,13.9,47,13.7z"/>
		<path d="M46.9,94.3c0,0.1,0,0.1,0,0.2C46.9,94.5,46.9,94.4,46.9,94.3z"/>
		<path d="M46.6,94.8l0.1-0.1L46.6,94.8L46.6,94.8z"/>
		<path d="M45.1,91.6L43.6,90c-3.3-3.5-6.2-7.3-8.7-11.4c-0.2-0.4-0.8-0.6-1.3-0.4c-0.4,0.2-0.6,0.8-0.4,1.3c2.6,4.2,5.6,8.1,9,11.7
			c0.6,0.6,1.1,1.3,1.7,1.9c0.6,0.6,0.9,1.1,1.4,1.6c0.2,0.2,0.4,0.3,0.7,0.3c0.1,0,0.2,0,0.3,0h0.1c0.1,0,0.1,0,0.2-0.1l0,0
			l0.1-0.2l0.1-0.2c0-0.1,0-0.1,0-0.2c0-0.1,0-0.1,0-0.2c0-0.2-0.1-0.5-0.2-0.6C46.2,92.9,45.6,92.3,45.1,91.6z"/>
		<path d="M29,37.3c0.2-0.5-0.1-1-0.6-1.2c-0.5-0.2-1,0.1-1.2,0.6c-1.6,4.6-2.4,9.5-2.3,14.5h1.8C26.7,46.4,27.4,41.7,29,37.3z"/>
		<path d="M27.8,67.5c0.1,0.4,0.5,0.6,0.9,0.6c0.1,0,0.2,0,0.3,0c0.5-0.2,0.7-0.7,0.6-1.2c-1.6-4.5-2.5-9.2-2.8-14h-1.8
			C25.2,57.9,26.2,62.8,27.8,67.5z"/>
		<path d="M46.6,13.2c-0.3-0.4-0.9-0.4-1.3-0.1c0,0,0,0,0,0l-1.6,1.4L43.1,15c-3.7,2.8-7,6.1-9.9,9.8c-0.2,0.5-0.1,1,0.4,1.3
			c0.4,0.2,0.9,0.1,1.1-0.2c2.4-3.5,6.4-6.8,10.2-10l0.1-0.1l1.5-1.3C46.9,14.2,46.9,13.6,46.6,13.2C46.6,13.2,46.6,13.2,46.6,13.2z
			"/>
		<path d="M46,72.1h-9.3c-0.5,0-0.9,0.4-0.9,0.9c0,0.5,0.4,0.9,0.9,0.9H46c0.5,0,0.9-0.3,0.9-0.8c0,0,0,0,0-0.1s0,0,0-0.1
			C46.8,72.5,46.5,72.1,46,72.1z"/>
		<path d="M10.5,73c0,0.5,0.4,0.9,0.9,0.9h11.8c0.5,0,0.9-0.4,0.9-0.9c0,0,0,0,0,0c0-0.5-0.4-0.9-0.9-0.9c0,0,0,0,0,0H11.4
			C10.9,72.1,10.5,72.5,10.5,73z"/>
		<path d="M46,30.1h-9.3c-0.5,0.1-0.9,0.5-0.8,1c0.1,0.4,0.4,0.8,0.8,0.8H46c0.4,0,0.7-0.3,0.9-0.6c0.1-0.2,0.1-0.4,0-0.6
			C46.7,30.3,46.4,30.1,46,30.1z"/>
		<path d="M12.8,31c0,0.4,0.3,0.8,0.7,0.9c0.1,0,0.2,0.1,0.3,0.1h10.7c0.5-0.1,0.9-0.5,0.8-1c-0.1-0.4-0.4-0.8-0.8-0.8H13.7
			C13.2,30.1,12.8,30.5,12.8,31L12.8,31z"/>
		<path d="M46,51.1H12.7c-0.5,0-0.9,0.4-0.9,0.9c0,0.5,0.4,0.9,0.9,0.9H46c0.4,0,0.8-0.3,0.9-0.7c0-0.1,0-0.1,0-0.2
			c0-0.1,0-0.1,0-0.2C46.8,51.4,46.4,51.1,46,51.1z"/>
		<path d="M34.3,73.3c0-2-1.7-3.7-3.7-3.6c-2,0-3.7,1.7-3.6,3.7c0,2,1.6,3.6,3.7,3.6C32.7,77,34.3,75.3,34.3,73.3z M28.9,73.3
			c0-1,0.8-1.8,1.8-1.8c1,0,1.8,0.8,1.8,1.8c0,1-0.8,1.8-1.8,1.8S28.9,74.3,28.9,73.3L28.9,73.3z"/>
		<path d="M30.7,34.7c2,0,3.7-1.6,3.7-3.7c0-2-1.6-3.7-3.7-3.7c-2,0-3.7,1.6-3.7,3.7c0,0,0,0,0,0C27,33,28.7,34.7,30.7,34.7z
			 M30.7,29.2c1,0,1.8,0.8,1.8,1.8c0,1-0.8,1.8-1.8,1.8c-1,0-1.8-0.8-1.8-1.8l0,0C28.9,30,29.7,29.2,30.7,29.2z"/>
		<path d="M9.9,51.9c0-2-1.6-3.7-3.7-3.7s-3.7,1.6-3.7,3.7c0,2,1.6,3.7,3.7,3.7c0,0,0,0,0,0C8.2,55.6,9.8,53.9,9.9,51.9z M4.4,51.9
			c0-1,0.9-1.8,1.9-1.8C7.2,50.2,8,51,8,52c0,1-0.8,1.8-1.8,1.8C5.2,53.8,4.4,52.9,4.4,51.9C4.4,51.9,4.4,51.9,4.4,51.9z"/>
		<path d="M64.2,38.2h5.1c0.5,0,0.9-0.4,0.9-0.9V27c0-0.5-0.4-0.9-0.9-0.9c0,0,0,0,0,0h-5.1c-0.5,0-0.9,0.4-0.9,0.9c0,0,0,0,0,0
			v10.2C63.3,37.7,63.7,38.2,64.2,38.2L64.2,38.2z M65.1,27.9h3.3v8.4h-3.3L65.1,27.9z"/>
		<path d="M74.9,38.2H80c0.5,0,0.9-0.4,0.9-0.9V27c0-0.5-0.4-0.9-0.9-0.9c0,0,0,0,0,0h-5.1c-0.5,0-0.9,0.4-0.9,0.9c0,0,0,0,0,0v10.2
			C73.9,37.7,74.4,38.2,74.9,38.2L74.9,38.2z M75.8,27.9H79v8.4h-3.2V27.9z"/>
		<path d="M85.5,38.2h5.1c0.5,0,0.9-0.4,0.9-0.9V27c0-0.5-0.4-0.9-0.9-0.9c0,0,0,0,0,0h-5.1c-0.5,0-0.9,0.4-0.9,0.9c0,0,0,0,0,0
			v10.2C84.6,37.7,85,38.2,85.5,38.2L85.5,38.2z M86.4,27.9h3.2v8.4h-3.2V27.9z"/>
		<path d="M63.3,54.9c0,0.5,0.4,0.9,0.9,0.9h5.1c0.5,0,0.9-0.4,0.9-0.9V44.7c0-0.5-0.4-0.9-0.9-0.9c0,0,0,0,0,0h-5.1
			c-0.5,0-0.9,0.4-0.9,0.9c0,0,0,0,0,0V54.9z M65.1,45.6h3.3v8.4h-3.3V45.6z"/>
		<path d="M73.9,54.9c0,0.5,0.4,0.9,0.9,0.9H80c0.5,0,0.9-0.4,0.9-0.9V44.7c0-0.5-0.4-0.9-0.9-0.9c0,0,0,0,0,0h-5.1
			c-0.5,0-0.9,0.4-0.9,0.9c0,0,0,0,0,0L73.9,54.9z M75.8,45.6H79v8.4h-3.2V45.6z"/>
		<path d="M84.6,54.9c0,0.5,0.4,0.9,0.9,0.9h5.1c0.5,0,0.9-0.4,0.9-0.9V44.7c0-0.5-0.4-0.9-0.9-0.9c0,0,0,0,0,0h-5.1
			c-0.5,0-0.9,0.4-0.9,0.9c0,0,0,0,0,0V54.9z M86.4,45.6h3.2v8.4h-3.2V45.6z"/>
		<path d="M70.3,72.6V62.4c0-0.5-0.4-0.9-0.9-0.9c0,0,0,0,0,0h-5.1c-0.5,0-0.9,0.4-0.9,0.9c0,0,0,0,0,0v10.2c0,0.5,0.4,0.9,0.9,0.9
			h5.1C69.8,73.5,70.3,73.1,70.3,72.6L70.3,72.6z M68.4,71.6h-3.3v-8.4h3.3V71.6z"/>
		<path d="M73.9,72.6c0,0.5,0.4,0.9,0.9,0.9H80c0.5,0,0.9-0.4,0.9-0.9V62.4c0-0.5-0.4-0.9-0.9-0.9c0,0,0,0,0,0h-5.1
			c-0.5,0-0.9,0.4-0.9,0.9c0,0,0,0,0,0L73.9,72.6z M75.8,63.3H79v8.3h-3.2L75.8,63.3z"/>
		<path d="M84.6,72.6c0,0.5,0.4,0.9,0.9,0.9h5.1c0.5,0,0.9-0.4,0.9-0.9V62.4c0-0.5-0.4-0.9-0.9-0.9c0,0,0,0,0,0h-5.1
			c-0.5,0-0.9,0.4-0.9,0.9c0,0,0,0,0,0V72.6z M86.4,63.3h3.2v8.3h-3.2V63.3z"/>
	</g>
</g>
</svg>
