<svg xmlns="http://www.w3.org/2000/svg" viewBox="0 0 95.35 63.16"><defs><style>.cls-1{fill:#012635;}</style></defs><title>icon-daily</title><g id="Layer_2" data-name="Layer 2"><g id="navy_shapes" data-name="navy shapes"><path class="cls-1" d="M22.83,14.29A.68.68,0,0,0,24,15a3.32,3.32,0,0,1,3.67-1.56,2.48,2.48,0,0,1,1.82,2.63,1.72,1.72,0,0,1-.51,1.4,2.38,2.38,0,0,1-1.71.35H16.39a.68.68,0,1,0,0,1.35h10.7a5.38,5.38,0,0,0,.59,0,3.4,3.4,0,0,0,2.16-.69,3,3,0,0,0,1-2.44A3.82,3.82,0,0,0,28,12.11,4.73,4.73,0,0,0,22.83,14.29Z"/><path class="cls-1" d="M12.72,19.14a.67.67,0,0,0,.63-.72.68.68,0,0,0-.71-.63c-.66,0-2.6,0-3.43-.82a1.17,1.17,0,0,1-.39-.92,1.79,1.79,0,0,1,.71-1.45A2.77,2.77,0,0,1,12,14.28a.67.67,0,0,0,.63-.16.66.66,0,0,0,.21-.61,4.06,4.06,0,0,1,.83-3c.94-1.12,2.61-1.69,5-1.69,4.49,0,5,1.64,5.05,1.71A.68.68,0,0,0,25,10.26C25,10,24.36,7.45,18.62,7.45c-2.79,0-4.81.74-6,2.18a5.2,5.2,0,0,0-1.16,3.18,3.8,3.8,0,0,0-2.73.72,3.14,3.14,0,0,0-1.24,2.52A2.54,2.54,0,0,0,8.28,18a6.26,6.26,0,0,0,4,1.2Z"/><path class="cls-1" d="M73.93,33.31c-.83.23-1.61.44-1.93.13-3.83-3.73-7.14-3.72-10.15-3.15-2.69.52-5.49,3.71-4.94,6.71.42,2.25,2.78,3,4.73,3h.16a.69.69,0,0,0,.66-.69.71.71,0,0,0-.69-.66c-.52,0-3.17,0-3.53-1.93-.43-2.35,2-4.79,3.86-5.14,2.46-.47,5.39-.68,8.95,2.78.89.86,2.14.52,3.24.21a6,6,0,0,1,1.69-.3c1.09,0,1.71,1.22,1.69,2.33a1.84,1.84,0,0,1-1.94,2H72.39c-2.58,0-5.41,0-7.46,0a.69.69,0,0,0-.67.68.67.67,0,0,0,.67.67h10.8A3.16,3.16,0,0,0,79,36.67c0-1.76-1.06-3.62-3-3.71A6.73,6.73,0,0,0,73.93,33.31Z"/><path class="cls-1" d="M63,58.83a22.08,22.08,0,0,1-4.16,1.58A.68.68,0,0,0,59,61.74a.58.58,0,0,0,.19,0A23.77,23.77,0,0,0,63.62,60a.68.68,0,0,0,.27-.92A.69.69,0,0,0,63,58.83Z"/><path class="cls-1" d="M53.61,61.48a39.32,39.32,0,0,1-5.12.33,45.89,45.89,0,0,1-16.17-3,.68.68,0,0,0-.53,1.25,46.65,46.65,0,0,0,16.7,3.11,41.85,41.85,0,0,0,5.29-.34.68.68,0,0,0,.58-.76A.66.66,0,0,0,53.61,61.48Z"/><path class="cls-1" d="M79.19,55.36c-.23-.13-5.8-3.14-15.13-3.14a47,47,0,0,0-16.35,3,34.41,34.41,0,0,0-14.79-3,46.4,46.4,0,0,0-16.7,3.11.67.67,0,0,0,.27,1.29.63.63,0,0,0,.26,0,45.88,45.88,0,0,1,16.17-3,33.3,33.3,0,0,1,14.37,2.92.73.73,0,0,0,.87,0,46.45,46.45,0,0,1,15.9-2.89c9,0,14.43,2.94,14.48,3a.68.68,0,0,0,.92-.26A.68.68,0,0,0,79.19,55.36Z"/><path class="cls-1" d="M5.86,46A21.12,21.12,0,0,1,1,44.41a.68.68,0,0,0-.67,1.18,21.6,21.6,0,0,0,5.21,1.69l.16,0A.67.67,0,0,0,5.86,46Z"/><path class="cls-1" d="M95.27,44.67a.68.68,0,0,0-.92-.26s-5.52,3-14.48,3a46,46,0,0,1-16.17-3,.63.63,0,0,0-.33,0,.61.61,0,0,0-.35.07c-.06,0-5.53,3-14.49,3a46,46,0,0,1-16.16-3,.74.74,0,0,0-.36,0,.62.62,0,0,0-.42.07c-.06,0-5.52,3-14.48,3a44.19,44.19,0,0,1-6.53-.49.68.68,0,0,0-.19,1.34,46.68,46.68,0,0,0,6.72.5c8.48,0,13.84-2.48,14.92-3a46.86,46.86,0,0,0,16.5,3,34.34,34.34,0,0,0,14.89-3,46.73,46.73,0,0,0,16.45,3c9.33,0,14.9-3,15.13-3.14A.68.68,0,0,0,95.27,44.67Z"/><path class="cls-1" d="M27.07,40.13a.68.68,0,0,0,.67.57h.1a.67.67,0,0,0,.56-.77,19.27,19.27,0,0,1-.24-3,19,19,0,0,1,35.39-9.63.68.68,0,0,0,.93.24.67.67,0,0,0,.24-.92A20.36,20.36,0,0,0,26.81,36.88,20.65,20.65,0,0,0,27.07,40.13Z"/><path class="cls-1" d="M20.51,38.42a.68.68,0,0,0,.68-.68.67.67,0,0,0-.68-.67H10a.67.67,0,0,0-.68.67.68.68,0,0,0,.68.68Z"/><path class="cls-1" d="M47.21,11.86a.67.67,0,0,0,.68-.68V.67a.68.68,0,0,0-1.35,0V11.18A.67.67,0,0,0,47.21,11.86Z"/><path class="cls-1" d="M66.15,19.65a.67.67,0,0,0,.49-.21l7.3-7.55a.69.69,0,0,0,0-1,.68.68,0,0,0-1,0l-7.3,7.55a.68.68,0,0,0,0,1A.7.7,0,0,0,66.15,19.65Z"/><path class="cls-1" d="M18.54,24.73a.67.67,0,0,0-.64,1.18l4,2.2a.61.61,0,0,0,.32.08.65.65,0,0,0,.59-.35.67.67,0,0,0-.26-.91Z"/><path class="cls-1" d="M36.51,13.13a.68.68,0,0,0,.63.42.74.74,0,0,0,.25-.05.67.67,0,0,0,.37-.88L36,8.38a.68.68,0,1,0-1.25.51Z"/><path class="cls-1" d="M57,13.5a.74.74,0,0,0,.25.05.68.68,0,0,0,.63-.42l1.72-4.24A.68.68,0,0,0,59.27,8a.67.67,0,0,0-.88.37l-1.72,4.24A.67.67,0,0,0,57,13.5Z"/><path class="cls-1" d="M71.22,27.84a.65.65,0,0,0,.59.35.67.67,0,0,0,.33-.08l4-2.2a.67.67,0,0,0,.27-.91.68.68,0,0,0-.92-.27l-4,2.2A.67.67,0,0,0,71.22,27.84Z"/></g></g></svg>