<svg xmlns="http://www.w3.org/2000/svg" viewBox="0 0 78.77 78.81"><defs><style>.cls-1{fill:#012635;}</style></defs><title>icon-B2C</title><g id="Layer_2" data-name="Layer 2"><g id="navy_shapes" data-name="navy shapes"><path class="cls-1" d="M40.62,23.37l-17,7.38-.06,0h-.05l0,.05a.67.67,0,0,0-.14.15l-.05.08a.77.77,0,0,0-.07.27h0V50.55a.69.69,0,0,0,.42.62l17.7,7.38a.8.8,0,0,0,.26.05.54.54,0,0,0,.25-.06h0l16.23-7.38a.68.68,0,0,0,.4-.61V31.37h0a.68.68,0,0,0-.07-.28L58.41,31a1.07,1.07,0,0,0-.14-.16l0,0,0,0s0,0,0,0l-17-7.38A.64.64,0,0,0,40.62,23.37Zm.27,1.35L56.2,31.38,41.62,38l-16-6.66ZM24.6,32.38,41,39.19V56.91L24.6,50.1ZM57.19,50.11,42.31,56.87V39.18l14.88-6.77Z"/><path class="cls-1" d="M36.41,29.07l10.49,5a.72.72,0,0,0,.29.06.66.66,0,0,0,.6-.38.67.67,0,0,0-.31-.9L37,27.85a.68.68,0,0,0-.58,1.22Z"/><path class="cls-1" d="M37.51,41.83,28.65,37.4a.68.68,0,0,0-.65,0,.67.67,0,0,0-.32.57v7.38A.69.69,0,0,0,28,46l4.67,2.44a.68.68,0,0,0,.91-.29.67.67,0,0,0-.29-.91L29,45V39.1l7.5,3.75v5.87l-.6-.3a.67.67,0,0,0-.9.3.68.68,0,0,0,.3.91l1.57.78a.69.69,0,0,0,.66,0,.67.67,0,0,0,.32-.57V42.43A.68.68,0,0,0,37.51,41.83Z"/><path class="cls-1" d="M22.2,68.5a.66.66,0,0,0,.35.11.7.7,0,0,0,.58-.32.68.68,0,0,0-.21-.93A32.76,32.76,0,0,1,7.51,39.49,33.1,33.1,0,0,1,33.36,7.34.68.68,0,0,0,33.07,6,34.45,34.45,0,0,0,6.16,39.49,34.11,34.11,0,0,0,22.2,68.5Z"/><path class="cls-1" d="M78.77,72.25c0-.62-.49-1.87-4-6.07l-.22-.26a.68.68,0,1,0-1,.88l.22.25a34.57,34.57,0,0,1,3.38,4.47H58.84a.68.68,0,0,0-.67.68.67.67,0,0,0,.67.67H77.11a29.9,29.9,0,0,1-4.4,4.53l-.26.23a.68.68,0,0,0,0,1,.69.69,0,0,0,.51.23.66.66,0,0,0,.45-.18l.25-.23C78.81,73.71,78.78,72.73,78.77,72.25Z"/><path class="cls-1" d="M74.68,39.61C74.68,13.66,54,6,42.22,5.39a34.61,34.61,0,0,1,3.93-4l.26-.22a.69.69,0,0,0,0-1,.67.67,0,0,0-1,0l-.25.23c-4.06,3.69-4.7,4.87-4.79,5.49s.31,2.07,4.3,6.76l.23.27a.68.68,0,0,0,.51.24A.7.7,0,0,0,46,13a.67.67,0,0,0,.06-.95l-.22-.26A30.86,30.86,0,0,1,42,6.73c11.32.5,31.31,7.84,31.31,32.88,0,9.65-2.92,17.37-8.69,22.94C54,72.83,37,72.35,36.84,72.36H.67A.67.67,0,0,0,0,73a.68.68,0,0,0,.67.68H37.5c3.38,0,18.11-.58,28.07-10.19C71.62,57.69,74.68,49.65,74.68,39.61Z"/><path class="cls-1" d="M31.1,15.74a.67.67,0,0,0,.38-.88.69.69,0,0,0-.88-.38,27.68,27.68,0,1,0,38,25.7A27.85,27.85,0,0,0,50.71,14.29l-.09,0a.61.61,0,0,0-.79.42.76.76,0,0,0,.47.9,26.33,26.33,0,1,1-19.2.16Z"/></g></g></svg>