<svg xmlns="http://www.w3.org/2000/svg" viewBox="0 0 85.35 74.24"><defs><style>.cls-1{fill:#012635;}</style></defs><title>icon-client</title><g id="Layer_2" data-name="Layer 2"><g id="navy_shapes" data-name="navy shapes"><path class="cls-1" d="M85.15,55.06c-4-4-7.26-5.07-11.64-3.81L58.6,56.19a3.5,3.5,0,0,0,.07-.65c0-2.15-1.73-4.33-5-4.33H43c-2.4-2.35-8.45-7.3-16.71-7.3H16v-3a.67.67,0,0,0-.68-.67H.67a.67.67,0,0,0-.67.67V70.15a.67.67,0,0,0,.67.67H15.28a.67.67,0,0,0,.68-.67V65.61c4.32,1.45,7.93,2.72,11.13,3.84,8.81,3.1,13.71,4.79,18.17,4.79,5.42,0,10.17-2.51,20.47-8,4.94-2.66,11.09-6,19.25-10a.67.67,0,0,0,.17-1.08ZM14.61,69.47H1.35V41.61H14.61ZM65.09,65c-18.41,9.91-18.41,9.91-37.55,3.18C24.23,67,20.48,65.7,16,64.18V45.26H26.24c8,0,13.82,5,16,7.11a.68.68,0,0,0,.47.19h11c2.54,0,3.69,1.55,3.69,3s-1.15,3-3.69,3H33.54a.68.68,0,0,0,0,1.35H53.63a5,5,0,0,0,4.33-2L73.9,52.54c3.62-1,6.3-.27,9.62,2.82C75.76,59.26,69.86,62.43,65.09,65Z"/><path class="cls-1" d="M38.16,25.24l-2.06,12a.67.67,0,0,0,1,.71l10.75-5.65,10.76,5.65a.58.58,0,0,0,.31.08.66.66,0,0,0,.4-.13.68.68,0,0,0,.27-.66l-2.06-12,8.7-8.48a.66.66,0,0,0,.17-.69.67.67,0,0,0-.54-.46l-12-1.75L48.44,3a.7.7,0,0,0-1.21,0L41.85,13.86l-12,1.75a.67.67,0,0,0-.54.46.66.66,0,0,0,.17.69ZM42.4,15.15a.68.68,0,0,0,.51-.37l4.92-10,4.93,10a.68.68,0,0,0,.51.37l11,1.6-8,7.77a.68.68,0,0,0-.2.6l1.88,11-9.85-5.18a.7.7,0,0,0-.63,0l-9.85,5.18,1.88-11a.71.71,0,0,0-.2-.6l-8-7.77Z"/><path class="cls-1" d="M19.34,29.23a4.67,4.67,0,0,1,3.48,1A4.67,4.67,0,0,1,24,33.65a.68.68,0,0,0,.68.66h0a.68.68,0,0,0,.65-.68v0c-.09-3.11,1.31-4.6,4.42-4.7a.67.67,0,0,0,.66-.67v0a.69.69,0,0,0-.7-.66,4.7,4.7,0,0,1-3.48-1,4.72,4.72,0,0,1-1.21-3.42.68.68,0,0,0-.7-.65.67.67,0,0,0-.65.67v0c.09,3.11-1.31,4.61-4.42,4.7a.67.67,0,0,0-.66.67v0A.68.68,0,0,0,19.34,29.23Zm5.15-2.81a4.58,4.58,0,0,0,2,1.92,4.41,4.41,0,0,0-1.92,2,4.86,4.86,0,0,0-.87-1.13,4.54,4.54,0,0,0-1.17-.79A4.46,4.46,0,0,0,24.49,26.42Z"/><path class="cls-1" d="M59.5,5.28a3.42,3.42,0,0,1,3.25,3.25.68.68,0,0,0,1.35,0,3.42,3.42,0,0,1,3.25-3.25A.69.69,0,0,0,68,4.6a.68.68,0,0,0-.68-.67A3.43,3.43,0,0,1,64.1.67a.68.68,0,0,0-1.35,0A3.43,3.43,0,0,1,59.5,3.93a.67.67,0,0,0-.67.67A.68.68,0,0,0,59.5,5.28ZM63.43,3A5,5,0,0,0,65.06,4.6a5,5,0,0,0-1.63,1.63A5.11,5.11,0,0,0,61.79,4.6,5.11,5.11,0,0,0,63.43,3Z"/><path class="cls-1" d="M65.71,33.81a.67.67,0,0,0,.67.67A2.6,2.6,0,0,1,68.85,37a.68.68,0,0,0,1.35,0,2.63,2.63,0,0,1,2.47-2.47.67.67,0,0,0,.67-.67.68.68,0,0,0-.67-.68,2.63,2.63,0,0,1-2.47-2.46.68.68,0,1,0-1.35,0,2.59,2.59,0,0,1-2.47,2.46A.68.68,0,0,0,65.71,33.81Zm3.82-1.06a4.11,4.11,0,0,0,1.06,1.06,4,4,0,0,0-1.06,1.06,4.15,4.15,0,0,0-1.07-1.06A4.31,4.31,0,0,0,69.53,32.75Z"/></g></g></svg>