<svg xmlns="http://www.w3.org/2000/svg" viewBox="0 0 95.94 85.35"><defs><style>.cls-1{fill:#012635;}</style></defs><title>icon-award-winner</title><g id="Layer_2" data-name="Layer 2"><g id="navy_shapes" data-name="navy shapes"><path class="cls-1" d="M40.27,32.26a.64.64,0,0,0,.4.13.66.66,0,0,0,.4-.13L48,27.08l6.9,5.18a.68.68,0,0,0,.78,0,.67.67,0,0,0,.27-.74l-2.13-7.83,5.55-4.24a.67.67,0,0,0,.23-.75.7.7,0,0,0-.64-.46H52l-3.47-6.93a.69.69,0,0,0-1.2,0L43.9,18.26H37a.68.68,0,0,0-.38,1.23l6.13,4.22L40,31.5A.66.66,0,0,0,40.27,32.26Zm3.93-8.59a.68.68,0,0,0-.25-.78l-4.77-3.28h5.14a.67.67,0,0,0,.6-.37l3-6.1L51,19.24a.67.67,0,0,0,.6.37h5.31l-4.32,3.3a.68.68,0,0,0-.24.72L54.11,30l-5.74-4.3a.66.66,0,0,0-.4-.13.69.69,0,0,0-.41.13L42,29.84Z"/><path class="cls-1" d="M95.93,8.91c0-.36,0-.67,0-.93a.68.68,0,0,0-.68-.68h-11a.68.68,0,0,0-.68.68.67.67,0,0,0,.68.67H94.57v.28c0,4.71.19,17.24-6.17,23.66a13.69,13.69,0,0,1-10.15,3.93.68.68,0,1,0,0,1.35,15,15,0,0,0,11.11-4.33C96.12,26.72,96,13.78,95.93,8.91Z"/><path class="cls-1" d="M78.26,33.15a.67.67,0,0,0-.68.67.68.68,0,0,0,.68.68,11.9,11.9,0,0,0,8.79-3.43c5.32-5.38,5.21-15.54,5.17-19.36V11a.68.68,0,0,0-.67-.68H84.22a.68.68,0,0,0-.68.68.67.67,0,0,0,.68.67h6.65v.07c0,3.67.15,13.42-4.78,18.4A10.57,10.57,0,0,1,78.26,33.15Z"/><path class="cls-1" d="M17.68,36.52A13.72,13.72,0,0,1,7.53,32.6c-6.36-6.43-6.22-19-6.17-23.67V8.65H11.72A.67.67,0,0,0,12.39,8a.68.68,0,0,0-.67-.68H.69A.68.68,0,0,0,0,8c0,.26,0,.57,0,.93,0,4.87-.19,17.81,6.56,24.63a15,15,0,0,0,11.11,4.33.68.68,0,1,0,0-1.35Z"/><path class="cls-1" d="M17.68,33.15a10.56,10.56,0,0,1-7.83-3c-4.93-5-4.82-14.73-4.78-18.4v-.07h6.65a.67.67,0,0,0,.67-.67.68.68,0,0,0-.67-.68H4.4a.68.68,0,0,0-.67.68v.73c0,3.82-.15,14,5.17,19.36a11.9,11.9,0,0,0,8.79,3.43.69.69,0,0,0,.68-.68A.68.68,0,0,0,17.68,33.15Z"/><path class="cls-1" d="M61.06,48.54C69.69,43.35,81.51,36.24,81.51.67A.67.67,0,0,0,80.84,0H15.1a.68.68,0,0,0-.68.67c0,35.75,11.74,42.8,20.31,48,5.1,3.06,8.78,5.28,8.78,12.29-.2,11.21-4.73,15.78-15.63,15.78a.67.67,0,0,0-.67.67v7.3a.67.67,0,0,0,.67.68h26.8a.68.68,0,0,0,0-1.35H28.56V78c11.21-.2,16.09-5.34,16.3-17.1,0-7.8-4.37-10.43-9.43-13.47-8.24-5-19.51-11.73-19.65-46.12H80.16c-.14,34.22-11.5,41-19.8,46-5.12,3.08-9.54,5.74-9.54,13.56,0,11.6,5.11,16.9,16.56,17.1v6H61.1a.68.68,0,1,0,0,1.35h7a.67.67,0,0,0,.67-.68v-7.3a.67.67,0,0,0-.67-.67C56.92,76.7,52.17,72,52.17,60.94,52.17,53.88,55.9,51.64,61.06,48.54Z"/></g></g></svg>