<svg xmlns="http://www.w3.org/2000/svg" viewBox="0 0 80.91 83.35"><defs><style>.cls-1{fill:none;}.cls-2{fill:#012635;}</style></defs><title>icon-event</title><g id="Layer_2" data-name="Layer 2"><g id="navy_shapes" data-name="navy shapes"><path class="cls-1" d="M37.72,45.63V57.2H49.37V45.64C46.22,45.65,42.39,45.64,37.72,45.63Z"/><path class="cls-1" d="M24.21,57.2H36.37V45.63l-12.16,0Z"/><path class="cls-1" d="M50.72,44.29c6,0,10.69,0,12.28-.06V33.65a1.51,1.51,0,0,0-1.51-1.51H50.72Z"/><path class="cls-1" d="M37.72,44.27l11.65,0V32.14H37.64a.65.65,0,0,1,.08.31Z"/><rect class="cls-1" x="24.21" y="58.55" width="12.16" height="12.77"/><rect class="cls-1" x="55.08" y="1.35" width="9.57" height="11.75" rx="1.33"/><rect class="cls-1" x="9.97" y="1.35" width="9.57" height="11.75" rx="1.33"/><path class="cls-1" d="M22.86,58.55H11V69.81a1.52,1.52,0,0,0,1.51,1.51h10.4Z"/><path class="cls-1" d="M24.21,44.24l12.16,0V32.45a.65.65,0,0,1,.08-.31H24.21Z"/><path class="cls-1" d="M69.32,63.93l-4-8.12-4,8.12a.66.66,0,0,1-.5.37l-9,1.3,6.49,6.32a.66.66,0,0,1,.19.6L57,81.44l8-4.21a.71.71,0,0,1,.31-.08.72.72,0,0,1,.32.08l8,4.21-1.53-8.92a.67.67,0,0,1,.2-.6l6.48-6.32-9-1.3A.7.7,0,0,1,69.32,63.93Z"/><path class="cls-1" d="M22.86,32.14H12.46A1.51,1.51,0,0,0,11,33.65V44.2l11.91,0Z"/><path class="cls-1" d="M22.86,57.2V45.59L11,45.55V57.2Z"/><path class="cls-2" d="M80.88,64.92a.67.67,0,0,0-.54-.46L70.37,63l-4.45-9a.68.68,0,0,0-.61-.37.67.67,0,0,0-.6.37l-4.46,9-10,1.45a.67.67,0,0,0-.55.46.68.68,0,0,0,.17.69l7.21,7-1.7,9.92a.67.67,0,0,0,1,.71l8.91-4.68,8.91,4.68a.72.72,0,0,0,.32.08.61.61,0,0,0,.39-.13.66.66,0,0,0,.27-.66l-1.7-9.92,7.21-7A.68.68,0,0,0,80.88,64.92Zm-8.57,7a.67.67,0,0,0-.2.6l1.53,8.92-8-4.21a.72.72,0,0,0-.32-.08.71.71,0,0,0-.31.08l-8,4.21,1.53-8.92a.66.66,0,0,0-.19-.6L51.83,65.6l9-1.3a.66.66,0,0,0,.5-.37l4-8.12,4,8.12a.7.7,0,0,0,.51.37l9,1.3Z"/><path class="cls-2" d="M4.63,81.17H1.35V22H70.06a.68.68,0,1,0,0-1.35H1.35V7.45H8.62v4.33a2.68,2.68,0,0,0,2.68,2.67h6.92a2.68,2.68,0,0,0,2.67-2.67V7.44H53.73v4.33a2.68,2.68,0,0,0,2.67,2.67h6.92A2.68,2.68,0,0,0,66,11.78V7.45h7V19.37a.68.68,0,0,0,.68.67.67.67,0,0,0,.67-.67V6.78a.67.67,0,0,0-.67-.68H66V2.67A2.68,2.68,0,0,0,63.32,0H56.4a2.68,2.68,0,0,0-2.67,2.67V6.1H21l-.08,0V2.67A2.68,2.68,0,0,0,18.22,0H11.3A2.68,2.68,0,0,0,8.62,2.67V6.1H.67A.67.67,0,0,0,0,6.78V81.85a.67.67,0,0,0,.67.67h4a.68.68,0,1,0,0-1.35ZM55.08,2.67A1.32,1.32,0,0,1,56.4,1.35h6.92a1.33,1.33,0,0,1,1.33,1.32v9.11a1.33,1.33,0,0,1-1.33,1.32H56.4a1.32,1.32,0,0,1-1.32-1.32ZM10,2.67A1.33,1.33,0,0,1,11.3,1.35h6.92a1.32,1.32,0,0,1,1.32,1.32v9.11a1.32,1.32,0,0,1-1.32,1.32H11.3A1.33,1.33,0,0,1,10,11.78Z"/><path class="cls-2" d="M50.05,81.17H9.55a.68.68,0,0,0,0,1.35h40.5a.68.68,0,0,0,0-1.35Z"/><path class="cls-2" d="M73.72,23.73a.68.68,0,0,0-.68.68V57.87a.68.68,0,0,0,.68.68.67.67,0,0,0,.67-.68V24.41A.67.67,0,0,0,73.72,23.73Z"/><path class="cls-2" d="M12.46,72.67H23.2a.65.65,0,0,0,.34.1.64.64,0,0,0,.33-.1H37.05a.67.67,0,0,0,.67-.68V58.55H50.05a.67.67,0,0,0,.67-.68V45.64c13.14,0,13.26-.12,13.43-.29a.72.72,0,0,0,.2-.48V33.65a2.87,2.87,0,0,0-2.86-2.86h-49A2.86,2.86,0,0,0,9.6,33.65V57.47a.62.62,0,0,0,0,.81V69.81A2.86,2.86,0,0,0,12.46,72.67ZM11,69.81V58.55H22.86V71.32H12.46A1.52,1.52,0,0,1,11,69.81Zm25.42,1.51H24.21V58.55H36.37Zm0-14.12H24.21V45.6l12.16,0Zm13,0H37.72V45.63c4.67,0,8.5,0,11.65,0ZM63,33.65V44.23c-1.59,0-6.25.05-12.28.06V32.14H61.49A1.51,1.51,0,0,1,63,33.65ZM49.37,32.14V44.29l-11.65,0V32.45a.65.65,0,0,0-.08-.31Zm-13,.31V44.27l-12.16,0V32.14H36.45A.65.65,0,0,0,36.37,32.45ZM11,33.65a1.51,1.51,0,0,1,1.51-1.51h10.4v12.1L11,44.2ZM22.86,45.59V57.2H11V45.55Z"/></g></g></svg>