<svg xmlns="http://www.w3.org/2000/svg" viewBox="0 0 75.89 85.35"><defs><style>.cls-1{fill:#012635;}</style></defs><title>icon-cupcake</title><g id="Layer_2" data-name="Layer 2"><g id="navy_shapes" data-name="navy shapes"><path class="cls-1" d="M73.9,52.3H71.13c1.94-1.48,4.76-4.75,4.76-11.25,0-9.11-6.43-11.38-7.35-11.66a9.91,9.91,0,0,0,.72-2.7,8.66,8.66,0,0,0-1.92-6.57c-.82-1-3.29-4-6.84-4.06h-.13a7.19,7.19,0,0,0-3,.69s0-.06,0-.08C50.44,9,45.53,10.1,41.58,11a11.62,11.62,0,0,1-4,.47c-2.7-.34-4.47-1.3-5.25-2.87-1.53-3.06,1-7.54,1-7.58a.68.68,0,0,0-.85-1A82.16,82.16,0,0,0,20.26,6.52c-6.34,4.47-4,12.17-3.36,13.79-2.8.93-5.36,2.31-6.8,4.36A12.45,12.45,0,0,0,8.26,36.16,15.49,15.49,0,0,0,2.6,39.43c-4.23,4.48-1.36,10.66-.11,12.87H.68a.67.67,0,0,0-.54.26.68.68,0,0,0-.12.57L6,77.92c.07.73.82,7.43,5.59,7.43H63c4.77,0,5.52-6.7,5.59-7.43l6-24.79a.68.68,0,0,0-.13-.58A.66.66,0,0,0,73.9,52.3ZM3.58,40.35c3.87-4.1,19-6.43,24-7.2,2.09-.32,2.09-.32,2.19-.81a.66.66,0,0,0-.3-.71.67.67,0,0,0-.64-.05c-.21,0-.82.14-1.46.23A114.85,114.85,0,0,0,9.54,35.7a11.06,11.06,0,0,1,1.67-10.25c3.95-5.64,18.29-5.71,18.44-5.71a.68.68,0,0,0,0-1.35A48.14,48.14,0,0,0,18.2,19.91c-.44-1.12-2.88-8.26,2.84-12.29A72.24,72.24,0,0,1,31.38,2c-.71,1.81-1.47,4.75-.26,7.17,1,2,3.12,3.21,6.29,3.61a12.73,12.73,0,0,0,4.47-.49c3.76-.85,8-1.81,14.3,5.1a15.13,15.13,0,0,0-3.07,2.69c-4.21,4.73-17.17,9.65-17.3,9.7a.67.67,0,1,0,.47,1.26c.55-.2,13.4-5.08,17.84-10.06,2.12-2.38,4.23-3.59,6.25-3.59h.1c2.93.06,5,2.61,5.83,3.57a7.33,7.33,0,0,1,1.62,5.56c-.32,2.81-2.16,5.57-5.31,8a.67.67,0,0,0-.12.94.65.65,0,0,0,.54.27.67.67,0,0,0,.4-.14,16.67,16.67,0,0,0,4.53-5l.15.07c.07,0,6.43,1.67,6.43,10.38S69.1,52,68.87,52.1a.6.6,0,0,0-.27.2H33.84A127.18,127.18,0,0,0,58.15,40.14.67.67,0,0,0,57.4,39C48.46,45,39,48.85,30.13,52.3H4.07C3.72,51.75-.65,44.83,3.58,40.35Zm63.67,37.3s0,.07,0,.1S66.68,84,63,84H11.61c-3.7,0-4.24-6.19-4.25-6.25a.36.36,0,0,0,0-.1l-5.81-24H13.86l4.6,23.56a.67.67,0,0,0,.66.54h.13a.68.68,0,0,0,.54-.79l-4.56-23.3H29.4l1.62,24a.68.68,0,0,0,.67.63h0a.69.69,0,0,0,.63-.72L30.76,53.65H43.84L42.23,77.58a.67.67,0,0,0,.62.72h0a.68.68,0,0,0,.67-.63l1.62-24H59.36L54.81,77a.68.68,0,0,0,.53.79h.13a.67.67,0,0,0,.66-.54l4.61-23.56H73.05Z"/></g></g></svg>