<svg xmlns="http://www.w3.org/2000/svg" viewBox="0 0 91.35 87.47"><defs><style>.cls-1{fill:#012635;}</style></defs><title>icon-certified</title><g id="Layer_2" data-name="Layer 2"><g id="navy_shapes" data-name="navy shapes"><path class="cls-1" d="M91.35,67.34v0h0a.6.6,0,0,0-.06-.27l0-.06a.52.52,0,0,0-.13-.17h0l-9.68-8.19v-29a6.33,6.33,0,0,0-6.32-6.33H6.32A6.34,6.34,0,0,0,0,29.58V73a6.33,6.33,0,0,0,6.32,6.32H57.49l9.57,8,0,0,.14.08,0,0a.76.76,0,0,0,.21,0,.66.66,0,0,0,.21,0l.06,0,.14-.08,0,0L91.11,67.84l0,0a.76.76,0,0,0,.11-.14s0,0,.05-.08A.92.92,0,0,0,91.35,67.34ZM46.17,68H58L65.6,84.32Zm8-8.12,3.2,6.77H46.16Zm4.48,6.31-3.18-6.72H65.79Zm8.85-6.46,7.37,6.92H60.13Zm8,8.27-8,17.2-8-17.2ZM69.2,59.47H79.53l-3.18,6.72Zm6.18-1.35H54.29l-.16,0h0s0,0-.06,0l-.08.05L43.88,66.81h0a.66.66,0,0,0-.12.17l0,.06a.6.6,0,0,0-.06.27h0v0a.66.66,0,0,0,.06.25.35.35,0,0,0,0,.08.76.76,0,0,0,.11.14l0,0,6.45,5.42H13.64A9.92,9.92,0,0,0,6.05,65.8V38a9.74,9.74,0,0,0,7.73-8.71H67.66A9.72,9.72,0,0,0,75.38,38ZM77,68H88.82L69.39,84.32Zm.63-1.35,3.2-6.77,8,6.77ZM6.32,77.93a5,5,0,0,1-5-5V29.58a5,5,0,0,1,5-5H75.11a5,5,0,0,1,5,5V58.12H76.73V37.4a.67.67,0,0,0-.62-.67A8.34,8.34,0,0,1,69,29c0-.09,0-.17,0-.25v-.15a.67.67,0,0,0-.67-.71H13.09a.64.64,0,0,0-.49.21.67.67,0,0,0-.19.5v.14a2.17,2.17,0,0,1,0,.26,8.33,8.33,0,0,1-7.11,7.69.67.67,0,0,0-.62.67v29a.67.67,0,0,0,.62.67A8.45,8.45,0,0,1,12.39,74a.68.68,0,0,0,.67.61h38.3a.62.62,0,0,0,.4-.15l4.13,3.47Z"/><path class="cls-1" d="M9.87,14.06c3.9,0,4.21.32,4.21,4.21a.68.68,0,1,0,1.35,0c0-3.89.32-4.21,4.21-4.21a.68.68,0,1,0,0-1.35c-3.89,0-4.21-.32-4.21-4.21a.68.68,0,1,0-1.35,0c0,3.89-.31,4.21-4.21,4.21a.68.68,0,1,0,0,1.35Zm4.89-1.52a2.41,2.41,0,0,0,.84.84,2.53,2.53,0,0,0-.84.85,2.65,2.65,0,0,0-.85-.85A2.53,2.53,0,0,0,14.76,12.54Z"/><path class="cls-1" d="M51.1,14.06c3.9,0,4.21.32,4.21,4.21a.68.68,0,1,0,1.35,0c0-3.89.32-4.21,4.21-4.21a.68.68,0,1,0,0-1.35c-3.89,0-4.21-.32-4.21-4.21a.68.68,0,1,0-1.35,0c0,3.89-.31,4.21-4.21,4.21a.68.68,0,1,0,0,1.35ZM56,12.54a2.41,2.41,0,0,0,.84.84,2.53,2.53,0,0,0-.84.85,2.65,2.65,0,0,0-.85-.85A2.53,2.53,0,0,0,56,12.54Z"/><path class="cls-1" d="M37.92,3.93h1.91V5.84a.68.68,0,1,0,1.35,0V3.93h1.91a.67.67,0,0,0,.67-.67.68.68,0,0,0-.67-.68H41.18V.67a.68.68,0,0,0-1.35,0V2.58H37.92a.69.69,0,0,0-.68.68A.68.68,0,0,0,37.92,3.93Z"/><path class="cls-1" d="M65,38.38H56.87a.68.68,0,0,0,0,1.35H65a.68.68,0,0,0,0-1.35Z"/><path class="cls-1" d="M15.48,39.73H53.59a.68.68,0,1,0,0-1.35H15.48a.68.68,0,1,0,0,1.35Z"/><path class="cls-1" d="M23.64,61.07H15.48a.67.67,0,0,0-.68.67.68.68,0,0,0,.68.68h8.16a.68.68,0,0,0,.68-.68A.67.67,0,0,0,23.64,61.07Z"/><path class="cls-1" d="M44.24,61.07H26.92a.67.67,0,0,0-.67.67.68.68,0,0,0,.67.68H44.24a.68.68,0,0,0,.67-.68A.67.67,0,0,0,44.24,61.07Z"/><path class="cls-1" d="M44.24,53.5H15.48a.68.68,0,1,0,0,1.35H44.24a.68.68,0,0,0,0-1.35Z"/><path class="cls-1" d="M65,45.94H15.48a.68.68,0,1,0,0,1.35H65a.68.68,0,0,0,0-1.35Z"/></g></g></svg>