<svg xmlns="http://www.w3.org/2000/svg" viewBox="0 0 80.68 79.27"><title>strategy</title><g id="Layer_2" data-name="Layer 2"><g id="black_shapes" data-name="black shapes"><path d="M66.93,33.8a.67.67,0,0,0-.44.84A33.32,33.32,0,1,1,45.2,13a.68.68,0,0,0,.86-.42.69.69,0,0,0-.43-.86A34.62,34.62,0,1,0,67.78,34.24.68.68,0,0,0,66.93,33.8Z"/><path d="M34.67,33.93a10.6,10.6,0,0,1,2.46.3.68.68,0,0,0,.31-1.32,12.17,12.17,0,0,0-2.77-.33,12,12,0,1,0,12,12,11.48,11.48,0,0,0-.23-2.32.67.67,0,0,0-.79-.53.67.67,0,0,0-.53.79,11.14,11.14,0,0,1,.2,2.06A10.66,10.66,0,1,1,34.67,33.93Z"/><path d="M42.48,23.3a.68.68,0,0,0-.43-.85,23.1,23.1,0,0,0-7.38-1.2A23.32,23.32,0,1,0,57,37.62a.68.68,0,0,0-1.29.41,22,22,0,1,1-14.05-14.3A.69.69,0,0,0,42.48,23.3Z"/><path d="M34.21,43.4a.67.67,0,0,0,.46,1.16.66.66,0,0,0,.47-.19l16.4-15.72a2.66,2.66,0,0,0,1,.86h0c.05,0,3.72.17,7.36.17,3.31,0,6.6-.13,7.1-.59.14-.13,13.63-13.46,13.64-15.22,0-2-1.1-2.42-3.78-2.71-1.37-.14-3.17-.21-4.75-.27-1,0-2.28-.08-2.88-.14,0-.41.07-1.13.12-1.73a28.39,28.39,0,0,0,.14-5.23C69.25,1.12,68.81,0,66.85,0h0C65.07,0,51.75,13.52,51.62,13.66c-.85.93-.58,10.22-.43,13.46ZM76.76,12.51c2.58.27,2.58.57,2.58,1.26C78.88,15.19,67.77,26.55,66.19,28c-1.29.43-11.81.3-13.2.17a2.22,2.22,0,0,1-.47-.49L68.86,12.05a32.3,32.3,0,0,0,3.24.19C73.66,12.3,75.43,12.37,76.76,12.51Zm-24.09,2c1.49-1.58,12.84-12.7,14.16-13.16.78,0,1.09,0,1.36,2.58a28.45,28.45,0,0,1-.14,5,16.06,16.06,0,0,0-.12,2.17L52.4,26C52.31,22.57,52.31,15.56,52.67,14.51Z"/></g></g></svg>