<svg xmlns="http://www.w3.org/2000/svg" viewBox="0 0 82.25 54.35"><title>support</title><g id="Layer_2" data-name="Layer 2"><g id="black_shapes" data-name="black shapes"><path d="M20.48,5.56A11.58,11.58,0,0,0,28.15,5c3.71-1.55,5.18-1,6.6-.57l.64.21c1.74.52,19.32,6.46,19.46,6.51s.25.12.28.19.15.66-.65,2.13c-1.1,2-2.88,2.44-6.14,1.38-1-.31-2.16-.73-3.34-1.14-5.15-1.82-5.64-2-6-1.15a.49.49,0,0,0,0,.11,12.1,12.1,0,0,1-5.22,6.41c-3.93,2.15-6.84,1.62-11.17.49a.68.68,0,0,0-.34,1.31,24.81,24.81,0,0,0,6.12,1,12.1,12.1,0,0,0,6-1.64,13.14,13.14,0,0,0,5.69-6.75c.86.22,2.88.93,4.42,1.47,1.2.42,2.4.84,3.37,1.16,2.43.78,5.88,1.43,7.75-2,.79-1.46,1-2.49.72-3.26a1.72,1.72,0,0,0-1.09-1c-.14,0-17.78-6-19.52-6.52l-.59-.2c-1.59-.54-3.38-1.14-7.56.6A10,10,0,0,1,20.19,4l-.12,0a3.4,3.4,0,0,0-1.88-1.62L12,.19A3.45,3.45,0,0,0,7.58,2.3L.2,23.26a3.36,3.36,0,0,0,.14,2.62,3.4,3.4,0,0,0,2,1.76l6.22,2.19a3.51,3.51,0,0,0,1.14.2,3.46,3.46,0,0,0,3.25-2.3l7.38-21A3.56,3.56,0,0,0,20.48,5.56ZM19,6.32l-7.39,21A2.09,2.09,0,0,1,9,28.56L2.75,26.37A2.09,2.09,0,0,1,1.56,25.3a2,2,0,0,1-.09-1.59l7.38-21a2.09,2.09,0,0,1,2.66-1.27l6.23,2.19A2.09,2.09,0,0,1,19,6.32Z"/><path d="M81.91,23.51l-9.6-20a3.44,3.44,0,0,0-4.58-1.61l-6,2.84a3.45,3.45,0,0,0-1.75,2,3.38,3.38,0,0,0,.14,2.63l9.59,20A3.35,3.35,0,0,0,71,30.7c-.57.76-2.41,2.75-7.93,6.18-7.36,4.58-16.78,9.78-16.88,9.83l-10.9,6a2,2,0,0,1-1.58.16,2.11,2.11,0,0,1-1.27-1.09l-.52-1a2.28,2.28,0,0,1,.9-3l10-5.74a.68.68,0,0,0,.25-.92.67.67,0,0,0-.92-.25l-.24.13a.48.48,0,0,0-.17,0L27.2,48.61a2.32,2.32,0,0,1-3.06-.89l-.54-1a1.93,1.93,0,0,1,.11-2.09L37,37.41l2.07-1.09a.68.68,0,0,0,.29-.91.67.67,0,0,0-.91-.28l-2.07,1.08h0L23.93,42.69a3.53,3.53,0,0,0-1.14.92l-1.63.89a2,2,0,0,1-2.63-.8l-.48-.9a1.83,1.83,0,0,1-.14-1.43,1.88,1.88,0,0,1,1-1.13L30.2,34.16h0l3.68-2A.68.68,0,0,0,33.25,31l-3.66,2-9.43,4.61a2.11,2.11,0,0,1-1.65.15,2.15,2.15,0,0,1-1.29-1.07l-.53-1a2.2,2.2,0,0,1,.92-3L26.34,28a.69.69,0,0,0,.28-.92.68.68,0,0,0-.91-.28L17,31.47a3.57,3.57,0,0,0-1.47,4.79l.53,1A3.45,3.45,0,0,0,18.11,39l.14,0h0A3.21,3.21,0,0,0,16.62,41a3.17,3.17,0,0,0,.24,2.47l.48.9a3.29,3.29,0,0,0,2.91,1.72,3.39,3.39,0,0,0,1.54-.37l.23-.12a3.31,3.31,0,0,0,.4,1.82l.54,1a3.64,3.64,0,0,0,3.19,1.84,3.73,3.73,0,0,0,1.67-.4l2.76-1.44a3.66,3.66,0,0,0,.11,3.05l.51,1a3.44,3.44,0,0,0,3.09,1.92,3.34,3.34,0,0,0,1.62-.42l10.91-6c.09,0,9.54-5.27,16.94-9.86,6.12-3.81,8-6,8.49-6.81a4.2,4.2,0,0,0,.61.06,3.4,3.4,0,0,0,1.48-.34l6-2.85a3.43,3.43,0,0,0,1.62-4.58Zm-2.2,3.36-5.95,2.85a2.09,2.09,0,0,1-2.79-1l-9.6-20a2.09,2.09,0,0,1,1-2.78l6-2.85A2.11,2.11,0,0,1,69.91,3,2.12,2.12,0,0,1,71.1,4.05l9.59,20A2.08,2.08,0,0,1,79.71,26.87Z"/></g></g></svg>