<?xml version="1.0" encoding="utf-8"?>
<!-- Generator: Adobe Illustrator 22.1.0, SVG Export Plug-In . SVG Version: 6.00 Build 0)  -->
<svg version="1.1" id="Layer_1" xmlns="http://www.w3.org/2000/svg" xmlns:xlink="http://www.w3.org/1999/xlink" x="0px" y="0px"
	 viewBox="0 0 100 100" style="enable-background:new 0 0 100 100;" xml:space="preserve">
<title>computer</title>
<g id="Layer_2_1_">
	<g id="black_shapes">
		<path d="M90.2,4.7H9.8C5.8,4.7,2.5,8,2.5,12v60.5c0,4.1,3.3,7.3,7.3,7.3h27.7c-0.1,3-0.7,5.9-1.8,8.7c-2.2,5-8.3,5.3-8.4,5.3
			c-0.4,0.1-0.7,0.4-0.7,0.8c0,0.3,0.3,0.6,0.7,0.7h45.2c0.4,0,0.7-0.3,0.7-0.7c0-0.4-0.3-0.7-0.7-0.8c0,0,0,0,0,0
			c-0.1,0-6.2-0.3-8.4-5.3c-1.1-2.8-1.7-5.7-1.8-8.7h27.7c4.1,0,7.3-3.3,7.3-7.3l0,0V12C97.5,8,94.2,4.7,90.2,4.7z M62.9,89.1
			c0.9,2,2.4,3.7,4.4,4.7H32.7c2-1,3.5-2.7,4.4-4.7c1.2-2.9,1.9-6.1,2-9.3H61C61,83.1,61.7,86.2,62.9,89.1z M96,72.5
			c0,3.2-2.6,5.9-5.9,5.9l0,0H9.8c-3.2,0-5.9-2.6-5.9-5.9V12c0-3.2,2.6-5.8,5.9-5.9h80.3c3.2,0,5.9,2.6,5.9,5.9V72.5z"/>
		<path d="M85.8,13.5H15.3c-3.4,0-6.2,2.8-6.2,6.2v41.8c0,3.4,2.8,6.2,6.2,6.2h70.4c3.4,0,6.2-2.8,6.2-6.2V19.7
			C92,16.3,89.2,13.5,85.8,13.5z M90.5,61.5c0,2.6-2.1,4.8-4.8,4.8l0,0H15.3c-2.6,0-4.8-2.1-4.8-4.8V19.7c0-2.6,2.1-4.7,4.8-4.8
			h70.4c2.6,0,4.8,2.1,4.8,4.8V61.5z"/>
		<path d="M50,71.1c-0.8,0-1.5,0.7-1.5,1.5c0,0.8,0.7,1.5,1.5,1.5c0.8,0,1.5-0.7,1.5-1.5l0,0C51.5,71.8,50.9,71.1,50,71.1
			C50,71.1,50,71.1,50,71.1z"/>
		<path d="M85.8,19c-0.4,0-0.7,0.3-0.7,0.7v5.5c-0.1,0.4,0.2,0.8,0.7,0.8c0.4,0.1,0.8-0.2,0.8-0.7c0-0.1,0-0.1,0-0.2v-5.5
			C86.5,19.3,86.2,19,85.8,19C85.8,19,85.8,19,85.8,19z"/>
		<path d="M85.8,30c-0.4,0-0.7,0.3-0.7,0.7v12.1c-0.1,0.4,0.2,0.8,0.7,0.8c0.4,0.1,0.8-0.2,0.8-0.7c0-0.1,0-0.1,0-0.2V30.8
			C86.5,30.3,86.2,30,85.8,30L85.8,30z"/>
	</g>
</g>
</svg>
