<svg xmlns="http://www.w3.org/2000/svg" viewBox="0 0 85.35 76.58"><defs><style>.cls-1{fill:#012635;}</style></defs><title>icon-developer</title><g id="Layer_2" data-name="Layer 2"><g id="navy_shapes" data-name="navy shapes"><path class="cls-1" d="M14.64,66.79a.68.68,0,0,1,.86-.42l.46.15V47.59h-.68a.67.67,0,0,1-.67-.67V71.81H1.35V43.94H14.61v3a.67.67,0,0,1,.67-.67H16v-3a.67.67,0,0,0-.68-.68H.67a.67.67,0,0,0-.67.68V72.49a.67.67,0,0,0,.67.67H15.28a.67.67,0,0,0,.68-.67V68l-.89-.3A.69.69,0,0,1,14.64,66.79Z"/><path class="cls-1" d="M85.15,57.4c-4-4-7.26-5.07-11.65-3.82l-14.9,5A4,4,0,0,1,58,60.16L73.9,54.87c3.62-1,6.3-.27,9.62,2.83-7.76,3.89-13.66,7.07-18.43,9.64-18.41,9.91-18.41,9.91-37.55,3.17-3.31-1.16-7.06-2.48-11.58-4l-.46-.15a.68.68,0,0,0-.86.42.69.69,0,0,0,.43.86L16,68c4.32,1.44,7.93,2.71,11.13,3.84,8.81,3.09,13.71,4.79,18.17,4.79,5.42,0,10.17-2.51,20.47-8,4.94-2.66,11.09-6,19.25-10.05a.67.67,0,0,0,.36-.49A.64.64,0,0,0,85.15,57.4Z"/><path class="cls-1" d="M14.61,46.92a.67.67,0,0,0,.67.67h11c8,0,13.82,5,16,7.11a.65.65,0,0,0,.47.2h11c2.54,0,3.69,1.54,3.69,3s-1.15,3-3.69,3H33.54a.68.68,0,0,0-.67.68.67.67,0,0,0,.67.67H53.63a5,5,0,0,0,4.33-2,4,4,0,0,0,.64-1.63,3.69,3.69,0,0,0,.07-.65c0-2.15-1.73-4.33-5-4.33H43c-2.4-2.35-8.46-7.3-16.71-7.3h-11A.67.67,0,0,0,14.61,46.92Z"/><path class="cls-1" d="M29,25.26l5.23,9.07a.68.68,0,0,0,.92.25l3.43-2a17.38,17.38,0,0,0,4.38,2.5v3.94a.67.67,0,0,0,.67.68H54.08a.67.67,0,0,0,.67-.68V35.11a16.79,16.79,0,0,0,4.33-2.5l3.4,2a.61.61,0,0,0,.51.07.67.67,0,0,0,.41-.31l5.23-9.07a.68.68,0,0,0-.25-.92l-3.41-2a15.91,15.91,0,0,0,0-5l3.4-2a.66.66,0,0,0,.25-.92L63.39,5.4A.67.67,0,0,0,63,5.09a.72.72,0,0,0-.52.06l-3.38,2a17.11,17.11,0,0,0-4.33-2.51V.67A.67.67,0,0,0,54.08,0H43.61a.67.67,0,0,0-.67.67V4.61a17.82,17.82,0,0,0-4.38,2.51l-3.41-2a.68.68,0,0,0-.92.25L29,14.46a.67.67,0,0,0,.24.92l3.4,2a15.17,15.17,0,0,0,0,5l-3.4,2A.67.67,0,0,0,29,25.26Zm4.73-2A.68.68,0,0,0,34,22.6a14.61,14.61,0,0,1-.27-2.74A14.94,14.94,0,0,1,34,17.12a.67.67,0,0,0-.33-.7l-3.22-1.87,4.57-7.89,3.23,1.86a.66.66,0,0,0,.78-.07,16.38,16.38,0,0,1,4.78-2.74.68.68,0,0,0,.44-.63V1.35h9.12V5.08a.67.67,0,0,0,.43.63,15.83,15.83,0,0,1,4.74,2.74.66.66,0,0,0,.78.07l3.2-1.86,4.55,7.89-3.22,1.87a.67.67,0,0,0-.33.7,14.73,14.73,0,0,1,.26,2.74,15.26,15.26,0,0,1-.25,2.74.66.66,0,0,0,.32.71l3.23,1.86-4.55,7.9-3.22-1.86a.65.65,0,0,0-.77.07A16,16,0,0,1,53.84,34a.67.67,0,0,0-.43.63v3.73H44.29V34.65a.68.68,0,0,0-.44-.63,16.25,16.25,0,0,1-4.78-2.74.66.66,0,0,0-.77-.07l-3.25,1.86-4.56-7.9Z"/><path class="cls-1" d="M48.8,27.52a7.66,7.66,0,1,0-7.65-7.66A7.66,7.66,0,0,0,48.8,27.52Zm0-14a6.31,6.31,0,1,1-6.3,6.3A6.31,6.31,0,0,1,48.8,13.56Z"/></g></g></svg>