<?xml version="1.0" encoding="utf-8"?>
<!-- Generator: Adobe Illustrator 23.0.2, SVG Export Plug-In . SVG Version: 6.00 Build 0)  -->
<svg version="1.1" id="Layer_1" xmlns="http://www.w3.org/2000/svg" xmlns:xlink="http://www.w3.org/1999/xlink" x="0px" y="0px"
	 viewBox="0 0 85.3 76.6" style="enable-background:new 0 0 85.3 76.6;" xml:space="preserve">
<style type="text/css">
	.st0{fill:#012635;}
</style>
<title>icon-strategist</title>
<g>
	<path class="st0" d="M84.7,57.2c-4-4-7.2-5-11.6-3.8l-14.8,4.9c0-0.2,0.1-0.4,0.1-0.6c0-2.1-1.7-4.3-5-4.3H42.9
		c-2.4-2.3-8.4-7.2-16.6-7.2H16.1v-3c0-0.4-0.3-0.7-0.7-0.7H0.9c-0.4,0-0.7,0.3-0.7,0.7v29c0,0.4,0.3,0.7,0.7,0.7h14.5
		c0.4,0,0.7-0.3,0.7-0.7v-4.5c4.3,1.4,7.9,2.7,11,3.8c8.7,3.1,13.6,4.8,18,4.8c5.4,0,10.1-2.5,20.3-8c4.9-2.6,11-5.9,19.1-10
		c0.2-0.1,0.3-0.3,0.4-0.5C85,57.5,84.9,57.3,84.7,57.2z M14.7,71.5H1.6V43.8h13.2V71.5z M64.8,67c-18.3,9.8-18.3,9.8-37.3,3.2
		c-3.3-1.2-7-2.5-11.5-4V47.4h10.2c7.9,0,13.7,4.9,15.8,7.1c0.1,0.1,0.3,0.2,0.5,0.2h10.9c2.5,0,3.7,1.5,3.7,3c0,1.4-1.1,3-3.7,3
		H33.5c-0.4,0-0.7,0.3-0.7,0.7c0,0.4,0.3,0.7,0.7,0.7h19.9c2.1,0,3.5-0.9,4.3-2l15.8-5.2c3.6-1,6.2-0.3,9.5,2.8
		C75.4,61.3,69.6,64.5,64.8,67z"/>
	<path class="st0" d="M25.4,10.6c0,0,0,0.1,0.1,0.1c1.3,2.3,3.1,4.6,5.5,5.2c0.4,0.1,0.8,0.1,1.1,0.1c1.4,0,2.8-0.6,4.2-1.9l2.9,2.9
		c-2.8,3-4.5,7-4.5,11.4c0,9.3,7.6,16.8,16.8,16.8s16.8-7.6,16.8-16.8c0-9.3-7.6-16.8-16.8-16.8c-4.4,0-8.4,1.7-11.4,4.5l-2.9-2.9
		c1.6-1.8,2.2-3.6,1.7-5.3c-1.2-4.8-9.7-7.6-10.1-7.7c-0.2-0.1-0.4,0-0.6,0.1C28.1,0.5,28,0.7,28,0.9V5H24c-0.2,0-0.4,0.1-0.5,0.3
		c-0.1,0.2-0.2,0.4-0.1,0.6C23.4,6,24.1,8.3,25.4,10.6z M31.3,14.6c-1.6-0.4-3-1.9-4.1-3.5h6l2.2,2.2C34,14.5,32.6,14.9,31.3,14.6z
		 M51.6,13c8.6,0,15.5,7,15.5,15.5S60.1,44,51.6,44S36,37,36,28.5c0-4,1.6-7.7,4.1-10.5l3.1,3.1c-1.7,2-2.8,4.5-2.8,7.4
		c0,6.1,5,11.1,11.1,11.1s11.1-5,11.1-11.1s-5-11.1-11.1-11.1c-2.8,0-5.4,1.1-7.4,2.8l-3.1-3.1C43.8,14.5,47.5,13,51.6,13z
		 M47.3,25.2c-0.7,0.9-1.2,2.1-1.2,3.3c0,3,2.4,5.4,5.4,5.4c3,0,5.4-2.4,5.4-5.4c0-3-2.4-5.4-5.4-5.4c-1.3,0-2.4,0.4-3.3,1.2
		l-3.1-3.1c1.7-1.5,4-2.4,6.4-2.4c5.4,0,9.8,4.4,9.8,9.8s-4.4,9.8-9.8,9.8s-9.8-4.4-9.8-9.8c0-2.5,0.9-4.7,2.4-6.4L47.3,25.2z
		 M50,27.9c-0.1,0.2-0.1,0.4-0.1,0.6c0,0.9,0.7,1.6,1.6,1.6c0.9,0,1.6-0.7,1.6-1.6c0-0.9-0.7-1.6-1.6-1.6c-0.2,0-0.4,0-0.6,0.1
		l-1.8-1.8c0.7-0.5,1.5-0.8,2.4-0.8c2.3,0,4.1,1.8,4.1,4.1s-1.8,4.1-4.1,4.1c-2.3,0-4.1-1.8-4.1-4.1c0-0.9,0.3-1.7,0.8-2.4L50,27.9z
		 M37.7,8.2c0.3,1.3-0.1,2.7-1.4,4.1l-6.9-6.9V1.8C31.5,2.6,36.9,4.9,37.7,8.2z M28.4,6.3l3.4,3.4h-5.4c-0.7-1.3-1.2-2.6-1.5-3.4
		H28.4z"/>
</g>
</svg>
