<svg xmlns="http://www.w3.org/2000/svg" viewBox="0 0 85.35 74.53"><defs><style>.cls-1{fill:#012635;}</style></defs><title>icon-project-manager</title><g id="Layer_2" data-name="Layer 2"><g id="navy_shapes" data-name="navy shapes"><path class="cls-1" d="M85.15,55.35c-4-4-7.26-5.07-11.64-3.81L58.6,56.48a3.59,3.59,0,0,0,.07-.65c0-2.15-1.73-4.33-5-4.33H43c-2.4-2.35-8.46-7.3-16.71-7.3H16v-3a.67.67,0,0,0-.68-.67H.67a.67.67,0,0,0-.67.67V70.44a.67.67,0,0,0,.67.67H15.28a.67.67,0,0,0,.68-.67V65.9c4.32,1.45,7.93,2.72,11.13,3.84,8.81,3.1,13.71,4.79,18.17,4.79,5.42,0,10.17-2.51,20.47-8,4.94-2.66,11.09-6,19.25-10.05a.67.67,0,0,0,.17-1.08ZM14.61,69.76H1.35V41.9H14.61Zm50.48-4.47C46.68,75.2,46.68,75.2,27.54,68.47,24.23,67.3,20.48,66,16,64.47V45.55H26.24c8,0,13.82,5,16,7.1a.65.65,0,0,0,.47.2h11c2.54,0,3.69,1.55,3.69,3s-1.15,3-3.69,3H33.54a.67.67,0,0,0-.67.67.68.68,0,0,0,.67.68H53.63a5,5,0,0,0,4.33-2L73.9,52.83c3.62-1,6.3-.28,9.62,2.82C75.76,59.55,69.87,62.72,65.09,65.29Z"/><path class="cls-1" d="M33.31,21.05c0,.05.08.07.12.11a.34.34,0,0,0,.06.06.61.61,0,0,0,.14.07l.13,0,.07,0h.08s0,0,.05,0a.28.28,0,0,0,.13,0l.07,0a.64.64,0,0,0,.27-.22l6.31-7.21a.67.67,0,1,0-1-.89L34.43,19A16.93,16.93,0,0,1,50.53,1.36a16.6,16.6,0,0,1,17.2,16,16.6,16.6,0,0,1-16,17.19.68.68,0,0,0,0,1.35h0A18,18,0,0,0,69.08,17.29,18,18,0,0,0,50.48,0a18.25,18.25,0,0,0-17.4,18.26L29,12.12a.68.68,0,0,0-.94-.19.69.69,0,0,0-.19.94Z"/><path class="cls-1" d="M51.14,8.17a.67.67,0,0,0-.67.67v10a.67.67,0,0,0,.67.68h9.09a.68.68,0,1,0,0-1.35H51.82V8.84A.67.67,0,0,0,51.14,8.17Z"/></g></g></svg>