<svg xmlns="http://www.w3.org/2000/svg" viewBox="0 0 85.35 75.94"><defs><style>.cls-1{fill:#012635;}</style></defs><title>icon-designer</title><g id="Layer_2" data-name="Layer 2"><g id="navy_shapes" data-name="navy shapes"><path class="cls-1" d="M85.15,56.76c-4-4-7.26-5.07-11.65-3.82l-14.9,5a3.69,3.69,0,0,0,.07-.65c0-2.15-1.73-4.33-5-4.33H43c-2.4-2.35-8.46-7.31-16.71-7.31H16v-3a.67.67,0,0,0-.68-.68H.67a.67.67,0,0,0-.67.68V71.84a.67.67,0,0,0,.67.68H15.28a.67.67,0,0,0,.68-.68V67.3c4.32,1.45,7.93,2.72,11.13,3.85,8.81,3.09,13.71,4.79,18.17,4.79,5.42,0,10.17-2.51,20.47-8,4.94-2.66,11.09-6,19.25-10a.67.67,0,0,0,.36-.5A.63.63,0,0,0,85.15,56.76ZM14.61,71.17H1.35V43.3H14.61ZM65.09,66.7c-18.41,9.91-18.41,9.91-37.55,3.17-3.31-1.16-7.06-2.48-11.58-4V47H26.24c8,0,13.82,5,16,7.11a.65.65,0,0,0,.47.2h11c2.54,0,3.69,1.54,3.69,3s-1.15,3-3.69,3H33.54a.68.68,0,0,0-.67.68.67.67,0,0,0,.67.67H53.63a5,5,0,0,0,4.33-2L73.9,54.23c3.62-1,6.3-.27,9.62,2.83C75.76,61,69.86,64.13,65.09,66.7Z"/><path class="cls-1" d="M38.18,36.67a4.18,4.18,0,0,0,3-7.12,1.08,1.08,0,0,1-.31-.76,1.06,1.06,0,0,1,1.07-1.07h0a1.1,1.1,0,0,1,.76.31l7.41,7.41a10.26,10.26,0,0,0,14.54,0,20.77,20.77,0,1,0-29.37,0A4.15,4.15,0,0,0,38.18,36.67ZM36.19,7A19.42,19.42,0,0,1,63.65,34.49a8.93,8.93,0,0,1-12.64,0L43.6,27.08a2.39,2.39,0,0,0-1.71-.71h0a2.42,2.42,0,0,0-1.71,4.13,2.84,2.84,0,0,1,0,4,2.88,2.88,0,0,1-4,0A19.44,19.44,0,0,1,36.19,7Z"/><path class="cls-1" d="M57.33,15.41h0a3.33,3.33,0,0,0,2.33-1,3.28,3.28,0,0,0,0-4.66,3.33,3.33,0,0,0-2.33-1h0a3.3,3.3,0,0,0,0,6.6ZM56,10.74a1.91,1.91,0,0,1,1.37-.58h0a2,2,0,0,1,1.38.58,1.93,1.93,0,0,1,0,2.74h0a2,2,0,0,1-1.38.57h0a2,2,0,0,1-1.95-2A1.91,1.91,0,0,1,56,10.74Z"/><path class="cls-1" d="M60.44,22.47a2.42,2.42,0,1,0,0-3.43A2.42,2.42,0,0,0,60.44,22.47Zm1-2.47a1.09,1.09,0,0,1,1.52,0,1.06,1.06,0,0,1,0,1.51,1.07,1.07,0,0,1-1.52,0A1.06,1.06,0,0,1,61.39,20Z"/><path class="cls-1" d="M57.33,33.57a4.16,4.16,0,1,0-2.95-1.21A4.15,4.15,0,0,0,57.33,33.57Zm-2-6.16a2.82,2.82,0,0,1,4.81,2,2.77,2.77,0,0,1-.83,2,2.89,2.89,0,0,1-4,0A2.82,2.82,0,0,1,55.34,27.41Z"/><path class="cls-1" d="M46.83,13.55h0a3.3,3.3,0,1,0,0-6.59h0a3.27,3.27,0,0,0-2.33,1,3.32,3.32,0,0,0-1,2.34,3.31,3.31,0,0,0,3.3,3.29ZM45.46,8.88a1.93,1.93,0,0,1,2.74,0h0a1.92,1.92,0,0,1,0,2.75,1.9,1.9,0,0,1-1.37.57,1.94,1.94,0,0,1-1.38-.57,2,2,0,0,1-.57-1.37A2,2,0,0,1,45.46,8.88Z"/></g></g></svg>