<?xml version="1.0" encoding="utf-8"?>
<!-- Generator: Adobe Illustrator 22.1.0, SVG Export Plug-In . SVG Version: 6.00 Build 0)  -->
<svg version="1.1" id="Layer_1" xmlns="http://www.w3.org/2000/svg" xmlns:xlink="http://www.w3.org/1999/xlink" x="0px" y="0px"
	 viewBox="0 0 100 100" style="enable-background:new 0 0 100 100;" xml:space="preserve">
<title>location</title>
<g id="Layer_2_1_">
	<g id="black_shapes">
		<path d="M95.4,37.3L95.4,37.3c0-0.1,0-0.1,0-0.2c0,0,0-0.1,0-0.1c0,0,0-0.1-0.1-0.1c0,0-0.1-0.1-0.1-0.1L95,36.6l-0.1-0.1l0,0
			l-30-9.7h-0.1h-0.1h-0.1h-0.1h-0.1l-4.1,1.4c1.9-4.1,3.4-8,3.4-10.6c0-8.3-6.8-15.1-15.1-15.1c-8.3,0-15.1,6.8-15.1,15.1
			c0,3.9,3.3,11,6.7,17.2l-5,1.7L5.7,26.9H5.5H5.4l0,0c-0.1,0-0.1,0-0.2,0H5.1L5,27l-0.1,0.1l-0.1,0.1c0,0-0.1,0.1-0.1,0.2l0,0
			c0,0,0,0.1,0,0.1c0,0,0,0.1,0,0.1V87l0,0c0,0.1,0,0.1,0,0.2c0,0,0,0.1,0,0.1c0,0,0,0.1,0.1,0.1c0,0,0.1,0.1,0.1,0.1L5,87.6
			l0.1,0.1l0,0l29.8,9.8l0,0c0.2,0,0.3,0,0.5,0l29.3-9.6l29.7,9.6c0.1,0,0.2,0,0.3,0c0.4,0,0.7-0.2,0.8-0.6c0-0.1,0-0.3,0-0.4
			c0,0,0-0.1,0-0.1L95.4,37.3z M64.7,71.9c-0.5,0-0.8,0.4-0.8,0.8v13.6L36,95.6v-28l27.8-9.2v9.8c0,0.5,0.4,0.8,0.8,0.8c0,0,0,0,0,0
			c0.5,0,0.8-0.4,0.8-0.8l0,0v-9.8l28.3,9.2v28l-28.3-9.2V72.8C65.5,72.3,65.1,71.9,64.7,71.9z M6.2,58.4l11.7,3.7
			c0.1,0,0.2,0,0.2,0c0.5,0,0.8-0.4,0.8-0.8c0-0.4-0.2-0.7-0.6-0.8L6.2,56.7v-28l28.2,9.1v28.1l-9.8-3.2c-0.4-0.1-0.9,0.2-1,0.6
			c-0.1,0.4,0.1,0.8,0.5,1l10.3,3.4v27.9L6.3,86.4L6.2,58.4z M93.7,65.9l-28.3-9.2v-28l28.3,9.1V65.9z M48.5,4.1
			c7.4,0,13.4,6,13.4,13.4l0,0c0,6.6-10.6,23.6-13.4,28c-2.8-4.4-13.4-21.4-13.4-28C35.1,10.1,41.1,4.1,48.5,4.1
			C48.5,4.1,48.5,4.1,48.5,4.1z M47.8,47.5c0.2,0.2,0.4,0.4,0.7,0.4c0.3,0,0.5-0.1,0.7-0.4c3.7-5.6,7-11.4,10.1-17.3l4.6-1.5v28
			L36,65.9V37.9l5-1.7C44.3,42.2,47.6,47.1,47.8,47.5L47.8,47.5z"/>
		<path d="M57.1,17.6c0-4.8-3.8-8.6-8.6-8.6c-4.8,0-8.6,3.8-8.6,8.6c0,4.8,3.8,8.6,8.6,8.6c0,0,0,0,0,0
			C53.3,26.2,57.1,22.3,57.1,17.6z M41.6,17.6c0-3.9,3.1-7,7-7c3.9,0,7,3.1,7,7c0,3.9-3.1,7-7,7c0,0,0,0,0,0
			C44.7,24.5,41.6,21.4,41.6,17.6z"/>
	</g>
</g>
</svg>
