<?xml version="1.0" encoding="utf-8"?>
<!-- Generator: Adobe Illustrator 22.1.0, SVG Export Plug-In . SVG Version: 6.00 Build 0)  -->
<svg version="1.1" id="Layer_1" xmlns="http://www.w3.org/2000/svg" xmlns:xlink="http://www.w3.org/1999/xlink" x="0px" y="0px"
	 viewBox="0 0 100 100" style="enable-background:new 0 0 100 100;" xml:space="preserve">
<title>mobile</title>
<g id="Layer_2_1_">
	<g id="black_shapes">
		<path d="M47.1,96H17.5c-3.4,0-6.1-2.7-6.1-6.1V10.1c0-3.3,2.7-6.1,6.1-6.1h51.3c3.4,0,6.1,2.7,6.1,6.1v17.1
			c-0.1,0.4,0.3,0.8,0.7,0.9c0.4,0.1,0.8-0.3,0.9-0.7c0-0.1,0-0.1,0-0.2V10.1c0-4.2-3.4-7.6-7.6-7.6H17.5c-4.2,0-7.6,3.4-7.6,7.6
			v79.8c0,4.2,3.4,7.6,7.6,7.6h29.6c0.4,0.1,0.8-0.3,0.9-0.7c0.1-0.4-0.3-0.8-0.7-0.9C47.3,96,47.2,96,47.1,96z"/>
		<path d="M46,10.9c0.4,0.1,0.8-0.3,0.9-0.7c0.1-0.4-0.3-0.8-0.7-0.9c-0.1,0-0.1,0-0.2,0H35.7c-0.4,0.1-0.7,0.4-0.7,0.9
			c0,0.4,0.3,0.6,0.7,0.7H46z"/>
		<path d="M32,10.8c0.1,0,0.2,0,0.3,0c0.1,0,0.2,0,0.3,0c0.2-0.1,0.3-0.2,0.4-0.4c0-0.1,0.1-0.2,0.1-0.3c0-0.2-0.1-0.4-0.2-0.5
			c-0.1-0.1-0.2-0.1-0.3-0.2c-0.3-0.1-0.6-0.1-0.8,0.2c-0.1,0.1-0.2,0.3-0.2,0.5c0,0.1,0,0.2,0.1,0.3c0,0.1,0.1,0.2,0.2,0.3
			C31.9,10.7,31.9,10.8,32,10.8z"/>
		<path d="M62.6,39.1c0.1,0.1,0.2,0.1,0.3,0.2c0.1,0,0.2,0.1,0.3,0.1c0.1,0,0.2,0,0.3-0.1c0.2-0.1,0.3-0.2,0.4-0.4
			c0-0.1,0.1-0.2,0.1-0.3c0-0.2-0.1-0.4-0.2-0.5c-0.2-0.2-0.5-0.3-0.8-0.2c-0.1,0-0.2,0.1-0.3,0.2c-0.1,0.1-0.1,0.2-0.2,0.3
			c-0.1,0.2-0.1,0.4,0,0.6C62.4,39,62.5,39.1,62.6,39.1z"/>
		<path d="M71.1,28c0.4,0,0.8-0.3,0.8-0.8c0,0,0,0,0,0v-5.7c0-3.6-2.9-6.5-6.5-6.5H22.1c-3.6,0-6.5,2.9-6.5,6.5v53.6
			c0,3.6,2.9,6.5,6.5,6.5h22.8c0.4,0.1,0.8-0.3,0.9-0.7c0.1-0.4-0.3-0.8-0.7-0.9c-0.1,0-0.1,0-0.2,0H22.1c-2.7,0-4.9-2.2-4.9-4.9
			V21.5c0-2.7,2.2-4.9,4.9-4.9h43.3c2.7,0,4.9,2.2,4.9,4.9v5.7C70.3,27.6,70.6,28,71.1,28C71.1,28,71.1,28,71.1,28z"/>
		<path d="M82.5,31H57.4c-4.2,0-7.6,3.4-7.6,7.6v51.3c0,4.2,3.4,7.6,7.6,7.6h25.1c4.2,0,7.6-3.4,7.6-7.6l0,0V38.6
			C90.1,34.4,86.7,31,82.5,31z M88.6,89.9c0,3.4-2.7,6.1-6.1,6.1l0,0H57.4c-3.4,0-6.1-2.7-6.1-6.1V38.6c0-3.3,2.7-6.1,6.1-6.1h25.1
			c3.4,0,6.1,2.7,6.1,6.1V89.9z"/>
		<path d="M79.1,43.5H62c-3.6,0-6.5,2.9-6.5,6.5v31.9c0,3.6,2.9,6.5,6.5,6.5h17.1c3.6,0,6.5-2.9,6.5-6.5V50
			C85.5,46.4,82.6,43.5,79.1,43.5z M84,81.9c0,2.7-2.2,4.9-4.9,4.9h0H62c-2.7,0-4.9-2.2-4.9-4.9V50c0-2.7,2.2-4.9,4.9-4.9h17.1
			c2.7,0,4.9,2.2,4.9,4.9V81.9z"/>
		<path d="M66.5,39.4h10.3c0.4,0.1,0.8-0.3,0.9-0.7c0.1-0.4-0.3-0.8-0.7-0.9c-0.1,0-0.1,0-0.2,0H66.5c-0.4,0.1-0.7,0.4-0.7,0.9
			C65.9,39.1,66.2,39.3,66.5,39.4z"/>
		<path d="M69.8,90.4c-0.9,0-1.6,0.7-1.6,1.6s0.7,1.6,1.6,1.6s1.6-0.7,1.6-1.6l0,0C71.4,91.1,70.6,90.4,69.8,90.4z"/>
		<path d="M41,88.7c0,0.9,0.7,1.6,1.6,1.6c0.9,0,1.6-0.7,1.6-1.6c0-0.9-0.7-1.6-1.6-1.6c0,0,0,0,0,0C41.7,87.2,41,87.9,41,88.7z"/>
	</g>
</g>
</svg>
