<?xml version="1.0" encoding="utf-8"?>
<!-- Generator: Adobe Illustrator 22.1.0, SVG Export Plug-In . SVG Version: 6.00 Build 0)  -->
<svg version="1.1" id="Layer_1" xmlns="http://www.w3.org/2000/svg" xmlns:xlink="http://www.w3.org/1999/xlink" x="0px" y="0px"
	 viewBox="0 0 100 100" style="enable-background:new 0 0 100 100;" xml:space="preserve">
<title>responsive</title>
<g id="Layer_2_1_">
	<g id="black_shapes">
		<path d="M78.3,29.7c0.4,0,0.7-0.3,0.7-0.6c0,0,0,0,0,0v-4.9c0-3.1-2.5-5.5-5.5-5.5H12.9c-3.1,0-5.5,2.5-5.5,5.5v35.1
			c0,3.1,2.5,5.5,5.5,5.5h46.8c0.4,0,0.7-0.2,0.7-0.6c0-0.4-0.2-0.7-0.6-0.7c-0.1,0-0.1,0-0.2,0H12.9c-2.3,0-4.2-1.9-4.2-4.2V24.1
			c0-2.3,1.9-4.2,4.2-4.2h60.5c2.3,0,4.2,1.9,4.2,4.2V29C77.6,29.4,77.9,29.7,78.3,29.7C78.3,29.7,78.3,29.7,78.3,29.7z"/>
		<path d="M62.1,87.9c0,0-5.3-0.2-7.1-4.5c-1-2.5-1.5-5.1-1.6-7.8l0,0h6.3c0.4,0,0.7-0.2,0.7-0.6c0-0.4-0.2-0.7-0.6-0.7
			c-0.1,0-0.1,0-0.2,0H9c-2.9,0-5.2-2.3-5.2-5.2V17.4c0-2.9,2.3-5.2,5.2-5.2c0,0,0,0,0,0h68.3c2.9,0,5.2,2.3,5.2,5.2V29
			c0,0.4,0.2,0.7,0.6,0.7c0.4,0,0.7-0.2,0.7-0.6c0-0.1,0-0.1,0-0.2V17.3c0-3.6-2.9-6.5-6.5-6.5H9c-3.6,0-6.5,2.9-6.5,6.5V69
			c0,3.6,2.9,6.5,6.5,6.5h23.1l0,0c0,2.7-0.6,5.3-1.6,7.8c-1.9,4.3-7.1,4.5-7.1,4.5c-0.4,0-0.6,0.3-0.6,0.7c0,0,0,0,0,0
			c0,0.4,0.3,0.6,0.7,0.6h38.7c0.4,0,0.6-0.4,0.6-0.7C62.7,88.1,62.4,87.9,62.1,87.9L62.1,87.9z M28,87.9c1.6-0.9,2.9-2.3,3.7-4
			c1.1-2.7,1.6-5.5,1.7-8.4l0,0h18.7l0,0c0,2.9,0.6,5.7,1.7,8.4c0.7,1.7,2,3.1,3.7,4H28z"/>
		<circle cx="42.7" cy="69.5" r="1.3"/>
		<path d="M73.7,39.2c0.1,0,0.2,0,0.2,0c0.1,0,0.2,0,0.3,0c0.1,0,0.1-0.1,0.2-0.1c0.1-0.1,0.1-0.1,0.1-0.2c0-0.1,0.1-0.2,0.1-0.3
			c0-0.1,0-0.2-0.1-0.3c0-0.1-0.1-0.2-0.1-0.2c-0.2-0.2-0.5-0.2-0.7-0.1c-0.1,0-0.2,0.1-0.2,0.1c-0.1,0.1-0.1,0.1-0.1,0.2
			c0,0.1,0,0.2,0,0.3c0,0.2,0.1,0.3,0.2,0.5C73.5,39.1,73.6,39.1,73.7,39.2z"/>
		<path d="M91,32.3H69.5c-3.6,0-6.5,2.9-6.5,6.5v43.9c0,3.6,2.9,6.5,6.5,6.5H91c3.6,0,6.5-2.9,6.5-6.5l0,0V38.8
			C97.5,35.2,94.6,32.3,91,32.3z M96.2,82.7c0,2.9-2.3,5.2-5.2,5.2l0,0H69.5c-2.9,0-5.2-2.3-5.2-5.2V38.8c0-2.9,2.3-5.2,5.2-5.2H91
			c2.9,0,5.2,2.3,5.2,5.2V82.7z"/>
		<path d="M88.1,43H73.4c-3.1,0-5.5,2.5-5.5,5.5v27.3c0,3.1,2.5,5.5,5.5,5.5h14.6c3.1,0,5.5-2.5,5.5-5.5V48.5
			C93.6,45.5,91.1,43,88.1,43z M92.3,75.9c0,2.3-1.9,4.2-4.2,4.2l0,0H73.4c-2.3,0-4.2-1.9-4.2-4.2V48.5c0-2.3,1.9-4.2,4.2-4.2h14.6
			c2.3,0,4.2,1.9,4.2,4.2V75.9z"/>
		<path d="M77.3,39.4h8.8c0.4,0,0.7-0.2,0.7-0.6s-0.2-0.7-0.6-0.7c-0.1,0-0.1,0-0.2,0h-8.8c-0.4,0-0.6,0.4-0.6,0.7
			C76.8,39.2,77,39.4,77.3,39.4z"/>
		<path d="M79.6,82.9c-0.7,0-1.4,0.6-1.4,1.4s0.6,1.4,1.4,1.4s1.4-0.6,1.4-1.4l0,0C80.9,83.5,80.3,82.9,79.6,82.9z"/>
	</g>
</g>
</svg>
