<?xml version="1.0" encoding="utf-8"?>
<!-- Generator: Adobe Illustrator 22.1.0, SVG Export Plug-In . SVG Version: 6.00 Build 0)  -->
<svg version="1.1" id="Layer_1" xmlns="http://www.w3.org/2000/svg" xmlns:xlink="http://www.w3.org/1999/xlink" x="0px" y="0px"
	 viewBox="0 0 100 100" style="enable-background:new 0 0 100 100;" xml:space="preserve">
<title>search</title>
<g id="Layer_2_1_">
	<g id="black_shapes">
		<path d="M95.9,84.4L95.9,84.4L76.4,64.9c0,0-3.6-2.7-7.4-1.1l0,0l-6.4-6.4L62,56.9c11.4-14.5,8.9-35.5-5.6-46.8S21,1.2,9.6,15.7
			s-8.9,35.5,5.6,46.8c12.4,9.8,30,9.5,42.1-0.7l6.8,6.9l0.1,0.1c-0.8,2.3-0.4,4.8,0.8,6.9l0.1,0.1c0.2,0.2,15.5,15.9,18.2,18.5
			c1.6,1.7,3.8,2.7,6.1,2.7l0,0c2.3-0.1,4.4-1.1,5.9-2.7C98.8,90.8,97.2,86.3,95.9,84.4z M4.1,36.3c0-17.6,14.2-31.8,31.8-31.8
			s31.8,14.2,31.8,31.8S53.4,68.1,35.9,68.1c0,0,0,0,0,0C18.3,68.1,4.1,53.9,4.1,36.3z M58.4,60.8c0.9-0.9,1.8-1.8,2.6-2.8l0.5,0.4
			l6.1,6.1c-1.1,0.7-2,1.7-2.7,2.8L58.4,60.8z M94.3,93.2c-1.2,1.4-3,2.2-4.9,2.3c-1.9-0.1-3.7-0.9-5-2.3
			c-2.6-2.6-17.2-17.5-18.2-18.4c-1.6-2.6-1.2-6,1.1-8c2.1-2.2,5.6-2.5,8.1-0.7l19.3,19.3C95.1,85.8,97.6,89.9,94.3,93.2z"/>
		<path d="M35.9,13c-12.9,0-23.4,10.5-23.4,23.4s10.5,23.4,23.4,23.4s23.4-10.5,23.4-23.4c0,0,0,0,0,0C59.2,23.4,48.8,13,35.9,13z
			 M35.9,58.2C23.8,58.2,14,48.4,14,36.3s9.8-21.9,21.9-21.9s21.9,9.8,21.9,21.9C57.7,48.4,47.9,58.2,35.9,58.2z"/>
		<path d="M42.4,20.1c-1.5-0.6-3-1-4.6-1.2c-0.4,0-0.8,0.2-0.8,0.7c0,0,0,0,0,0c0,0.4,0.2,0.8,0.7,0.8c0,0,0,0,0,0
			c5,0.6,9.5,3.5,12,7.9c0.1,0.2,0.4,0.4,0.6,0.4c0.1,0,0.3,0,0.4-0.1c0.4-0.2,0.5-0.7,0.3-1c0,0,0,0,0,0
			C49.1,24.2,46,21.5,42.4,20.1z"/>
		<path d="M27.8,22.4c0.1,0,0.3,0,0.4-0.1c1.6-0.9,3.3-1.5,5.1-1.8c0.4-0.1,0.7-0.4,0.6-0.9c0,0,0,0,0,0C33.8,19.2,33.4,19,33,19
			c0,0,0,0,0,0c-2,0.3-3.9,1-5.6,2c-0.4,0.2-0.5,0.7-0.3,1C27.3,22.3,27.5,22.4,27.8,22.4z"/>
		<path d="M33.9,51.6c-1.4-0.2-2.9-0.5-4.2-1.1c-3.3-1.4-6-3.8-7.7-6.9c-0.2-0.3-0.7-0.4-1-0.2c-0.3,0.2-0.4,0.6-0.3,1
			c2.7,4.8,7.6,8,13.1,8.7h0.1c0.4-0.1,0.6-0.5,0.5-0.9C34.4,51.9,34.2,51.7,33.9,51.6z"/>
		<path d="M43.5,49.6c-1.6,0.9-3.3,1.5-5.1,1.8c-0.4,0.1-0.7,0.4-0.6,0.9c0,0,0,0,0,0c0.1,0.4,0.4,0.6,0.7,0.6h0.1
			c2-0.3,3.9-1,5.6-2c0.4-0.2,0.5-0.6,0.3-1c0,0,0,0,0,0C44.3,49.6,43.9,49.4,43.5,49.6C43.5,49.6,43.5,49.6,43.5,49.6z"/>
	</g>
</g>
</svg>
