<?xml version="1.0" encoding="utf-8"?>
<!-- Generator: Adobe Illustrator 22.1.0, SVG Export Plug-In . SVG Version: 6.00 Build 0)  -->
<svg version="1.1" id="Layer_1" xmlns="http://www.w3.org/2000/svg" xmlns:xlink="http://www.w3.org/1999/xlink" x="0px" y="0px"
	 viewBox="0 0 100 100" style="enable-background:new 0 0 100 100;" xml:space="preserve">
<title>secure</title>
<g id="Layer_2_1_">
	<g id="black_shapes">
		<path d="M70.8,42.8c0,0,0-0.1,0-0.1V24.1c0-6.1-2.5-11.9-7-16.1C59.6,4,53.9,2.1,48.2,2.6c-10.8,1-19,10-19,20.8v18.8
			c0,0.2,0.1,0.3,0.2,0.5c-13,11.4-14.3,31.2-2.8,44.2s31.2,14.3,44.2,2.8c13-11.4,14.3-31.2,2.8-44.2
			C72.7,44.5,71.8,43.6,70.8,42.8L70.8,42.8z M30.7,23.4c0.1-10,7.7-18.3,17.7-19.2c5.3-0.5,10.5,1.3,14.4,4.9
			c4.1,3.9,6.5,9.3,6.5,14.9v17.4c-1-0.8-2-1.5-3.1-2.2V24c0-7-4.4-13.2-11-15.3C46.6,5.8,37.5,10.5,34.7,19c-0.5,1.6-0.8,3.3-0.8,5
			v15.3c-1.1,0.7-2.1,1.4-3.2,2.2L30.7,23.4z M64.5,38.4c-9.1-4.8-20-4.8-29.1,0V24c0-8.1,6.6-14.6,14.6-14.6c1.6,0,3.1,0.3,4.6,0.7
			c6,2,9.9,7.6,9.9,13.8V38.4z M50,95.9c-16.4,0-29.7-13.3-29.7-29.7S33.6,36.4,50,36.4s29.7,13.3,29.7,29.7l0,0
			C79.7,82.5,66.4,95.9,50,95.9z"/>
		<path d="M33.1,62.9c0.1,0,0.1,0,0.2,0c0.4,0,0.7-0.2,0.8-0.6c1.7-6.3,5.5-10.1,11.2-11.2c0.4-0.1,0.7-0.5,0.6-0.9
			c-0.1-0.4-0.5-0.7-0.9-0.6c-6.4,1.2-10.5,5.4-12.4,12.4C32.4,62.3,32.6,62.8,33.1,62.9C33.1,62.9,33.1,62.9,33.1,62.9z"/>
		<path d="M66.9,69.4c-0.4-0.1-0.8,0.1-1,0.5c0,0,0,0,0,0c-1.7,6.3-5.5,10.1-11.2,11.2c-0.4,0.1-0.7,0.5-0.6,1
			c0.1,0.3,0.4,0.6,0.7,0.6H55c6.4-1.2,10.5-5.4,12.4-12.4C67.6,69.9,67.3,69.5,66.9,69.4C66.9,69.4,66.9,69.4,66.9,69.4z"/>
		<path d="M54.4,50.8c6.3,1.7,10.1,5.5,11.2,11.2c0.1,0.4,0.4,0.6,0.8,0.6h0.2c0.4-0.1,0.7-0.5,0.6-0.9c-1.2-6.4-5.4-10.6-12.3-12.4
			c-0.4-0.1-0.9,0.1-1,0.5c0,0,0,0,0,0C53.7,50.3,54,50.7,54.4,50.8C54.4,50.8,54.4,50.8,54.4,50.8z"/>
		<path d="M45.6,81.4c-6.3-1.7-10.1-5.5-11.2-11.2c-0.1-0.4-0.5-0.7-0.9-0.6c-0.4,0.1-0.7,0.5-0.6,0.9l0,0
			C34,76.9,38.2,81.1,45.2,83c0.1,0,0.1,0,0.2,0c0.4,0,0.8-0.4,0.8-0.8C46.2,81.8,45.9,81.5,45.6,81.4L45.6,81.4z"/>
		<path d="M50,54.8c0.4,0,0.8-0.4,0.8-0.8v-8.3c0.1-0.4-0.3-0.8-0.7-0.9c-0.4-0.1-0.8,0.3-0.9,0.7c0,0.1,0,0.1,0,0.2V54
			C49.2,54.4,49.5,54.8,50,54.8C50,54.8,50,54.8,50,54.8z"/>
		<path d="M50,78c-0.4,0-0.8,0.3-0.8,0.8c0,0,0,0,0,0V87c0.1,0.4,0.5,0.8,0.9,0.7c0.4,0,0.7-0.3,0.7-0.7v-8.3
			C50.8,78.3,50.4,78,50,78C50,78,50,78,50,78z"/>
		<path d="M70.1,65h-8.3c-0.4-0.1-0.8,0.3-0.9,0.7c-0.1,0.4,0.3,0.8,0.7,0.9c0.1,0,0.1,0,0.2,0h8.3c0.4-0.1,0.8-0.5,0.7-0.9
			C70.7,65.3,70.4,65,70.1,65z"/>
		<path d="M37.8,65.8c0-0.4-0.3-0.8-0.8-0.8c0,0,0,0,0,0h-7.1c-0.4-0.1-0.8,0.3-0.9,0.7c-0.1,0.4,0.3,0.8,0.7,0.9c0.1,0,0.1,0,0.2,0
			H37C37.5,66.6,37.8,66.2,37.8,65.8z"/>
		<circle cx="50" cy="66.1" r="1.2"/>
		<path d="M50,63.3c-1.6,0-2.8,1.3-2.8,2.8c0,1.6,1.3,2.8,2.8,2.8c1.6,0,2.8-1.3,2.8-2.8C52.8,64.6,51.6,63.3,50,63.3z M50,67.4
			c-0.7,0-1.2-0.6-1.1-1.2c0-0.7,0.6-1.2,1.2-1.1c0.6,0,1.1,0.5,1.1,1.2C51.2,66.8,50.7,67.4,50,67.4C50,67.4,50,67.4,50,67.4z"/>
	</g>
</g>
</svg>
