<?xml version="1.0" encoding="utf-8"?>
<!-- Generator: Adobe Illustrator 22.1.0, SVG Export Plug-In . SVG Version: 6.00 Build 0)  -->
<svg version="1.1" id="Layer_1" xmlns="http://www.w3.org/2000/svg" xmlns:xlink="http://www.w3.org/1999/xlink" x="0px" y="0px"
	 viewBox="0 0 100 100" style="enable-background:new 0 0 100 100;" xml:space="preserve">
<title>user</title>
<g id="Layer_2_1_">
	<g id="black_shapes">
		<path d="M50,53.2c11.8,0,21.3-11.4,21.3-25.4S61.8,2.5,50,2.5S28.7,13.9,28.7,27.9S38.3,53.2,50,53.2z M50,4.1
			c10.9,0,19.7,10.7,19.7,23.8S60.8,51.7,50,51.7S30.3,41,30.3,27.9S39.1,4.1,50,4.1z"/>
		<path d="M86.1,71.7c-0.8-3.9-4.1-6.7-9.4-7.8c-4.4-1-13.5-7-13.5-7.1c-0.3-0.2-0.8-0.1-1.1,0.2c0,0,0,0,0,0
			c-0.2,0.4-0.1,0.8,0.2,1.1c0.4,0.3,9.4,6.2,14,7.3c2.7,0.6,7.3,2.3,8.1,6.7c0.7,4.6,0.9,9.2,0.7,13.8C85,86.5,83,89,75.9,91.6
			c-6.8,2.5-19.1,4.4-25.6,4.4c-4.8,0-19.5-1.9-26.3-4.4c-7.1-2.6-9.1-5-9.3-5.8c-0.2-4.6,0.1-9.3,0.7-13.9c0.8-4.4,5.5-6,8.1-6.7
			c4.6-1.1,13.7-7,14-7.3c0.4-0.2,0.5-0.7,0.2-1.1c-0.2-0.4-0.7-0.5-1.1-0.2c-0.1,0.1-9.2,6.1-13.5,7.1C18,65,14.7,67.8,14,71.7
			c-0.7,3.6-1.1,13-0.7,14.5c0.4,1.5,3.3,4.3,10.3,6.9c6.9,2.6,22,4.5,26.8,4.5c6.6,0,19.1-1.9,26.1-4.5c7-2.6,9.8-5.2,10.2-6.9
			C87.1,84.7,86.7,75.3,86.1,71.7z"/>
	</g>
</g>
</svg>
