<?xml version="1.0" encoding="utf-8"?>
<!-- Generator: Adobe Illustrator 22.1.0, SVG Export Plug-In . SVG Version: 6.00 Build 0)  -->
<svg version="1.1" id="Layer_1" xmlns="http://www.w3.org/2000/svg" xmlns:xlink="http://www.w3.org/1999/xlink" x="0px" y="0px"
	 viewBox="0 0 100 100" style="enable-background:new 0 0 100 100;" xml:space="preserve">
<title>webpage</title>
<g id="Layer_2_1_">
	<g id="black_shapes">
		<path d="M46.1,71.8H30.5c-0.4,0.1-0.7,0.4-0.7,0.9c0,0.3,0.3,0.6,0.7,0.7h15.5c0.4,0.1,0.8-0.2,0.9-0.7c0.1-0.4-0.2-0.8-0.7-0.9
			C46.2,71.8,46.1,71.8,46.1,71.8z"/>
		<path d="M46.8,78.1c0-0.4-0.3-0.8-0.8-0.8c0,0,0,0,0,0H30.3c-0.4,0.1-0.7,0.4-0.7,0.9c0,0.3,0.3,0.6,0.7,0.7h15.8
			C46.5,78.9,46.8,78.6,46.8,78.1C46.8,78.2,46.8,78.2,46.8,78.1z"/>
		<path d="M30.3,83c-0.4,0.1-0.7,0.4-0.7,0.9c0,0.3,0.3,0.6,0.7,0.7h9c0.4,0.1,0.8-0.2,0.9-0.7c0.1-0.4-0.2-0.8-0.7-0.9
			c-0.1,0-0.1,0-0.2,0H30.3z"/>
		<path d="M96.7,7.6H3.3c-0.4,0-0.8,0.3-0.8,0.8c0,0,0,0,0,0v83.3c0,0.4,0.3,0.8,0.7,0.8c0,0,0,0,0,0h4.5c0.4,0.1,0.8-0.2,0.9-0.7
			c0.1-0.4-0.2-0.8-0.7-0.9c-0.1,0-0.1,0-0.2,0H4V9.1h26.6V20H8.9c-0.4,0.1-0.7,0.4-0.7,0.9c0,0.3,0.3,0.6,0.7,0.7H90
			c0.4,0.1,0.8-0.2,0.9-0.7c0.1-0.4-0.2-0.8-0.7-0.9c-0.1,0-0.1,0-0.2,0H32.2V9.1H96v15c-0.1,0.4,0.2,0.8,0.7,0.9
			c0.4,0.1,0.8-0.2,0.9-0.7c0-0.1,0-0.1,0-0.2V8.3C97.5,7.9,97.2,7.6,96.7,7.6C96.7,7.6,96.7,7.6,96.7,7.6z"/>
		<path d="M96.7,30.1c-0.4,0-0.8,0.3-0.8,0.8v60.1H14.5c-0.4,0.1-0.7,0.4-0.7,0.9c0,0.3,0.3,0.6,0.7,0.7h82.2c0.4,0,0.8-0.3,0.8-0.7
			c0,0,0,0,0,0V30.8C97.5,30.4,97.2,30.1,96.7,30.1C96.7,30.1,96.7,30.1,96.7,30.1z"/>
		<path d="M24.8,14.1c0-0.9-0.7-1.6-1.6-1.6c-0.9,0-1.6,0.7-1.6,1.6s0.7,1.6,1.6,1.6c0,0,0,0,0,0C24.2,15.6,24.8,14.9,24.8,14.1z"/>
		<path d="M18.4,14.1c0-0.9-0.7-1.6-1.6-1.6c-0.9,0-1.6,0.7-1.6,1.6c0,0.9,0.7,1.6,1.6,1.6c0,0,0,0,0,0C17.7,15.6,18.4,15,18.4,14.1
			z"/>
		<path d="M12,14.1c0-0.9-0.7-1.6-1.6-1.6s-1.6,0.7-1.6,1.6c0,0.9,0.7,1.6,1.6,1.6c0,0,0,0,0,0C11.3,15.6,12,15,12,14.1z"/>
		<path d="M38.2,13.2c-0.4,0.1-0.7,0.4-0.7,0.9c0,0.3,0.3,0.6,0.7,0.7H90c0.4,0.1,0.8-0.2,0.9-0.7c0.1-0.4-0.2-0.8-0.7-0.9
			c-0.1,0-0.1,0-0.2,0H38.2z"/>
		<path d="M11.1,40.6h76.6c1.7,0,3-1.4,3-3l0,0v-6.8c0-1.7-1.4-3-3-3H11.1c-1.7,0-3,1.3-3,3v6.8C8.1,39.3,9.5,40.6,11.1,40.6z
			 M9.7,30.8c0-0.8,0.7-1.5,1.5-1.5h76.6c0.8,0,1.5,0.7,1.5,1.5c0,0,0,0,0,0v6.8c0,0.8-0.7,1.5-1.5,1.5c0,0,0,0,0,0H11.1
			c-0.8,0-1.5-0.7-1.5-1.5c0,0,0,0,0,0L9.7,30.8z"/>
		<path d="M26.5,83.8V72.5c0-1.7-1.4-3-3-3H12.3c-1.7,0-3,1.3-3,3v11.3c0,1.7,1.3,3,3,3h11.3C25.2,86.8,26.5,85.4,26.5,83.8
			L26.5,83.8z M10.8,83.8V72.5c0-0.8,0.7-1.5,1.5-1.5h11.3c0.8,0,1.5,0.7,1.5,1.5c0,0,0,0,0,0v11.3c0,0.8-0.7,1.5-1.5,1.5
			c0,0,0,0,0,0H12.3C11.4,85.3,10.8,84.6,10.8,83.8C10.8,83.8,10.8,83.8,10.8,83.8z"/>
		<path d="M90,71.8H73.7c-0.4,0.1-0.7,0.4-0.7,0.9c0,0.3,0.3,0.6,0.7,0.7H90c0.4,0.1,0.8-0.2,0.9-0.7c0.1-0.4-0.2-0.8-0.7-0.9
			C90.1,71.8,90,71.8,90,71.8z"/>
		<path d="M90.7,78.1c0-0.4-0.3-0.8-0.8-0.8c0,0,0,0,0,0H74.2c-0.4,0.1-0.7,0.4-0.7,0.9c0,0.3,0.3,0.6,0.7,0.7H90
			C90.4,78.9,90.7,78.6,90.7,78.1C90.7,78.2,90.7,78.2,90.7,78.1z"/>
		<path d="M74.2,83c-0.4,0.1-0.7,0.4-0.7,0.9c0,0.3,0.3,0.6,0.7,0.7h9c0.4,0.1,0.8-0.2,0.9-0.7c0.1-0.4-0.2-0.8-0.7-0.9
			c-0.1,0-0.1,0-0.2,0H74.2z"/>
		<path d="M55.1,69.5c-1.7,0-3,1.3-3,3v11.3c0,1.7,1.3,3,3,3h11.3c1.7,0,3-1.4,3-3l0,0V72.5c0-1.7-1.4-3-3-3H55.1z M67.8,72.5v11.3
			c0,0.8-0.7,1.5-1.5,1.5c0,0,0,0,0,0H55.1c-0.8,0-1.5-0.7-1.5-1.5c0,0,0,0,0,0V72.5c0-0.8,0.7-1.5,1.5-1.5h11.3
			C67.1,71,67.8,71.7,67.8,72.5C67.8,72.5,67.8,72.5,67.8,72.5z"/>
		<path d="M8.1,61.3c0,1.7,1.3,3,3,3h76.6c1.7,0,3-1.4,3-3l0,0V47.7c0-1.7-1.4-3-3-3H11.1c-1.7,0-3,1.3-3,3V61.3z M9.7,47.7
			c0-0.8,0.7-1.5,1.5-1.5h76.6c0.8,0,1.5,0.7,1.5,1.5c0,0,0,0,0,0v13.5c0,0.8-0.7,1.5-1.5,1.5c0,0,0,0,0,0H11.1
			c-0.8,0-1.5-0.7-1.5-1.5c0,0,0,0,0,0L9.7,47.7z"/>
	</g>
</g>
</svg>
